<svg width="45" height="50" viewBox="0 0 45 50" fill="none" xmlns="http://www.w3.org/2000/svg">
<path d="M17.84 49C17.325 49 16.9075 48.5825 16.9075 48.0675C16.9075 46.339 19.9696 39.8831 20.5817 34.8301C20.6476 34.2867 19.8615 34.0849 19.5725 34.5498C17.9958 37.0863 15.8456 40.6359 10.6068 40.512L10.5051 40.5152C10.4372 40.5176 10.3693 40.5199 10.3008 40.5199C4.61166 40.5199 0 35.4499 0 29.1959C0 22.9419 4.61166 17.8719 10.3008 17.8719C11.4114 17.8719 12.4808 18.066 13.483 18.4239C13.7167 18.5074 13.9551 18.2346 13.8388 18.0153C12.951 16.3424 12.4416 14.3975 12.4416 12.3209C12.4416 6.15598 16.875 1 22.5 1C28.125 1 32.5584 6.15598 32.5584 12.3209C32.5584 14.3975 32.049 16.3424 31.1612 18.0153C31.0449 18.2346 31.2833 18.5074 31.517 18.4239C32.5192 18.066 33.5886 17.8719 34.6992 17.8719C40.3883 17.8719 45 22.9419 45 29.1959C45 35.4499 40.3883 40.5199 34.6992 40.5199C34.6307 40.5199 34.5628 40.5176 34.4949 40.5152L34.3932 40.512C29.1544 40.6359 27.0042 37.0863 25.4275 34.5498C25.1385 34.0849 24.3524 34.2867 24.4183 34.8301C25.0304 39.883 28.0925 46.339 28.0925 48.0675C28.0925 48.5825 27.675 49 27.16 49H17.84Z" fill="#211C1D"/>
</svg>
