<svg width="26" height="26" viewBox="0 0 26 26" fill="none" xmlns="http://www.w3.org/2000/svg">
<path d="M18.1343 10.3282L17.7546 11.7533L19.226 11.8531C21.9902 12.0407 24.1751 14.3438 24.1751 17.1562C24.1751 20.0918 21.7953 22.4716 18.8597 22.4716C16.7675 22.4716 14.9554 21.2631 14.0875 19.5005L12.9975 17.2868L11.9075 19.5005C11.0397 21.2631 9.22752 22.4716 7.13537 22.4716C4.19974 22.4716 1.81995 20.0918 1.81995 17.1562C1.81995 14.3438 4.00488 12.0407 6.76901 11.8531L8.24047 11.7533L7.86078 10.3282C7.74445 9.89158 7.6821 9.43166 7.6821 8.95531C7.6821 6.01969 10.0619 3.63989 12.9975 3.63989C15.9331 3.63989 18.3129 6.01969 18.3129 8.95531C18.3129 9.43166 18.2506 9.89158 18.1343 10.3282Z" fill="#2C2C2C"/>
</svg>
