<svg width="100" height="100" viewBox="0 0 100 100" fill="none" xmlns="http://www.w3.org/2000/svg">
<path d="M83.7431 20.26C75.964 12.3636 64.9602 12.5568 56.2301 17.5705C56.3575 18.0752 56.4251 18.6036 56.4251 19.1478C56.4251 22.6965 53.5485 25.5732 49.9999 25.5732C46.4513 25.5732 43.5747 22.6965 43.5747 19.1478C43.5747 18.6036 43.6423 18.0752 43.7697 17.5705C35.0397 12.5567 24.0357 12.3637 16.2567 20.26C12.2559 24.3212 10.4033 29.3273 10.2929 34.5187C13.1021 35.2055 15.1868 37.7395 15.1868 40.7604C15.1868 42.8398 14.1991 44.6885 12.6673 45.8628C13.8542 48.5771 15.4577 51.1853 17.415 53.5701C25.4167 63.3199 36.0674 71.8383 46.4403 79.335C47.4588 78.6565 48.6821 78.2611 49.9976 78.2611C51.3142 78.2611 52.5383 78.6571 53.5573 79.3365C63.931 71.8395 74.5825 63.3206 82.5848 53.5701C84.5421 51.1853 86.1456 48.5771 87.3325 45.8628C85.8007 44.6885 84.813 42.8398 84.813 40.7604C84.813 37.7395 86.8977 35.2055 89.7069 34.5187C89.5965 29.3273 87.7439 24.3212 83.7431 20.26Z" fill="#EC2000"/>
<path d="M48.2298 21.4711C47.7105 21.0749 47.328 20.5084 47.1655 19.8551C47.1656 19.8551 47.1655 19.855 47.1655 19.8551C47.1092 19.6286 47.0794 19.3917 47.0794 19.1478C47.0794 17.5348 48.387 16.2272 49.9999 16.2272C51.6129 16.2272 52.9205 17.5348 52.9205 19.1478C52.9205 19.8633 52.6632 20.5187 52.2361 21.0266C51.767 21.5844 51.0929 21.9642 50.3298 22.05C50.2215 22.0622 50.1115 22.0685 49.9999 22.0685C49.8884 22.0685 49.7783 22.0622 49.67 22.05C49.1322 21.9896 48.6386 21.7831 48.2298 21.4711Z" fill="#EC2000"/>
<path d="M49.9976 81.7659C50.0499 81.7659 50.1018 81.7673 50.1533 81.77C51.694 81.8509 52.9182 83.1257 52.9182 84.6865C52.9182 86.2995 51.6106 87.6071 49.9977 87.6071C48.3847 87.6071 47.0771 86.2995 47.0771 84.6865C47.0771 83.0735 48.3847 81.7659 49.9976 81.7659Z" fill="#EC2000"/>
<path d="M88.6727 42.1572C88.4463 41.7423 88.3177 41.2664 88.3177 40.7604C88.3177 39.8124 88.7694 38.9698 89.4692 38.4363C89.9602 38.062 90.5733 37.8398 91.2383 37.8398C92.8512 37.8398 94.1588 39.1474 94.1588 40.7604C94.1588 42.3734 92.8512 43.681 91.2383 43.681C90.1312 43.681 89.168 43.0651 88.6727 42.1572Z" fill="#EC2000"/>
<path d="M8.76162 43.681C10.3746 43.681 11.6822 42.3734 11.6822 40.7604C11.6822 39.1474 10.3746 37.8398 8.76162 37.8398C7.14864 37.8398 5.84106 39.1474 5.84106 40.7604C5.84106 42.3734 7.14864 43.681 8.76162 43.681Z" fill="#EC2000"/>
<path fill-rule="evenodd" clip-rule="evenodd" d="M94.3913 35.1607C94.4521 28.6841 92.2806 22.264 87.0689 16.9737C77.2526 7.00924 63.7401 7.73368 53.5124 13.7668C52.5029 13.1065 51.2963 12.7226 50 12.7226C48.7037 12.7226 47.4971 13.1065 46.4876 13.7668C36.2599 7.73357 22.7473 7.00937 12.9311 16.9737C7.71938 22.264 5.54785 28.6841 5.6087 35.1607C3.65534 36.2629 2.33643 38.3577 2.33643 40.7606C2.33643 44.107 4.89469 46.856 8.16217 47.1583C9.56458 50.5333 11.4909 53.7209 13.8058 56.5416C22.2013 66.7712 33.2694 75.5906 43.7539 83.1642C43.6353 83.6522 43.5725 84.1621 43.5725 84.6866C43.5725 88.2353 46.4491 91.112 49.9977 91.112C53.5463 91.112 56.4229 88.2353 56.4229 84.6866C56.4229 84.1631 56.3603 83.6542 56.2422 83.167C66.7278 75.5928 77.7976 66.7724 86.1941 56.5416C88.5091 53.7209 90.4354 50.5333 91.8378 47.1583C95.1053 46.856 97.6635 44.107 97.6635 40.7606C97.6635 38.3577 96.3446 36.2629 94.3913 35.1607ZM56.2302 17.5707C56.2302 17.5707 56.2302 17.5706 56.2302 17.5707C64.9603 12.5569 75.964 12.3636 83.7431 20.2601C83.7431 20.2601 83.7432 20.2601 83.7431 20.2601C87.4939 24.0674 89.3566 28.7054 89.6658 33.5478C89.6864 33.8706 89.7001 34.1943 89.707 34.5188C86.8978 35.2056 84.8131 37.7396 84.8131 40.7606C84.8131 42.58 85.5693 44.2228 86.7846 45.3918C86.9581 45.5588 87.1411 45.7161 87.3326 45.8629C86.1456 48.5771 84.5422 51.1854 82.5849 53.5703C74.5826 63.3207 63.931 71.8397 53.5574 79.3367C52.5384 78.6573 51.3143 78.2613 49.9977 78.2613C48.6821 78.2613 47.4589 78.6567 46.4404 79.3351C36.0674 71.8385 25.4168 63.3201 17.4151 53.5703C16.4974 52.4521 15.6574 51.2848 14.9018 50.0805C14.0457 48.7163 13.2978 47.3046 12.6673 45.863C12.6673 45.863 12.6673 45.8629 12.6673 45.863C14.1992 44.6886 15.1869 42.8398 15.1869 40.7604C15.1869 40.5624 15.1779 40.3664 15.1604 40.1729C15.111 39.6286 14.9938 39.104 14.8173 38.6074C14.0993 36.5881 12.3999 35.0339 10.2929 34.5188C10.4033 29.3275 12.2559 24.3213 16.2568 20.2601C24.0358 12.3637 35.0397 12.5567 43.7697 17.5705C43.6424 18.0752 43.5747 18.6037 43.5747 19.148C43.5747 19.3423 43.5834 19.5346 43.6003 19.7246C43.6605 20.4018 43.8258 21.0487 44.0797 21.649C45.0551 23.9551 47.3386 25.5732 49.9999 25.5732C53.5485 25.5732 56.4252 22.6965 56.4252 19.1479C56.4252 18.9771 56.4185 18.8078 56.4054 18.6403C56.3768 18.2743 56.3176 17.9169 56.2302 17.5707ZM48.2299 21.4712C47.7106 21.0749 47.3281 20.5085 47.1656 19.8551C47.1093 19.6286 47.0794 19.3918 47.0794 19.1479C47.0794 17.5349 48.387 16.2273 50 16.2273C51.613 16.2273 52.9205 17.5349 52.9205 19.1479C52.9205 19.8634 52.6632 20.5187 52.2362 21.0266C51.767 21.5845 51.0929 21.9643 50.3299 22.0501C50.2216 22.0622 50.1115 22.0685 50 22.0685C49.8884 22.0685 49.7783 22.0622 49.67 22.0501C49.1322 21.9896 48.6387 21.7831 48.2299 21.4712ZM50.1534 81.77C50.1018 81.7673 50.0499 81.7659 49.9977 81.7659C48.3847 81.7659 47.0771 83.0735 47.0771 84.6865C47.0771 86.2995 48.3847 87.6071 49.9977 87.6071C51.6107 87.6071 52.9183 86.2995 52.9183 84.6865C52.9183 83.1257 51.694 81.8509 50.1534 81.77ZM88.6727 42.1572C88.4463 41.7423 88.3177 41.2664 88.3177 40.7604C88.3177 39.8125 88.7694 38.9699 89.4693 38.4363C89.9602 38.0621 90.5733 37.8398 91.2383 37.8398C92.8513 37.8398 94.1589 39.1474 94.1589 40.7604C94.1589 42.3735 92.8513 43.6811 91.2383 43.6811C90.1313 43.6811 89.1681 43.0651 88.6727 42.1572ZM11.6822 40.7604C11.6822 42.3735 10.3746 43.6811 8.76166 43.6811C7.14868 43.6811 5.8411 42.3735 5.8411 40.7604C5.8411 39.1474 7.14868 37.8398 8.76166 37.8398C10.3746 37.8398 11.6822 39.1474 11.6822 40.7604Z" fill="white"/>
<path d="M10.293 34.5189C10.293 34.5189 10.293 34.5189 10.293 34.5189Z" fill="#EC2000"/>
<path d="M43.7698 17.5707C43.7698 17.5707 43.7698 17.5707 43.7698 17.5707Z" fill="#EC2000"/>
<path fill-rule="evenodd" clip-rule="evenodd" d="M0 40.7607C0 37.9908 1.28605 35.5234 3.28688 33.9199C3.50211 27.3033 5.92167 20.7597 11.2667 15.334C21.6633 4.78057 35.7751 5.28808 46.5235 11.1037C47.5906 10.6421 48.7672 10.3862 50 10.3862C51.2328 10.3862 52.4094 10.6421 53.4766 11.1038C64.2249 5.28819 78.3366 4.78042 88.7333 15.334C94.0783 20.7597 96.4979 27.3033 96.7131 33.9199C98.714 35.5234 100 37.9908 100 40.7607C100 44.8241 97.2353 48.2397 93.4833 49.2318C92.0484 52.3853 90.1872 55.3592 88.0002 58.0241C79.7149 68.1193 68.9418 76.8125 58.748 84.2361C58.7556 84.3855 58.7594 84.5357 58.7594 84.6867C58.7594 89.5258 54.8367 93.4486 49.9977 93.4486C45.1588 93.4486 41.236 89.5258 41.236 84.6867C41.236 84.5346 41.2399 84.3833 41.2476 84.2328C31.0552 76.81 20.2839 68.1179 11.9998 58.0241C9.81277 55.3592 7.95158 52.3853 6.51672 49.2318C2.76467 48.2397 0 44.8241 0 40.7607ZM12.9311 16.9738C8.02344 21.9555 5.81158 27.939 5.62102 34.0281C5.60922 34.4054 5.60517 34.783 5.60872 35.1608C5.42977 35.2618 5.25614 35.3711 5.08837 35.4882C3.42478 36.6495 2.33645 38.578 2.33645 40.7607C2.33645 43.9145 4.60864 46.5376 7.60527 47.0822C7.78833 47.1155 7.97408 47.141 8.16219 47.1584C8.28364 47.4507 8.40902 47.7416 8.53823 48.0309C9.90115 51.0827 11.6914 53.9653 13.8059 56.5417C22.2013 66.7713 33.2695 75.5907 43.7539 83.1643C43.6353 83.6523 43.5725 84.1622 43.5725 84.6867C43.5725 88.2354 46.4492 91.1121 49.9977 91.1121C53.5463 91.1121 56.423 88.2354 56.423 84.6867C56.423 84.1632 56.3603 83.6543 56.2422 83.1671C66.7278 75.5929 77.7976 66.7725 86.1941 56.5417C88.3087 53.9653 90.0989 51.0827 91.4618 48.0309C91.591 47.7415 91.7164 47.4507 91.8378 47.1584C92.0259 47.141 92.2117 47.1155 92.3947 47.0822C95.3914 46.5376 97.6636 43.9145 97.6636 40.7607C97.6636 38.578 96.5752 36.6495 94.9116 35.4882C94.7439 35.3711 94.5702 35.2618 94.3913 35.1608C94.3948 34.783 94.3908 34.4053 94.379 34.0281C94.1884 27.939 91.9766 21.9555 87.0689 16.9738C77.2526 7.00934 63.7401 7.73378 53.5124 13.7669C52.5029 13.1066 51.2963 12.7227 50 12.7227C48.7037 12.7227 47.4971 13.1066 46.4876 13.7669C36.2599 7.73367 22.7473 7.00948 12.9311 16.9738Z" fill="#EC2000"/>
</svg>
