<svg width="114" height="146" viewBox="0 0 114 146" fill="none" xmlns="http://www.w3.org/2000/svg">
<path d="M41.8576 0.17364C46.1311 -0.393152 51.0231 0.507023 55.1273 1.72526C66.8042 5.19172 77.0942 12.0251 82.956 23.0303C85.4836 27.7751 86.8551 33.7248 85.22 38.9868C84.2788 42.0171 82.3806 44.5652 79.5428 46.0209C79.7418 50.0231 79.8277 53.81 77.5439 57.3245C75.7041 60.156 73.079 61.5258 69.8539 62.1958C69.9027 65.4079 70.1561 68.6688 70.5574 71.8559C76.7642 79.071 79.8478 80.19 87.9261 84.8485C89.7284 79.4568 93.053 72.7008 96.0246 67.8512C96.681 66.7797 97.8869 64.6613 99.2105 64.3884C101.284 63.9611 103.98 65.7671 105.58 66.8866C107.689 68.3624 109.777 69.9406 110.217 72.6194C111.414 79.9022 106.076 89.8392 101.919 95.5454C104.926 98.2439 107.295 102.285 108.696 106.073C110.856 111.908 115.262 139.5 113.053 144.328C111.169 145.557 101.974 144.891 99.3081 144.88L33.6133 144.884L12.6183 144.885C8.94073 144.885 5.16045 145.082 1.50024 144.829C0.749178 144.778 0.685112 144.767 0.089986 144.29C-0.584517 139.984 2.72958 115.515 3.48508 110.193C6.44661 89.3377 15.446 88.7137 30.2069 77.6012C29.3914 76.9137 28.6035 76.1959 27.8433 75.4477C18.4515 66.0896 20.3642 46.4212 20.4307 34.0727L20.143 33.9558C16.9139 32.6299 13.7171 30.2918 12.3737 26.9535C11.6887 25.2516 11.6222 23.3496 12.3596 21.6472C13.6985 18.5557 16.7817 17.233 19.7001 16.0434C20.3416 12.9982 21.5593 10.215 23.58 7.82452C28.1794 2.38437 35.0912 0.800901 41.8576 0.17364Z" fill="black"/>
<path d="M27.2225 26.1675C38.7721 24.9509 49.9965 28.2339 60.579 32.4522C60.3139 33.4689 60.1112 34.5464 60.0177 35.5929C59.6313 39.9201 61.7922 43.1838 64.4124 46.362C64.3931 47.8431 64.3379 48.9085 65.2292 50.1776C66.8115 50.5509 69.2593 45.1442 71.4154 44.2968C72.6995 43.7921 73.7 44.3258 74.8818 44.8184C75.6107 45.7041 75.7775 47.1598 75.9245 48.2744C76.261 50.8165 75.9229 53.7234 74.2717 55.7834C72.2192 58.3436 69.5574 58.255 66.5814 58.5379C66.251 60.7592 67.0831 69.6396 67.1459 72.8674C63.0377 80.4683 55.5077 85.5057 48.0467 89.3745C44.4425 86.9731 41.8194 84.1173 39.5268 80.4763C46.1977 80.1675 51.2669 78.2446 56.8027 74.629C58.2356 73.5478 60.5008 72.1047 61.3026 70.4317C61.6995 69.6033 61.6004 68.8164 61.2724 67.994C60.5306 67.578 60.0939 67.628 59.3077 68.0307C57.5151 68.9498 55.9219 70.6675 54.3602 71.9418C50.7322 74.9007 44.6452 76.5358 40.0215 76.5769C36.4331 76.6092 33.227 75.5518 30.672 72.9698C22.9648 65.1822 24.1091 50.2562 24.0918 40.1019C26.5021 39.9878 28.9406 40.0374 31.3545 40.0221C31.2232 40.9755 31.2067 41.9353 30.5983 42.7169C29.4705 43.3321 28.2339 43.0088 26.9973 42.9552C26.4364 43.318 26.2257 43.4083 25.9694 44.0533C25.5975 44.9898 25.6418 45.8347 26.0669 46.7309C26.8139 47.5468 27.8559 47.7653 28.8786 48.0991C29.3854 49.8313 27.8765 52.123 27.7044 53.8815C27.6162 54.7869 27.8329 55.7991 28.4466 56.4961C29.3173 57.4862 30.7449 57.8232 32.0077 57.9409C34.3862 58.1622 37.3489 58.0973 39.2636 56.5062C39.5779 55.8326 39.6605 55.8503 39.3998 55.111C37.6185 53.4509 33.6637 54.0189 31.278 53.9629C31.6668 50.6246 32.6262 47.2448 33.5134 44.0094C33.9095 42.5662 34.5675 40.948 34.6586 39.4629C34.7041 38.7163 34.5538 37.9202 34.0131 37.3687C32.2249 35.5454 26.7132 36.3633 24.2473 36.4697C24.3292 33.2246 24.4665 29.9819 24.6591 26.7416C25.2324 26.1772 26.4187 26.2594 27.2225 26.1675Z" fill="white"/>
<path d="M40.1013 61.8833C41.5566 61.8498 43.2965 61.6237 44.6963 62.0204C45.3264 62.199 45.8805 62.6642 46.1831 63.2563C46.4796 63.8364 46.4434 63.9384 46.2709 64.5637C43.9774 66.6499 38.4847 65.9536 35.6042 65.9162C34.3607 65.9287 32.6757 66.1044 31.5064 65.6872C30.6296 65.3744 30.2343 64.7374 29.8169 63.9521C29.8564 63.524 29.7843 63.3345 30.0929 63.0044C31.6812 61.3064 37.84 61.8805 40.1013 61.8833Z" fill="black"/>
<path d="M39.7913 36.3701C43.0421 36.3097 50.0233 35.551 52.853 36.7725C53.6081 37.0986 53.7117 37.3413 53.9728 38.0899C53.7991 38.986 53.4687 39.3839 52.8289 40.0188C49.9677 40.0849 41.5211 40.7557 39.3513 39.5689C38.7336 39.2311 38.7376 39.0408 38.5225 38.3753C38.734 37.4352 39.1204 37.0421 39.7913 36.3701Z" fill="black"/>
<path d="M44.9616 42.5523C45.0027 42.533 45.0442 42.5147 45.0861 42.4975C45.128 42.4803 45.1703 42.4642 45.213 42.4491C45.2557 42.4338 45.2989 42.4196 45.3424 42.4064C45.3859 42.3935 45.4295 42.3815 45.4733 42.3705C45.5174 42.3595 45.5617 42.3496 45.6063 42.3407C45.6506 42.3321 45.6952 42.3244 45.7401 42.3177C45.7849 42.311 45.8299 42.3055 45.8751 42.3012C45.9202 42.2966 45.9654 42.2933 46.0108 42.2911C46.0562 42.289 46.1015 42.2879 46.1466 42.2879C46.192 42.2879 46.2374 42.289 46.2828 42.2911C46.3279 42.2933 46.3731 42.2965 46.4182 42.3008C46.4633 42.3051 46.5083 42.3106 46.5532 42.3173C46.598 42.3238 46.6428 42.3314 46.6874 42.3403C46.7319 42.3492 46.7763 42.359 46.8203 42.3697C46.8641 42.3807 46.9077 42.3927 46.9513 42.4056C46.9948 42.4188 47.0379 42.4329 47.0806 42.4479C47.1233 42.4633 47.1656 42.4795 47.2075 42.4967C47.2494 42.5139 47.2909 42.532 47.332 42.5511C47.3731 42.5705 47.4137 42.5908 47.4537 42.612C47.494 42.633 47.5336 42.6551 47.5726 42.6785C47.6115 42.7016 47.6499 42.7257 47.6878 42.7507C47.7257 42.7757 47.7629 42.8015 47.7994 42.8281C47.836 42.8549 47.8718 42.8826 47.907 42.9111C47.9422 42.9399 47.9767 42.9693 48.0106 42.9994C48.0444 43.0298 48.0774 43.0608 48.1097 43.0925C48.1419 43.1245 48.1735 43.1572 48.2044 43.1905C48.235 43.2238 48.2648 43.2579 48.2938 43.2929C48.3228 43.3276 48.351 43.363 48.3784 43.3993C48.4056 43.4356 48.4319 43.4724 48.4574 43.5097C48.4829 43.5474 48.5075 43.5855 48.5312 43.6242C48.5548 43.6629 48.5775 43.7022 48.5993 43.742C48.621 43.7817 48.6418 43.822 48.6617 43.8629C48.6816 43.9037 48.7004 43.945 48.7181 43.9867C48.7358 44.0283 48.7525 44.0705 48.7681 44.1132C48.7839 44.1557 48.7987 44.1986 48.8124 44.2418C48.8258 44.2851 48.8383 44.3286 48.8499 44.3724C48.8614 44.4162 48.8719 44.4603 48.8813 44.5047C48.8907 44.549 48.899 44.5936 48.9063 44.6385C48.9133 44.6834 48.9193 44.7283 48.9244 44.7732C48.9295 44.8183 48.9334 44.8636 48.9361 44.909C48.9391 44.9541 48.9408 44.9994 48.9413 45.0449C48.9419 45.0903 48.9413 45.1356 48.9397 45.1807C48.9381 45.2261 48.9354 45.2714 48.9317 45.3166C48.9279 45.3617 48.9229 45.4067 48.9167 45.4516C48.9108 45.4968 48.9039 45.5416 48.8958 45.5862C48.8875 45.6309 48.8782 45.6752 48.868 45.7193C48.8575 45.7634 48.8461 45.8073 48.8337 45.8511C48.8211 45.8946 48.8075 45.9378 48.793 45.9805C48.7785 46.0235 48.763 46.0661 48.7463 46.1083C48.7297 46.1505 48.7119 46.1923 48.6931 46.2337C48.6743 46.275 48.6546 46.3159 48.6339 46.3562C48.6132 46.3965 48.5916 46.4363 48.569 46.4756C48.5465 46.5151 48.523 46.5539 48.4985 46.592C48.4738 46.6302 48.4483 46.6677 48.422 46.7045C48.3956 46.7413 48.3685 46.7776 48.3406 46.8133C48.3124 46.8488 48.2833 46.8836 48.2535 46.9178C48.2237 46.9522 48.1931 46.9856 48.1617 47.0181C48.1302 47.0509 48.0981 47.0829 48.0654 47.1141C48.0323 47.1453 47.9986 47.1755 47.9642 47.2048C47.9296 47.2343 47.8944 47.263 47.8587 47.2907C47.8227 47.3186 47.7861 47.3455 47.7491 47.3713C47.712 47.3974 47.6743 47.4225 47.6359 47.4467C47.5974 47.4709 47.5585 47.4941 47.519 47.5164C47.4795 47.5384 47.4395 47.5597 47.3989 47.5801C47.3439 47.6075 47.2881 47.6332 47.2317 47.6571C47.175 47.681 47.1175 47.7031 47.0592 47.7232C47.0012 47.7431 46.9425 47.7611 46.8832 47.7772C46.8241 47.7936 46.7643 47.8079 46.7039 47.82C46.6437 47.8323 46.5831 47.8425 46.5221 47.8506C46.4614 47.8589 46.4003 47.8652 46.3388 47.8695C46.2776 47.8736 46.2162 47.8757 46.1547 47.876C46.0932 47.8763 46.0318 47.8744 45.9705 47.8703C45.9093 47.8666 45.8482 47.8607 45.7872 47.8526C45.7262 47.8445 45.6657 47.8346 45.6055 47.8228C45.5451 47.811 45.4851 47.797 45.4258 47.7809C45.3664 47.765 45.3076 47.7473 45.2493 47.7276C45.1913 47.7077 45.1338 47.6861 45.0768 47.6627C45.0202 47.6391 44.9643 47.6135 44.9092 47.5861C44.8542 47.559 44.8 47.53 44.7468 47.4991C44.6936 47.4684 44.6415 47.4359 44.5905 47.4015C44.5395 47.3671 44.4896 47.3312 44.441 47.2939C44.3924 47.2563 44.345 47.217 44.2988 47.1762C44.2528 47.1356 44.2083 47.0935 44.165 47.05C44.1218 47.0062 44.0799 46.9612 44.0393 46.9149C43.999 46.8684 43.9603 46.8208 43.9232 46.7718C43.8862 46.7227 43.8507 46.6725 43.8169 46.6215C43.7828 46.5702 43.7505 46.5177 43.7202 46.4643C43.6898 46.4108 43.6612 46.3563 43.6344 46.301C43.6075 46.2456 43.5825 46.1895 43.5594 46.1325C43.5363 46.0755 43.5152 46.0179 43.4961 45.9595C43.4768 45.9012 43.4593 45.8424 43.4438 45.783C43.4284 45.7233 43.415 45.6632 43.4035 45.6028C43.3922 45.5426 43.3828 45.482 43.3753 45.421C43.3677 45.3597 43.3622 45.2984 43.3587 45.2371C43.3555 45.1759 43.3542 45.1145 43.3547 45.0529C43.3555 44.9914 43.3582 44.93 43.3628 44.8687C43.3673 44.8074 43.374 44.7463 43.3829 44.6853C43.3915 44.6245 43.4023 44.5641 43.4152 44.5039C43.4278 44.4437 43.4424 44.384 43.4591 44.3249C43.4757 44.2658 43.4943 44.2072 43.5147 44.1491C43.5354 44.0913 43.5578 44.0342 43.582 43.9778C43.6064 43.9211 43.6326 43.8654 43.6605 43.8109C43.6885 43.7561 43.7182 43.7023 43.7496 43.6497C43.781 43.5967 43.8142 43.545 43.8491 43.4944C43.884 43.4439 43.9206 43.3945 43.9587 43.3461C43.9971 43.298 44.0369 43.2512 44.078 43.2058C44.1193 43.1601 44.1621 43.1159 44.2061 43.0732C44.2504 43.0305 44.2961 42.9892 44.3431 42.9494C44.3899 42.9097 44.4379 42.8716 44.4874 42.8353C44.5368 42.7985 44.5874 42.7636 44.6393 42.7305C44.6908 42.6972 44.7435 42.6657 44.7972 42.6362C44.8512 42.6064 44.906 42.5784 44.9616 42.5523Z" fill="black"/>
<path d="M26.2952 84.649L26.5411 84.7534C26.9476 84.9263 26.9109 85.2936 27.031 85.7036C28.4928 90.6975 30.6815 96.6 34.0146 100.663C34.7028 101.502 35.6114 102.372 36.7662 102.386C38.7087 102.409 43.263 97.5296 44.7663 96.1828C45.0597 111.208 44.863 126.3 44.7869 141.33L17.2217 141.313C17.0255 133.293 17.1073 125.238 17.0581 117.214C17.0597 114.389 18.1508 108.602 16.2406 106.397C15.4681 106.115 15.3876 106.097 14.5966 106.312C14.1127 106.986 13.9463 107.59 13.8556 108.399C13.4164 112.309 13.6449 116.498 13.6453 120.433L13.6715 141.322L3.61841 141.312C3.93269 135.741 4.64789 130.115 5.22166 124.562C5.82807 118.694 6.2991 112.655 7.47646 106.872C9.95608 94.6896 16.7539 90.9284 26.2952 84.649Z" fill="#FF0000"/>
<path d="M77.0528 82.6967C80.5079 84.2165 83.7535 86.5691 87.1579 88.2776C85.6203 93.1501 84.6291 98.1545 83.6524 103.164C82.2216 102.855 80.6344 102.412 79.1654 102.582C77.8059 102.739 76.4698 103.256 75.6361 104.392C74.1292 106.446 74.5393 108.922 74.8585 111.257C74.7976 111.302 74.7364 111.345 74.6763 111.39L74.3782 111.619C73.283 112.449 72.5376 113.216 71.7353 114.335C71.6789 115.971 71.7329 117.623 71.7398 119.261C71.0536 120.273 70.338 121.299 69.9476 122.468C69.2803 124.466 69.9089 125.984 70.7647 127.769C69.9894 129.168 69.3258 130.604 69.265 132.228C69.0349 138.353 77.0069 136.991 79.146 139.217C79.1654 139.975 79.0852 140.378 78.7491 141.061C77.8244 141.656 64.0898 141.315 61.8269 141.319L48.3522 141.304L48.3409 93.3323C52.2231 97.0592 55.6222 100.997 60.2329 103.884C64.9661 101.502 71.0802 94.6425 73.7943 90.0715C75.1937 87.7148 76.1301 85.263 77.0528 82.6967Z" fill="#FF0000"/>
<path d="M52.9269 111.504C52.965 111.495 53.0034 111.486 53.0421 111.478C53.0808 111.471 53.1196 111.464 53.1586 111.458C53.1975 111.452 53.2366 111.447 53.2758 111.443C53.315 111.439 53.3542 111.436 53.3934 111.434C53.4329 111.432 53.4723 111.431 53.5115 111.431C53.551 111.431 53.5904 111.431 53.6296 111.433C53.6691 111.435 53.7084 111.438 53.7476 111.441C53.7868 111.445 53.8259 111.449 53.8649 111.454C53.9038 111.46 53.9428 111.466 53.9817 111.474C54.0204 111.481 54.0588 111.489 54.097 111.498C54.1354 111.507 54.1735 111.518 54.2114 111.529C54.249 111.54 54.2865 111.551 54.3238 111.564C54.3612 111.577 54.3981 111.591 54.4346 111.605C54.4712 111.62 54.5074 111.635 54.5434 111.652C54.5794 111.668 54.6149 111.685 54.6498 111.703C54.685 111.721 54.7196 111.74 54.7537 111.759C54.7879 111.779 54.8214 111.799 54.8545 111.82C54.8878 111.842 54.9204 111.864 54.9524 111.887C54.9846 111.909 55.0163 111.933 55.0475 111.957C55.0784 111.981 55.1087 112.006 55.1386 112.032C55.1684 112.058 55.1975 112.084 55.226 112.111C55.2545 112.139 55.2824 112.166 55.3098 112.195C55.3369 112.223 55.3634 112.253 55.3892 112.282C55.4149 112.312 55.4401 112.343 55.4645 112.374C55.4887 112.404 55.5123 112.436 55.5354 112.468C55.5583 112.5 55.5803 112.533 55.6015 112.566C55.6227 112.599 55.6431 112.632 55.6627 112.667C55.6826 112.701 55.7016 112.735 55.7196 112.771C55.7376 112.806 55.7547 112.841 55.7711 112.877C55.7875 112.913 55.803 112.949 55.8175 112.985C55.832 113.022 55.8457 113.059 55.8586 113.096C55.8715 113.133 55.8834 113.171 55.8944 113.209C55.9055 113.247 55.9157 113.285 55.9251 113.323C55.9342 113.361 55.9424 113.4 55.9496 113.439C55.9572 113.477 55.9636 113.516 55.969 113.555C55.9746 113.594 55.9793 113.633 55.9831 113.672C55.9866 113.712 55.9893 113.751 55.9911 113.79C55.9927 113.83 55.9935 113.869 55.9935 113.909C55.9935 113.948 55.9925 113.987 55.9903 114.027C55.9884 114.066 55.9855 114.105 55.9815 114.144C55.9777 114.184 55.973 114.223 55.9674 114.262C55.9614 114.301 55.9547 114.34 55.9472 114.378C55.9397 114.417 55.9312 114.455 55.9218 114.494C55.9124 114.532 55.9021 114.57 55.8908 114.608C55.8795 114.646 55.8673 114.683 55.8542 114.72C55.8413 114.757 55.8273 114.794 55.8122 114.831C55.7975 114.867 55.7819 114.903 55.7655 114.939C55.7488 114.975 55.7314 115.01 55.7131 115.045C55.6948 115.08 55.6758 115.114 55.6559 115.149C55.636 115.182 55.6154 115.216 55.5939 115.249C55.5724 115.282 55.5502 115.315 55.5274 115.347C55.5043 115.379 55.4804 115.41 55.4557 115.441C55.4312 115.472 55.406 115.502 55.3799 115.531C55.3541 115.561 55.3275 115.59 55.3001 115.618C55.2727 115.647 55.2446 115.674 55.2159 115.701C55.1872 115.728 55.1579 115.754 55.1281 115.78C55.098 115.806 55.0674 115.831 55.0362 115.855C55.005 115.879 54.9733 115.902 54.9411 115.925C54.9089 115.948 54.8761 115.969 54.8428 115.99C54.8095 116.011 54.7756 116.032 54.7413 116.051C54.7071 116.071 54.6725 116.089 54.6373 116.107C54.6021 116.125 54.5665 116.142 54.5305 116.158C54.4945 116.174 54.4583 116.189 54.4217 116.203C54.3849 116.217 54.3478 116.231 54.3105 116.244C54.2581 116.261 54.2052 116.277 54.1518 116.291C54.0983 116.305 54.0444 116.317 53.9902 116.328C53.9359 116.338 53.8813 116.347 53.8262 116.354C53.7714 116.36 53.7165 116.365 53.6614 116.368C53.6061 116.371 53.5507 116.373 53.4954 116.372C53.4403 116.371 53.3851 116.369 53.3298 116.364C53.2747 116.36 53.2199 116.354 53.1654 116.346C53.1106 116.338 53.0562 116.328 53.0022 116.316C52.9482 116.305 52.8946 116.291 52.8414 116.276C52.7882 116.261 52.7357 116.244 52.6839 116.225C52.6318 116.206 52.5805 116.186 52.53 116.163C52.4792 116.141 52.4294 116.117 52.3805 116.092C52.3313 116.066 52.2833 116.039 52.2363 116.01C52.189 115.981 52.1428 115.951 52.0976 115.919C52.0525 115.887 52.0085 115.854 51.9655 115.819C51.9228 115.784 51.8811 115.747 51.8406 115.71C51.8 115.672 51.7609 115.633 51.7233 115.593C51.6854 115.553 51.6489 115.511 51.6137 115.468C51.5788 115.426 51.5452 115.382 51.513 115.336C51.481 115.291 51.4505 115.245 51.4215 115.198C51.3922 115.151 51.3647 115.103 51.3389 115.054C51.3131 115.005 51.2891 114.956 51.2668 114.905C51.2442 114.855 51.2234 114.803 51.2043 114.752C51.1855 114.7 51.1683 114.647 51.1528 114.594C51.1372 114.541 51.1235 114.487 51.1117 114.433C51.0999 114.379 51.0898 114.325 51.0814 114.27C51.0731 114.216 51.0667 114.161 51.0621 114.106C51.0575 114.051 51.0549 113.995 51.054 113.94C51.0532 113.885 51.0542 113.829 51.0569 113.774C51.0598 113.719 51.0645 113.664 51.071 113.609C51.0777 113.554 51.0861 113.5 51.0963 113.445C51.1066 113.391 51.1185 113.337 51.1322 113.283C51.1459 113.23 51.1615 113.177 51.179 113.124C51.1964 113.072 51.2156 113.02 51.2366 112.969C51.2573 112.918 51.2798 112.867 51.3043 112.817C51.3284 112.768 51.3542 112.719 51.3816 112.671C51.4093 112.623 51.4384 112.576 51.4691 112.53C51.4997 112.484 51.5319 112.439 51.5658 112.395C51.5994 112.351 51.6344 112.309 51.6709 112.267C51.7077 112.226 51.7458 112.186 51.785 112.147C51.8242 112.108 51.8646 112.07 51.9062 112.034C51.9481 111.998 51.9911 111.963 52.0352 111.93C52.0792 111.896 52.1245 111.864 52.171 111.834C52.2172 111.804 52.2643 111.775 52.3124 111.748C52.3607 111.721 52.4098 111.696 52.4595 111.672C52.5094 111.648 52.5601 111.626 52.6114 111.606C52.6627 111.585 52.7147 111.566 52.7673 111.55C52.82 111.533 52.8731 111.517 52.9269 111.504Z" fill="black"/>
<path d="M53.0979 130.451C53.1331 130.444 53.1684 130.439 53.2039 130.434C53.2393 130.429 53.2749 130.425 53.3107 130.422C53.3464 130.419 53.3821 130.417 53.4178 130.415C53.4536 130.414 53.4894 130.413 53.5254 130.413C53.5612 130.413 53.5969 130.415 53.6326 130.416C53.6683 130.418 53.7041 130.421 53.7398 130.425C53.7755 130.428 53.8111 130.432 53.8466 130.437C53.882 130.443 53.9174 130.448 53.9525 130.455C53.9875 130.462 54.0224 130.469 54.0573 130.478C54.0922 130.486 54.1269 130.495 54.1613 130.505C54.1956 130.515 54.2297 130.526 54.2636 130.537C54.2974 130.549 54.331 130.561 54.3643 130.574C54.3979 130.588 54.431 130.601 54.4635 130.616C54.4962 130.63 54.5286 130.646 54.5606 130.662C54.5925 130.678 54.6241 130.695 54.6552 130.713C54.6867 130.73 54.7176 130.748 54.7479 130.768C54.7783 130.786 54.8081 130.806 54.8374 130.826C54.8669 130.847 54.8959 130.868 54.9244 130.889C54.9529 130.911 54.9809 130.934 55.0086 130.957C55.036 130.979 55.0629 131.003 55.0892 131.027C55.1155 131.051 55.1413 131.076 55.1666 131.102C55.1918 131.127 55.2165 131.153 55.2407 131.18C55.2646 131.206 55.288 131.233 55.3108 131.261C55.3336 131.289 55.3558 131.317 55.3773 131.345C55.3988 131.374 55.4196 131.403 55.4397 131.433C55.4599 131.463 55.4794 131.493 55.4982 131.523C55.517 131.554 55.535 131.585 55.5522 131.616C55.5696 131.647 55.5863 131.679 55.6021 131.711C55.618 131.743 55.633 131.776 55.6473 131.808C55.6618 131.841 55.6755 131.874 55.6884 131.908C55.7013 131.941 55.7133 131.975 55.7246 132.009C55.7359 132.043 55.7464 132.077 55.756 132.112C55.7657 132.146 55.7746 132.181 55.7826 132.216C55.7907 132.251 55.7981 132.286 55.8048 132.321C55.8113 132.356 55.8169 132.391 55.8217 132.427C55.8266 132.462 55.8306 132.498 55.8338 132.534C55.837 132.569 55.8395 132.605 55.8411 132.641C55.8427 132.677 55.8435 132.712 55.8435 132.748C55.8435 132.784 55.8425 132.82 55.8407 132.856C55.839 132.891 55.8365 132.927 55.833 132.963C55.8298 132.998 55.8256 133.034 55.8205 133.069C55.8157 133.105 55.8099 133.14 55.8032 133.175C55.7965 133.211 55.7891 133.246 55.781 133.281C55.7727 133.315 55.7636 133.35 55.7536 133.384C55.744 133.419 55.7334 133.453 55.7218 133.487C55.7105 133.521 55.6983 133.554 55.6851 133.588C55.6722 133.621 55.6585 133.655 55.644 133.687C55.6295 133.72 55.6143 133.752 55.5985 133.785C55.5824 133.817 55.5656 133.848 55.5481 133.879C55.5307 133.911 55.5126 133.942 55.4938 133.972C55.475 134.002 55.4553 134.032 55.4349 134.062C55.4148 134.091 55.394 134.12 55.3725 134.149C55.3507 134.178 55.3284 134.206 55.3056 134.233C55.2827 134.261 55.2592 134.288 55.2351 134.314C55.2109 134.341 55.1862 134.367 55.1609 134.392C55.1357 134.417 55.1097 134.442 55.0832 134.466C55.0568 134.49 55.0298 134.514 55.0022 134.537C54.9748 134.56 54.9467 134.582 54.918 134.603C54.8895 134.625 54.8605 134.646 54.8309 134.666C54.8014 134.687 54.7714 134.706 54.7411 134.725C54.7104 134.744 54.6796 134.762 54.6484 134.779C54.6172 134.797 54.5855 134.814 54.5533 134.829C54.5213 134.846 54.489 134.861 54.4562 134.875C54.4234 134.89 54.3904 134.904 54.3571 134.917C54.3068 134.936 54.256 134.954 54.2044 134.97C54.1528 134.986 54.1008 135 54.0484 135.012C53.9958 135.025 53.9429 135.035 53.8897 135.044C53.8362 135.053 53.7828 135.06 53.7293 135.064C53.6753 135.07 53.6215 135.073 53.5677 135.074C53.5137 135.075 53.4598 135.075 53.4058 135.072C53.3518 135.07 53.298 135.065 53.2446 135.059C53.1909 135.053 53.1376 135.045 53.0846 135.035C53.0317 135.025 52.9791 135.013 52.9267 135C52.8746 134.986 52.8229 134.971 52.7715 134.954C52.7205 134.936 52.67 134.917 52.6201 134.897C52.5704 134.876 52.5213 134.854 52.473 134.829C52.4246 134.805 52.3772 134.78 52.3307 134.752C52.2843 134.725 52.2387 134.696 52.1942 134.665C52.1498 134.635 52.1065 134.603 52.064 134.569C52.0218 134.535 51.9809 134.5 51.9411 134.464C51.9014 134.428 51.8628 134.39 51.8255 134.351C51.7884 134.312 51.7527 134.272 51.7183 134.23C51.6839 134.188 51.651 134.146 51.6196 134.102C51.5881 134.058 51.5582 134.013 51.5297 133.967C51.5015 133.921 51.4748 133.874 51.4495 133.826C51.4246 133.779 51.4012 133.73 51.3794 133.681C51.3579 133.631 51.3381 133.581 51.3198 133.53C51.3015 133.479 51.2852 133.428 51.2706 133.376C51.2559 133.324 51.243 133.272 51.232 133.219C51.2209 133.166 51.2118 133.113 51.2046 133.06C51.1973 133.006 51.1918 132.953 51.188 132.899C51.1845 132.845 51.1829 132.791 51.1832 132.737C51.1832 132.683 51.1852 132.629 51.1892 132.575C51.193 132.521 51.1988 132.468 51.2066 132.414C51.2141 132.361 51.2235 132.308 51.2348 132.255C51.2461 132.202 51.2592 132.15 51.2743 132.098C51.2893 132.046 51.306 131.995 51.3242 131.944C51.3428 131.894 51.3631 131.844 51.3851 131.794C51.4071 131.745 51.4307 131.697 51.456 131.649C51.4815 131.602 51.5085 131.555 51.537 131.509C51.5657 131.463 51.5959 131.419 51.6276 131.375C51.6593 131.331 51.6925 131.289 51.7272 131.247C51.7615 131.206 51.7975 131.166 51.8352 131.127C51.8725 131.088 51.9112 131.051 51.9512 131.015C51.9912 130.978 52.0324 130.944 52.0749 130.91C52.1173 130.877 52.161 130.845 52.2058 130.815C52.2504 130.785 52.296 130.756 52.3424 130.729C52.3892 130.702 52.4367 130.676 52.4851 130.652C52.5337 130.629 52.5829 130.607 52.6325 130.586C52.6825 130.566 52.7331 130.547 52.7844 130.53C52.8357 130.513 52.8876 130.498 52.94 130.485C52.9921 130.472 53.0447 130.46 53.0979 130.451Z" fill="black"/>
<path d="M41.9616 3.80048C49.5572 3.41952 57.2995 5.74796 64.0622 9.1209C71.2013 12.6813 78.7454 20.8897 81.1811 28.5494C82.7348 33.4357 81.9362 37.2605 79.6141 41.6776C78.2083 37.8233 76.001 34.2024 73.6133 30.8831C69.3515 24.8713 61.824 19.3655 55.1611 16.3312C45.9828 12.1516 33.2998 11.334 23.7709 14.8856C24.3556 13.2896 25.1703 11.7473 26.2594 10.4367C30.1276 5.78183 36.2017 4.31889 41.9616 3.80048Z" fill="#FF0000"/>
<path d="M79.487 106.208C80.8988 106.385 82.2954 106.645 83.6766 106.987C86.8993 107.763 93.7233 109.298 95.3906 112.3C98.7736 118.39 91.3859 134.998 89.6831 141.541L82.6201 141.523C82.6633 140.351 82.8128 138.832 82.3691 137.734C80.8642 134.006 74.6897 135.57 72.7996 132.703C72.5054 132.257 72.3422 131.582 72.453 131.055C72.5917 130.396 72.8802 130.338 73.3951 130.006C74.7997 129.759 76.4086 130.289 77.7882 130.594C79.2996 130.866 81.3678 131.514 82.7007 130.493C83.3144 130.023 83.5098 129.848 83.6057 129.09C81.9203 127.105 77.1278 127.064 74.6885 126.125C73.7452 125.763 73.0917 125.386 72.6839 124.441C72.7101 124.014 72.7315 123.716 72.9668 123.346C74.8517 120.385 82.2998 123.914 85.3987 123.31C86.0523 122.793 86.2316 122.438 86.4963 121.655C85.7497 118.857 78.0622 120.162 75.6724 118.082C75.1849 117.657 74.9323 117.099 74.8948 116.456C74.8525 115.728 75.0314 115.099 75.5217 114.556C77.4127 112.465 83.4985 115.392 86.1611 115.038C87.0403 114.922 87.2349 114.749 87.7406 114.055C87.5669 110.515 80.1583 111.944 78.0123 109.485C77.6988 108.715 77.5992 108.319 77.7483 107.494C78.2129 106.715 78.6517 106.517 79.487 106.208Z" fill="white"/>
<path d="M99.7819 98.5635C108.771 107.658 109.763 129.271 109.958 141.353L93.2078 141.319C93.7279 139.181 94.481 137.072 95.1414 134.972L95.9896 132.116C97.7931 133.328 99.651 134.785 101.618 135.691C102.71 136.194 103.885 136.679 105.074 136.25C105.099 136.063 105.121 135.999 105.08 135.79C104.518 132.952 99.8029 130.608 97.5743 129.271C98.8447 124.98 100.668 115.927 99.1715 111.729C98.0501 108.584 95.39 107.433 92.603 106.099C94.7933 103.456 97.1512 100.773 99.7819 98.5635Z" fill="#FF0000"/>
<path d="M69.6037 75.8299C71.1408 76.6083 72.8529 79.7591 73.8244 81.2624C71.6046 89.1983 66.184 94.7271 60.2017 100.044L57.5589 97.6905C55.4488 95.718 53.4366 93.6282 51.3981 91.5811C58.9688 87.3185 64.5151 82.937 69.6037 75.8299Z" fill="#FF0000"/>
<path d="M32.043 16.7863C35.4772 16.1627 39.9086 16.5549 43.3496 17.0766C55.4753 18.9148 64.6968 25.9308 71.819 35.6187C68.6205 32.9895 64.9921 31.0525 61.3928 29.0433C61.3251 29.005 61.2582 28.9651 61.1901 28.928C49.4725 22.5438 29.6653 18.4903 16.6197 22.2793C21.4738 19.2458 26.3605 17.5051 32.043 16.7863Z" fill="#FF0000"/>
<path d="M33.6306 79.5588C34.2668 79.7612 34.9639 79.9893 35.4337 80.4856C36.3186 81.42 37.0382 82.7173 37.8118 83.7686C39.8498 86.5393 41.8806 88.8722 44.4984 91.1107C42.9347 92.9381 41.1521 94.5816 39.4328 96.2606L36.7642 98.4976C32.9013 93.4569 31.2453 88.3808 29.7827 82.3C31.0543 81.371 32.337 80.4572 33.6306 79.5588Z" fill="#FF0000"/>
<path d="M100.16 68.1842C101.424 68.6313 102.528 69.4783 103.638 70.2148C102.156 72.6089 100.29 74.7213 98.8754 77.1929C94.9593 84.0327 90.8845 95.8974 89.2889 103.687C89.2317 104.043 89.11 104.308 88.9698 104.637L88.141 104.644C87.628 104.363 87.3174 104.317 87.1453 103.698C86.5849 101.682 87.9859 98.0984 88.5572 96.1288C91.5921 85.6641 94.4126 77.5823 100.16 68.1842Z" fill="#FF0000"/>
<path d="M105.958 71.8994C106.506 72.4387 106.795 73.2942 106.84 74.0484C106.958 76.0527 106.263 78.1502 105.732 80.0606C103.415 88.3911 100.335 91.8866 94.6703 98.0145L94.3875 98.0423C94.7364 93.3838 99.3181 83.0663 101.622 78.8879C102.943 76.4925 104.557 74.2532 105.958 71.8994Z" fill="#FF0000"/>
</svg>
