<svg width="126" height="146" viewBox="0 0 126 146" fill="none" xmlns="http://www.w3.org/2000/svg">
<path d="M49.0345 0C50.9644 1.01174 54.5615 0.763146 56.7743 1.01172C64.6443 1.90572 74.1654 5.93524 79.3675 12.3371C85.094 19.3845 84.2622 27.7009 83.6051 36.244C86.0556 39.5147 91.2084 39.9901 92.8524 44.4208C93.1656 45.2668 93.2307 46.2045 92.876 47.0461C92.2965 48.4198 90.9275 49.3182 89.6203 49.811C88.0141 50.4128 85.2877 50.923 83.713 50.1162C83.6819 51.6992 83.5653 53.4087 83.1587 54.9307C82.2287 58.4195 79.8616 62.2833 76.7689 64.0408C75.4684 64.7778 73.4439 65.5279 71.9999 65.0743C72.4999 69.6097 72.8601 74.1568 73.0805 78.7155C73.139 78.7722 73.1926 78.8375 73.256 78.8899C74.9843 80.3028 81.5276 82.0298 83.9337 82.9456C87.513 84.3106 91.3507 86.6437 94.9913 87.6249C95.356 87.7252 95.6269 87.7034 95.9973 87.6772C97.2452 85.7366 98.9552 77.5118 99.7691 74.6903C105.211 55.8945 110.554 37.0682 115.8 18.2114C116.265 16.5848 116.746 13.9507 118.305 13.1396C119.768 12.3808 121.635 12.5203 123.141 13.0959C124.189 13.4972 125.375 14.2298 125.798 15.3811C126.258 16.6371 125.513 18.6039 125.158 19.838C121.233 33.4704 116.321 46.9153 112.023 60.4343C110.01 66.7344 108.032 73.0462 106.088 79.3696C104.796 83.5867 103.653 87.9345 102.062 92.0338C103.225 94.4411 105.312 96.7829 106.733 99.0986C108.214 101.515 109.385 104.388 110.994 106.656C111.711 109.831 113.368 113.185 114.484 116.268C116.003 120.463 123.335 141.077 122.701 144.099C121.936 144.758 121.192 144.937 120.222 144.972C113.334 145.238 106.253 144.88 99.3463 144.88H51.7066H18.4195C12.9763 144.88 7.22745 145.264 1.81581 144.81C1.33377 144.767 0.794069 144.854 0.487499 144.426C-0.809717 142.625 0.860423 131.509 1.14625 128.853C3.15409 110.175 3.49718 97.3411 21.457 87.8865C24.6849 86.1858 29.987 84.7336 32.6242 82.4397C32.6839 82.3874 32.7408 82.3307 32.7988 82.2783C31.5647 82.0995 29.6597 79.64 28.925 78.6282C22.224 69.3873 22.8463 58.2887 22.7683 47.4124C22.7389 43.3218 22.3344 39.4711 22.8326 35.3718C21.7092 35.4329 20.5132 34.8964 19.4799 34.469C17.1157 33.4878 14.3686 31.6606 13.409 29.0528C12.9801 27.8884 13.0801 26.4798 13.5783 25.3547C15.789 20.3657 22.7426 22.8079 26.4492 21.1987C26.509 21.1725 26.5666 21.1419 26.6251 21.1158C27.3275 20.3482 27.8157 18.787 28.2501 17.7883C30.7516 12.045 32.883 6.39314 38.3971 3.11805C41.9183 1.02478 46.8014 1.32573 48.8831 0.100294C48.935 0.069767 48.9843 0.0348877 49.0345 0Z" fill="black"/>
<path d="M27.3028 30.7928C29.5384 31.1286 31.8777 31.0719 34.1394 31.3379C40.1235 32.0357 46.3744 33.0997 52.2046 34.6741C54.9584 35.4198 62.8545 38.721 65.0673 38.4157C64.2056 42.3188 64.1704 44.5778 65.7082 48.3762C66.4072 50.1031 67.3958 52.2705 69.136 53.0119C69.6114 52.8898 72.9634 46.8411 74.6634 45.5459C75.3981 44.9834 76.3232 44.4339 77.262 44.6606C78.0361 44.8482 78.5385 45.4849 78.945 46.1652C80.1912 48.2454 80.2945 50.9579 79.7884 53.2997C79.1649 56.1823 77.5437 58.8905 75.1309 60.4735C73.462 61.5681 71.1094 62.2179 69.1717 61.7426C68.912 67.6953 69.4978 73.8312 69.6513 79.7926C69.6131 79.9016 69.5783 80.0063 69.5368 80.1153C68.4984 82.745 52.5423 98.8588 49.6085 100.237C49.5517 100.206 49.4911 100.18 49.4384 100.141C47.5127 98.7323 43.1511 88.3619 42.4678 85.9459C42.9694 86.1247 43.346 86.2512 43.8833 86.2163C47.0937 85.9895 53.8798 84.4283 56.0714 81.8641C57.5159 81.9208 60.5832 79.5702 61.6892 78.5802C63.0341 77.3723 64.6507 75.641 64.7988 73.7003L64.3861 73.3471C64.0044 73.4081 63.5697 73.5259 63.1872 73.5303C60.7525 73.5652 51.9914 82.4746 42.7872 82.2566C39.0707 82.1693 35.8473 80.534 33.3064 77.7081C25.6899 69.2434 26.1412 55.8291 26.3536 45.0052C28.179 46.1826 32.0192 45.1971 34.2386 45.5721C34.4713 46.2917 34.2581 46.7844 34.1083 47.5214C33.2214 48.5245 32.278 47.1987 31.1733 47.4473C30.3166 47.6435 29.6591 47.9488 29.2007 48.7774C28.7792 49.5362 28.693 50.452 28.9215 51.2937C29.3998 53.0599 30.5556 53.1645 31.8437 53.9495C31.8511 55.1924 31.1107 56.5399 30.8111 57.7523C30.556 58.7858 30.7377 59.9633 31.3181 60.8485C32.076 62.0042 33.5354 62.5537 34.792 62.8459C36.8977 63.3343 41.069 63.6483 42.9287 62.3051C43.5261 61.8734 43.5232 61.7208 43.6738 60.9838C42.4421 57.966 36.8035 59.8673 34.1249 58.6376C35.513 55.3189 38.6874 46.283 38.1091 42.9643C35.4578 39.4101 29.7541 42.9206 26.435 41.0672C26.3773 41.0323 26.3221 40.9974 26.2661 40.9625C26.3304 37.5435 26.7506 34.1551 27.3028 30.7928Z" fill="white"/>
<path d="M49.3113 65.8201C49.4993 65.9116 49.6901 66.0032 49.8722 66.1079C50.6762 66.5702 50.7857 66.9845 51.0147 67.8523C50.9213 68.2797 50.8413 68.598 50.5583 68.9382C48.772 71.0707 44.6315 71.8033 42.0877 71.8731C40.103 71.9254 37.3493 71.6551 35.8451 70.1505L35.0706 70.0415C34.4794 69.3961 34.4106 69.3917 34.3164 68.4541C34.6794 67.8 34.9241 67.2984 35.6804 67.0629C38.8859 66.0686 42.6626 70.0458 49.3113 65.8201Z" fill="black"/>
<path d="M44.6068 40.9146C47.1066 41.7562 50.7091 41.1195 53.377 41.1718C54.909 41.2067 56.2842 41.3201 57.3798 42.5194C57.469 43.4396 57.4918 43.6445 57.1297 44.4775C56.3689 45.0008 56.3527 45.0095 55.4504 44.8918C53.4612 45.9558 47.7185 45.6811 45.4489 45.3714C44.1812 45.197 43.3175 44.9659 42.523 43.8888C42.5189 43.566 42.506 43.2608 42.5807 42.9468C42.8014 42.0179 43.897 41.403 44.6068 40.9146Z" fill="black"/>
<path d="M50.2727 47.0941C51.6886 47.757 53.4193 47.2816 54.8779 47.927C55.7321 48.3064 55.8785 48.7077 56.2204 49.5362C56.1154 50.5218 56.0793 50.6265 55.4653 51.3809C54.1864 51.9217 52.6705 51.7298 51.4036 51.2327C50.7025 51.8476 48.7329 52.602 47.8165 52.6108C47.0818 52.6151 46.8146 52.3578 46.3309 51.8301C46.296 51.5249 46.2533 51.2326 46.3209 50.9274C46.8046 48.7382 48.6329 48.0841 50.2727 47.0941Z" fill="black"/>
<path d="M74.421 96.4602L74.6159 96.5692C74.8263 98.4488 73.6701 101.746 73.2606 103.665C70.6351 115.954 69.8257 128.221 69.5063 140.776C69.1645 140.946 68.9015 141.073 68.5273 141.151C66.329 141.609 50.0721 141.618 48.6289 140.672L48.7061 133.018C48.7699 123.232 49.649 113.342 50.8989 103.647C52.1941 103.412 53.4598 101.938 54.2932 100.93C55.4041 103.407 58.4317 107.28 60.6428 108.776C61.6604 109.465 62.8132 109.905 64.0283 109.617C68.2705 108.61 72.2426 100.228 74.421 96.4602Z" fill="black"/>
<path d="M31.0179 92.7141C33.5588 97.2364 32.3682 105.413 36.2163 109.168C38.4054 111.301 44.5008 102.635 46.7583 102.483C47.1089 103.394 46.9968 104.484 46.9525 105.448C46.784 109.116 46.2634 112.796 45.9738 116.46C45.3795 123.492 45.0642 130.538 45.028 137.597C45.0479 138.779 45.1326 139.913 44.7741 141.051C42.1963 141.382 26.3136 141.601 24.7708 140.637C24.6356 124.375 25.9797 108.161 31.0179 92.7141Z" fill="black"/>
<path d="M87.5568 99.4649C89.7825 100.494 92.7386 100.25 95.1522 101.253C97.7624 102.33 99.6043 104.214 100.721 106.905C101.568 108.95 102.001 111.148 102.194 113.359C102.565 117.607 102.282 129.486 100.849 133.214C100.033 135.334 97.974 140.536 95.9056 141.256C90.07 143.297 87.4963 133.027 84.8039 130.389C83.5009 129.115 81.128 129.481 79.652 128.465C78.6792 127.798 78.3241 126.59 78.1191 125.461C78.2842 124.776 78.3075 124.453 78.7788 123.926C79.5844 123.027 80.1726 123.027 81.313 122.975L81.5922 122.966C82.5683 123.956 84.9018 125.038 86.2758 124.998C87.2946 124.968 87.8464 124.715 88.5093 123.947L88.4226 123.197C86.9557 120.807 84.4675 120.581 82.124 119.735C80.6899 119.216 79.3703 118.815 78.6767 117.31L79.0127 116.595C81.3151 114.829 84.845 115.387 87.4739 116.228C88.2177 116.464 89.1245 116.974 89.9073 116.883C90.7316 116.787 90.9822 116.407 91.485 115.797C91.5265 115.125 91.6107 114.903 91.2074 114.336C89.9272 112.539 85.3436 112.753 83.3628 112.426C82.4339 112.269 81.7386 112.064 81.2479 111.161C80.9293 110.577 80.9056 109.796 81.1313 109.172C83.0193 103.97 90.3238 110.38 93.3016 109.072C93.6277 108.597 93.8168 108.488 93.7637 107.903C93.2937 102.679 85.0246 105.296 82.5887 103.045L82.5555 102.369C83.3205 101.266 84.6044 100.472 85.8556 100.141C86.4251 99.9882 86.8765 99.8399 87.3984 99.5565C87.4519 99.5259 87.5041 99.4954 87.5568 99.4649Z" fill="white"/>
<path d="M22.8992 91.0526L23.3335 91.4102C23.5804 92.6182 20.4923 103.451 20.0492 105.697C18.3471 114.34 17.8149 123.302 17.2104 132.094C17.0159 134.924 17.5714 138.352 16.8363 141.038C16.1866 141.295 15.6772 141.164 15.018 141.047C14.8504 140.855 14.6326 140.702 14.5152 140.475C13.5939 138.687 16.604 116.704 16.0941 112.535C15.6502 111.815 15.2872 111.506 14.555 111.131C14.1837 111.187 13.939 111.152 13.6486 111.423C12.4323 112.565 12.3195 115.888 12.1855 117.48C11.6238 125.216 11.2323 132.962 11.011 140.715C10.7078 140.907 10.4971 141.042 10.1498 141.13C8.54895 141.544 5.03936 141.579 3.64258 140.68C5.2277 127.868 4.68177 107.563 13.7938 97.8775C16.4451 95.0604 19.9596 93.6997 22.7503 91.1922C22.8005 91.1486 22.8494 91.1006 22.8992 91.0526Z" fill="white"/>
<path d="M35.3807 16.6633C37.4579 17.7012 44.2671 17.88 46.9142 18.303C51.0208 18.9571 55.231 19.7901 59.2471 20.9108C63.4685 22.0927 67.7137 23.5623 71.7837 25.2151C73.6584 25.9783 78.9953 28.8914 80.5456 29.0833C80.5356 31.0893 80.4236 33.0343 80.2125 35.0273C80.1096 35.036 80.0067 35.0491 79.9034 35.0535C78.8854 35.0753 77.6193 34.1551 76.924 33.453C76.9049 33.4574 58.9708 27.1514 57.141 26.6237C52.8444 25.3808 48.4525 24.6613 44.0535 23.9548C40.5534 23.3879 32.4694 23.1131 29.7754 21.5999C30.318 21.0765 30.5677 20.2698 31.0369 19.6593C32.1495 18.2114 33.8869 17.5573 35.3807 16.6633Z" fill="#FF0000"/>
<path d="M100.568 96.3817C107.832 103.865 112.533 121.51 115.694 131.61C116.583 134.449 117.146 138.195 118.591 140.737C118.331 140.89 118.256 140.951 117.994 141.051C116.213 141.731 103.22 141.505 101.819 140.759L100.925 140.916C102.832 137.684 104.456 134.422 105.773 130.877C106.543 132.129 107.797 133.332 108.819 134.374C109.402 134.972 110.171 135.6 111.035 135.469C111.737 135.364 111.964 135.09 112.314 134.497C112.107 130.733 107.294 128.736 105.685 125.7C105.647 125.631 105.613 125.557 105.577 125.482C104.843 118.282 107.586 113.267 104.312 105.514C103.367 103.276 99.7031 99.3471 99.4824 98.2961C99.8135 97.6333 100.181 97.0097 100.568 96.3817Z" fill="white"/>
<path d="M72.1564 82.7974C73.739 83.1462 75.432 84.0184 77.0636 83.7568C75.5477 88.532 68.6746 99.8618 65.4463 103.817C64.7614 104.659 63.9616 105.688 62.8494 105.78L62.2972 105.038C60.6984 104.297 57.5572 100.001 56.7246 98.3399C56.8553 98.3181 57.0681 98.2875 57.2029 98.2352C59.9268 97.1362 70.7546 85.4183 72.1564 82.7974Z" fill="#FF0000"/>
<path d="M37.079 85.2263C40.5894 86.9663 41.5772 95.37 44.5014 98.6189C43.7087 100.15 41.4042 102.217 39.8921 102.827C39.3432 103.686 38.8301 104.288 37.8735 104.589C35.832 98.9416 34.814 92.7577 33.8516 86.8181C33.9246 86.8268 33.9976 86.8443 34.0706 86.8399C35.2006 86.8225 36.2485 85.9502 37.079 85.2263Z" fill="#FF0000"/>
<path d="M84.534 87.0493C86.714 88.1657 92.8076 91.4408 94.9735 91.2489C94.7096 92.7752 94.5723 94.9295 93.6622 96.155C92.8009 96.5082 92.6952 96.3076 91.8646 95.9543C91.0486 96.4079 89.7216 96.216 88.8072 96.2683C86.648 96.3905 84.5912 97.062 82.5273 97.2277C83.2969 93.8742 83.8611 90.429 84.534 87.0493Z" fill="white"/>
<path d="M78.3636 131.583C79.5053 132.255 80.9394 133.027 82.2536 133.105C83.4774 136.507 85.3276 138.016 86.8841 140.916C86.7157 140.986 86.4821 141.086 86.2975 141.134C84.5514 141.574 79.5418 141.631 78.0234 140.667L78.3636 131.583Z" fill="white"/>
</svg>
