<svg width="120" height="146" viewBox="0 0 120 146" fill="none" xmlns="http://www.w3.org/2000/svg">
<path d="M63.484 0.276733C55.7845 -0.845296 43.6124 1.61144 36.5135 4.64231C33.198 6.05795 28.715 8.54189 27.3372 12.1169C26.6857 13.8075 26.895 15.5833 27.6519 17.1951C29.3252 20.7601 32.3822 22.4982 35.9595 23.7603C35.7881 29.374 35.8736 35.0204 35.8616 40.6381C35.8497 46.1726 35.6222 51.8412 36.4042 57.3349C37.5055 65.0749 40.6556 70.652 46.8691 75.3084C46.6818 75.5546 46.4889 75.7893 46.2948 76.0299C43.6299 79.322 34.7309 84.0532 30.7471 86.6015C30.8111 84.4314 31.2614 81.722 29.9755 79.8534C28.1546 78.4506 25.0379 79.0269 22.8559 79.114C23.0651 74.4843 24.6187 52.0656 23.8665 49.2722C23.1088 46.4594 19.5984 40.9407 17.8949 38.3896C17.134 37.2501 16.2955 36.1372 14.9007 35.8679C14.5948 36.0628 14.3625 36.2271 14.1067 36.4852C12.8893 37.7139 7.29702 47.2083 7.054 48.5977C6.46494 51.9649 7.06952 56.0836 7.22543 59.501L8.11319 79.1021C6.26568 79.0695 4.2034 78.8797 2.38094 79.1729C1.78513 79.2683 0.919631 79.4517 0.56763 79.9978C-0.353938 81.4257 0.0251094 86.2157 0.457852 87.8412C0.776841 89.0396 1.83206 89.4688 2.84272 90.0634C2.41157 93.0656 1.2577 95.7563 1.20083 98.8718C1.1169 103.503 2.44258 108.726 3.26829 113.306C4.63997 121.171 6.1376 129.013 7.76119 136.83C8.14143 139.121 8.32558 142.893 9.77893 144.747C13.1009 145.318 16.9395 144.952 20.3306 144.953L41.148 144.954L119.382 144.917C120.113 138.222 119.721 131.132 119.768 124.389C119.811 118.381 120.265 112.195 119.772 106.21C118.607 92.0589 108.714 85.9293 98.2665 78.548C94.0966 75.6019 89.9927 72.3432 86.0873 69.0527C85.989 64.2488 86.2563 59.3053 85.7607 54.5308C86.2744 54.4112 86.7851 54.2801 87.2928 54.1374C90.007 53.3642 92.193 51.4654 93.5302 48.9974C95.4696 45.4181 95.3586 41.5815 94.2374 37.7791C95.0603 36.0541 95.5973 34.4019 96.036 32.5392C98.0136 32.1467 100.108 31.554 101.705 30.2701C103.05 29.1883 103.789 27.7313 103.928 26.0171C104.196 22.6951 102.565 19.5765 100.48 17.1148C91.7758 6.83569 76.5622 1.3399 63.484 0.276733Z" fill="black"/>
<path d="M40.1964 23.8741L39.6972 23.8542C38.9582 25.0618 39.2808 30.909 39.2326 32.6483C41.7046 32.6495 45.4084 32.173 47.7013 33.1351C51.9357 34.9118 44.9899 46.7502 46.0686 49.7917C48.0891 51.3728 50.6995 49.8355 52.9595 50.5884C53.747 50.8505 53.8894 51.1123 54.2589 51.7928C54.1802 52.432 54.2347 52.6738 53.6993 53.1368C52.3732 54.2834 49.1447 54.015 47.5335 53.8503C45.8892 53.6825 43.6269 53.2668 42.6127 51.821C41.3085 49.9624 44.6017 39.5296 45.0659 36.8413C43.216 36.6122 41.3303 36.5569 39.4693 36.4431C39.4625 45.3776 38.5461 56.4599 42.4182 64.7393C43.9793 68.0775 46.4302 70.9612 49.982 72.2136C56.5805 74.5408 65.6753 70.9051 70.8105 66.7344C72.1489 65.6469 74.3202 62.9463 75.8173 62.4053C76.3392 62.2168 76.6713 62.4988 77.1247 62.7172C77.5252 63.3178 77.8319 63.6391 77.6604 64.4151C77.0837 67.0299 72.9591 69.6311 70.8392 71.1151C65.5035 74.2751 60.838 75.9715 54.6388 76.5868C56.4791 81.0467 59.8233 83.8412 63.9738 86.0674C71.0679 82.3911 78.0677 77.4368 82.3995 70.5841C82.3942 64.1749 82.4511 57.7663 82.5702 51.3585C84.0546 51.2761 85.5958 51.2737 86.9569 50.6111C88.8867 49.6712 90.3369 47.8707 91.0345 45.8652C91.8157 43.6204 91.894 40.6759 90.7481 38.5373C90.245 37.5986 89.4177 36.7562 88.3577 36.4893C84.4372 35.5033 82.8649 41.1222 80.0139 42.5942C79.3051 42.9601 79.0235 42.9263 78.2785 42.7191C75.8579 40.4496 74.7653 31.4793 74.068 28.0647C62.8903 24.9782 51.7297 24.1183 40.1964 23.8741Z" fill="white"/>
<path d="M60.0203 58.4391C57.3006 58.4184 47.4294 57.7943 45.5946 59.369C45.1213 59.7751 45.1885 59.9756 45.1416 60.5614C45.6372 61.4818 45.7724 61.6648 46.6522 62.22C50.6197 62.3262 55.8914 63.0668 59.7184 62.1938C60.7347 61.9615 61.0966 61.7304 61.6451 60.9091C61.6367 60.6012 61.6244 60.2767 61.5357 59.9795C61.2979 59.1785 60.7172 58.8102 60.0203 58.4391Z" fill="black"/>
<path d="M62.4843 33.0654C60.4602 32.9748 58.2798 32.6852 56.3376 33.3542C55.3329 33.6998 54.7808 34.096 54.317 35.0454L54.6165 35.65C56.546 37.0007 58.2201 36.8352 60.4351 36.7676C62.1804 36.7227 63.7173 37.6395 65.4017 37.542C66.2187 37.4951 66.4645 37.2875 67.0082 36.7147C67.1673 35.9618 67.1498 35.6424 66.8427 34.9384C65.5035 33.5563 64.3059 33.3645 62.4843 33.0654Z" fill="black"/>
<path d="M61.6201 39.0967C61.5612 39.0827 61.502 39.0705 61.4423 39.0602C61.3829 39.0501 61.3231 39.0419 61.2629 39.0355C61.2027 39.0294 61.1424 39.0251 61.0819 39.0228C61.0215 39.0206 60.961 39.0205 60.9006 39.0224C60.8401 39.0242 60.7798 39.0281 60.7196 39.0339C60.6594 39.0397 60.5995 39.0477 60.5398 39.0578C60.4802 39.0676 60.4209 39.0794 60.362 39.0932C60.3032 39.1069 60.2448 39.1227 60.187 39.1405C60.129 39.1583 60.0717 39.1779 60.0152 39.1994C59.9587 39.2211 59.903 39.2446 59.8481 39.2698C59.7933 39.2949 59.7392 39.322 59.6859 39.3509C59.6328 39.3798 59.5807 39.4104 59.5295 39.4428C59.4786 39.4751 59.4288 39.5092 59.38 39.545C59.331 39.5805 59.2834 39.6178 59.2372 39.6568C59.1908 39.6957 59.1457 39.7362 59.102 39.7781C59.0585 39.8197 59.0163 39.8629 58.9755 39.9077C58.9347 39.9525 58.8954 39.9986 58.8578 40.0458C58.8201 40.093 58.784 40.1415 58.7496 40.1913C58.7151 40.2409 58.6824 40.2917 58.6513 40.3437C58.6203 40.3956 58.5912 40.4485 58.5638 40.5024C58.5363 40.5562 58.5105 40.6108 58.4867 40.6662C58.4628 40.7219 58.4408 40.7783 58.4207 40.8353C58.4005 40.8923 58.3823 40.95 58.3662 41.0083C58.35 41.0664 58.3357 41.1251 58.3232 41.1845C58.311 41.2436 58.3007 41.3031 58.2922 41.3631C58.284 41.423 58.2776 41.4831 58.2731 41.5433C58.2688 41.6037 58.2666 41.6642 58.2663 41.7246C58.2661 41.7851 58.2678 41.8454 58.2715 41.9056C58.2752 41.966 58.2809 42.0262 58.2886 42.0862C58.2966 42.1461 58.3064 42.2058 58.318 42.2652C58.3297 42.3245 58.3434 42.3834 58.359 42.4418C58.3746 42.5001 58.3923 42.5579 58.4119 42.6152C58.4315 42.6724 58.453 42.7289 58.4763 42.7846C58.4997 42.8406 58.5247 42.8956 58.5515 42.9497C58.5786 43.0038 58.6073 43.0569 58.6378 43.1092C58.6683 43.1614 58.7005 43.2124 58.7345 43.2623C58.7684 43.3124 58.8041 43.3613 58.8415 43.4091C58.8786 43.4568 58.9173 43.5032 58.9576 43.5483C58.9979 43.5933 59.0397 43.637 59.0829 43.6791C59.1261 43.7215 59.1707 43.7624 59.2165 43.8016C59.2627 43.8409 59.31 43.8787 59.3585 43.915C59.4068 43.951 59.4564 43.9855 59.5073 44.0184C59.5579 44.0513 59.6098 44.0824 59.6628 44.1119C59.7156 44.1413 59.7692 44.1689 59.8239 44.1946C59.8788 44.2203 59.9343 44.2443 59.9905 44.2666C60.0467 44.2886 60.1038 44.3087 60.1616 44.327C60.2191 44.3453 60.2773 44.3616 60.3362 44.376C60.3948 44.3905 60.4539 44.403 60.5136 44.4134C60.5565 44.4208 60.5996 44.4273 60.6428 44.4328C60.6861 44.4384 60.7294 44.4428 60.7729 44.446C60.8164 44.4494 60.8599 44.4518 60.9034 44.4531C60.9469 44.4545 60.9905 44.4547 61.0342 44.4539C61.0777 44.4531 61.1212 44.4513 61.1647 44.4484C61.2082 44.4454 61.2515 44.4415 61.2947 44.4364C61.3382 44.4314 61.3814 44.4253 61.4244 44.4181C61.4674 44.4112 61.5102 44.4031 61.5529 44.3939C61.5953 44.3848 61.6376 44.3748 61.6797 44.3636C61.7219 44.3525 61.7638 44.3403 61.8054 44.327C61.8471 44.3138 61.8883 44.2996 61.9291 44.2845C61.97 44.2694 62.0104 44.2532 62.0504 44.236C62.0905 44.219 62.1301 44.201 62.1694 44.1819C62.2086 44.163 62.2473 44.1432 62.2855 44.1222C62.324 44.1013 62.3617 44.0794 62.3989 44.0566C62.436 44.034 62.4726 44.0106 62.5086 43.9862C62.5447 43.9615 62.5802 43.9362 62.6152 43.9102C62.65 43.884 62.6842 43.8569 62.7178 43.8291C62.7513 43.8012 62.7842 43.7726 62.8165 43.7432C62.8486 43.714 62.88 43.6839 62.9108 43.6529C62.9415 43.6221 62.9715 43.5906 63.0006 43.5582C63.0298 43.5259 63.0582 43.4927 63.0858 43.4588C63.1133 43.4251 63.1401 43.3908 63.1661 43.3558C63.1921 43.3208 63.2172 43.2852 63.2413 43.2492C63.2657 43.2128 63.2891 43.176 63.3117 43.1386C63.334 43.1015 63.3554 43.0637 63.3761 43.0252C63.3968 42.9868 63.4165 42.9479 63.4354 42.9087C63.4542 42.8695 63.4721 42.8297 63.4891 42.7894C63.5058 42.7493 63.5216 42.7088 63.5364 42.6677C63.5515 42.6268 63.5654 42.5856 63.5782 42.544C63.5912 42.5023 63.6031 42.4604 63.614 42.4183C63.6251 42.3761 63.635 42.3337 63.6438 42.291C63.6525 42.2483 63.6604 42.2055 63.6673 42.1625C63.6742 42.1196 63.68 42.0764 63.6848 42.0329C63.6895 41.9897 63.6933 41.9463 63.6959 41.9028C63.6986 41.8593 63.7001 41.8158 63.7007 41.7724C63.7012 41.7286 63.7007 41.685 63.6991 41.6415C63.6975 41.598 63.6948 41.5545 63.6911 41.511C63.6877 41.4675 63.683 41.4242 63.6772 41.381C63.6716 41.3377 63.6649 41.2948 63.6569 41.2521C63.6492 41.2091 63.6405 41.1665 63.6307 41.124C63.6206 41.0816 63.6097 41.0394 63.5981 40.9975C63.5861 40.9557 63.5733 40.914 63.5595 40.8727C63.5454 40.8313 63.5306 40.7903 63.5149 40.7498C63.499 40.7092 63.4822 40.669 63.4644 40.6292C63.4466 40.5895 63.4278 40.5501 63.4079 40.5111C63.3883 40.4724 63.3678 40.4341 63.3463 40.3962C63.3248 40.3582 63.3024 40.3209 63.2791 40.284C63.2557 40.2471 63.2315 40.2109 63.2063 40.1754C63.1814 40.1399 63.1555 40.1049 63.1287 40.0704C63.1019 40.0359 63.0744 40.0021 63.046 39.969C63.0176 39.9361 62.9885 39.9038 62.9585 39.8719C62.9285 39.8404 62.8979 39.8095 62.8666 39.7793C62.8351 39.749 62.803 39.7196 62.7704 39.691C62.7375 39.6623 62.7039 39.6345 62.6697 39.6074C62.6355 39.5804 62.6007 39.5541 62.5651 39.5287C62.5299 39.5035 62.4939 39.4791 62.4573 39.4555C62.4205 39.4316 62.3832 39.4088 62.3456 39.3871C62.3079 39.3653 62.2697 39.3444 62.231 39.3242C62.1923 39.3044 62.1532 39.2854 62.1137 39.2674C62.0739 39.2491 62.0337 39.2318 61.9932 39.2157C61.9529 39.1995 61.9122 39.1842 61.8711 39.1699C61.8297 39.1559 61.7881 39.1427 61.7462 39.1305C61.7045 39.1183 61.6625 39.1071 61.6201 39.0967Z" fill="black"/>
<path d="M95.8099 81.2554C95.0013 81.504 92.8543 84.8809 92.1515 85.7018C89.2312 89.1116 79.6779 99.0289 75.4459 99.1216C72.5643 99.1844 67.8443 94.1817 65.6682 92.3131C65.2979 98.2573 65.5354 104.31 65.5358 110.272L65.4737 141.497L73.9381 141.476L95.5804 141.498C95.5677 136.793 95.7781 132.067 95.8421 127.359C95.9113 122.275 95.2511 114.824 96.7227 110.054C98.5734 104.053 106.08 97.2029 111.551 94.2688C107.029 88.7875 101.723 85.0841 95.8099 81.2554Z" fill="#FF0000"/>
<path d="M43.6215 82.5879C39.9479 84.3932 36.4415 87.1237 33.0161 89.3841C33.7969 91.8207 33.8919 94.3941 33.0113 96.8227C31.7016 100.434 28.6588 102.535 25.3349 104.127C25.5712 104.548 25.8476 105.012 25.9975 105.475C26.8809 108.201 25.5139 110.764 24.3171 113.127C25.3134 118.727 28.0638 125.435 29.8234 130.946C30.0369 126.719 30.1619 122.49 30.1985 118.258C30.2295 115.812 29.9829 112.983 30.4113 110.579C30.6117 109.453 30.9936 109.228 31.8774 108.628C32.184 108.651 32.404 108.587 32.6335 108.826C34.2908 110.554 33.2699 131.477 33.2142 135.211L33.2265 141.479L62.1053 141.461L62.1741 91.1716C59.9706 93.379 57.2911 96.9484 54.5622 98.3723C53.983 98.6745 53.5602 98.739 52.929 98.4964C49.5458 97.1981 45.0665 85.9544 43.6215 82.5879Z" fill="#FF0000"/>
<path d="M56.4177 124.198C56.3771 124.194 56.3364 124.191 56.2956 124.188C56.2547 124.186 56.2139 124.185 56.1731 124.185C56.1322 124.185 56.0914 124.185 56.0506 124.187C56.0097 124.189 55.9689 124.192 55.9281 124.195C55.8875 124.199 55.8469 124.204 55.8064 124.209C55.7658 124.215 55.7255 124.222 55.6854 124.229C55.6454 124.237 55.6055 124.245 55.5657 124.255C55.5259 124.264 55.4864 124.275 55.4472 124.286C55.408 124.298 55.369 124.31 55.3303 124.323C55.2915 124.337 55.2532 124.351 55.2153 124.366C55.1774 124.381 55.1399 124.397 55.1027 124.414C55.0654 124.431 55.0286 124.449 54.9926 124.468C54.956 124.487 54.9201 124.506 54.8848 124.527C54.8495 124.547 54.8147 124.568 54.7802 124.59C54.7457 124.612 54.7119 124.636 54.6788 124.659C54.6456 124.683 54.613 124.708 54.5809 124.733C54.5488 124.758 54.5174 124.784 54.4866 124.811C54.4556 124.838 54.4254 124.866 54.396 124.894C54.3665 124.922 54.3378 124.951 54.3097 124.981C54.2816 125.01 54.2542 125.041 54.2277 125.072C54.2012 125.103 54.1754 125.135 54.1502 125.167C54.125 125.199 54.1007 125.232 54.0774 125.265C54.0538 125.299 54.0311 125.333 54.0094 125.367C53.9874 125.402 53.9663 125.437 53.9461 125.472C53.926 125.508 53.9066 125.544 53.8881 125.58C53.8698 125.617 53.8522 125.654 53.8355 125.691C53.8188 125.728 53.8031 125.766 53.7882 125.804C53.7734 125.842 53.7594 125.88 53.7465 125.919C53.7335 125.958 53.7214 125.997 53.7103 126.036C53.6991 126.075 53.6889 126.115 53.6796 126.155C53.6703 126.195 53.6621 126.235 53.655 126.275C53.6476 126.315 53.6412 126.355 53.6359 126.396C53.6306 126.437 53.6262 126.477 53.6227 126.518C53.6193 126.558 53.6169 126.599 53.6156 126.64C53.6143 126.681 53.6139 126.722 53.6144 126.763C53.6149 126.804 53.6164 126.844 53.6188 126.885C53.6212 126.926 53.6246 126.967 53.6291 127.007C53.6336 127.048 53.639 127.088 53.6454 127.129C53.652 127.169 53.6595 127.209 53.6677 127.249C53.6762 127.289 53.6855 127.329 53.6955 127.368C53.7059 127.408 53.7171 127.447 53.7293 127.486C53.7415 127.525 53.7547 127.564 53.7687 127.602C53.7828 127.641 53.7978 127.679 53.8137 127.716C53.8296 127.754 53.8463 127.791 53.8638 127.828C53.8815 127.865 53.9001 127.901 53.9195 127.937C53.9388 127.973 53.9591 128.009 53.9803 128.044C54.0013 128.079 54.0231 128.113 54.0459 128.147C54.0687 128.181 54.0923 128.214 54.1167 128.247C54.1411 128.28 54.1663 128.312 54.1923 128.344C54.2183 128.375 54.2449 128.406 54.2722 128.436C54.2998 128.467 54.3281 128.496 54.357 128.525C54.3859 128.554 54.4153 128.582 54.4453 128.61C54.4755 128.637 54.5064 128.664 54.538 128.69C54.5695 128.716 54.6016 128.741 54.6342 128.766C54.6671 128.79 54.7005 128.814 54.7344 128.837C54.7681 128.86 54.8024 128.882 54.8374 128.903C54.8724 128.925 54.9079 128.945 54.9437 128.964C54.9797 128.984 55.016 129.002 55.0526 129.02C55.0895 129.038 55.1267 129.055 55.1644 129.071C55.2021 129.087 55.2401 129.102 55.2785 129.116C55.3167 129.13 55.3553 129.143 55.3943 129.155C55.4333 129.168 55.4725 129.179 55.512 129.189C55.5515 129.2 55.5913 129.209 55.6314 129.218C55.6714 129.226 55.7116 129.234 55.7519 129.24C55.8078 129.249 55.8639 129.256 55.9201 129.262C55.9763 129.267 56.0328 129.27 56.0895 129.272C56.146 129.274 56.2025 129.273 56.259 129.271C56.3155 129.269 56.3719 129.265 56.4284 129.258C56.4846 129.253 56.5406 129.245 56.5963 129.235C56.6519 129.225 56.7072 129.214 56.7621 129.2C56.8173 129.187 56.8718 129.172 56.9256 129.155C56.9797 129.137 57.033 129.119 57.0855 129.098C57.1383 129.078 57.1902 129.055 57.2414 129.031C57.2926 129.007 57.343 128.981 57.3925 128.954C57.4419 128.926 57.4904 128.897 57.5381 128.867C57.5856 128.836 57.632 128.804 57.6773 128.77C57.7227 128.736 57.7669 128.701 57.8102 128.664C57.8531 128.628 57.8949 128.59 57.9355 128.55C57.9758 128.511 58.0149 128.47 58.0528 128.428C58.0904 128.385 58.1268 128.342 58.1618 128.298C58.1968 128.253 58.2302 128.207 58.262 128.161C58.2938 128.114 58.3241 128.066 58.3527 128.018C58.3813 127.969 58.4084 127.919 58.4338 127.868C58.459 127.818 58.4826 127.766 58.5046 127.714C58.5266 127.662 58.5468 127.609 58.5651 127.556C58.5834 127.502 58.6 127.448 58.6148 127.394C58.6297 127.339 58.6427 127.284 58.6538 127.229C58.6649 127.173 58.6742 127.118 58.6816 127.061C58.6888 127.005 58.6942 126.949 58.6979 126.893C58.7016 126.836 58.7034 126.78 58.7031 126.723C58.7031 126.667 58.7011 126.61 58.6971 126.554C58.6934 126.497 58.6877 126.441 58.68 126.385C58.6723 126.329 58.6628 126.273 58.6514 126.218C58.64 126.162 58.6269 126.107 58.612 126.053C58.5969 125.998 58.5801 125.945 58.5615 125.891C58.543 125.838 58.5225 125.785 58.5002 125.733C58.4782 125.681 58.4544 125.63 58.4287 125.579C58.4032 125.529 58.376 125.479 58.3471 125.431C58.3182 125.382 58.2877 125.334 58.2556 125.288C58.2236 125.241 58.19 125.196 58.155 125.151C58.12 125.107 58.0834 125.064 58.0452 125.022C58.0073 124.98 57.9681 124.939 57.9275 124.9C57.8869 124.861 57.845 124.823 57.8018 124.786C57.7586 124.75 57.7142 124.715 57.6686 124.681C57.623 124.648 57.5764 124.616 57.529 124.585C57.4812 124.555 57.4326 124.526 57.383 124.499C57.3334 124.471 57.2829 124.446 57.2314 124.422C57.1803 124.398 57.1283 124.376 57.0755 124.356C57.0228 124.335 56.9693 124.317 56.9153 124.3C56.8614 124.283 56.8069 124.268 56.7518 124.255C56.6969 124.242 56.6416 124.23 56.5859 124.221C56.53 124.211 56.4739 124.204 56.4177 124.198Z" fill="black"/>
<path d="M57.5568 105.626C57.5189 105.614 57.4807 105.603 57.4423 105.593C57.4038 105.582 57.3652 105.573 57.3265 105.565C57.2875 105.556 57.2486 105.549 57.2096 105.542C57.1703 105.535 57.131 105.53 57.0915 105.525C57.052 105.52 57.0123 105.516 56.9725 105.513C56.933 105.51 56.8934 105.508 56.8536 105.507C56.8138 105.507 56.7741 105.507 56.7343 105.507C56.6945 105.508 56.6547 105.51 56.615 105.513C56.5755 105.516 56.5359 105.519 56.4964 105.524C56.4569 105.529 56.4175 105.534 56.3783 105.541C56.3391 105.547 56.3 105.555 56.261 105.563C56.2223 105.572 56.1837 105.581 56.1452 105.591C56.1068 105.601 56.0686 105.612 56.0307 105.624C55.9928 105.636 55.9551 105.649 55.9177 105.663C55.8803 105.677 55.8433 105.691 55.8067 105.707C55.7701 105.722 55.734 105.739 55.6982 105.756C55.6624 105.774 55.627 105.792 55.592 105.811C55.557 105.83 55.5225 105.849 55.4886 105.87C55.4546 105.89 55.4211 105.912 55.3879 105.934C55.355 105.956 55.3226 105.979 55.2905 106.003C55.2587 106.026 55.2274 106.051 55.1966 106.076C55.1658 106.101 55.1356 106.127 55.1059 106.154C55.0765 106.181 55.0477 106.208 55.0196 106.236C54.9913 106.264 54.9637 106.292 54.9369 106.322C54.9099 106.351 54.8836 106.381 54.8581 106.411C54.8327 106.442 54.808 106.473 54.7842 106.505C54.76 106.537 54.7368 106.569 54.7146 106.602C54.692 106.634 54.6703 106.668 54.6493 106.702C54.6286 106.736 54.6086 106.77 54.5893 106.805C54.5699 106.84 54.5515 106.875 54.534 106.91C54.5165 106.946 54.4998 106.982 54.4839 107.018C54.4679 107.055 54.453 107.092 54.4389 107.129C54.4249 107.166 54.4116 107.204 54.3992 107.242C54.387 107.279 54.3755 107.317 54.3649 107.356C54.3543 107.394 54.3446 107.432 54.3359 107.471C54.3274 107.51 54.3197 107.549 54.3128 107.588C54.3059 107.627 54.3 107.667 54.2949 107.706C54.2899 107.746 54.2859 107.785 54.283 107.825C54.2798 107.864 54.2776 107.904 54.2762 107.944C54.2749 107.983 54.2746 108.023 54.2754 108.063C54.276 108.103 54.2776 108.142 54.2802 108.182C54.2829 108.222 54.2863 108.262 54.2906 108.301C54.2951 108.341 54.3005 108.38 54.3069 108.419C54.313 108.459 54.3201 108.498 54.3283 108.536C54.3366 108.575 54.3456 108.614 54.3554 108.652C54.3655 108.691 54.3763 108.729 54.388 108.767C54.3999 108.805 54.4127 108.843 54.4262 108.88C54.4397 108.918 54.4542 108.955 54.4695 108.991C54.4849 109.028 54.5011 109.064 54.5181 109.1C54.535 109.136 54.5529 109.172 54.5718 109.207C54.5906 109.242 54.6102 109.276 54.6306 109.311C54.651 109.345 54.6721 109.378 54.6939 109.411C54.7159 109.444 54.7387 109.477 54.7623 109.509C54.7859 109.541 54.8101 109.573 54.8351 109.604C54.86 109.635 54.8857 109.665 54.9122 109.694C54.9387 109.724 54.9659 109.753 54.9938 109.782C55.0216 109.81 55.0501 109.838 55.0793 109.865C55.1084 109.892 55.1381 109.918 55.1684 109.944C55.1989 109.97 55.2299 109.994 55.2614 110.019C55.293 110.043 55.3251 110.066 55.3577 110.089C55.3906 110.111 55.4238 110.133 55.4575 110.154C55.4912 110.175 55.5254 110.196 55.5601 110.215C55.5949 110.234 55.63 110.253 55.6655 110.271C55.7011 110.289 55.737 110.306 55.7733 110.322C55.8253 110.345 55.878 110.366 55.9313 110.385C55.9845 110.405 56.0385 110.422 56.0931 110.438C56.1477 110.453 56.2028 110.467 56.2582 110.48C56.3136 110.492 56.3694 110.502 56.4256 110.51C56.4819 110.518 56.5382 110.524 56.5947 110.529C56.6512 110.533 56.7079 110.536 56.7649 110.536C56.8217 110.537 56.8783 110.535 56.9348 110.532C56.9915 110.529 57.048 110.524 57.1042 110.517C57.1607 110.509 57.2168 110.5 57.2724 110.49C57.3281 110.479 57.3834 110.466 57.4383 110.451C57.4932 110.437 57.5474 110.42 57.601 110.402C57.6548 110.384 57.708 110.364 57.7605 110.342C57.8127 110.32 57.8641 110.296 57.9148 110.271C57.9657 110.246 58.0157 110.219 58.0647 110.19C58.1135 110.161 58.1614 110.131 58.2083 110.099C58.2552 110.066 58.301 110.033 58.3455 109.998C58.3901 109.963 58.4334 109.926 58.4756 109.888C58.5178 109.85 58.5586 109.811 58.5981 109.77C58.6376 109.729 58.6757 109.687 58.7123 109.644C58.7489 109.6 58.784 109.556 58.8176 109.51C58.8511 109.465 58.883 109.418 58.9135 109.37C58.944 109.322 58.9728 109.273 58.9998 109.223C59.0269 109.173 59.0523 109.123 59.0762 109.071C59.0998 109.02 59.1217 108.967 59.1418 108.914C59.162 108.861 59.1804 108.807 59.1971 108.753C59.2135 108.699 59.2281 108.644 59.2409 108.589C59.2536 108.534 59.2646 108.478 59.2739 108.422C59.2829 108.366 59.2899 108.31 59.2949 108.253C59.3002 108.197 59.3036 108.14 59.3049 108.083C59.3065 108.026 59.3059 107.97 59.3033 107.913C59.3009 107.857 59.2967 107.8 59.2906 107.744C59.2842 107.687 59.276 107.631 59.2659 107.575C59.2558 107.519 59.2439 107.464 59.2301 107.409C59.2163 107.354 59.2007 107.299 59.1832 107.246C59.1657 107.191 59.1463 107.138 59.1251 107.085C59.1039 107.033 59.081 106.981 59.0563 106.93C59.0316 106.879 59.0054 106.828 58.9776 106.779C58.9494 106.73 58.9197 106.681 58.8885 106.634C58.8572 106.587 58.8243 106.54 58.7898 106.495C58.7553 106.45 58.7193 106.406 58.6816 106.364C58.6442 106.321 58.6055 106.28 58.5655 106.24C58.5252 106.2 58.4837 106.161 58.441 106.124C58.398 106.087 58.3539 106.051 58.3085 106.017C58.2635 105.982 58.2172 105.95 58.1697 105.918C58.1223 105.887 58.0737 105.858 58.0242 105.83C57.9746 105.802 57.9242 105.776 57.873 105.752C57.8218 105.727 57.7699 105.705 57.7171 105.684C57.6643 105.663 57.6109 105.644 57.5568 105.626Z" fill="black"/>
<path d="M113.33 96.9118C110.703 98.2948 107.949 100.732 105.801 102.797C103.487 105.022 101.257 107.63 100.228 110.721C98.8896 114.737 99.2249 135.553 99.1064 141.444L102.054 141.466L116.076 141.475C115.814 133.398 116.166 125.238 116.273 117.153C116.331 112.687 116.696 107.89 115.877 103.483C115.421 101.025 114.498 99.0863 113.33 96.9118Z" fill="#FF0000"/>
<path d="M22.1692 118.813C17.4759 119.308 12.4643 118.972 7.73078 119.075C9.5059 126.305 10.0731 134.056 12.2694 141.135C13.0828 141.705 14.4144 141.5 15.3809 141.495L29.4085 141.481C26.9222 133.955 24.3842 126.425 22.1692 118.813Z" fill="#FF0000"/>
<path d="M22.585 90.3367L6.94344 90.2126C6.31183 91.6162 5.62492 92.9896 5.2761 94.4979C3.79412 100.907 6.09107 109.056 7.3718 115.443C10.969 115.296 15.5144 115.962 18.9811 115.077C19.9086 114.84 20.3227 114.655 20.7952 113.842C20.0144 110.98 14.3092 113.044 12.064 111.685C11.6622 110.923 11.696 110.877 11.8659 110.025C12.4681 109.316 12.5576 109.196 13.4409 108.936C15.4265 108.991 17.4335 109.092 19.419 109.033C20.8306 108.991 21.9379 108.971 22.9454 107.911C23.0981 107.053 23.0913 106.852 22.8141 106.028C20.3322 103.763 15.1357 105.868 11.9518 104.543C11.5676 103.93 11.4813 103.651 11.4566 102.928C13.0953 100.272 20.2562 101.922 23.3081 100.793C23.5985 100.465 23.8431 100.384 23.7953 99.9195C23.3316 95.4409 13.5877 99.1455 10.932 96.7364C10.8679 95.9632 10.936 95.9349 11.3329 95.3129C13.9763 93.696 19.2754 94.4573 22.3122 94.5015L22.585 90.3367Z" fill="white"/>
<path d="M15.3878 41.4985C13.4564 43.1976 11.8463 46.8529 10.4856 49.1104L11.7087 79.087L14.6357 79.1041L19.1898 79.1089C19.4356 74.1204 21.0667 53.772 20.0378 50.0646C19.2423 47.1981 16.8988 44.0766 15.3878 41.4985Z" fill="white"/>
<path d="M85.2243 72.4074C79.3278 80.0492 75.1626 83.5517 66.9115 88.5521C69.4355 91.1156 72.0877 93.4427 74.9153 95.6653L75.3003 95.795C81.6518 92.8601 89.2435 84.9963 92.8773 78.9868C90.488 76.6525 87.7878 74.5504 85.2243 72.4074Z" fill="#FF0000"/>
<path d="M51.0887 76.633C49.1139 77.3517 47.5532 79.7978 46.6153 81.5669C47.877 84.5345 51.2534 92.6572 53.927 94.2008L54.596 93.8938C56.6846 92.1393 58.6017 90.0571 60.5558 88.1484C55.7507 85.1518 53.219 81.7861 51.0887 76.633Z" fill="#FF0000"/>
<path d="M27.2999 82.6308C19.2973 82.5274 11.2741 82.6654 3.26874 82.6276L3.39881 86.3763L27.5362 86.3636C27.5537 85.1417 27.7116 83.7938 27.2999 82.6308Z" fill="#FF0000"/>
<path d="M29.2811 90.186C28.6825 90.211 28.0982 90.2536 27.5255 90.4441C26.7376 90.7066 26.271 91.1573 25.9508 91.9241C25.0511 94.0771 26.2288 97.0291 26.9917 99.0648C27.5032 98.7597 28.0688 98.4355 28.488 98.0048C29.7318 96.7264 30.5137 94.3086 30.4393 92.5549C30.3872 91.3271 30.1343 90.9727 29.2811 90.186Z" fill="white"/>
</svg>
