<svg width="114" height="146" viewBox="0 0 114 146" fill="none" xmlns="http://www.w3.org/2000/svg">
<path d="M41.5279 0.237724C42.0898 0.17623 42.6525 0.126622 43.216 0.0889324C43.7799 0.0515259 44.3442 0.0258929 44.9091 0.0120072C45.4737 -0.00187853 46.0385 -0.00372072 46.6034 0.00648104C47.1683 0.0166828 47.7327 0.0387891 48.2965 0.0727949C48.8606 0.106801 49.4237 0.152698 49.9859 0.210508C50.5478 0.268601 51.1084 0.338315 51.6678 0.419646C52.2272 0.50126 52.7847 0.594633 53.3402 0.699767C53.8958 0.805186 54.4491 0.922086 55.0003 1.05046C55.5511 1.17911 56.0992 1.31938 56.6446 1.47128C57.1897 1.62289 57.7317 1.7861 58.2707 1.96095C58.8095 2.1358 59.3445 2.32186 59.8758 2.51909C60.4071 2.71633 60.9343 2.92489 61.4573 3.14479C61.9804 3.36442 62.4987 3.59508 63.0124 3.83681C63.5261 4.07825 64.0348 4.33061 64.5386 4.59387C65.0423 4.85685 65.5406 5.13044 66.0333 5.41467C66.5261 5.6989 67.0129 5.9935 67.4938 6.29842C74.5839 10.8913 80.8542 19.1968 82.6055 27.6685C83.8379 33.6298 82.7096 38.7863 79.5524 43.8727C80.7104 45.4455 81.6416 46.9596 82.0511 48.915C82.765 52.3257 81.9445 56.0753 80.1023 58.9777C77.9642 62.3456 75.1077 63.8814 71.3675 64.6767C71.4633 67.7126 71.5744 70.7479 71.7005 73.7826C73.7885 75.7405 75.3593 78.1315 77.411 80.1056C80.5997 83.1737 86.7122 84.7635 90.7763 86.5318C97.1595 89.3076 106.874 93.5838 109.585 100.623C110.022 101.782 110.398 102.961 110.712 104.16C111.026 105.361 111.276 106.575 111.464 107.802C112.287 113.048 114.995 140.52 113.473 144.21L112.888 144.15L113.091 144.397C107.596 145.54 95.4325 144.86 89.3336 144.86C83.2707 144.856 76.8008 145.319 70.78 144.784C70.2603 144.737 69.845 144.563 69.4042 144.278C69.0815 144.474 68.7122 144.656 68.3437 144.733C65.205 145.409 52.7089 144.86 48.5878 144.856C33.2311 144.839 17.7608 145.268 2.41855 144.814C1.53524 144.788 1.14315 144.784 0.364365 144.295C-0.0289512 143.326 -0.0177803 142.382 0.0140321 141.349C0.156155 136.767 0.805617 132.104 1.26338 127.539C2.13182 118.88 2.2289 108.64 6.09142 100.738C8.18112 96.4615 11.4363 93.1587 15.1427 90.3447C19.4398 87.0887 27.0306 83.8964 30.1474 80.7993L30.4118 80.5328C28.815 79.1394 27.3545 77.6248 26.1076 75.8888C19.2266 66.3077 20.4921 56.1008 20.4545 45.0511C20.438 40.1908 20.0546 35.787 20.7515 30.9212C19.9695 30.5067 19.1795 30.08 18.4735 29.5372C16.1412 27.7433 13.828 25.2822 13.4161 22.1859C12.9848 18.9443 14.7956 15.7342 16.6709 13.29C22.583 5.58472 32.2445 1.37522 41.5279 0.237724Z" fill="black"/>
<path d="M79.0482 85.4777C85.9143 87.9431 98.4943 93.1248 103.605 98.2299C105.459 100.083 106.418 102.204 107.148 104.729C109.698 113.562 110.009 131.19 110.175 140.809C109.944 140.946 109.816 141.035 109.573 141.12C107.917 141.702 91.1535 141.473 88.6097 141.252C88.0639 141.205 87.6062 141.035 87.1286 140.758C87.7842 138.068 87.6673 135.088 88.0185 132.325C88.7498 126.57 90.9233 120.393 93.2977 115.165C94.471 112.58 98.4439 107.888 97.9869 105.197C97.4118 104.64 97.2561 104.721 96.4913 104.661C93.56 105.681 91.886 110.451 90.3205 113.027C89.9024 114.599 89.1476 117.754 88.059 118.91C87.367 119.645 86.494 119.445 85.5859 119.445C85.2434 119.615 84.9418 119.768 84.6997 120.079C82.5183 122.914 83.428 136.937 83.7974 140.767C83.5387 140.929 83.4718 140.992 83.2062 141.094C81.4354 141.774 50.6877 141.485 49.2351 140.907C50.3361 126.574 49.288 112.024 50.4105 97.6646C50.5927 98.0089 50.7902 98.3234 51.0451 98.6167C52.7873 100.623 59.6142 107.352 61.8348 107.48C62.2546 107.484 62.55 107.45 62.9359 107.258C69.8801 103.849 76.2847 92.6487 79.0482 85.4777Z" fill="#FF0000"/>
<path d="M53.5396 116.38C53.5909 116.355 53.6428 116.331 53.6954 116.308C53.748 116.285 53.8013 116.266 53.8553 116.249C53.9092 116.229 53.9638 116.212 54.0189 116.198C54.0739 116.183 54.1293 116.171 54.185 116.159C54.2409 116.148 54.297 116.138 54.3535 116.13C54.41 116.124 54.4667 116.118 54.5237 116.113C54.5805 116.11 54.6373 116.108 54.6944 116.108C54.7511 116.111 54.8078 116.114 54.8646 116.117C54.9213 116.123 54.9779 116.128 55.0344 116.134C55.0908 116.142 55.1469 116.152 55.2026 116.164C55.2582 116.178 55.3134 116.192 55.3682 116.206C55.423 116.223 55.4773 116.242 55.531 116.261C55.5847 116.278 55.6377 116.298 55.6901 116.321C55.7424 116.346 55.794 116.372 55.845 116.397C55.8957 116.423 55.9455 116.451 55.9946 116.482C56.0436 116.511 56.0915 116.542 56.1383 116.576C56.1851 116.61 56.2309 116.644 56.2755 116.678C56.3204 116.715 56.3639 116.753 56.406 116.793C56.4485 116.832 56.4894 116.874 56.5287 116.916C56.5684 116.959 56.6067 117.001 56.6436 117.044C56.6805 117.089 56.7159 117.136 56.7498 117.184C56.7839 117.229 56.8164 117.276 56.8473 117.324C56.8781 117.375 56.9073 117.426 56.9349 117.477C56.9624 117.528 56.9884 117.581 57.0129 117.634C57.0372 117.685 57.0596 117.739 57.0803 117.796C57.1012 117.85 57.1204 117.904 57.1377 117.957C57.1551 118.014 57.1706 118.071 57.1844 118.127C57.1982 118.184 57.21 118.241 57.2199 118.298C57.2299 118.357 57.238 118.415 57.2443 118.472C57.2506 118.531 57.2552 118.591 57.258 118.65C57.2604 118.707 57.2611 118.765 57.26 118.825C57.2589 118.881 57.2559 118.939 57.2509 118.999C57.246 119.058 57.2392 119.116 57.2307 119.173C57.2222 119.233 57.2117 119.291 57.1993 119.347C57.1872 119.404 57.1731 119.461 57.1571 119.517C57.1412 119.574 57.1234 119.629 57.1039 119.683C57.0843 119.737 57.0631 119.791 57.0402 119.845C57.0171 119.899 56.9923 119.952 56.9658 120.006C56.9394 120.057 56.9115 120.108 56.882 120.159C56.8523 120.208 56.821 120.256 56.7882 120.304C56.7554 120.352 56.7211 120.399 56.6853 120.444C56.6493 120.49 56.6119 120.533 56.5734 120.576C56.5348 120.621 56.4949 120.664 56.4535 120.703C56.412 120.743 56.3693 120.781 56.3255 120.818C56.2817 120.858 56.2367 120.895 56.1904 120.929C56.1444 120.963 56.0973 120.995 56.0491 121.027C56.0006 121.058 55.9513 121.087 55.9012 121.116C55.851 121.141 55.8001 121.167 55.7483 121.192C55.71 121.209 55.6715 121.226 55.6326 121.243C55.5935 121.26 55.5541 121.276 55.5145 121.29C55.4748 121.301 55.4349 121.314 55.3947 121.328C55.3542 121.34 55.3135 121.351 55.2728 121.362C55.232 121.371 55.191 121.379 55.1496 121.388C55.1083 121.396 55.0669 121.403 55.0253 121.409C54.9837 121.415 54.942 121.419 54.9001 121.422C54.8585 121.425 54.8167 121.427 54.7745 121.43C54.7327 121.433 54.6908 121.433 54.6489 121.43C54.6068 121.43 54.5648 121.429 54.5229 121.426C54.481 121.426 54.4392 121.423 54.3973 121.418C54.3557 121.412 54.3141 121.406 54.2725 121.401C54.2312 121.395 54.19 121.386 54.149 121.375C54.1077 121.367 54.0668 121.358 54.0263 121.35C53.9855 121.338 53.9452 121.325 53.9053 121.311C53.865 121.3 53.8252 121.286 53.7859 121.269C53.7465 121.255 53.7075 121.239 53.6689 121.222C53.6301 121.205 53.5918 121.188 53.5541 121.171C53.5163 121.151 53.479 121.131 53.4421 121.112C53.4052 121.092 53.3687 121.07 53.3326 121.048C53.2968 121.025 53.2616 121.001 53.2269 120.976C53.1919 120.953 53.1576 120.929 53.124 120.903C53.0904 120.878 53.0575 120.851 53.0253 120.822C52.993 120.794 52.9614 120.766 52.9302 120.737C52.8994 120.709 52.8691 120.679 52.8393 120.648C52.8099 120.617 52.7811 120.586 52.753 120.555C52.7249 120.521 52.6975 120.487 52.6708 120.453C52.6443 120.421 52.6186 120.387 52.5935 120.351C52.5687 120.317 52.5446 120.281 52.5212 120.244C52.4981 120.21 52.4758 120.175 52.4543 120.138C52.4328 120.101 52.4122 120.063 52.3923 120.023C52.3725 119.986 52.3536 119.948 52.3357 119.909C52.3178 119.869 52.3009 119.829 52.2849 119.79C52.2686 119.75 52.2535 119.71 52.2395 119.671C52.2251 119.628 52.2119 119.587 52.1998 119.547C52.1874 119.505 52.1761 119.462 52.1659 119.42C52.1557 119.38 52.1465 119.339 52.1382 119.296C52.13 119.254 52.1227 119.211 52.1163 119.169C52.11 119.126 52.1048 119.082 52.1006 119.037C52.0965 118.995 52.0933 118.952 52.0911 118.91C52.0889 118.867 52.0877 118.825 52.0874 118.782C52.0874 118.737 52.0884 118.693 52.0903 118.65C52.0922 118.608 52.0951 118.565 52.099 118.523C52.1028 118.48 52.1078 118.436 52.1139 118.391C52.1199 118.349 52.1269 118.306 52.1349 118.264C52.1429 118.221 52.1519 118.18 52.1618 118.14C52.1717 118.098 52.1827 118.055 52.1948 118.013C52.2067 117.973 52.2196 117.932 52.2337 117.889C52.2474 117.85 52.2623 117.81 52.2783 117.77C52.294 117.731 52.3106 117.691 52.3283 117.651C52.3462 117.612 52.3648 117.572 52.384 117.532C52.4036 117.496 52.4241 117.459 52.4456 117.422C52.4668 117.385 52.489 117.348 52.5121 117.311C52.5353 117.274 52.5591 117.239 52.5836 117.205C52.6084 117.171 52.634 117.137 52.6604 117.103C52.6869 117.069 52.714 117.035 52.7418 117.001C52.7696 116.97 52.7983 116.939 52.8278 116.908C52.8572 116.876 52.8874 116.847 52.9182 116.818C52.9491 116.79 52.9806 116.762 53.0128 116.733C53.0448 116.705 53.0776 116.678 53.1112 116.653C53.1445 116.627 53.1785 116.601 53.2132 116.576C53.2479 116.55 53.2832 116.526 53.319 116.504C53.3548 116.481 53.391 116.46 53.4277 116.44C53.4646 116.42 53.5019 116.4 53.5396 116.38Z" fill="black"/>
<path d="M53.8771 131.369C53.9119 131.357 53.9467 131.349 53.9817 131.343C54.0169 131.335 54.0522 131.326 54.0875 131.318C54.123 131.312 54.1586 131.306 54.1944 131.301C54.23 131.298 54.2658 131.293 54.3019 131.288C54.3377 131.285 54.3736 131.284 54.4097 131.284C54.4455 131.281 54.4815 131.279 54.5175 131.279C54.5536 131.279 54.5896 131.281 54.6254 131.284C54.6615 131.286 54.6974 131.289 54.7332 131.292C54.769 131.298 54.8048 131.302 54.8406 131.305C54.8762 131.31 54.9116 131.318 54.9468 131.326C54.9821 131.332 55.0172 131.34 55.0522 131.352C55.0871 131.36 55.122 131.369 55.1567 131.377C55.1911 131.388 55.2254 131.4 55.2595 131.411C55.2934 131.425 55.327 131.439 55.3604 131.454C55.394 131.468 55.4272 131.482 55.4599 131.496C55.4927 131.51 55.5251 131.526 55.557 131.543C55.589 131.56 55.6206 131.578 55.652 131.598C55.6832 131.615 55.7139 131.634 55.7442 131.653C55.7745 131.673 55.8044 131.694 55.8338 131.717C55.8633 131.74 55.8922 131.762 55.9206 131.785C55.949 131.808 55.9769 131.83 56.0045 131.853C56.0317 131.879 56.0584 131.904 56.0846 131.93C56.1108 131.955 56.1364 131.981 56.1615 132.006C56.1865 132.032 56.211 132.059 56.235 132.087C56.2587 132.115 56.2818 132.144 56.3044 132.172C56.3267 132.2 56.3485 132.23 56.3697 132.261C56.3909 132.292 56.4114 132.322 56.4312 132.35C56.4511 132.382 56.4702 132.414 56.4887 132.448C56.5068 132.479 56.5245 132.511 56.5416 132.542C56.5584 132.576 56.5745 132.61 56.5899 132.644C56.6053 132.678 56.6199 132.712 56.6337 132.746C56.6475 132.78 56.6605 132.814 56.6729 132.848C56.6853 132.882 56.6968 132.917 56.7072 132.954C56.718 132.988 56.7279 133.023 56.737 133.06C56.7461 133.097 56.7543 133.133 56.7618 133.167C56.7692 133.203 56.7758 133.24 56.7816 133.277C56.7874 133.314 56.7922 133.351 56.796 133.388C56.8002 133.424 56.8035 133.461 56.806 133.498C56.8084 133.535 56.81 133.572 56.8105 133.609C56.8113 133.646 56.8112 133.682 56.8101 133.719C56.8093 133.759 56.8075 133.797 56.8047 133.834C56.8022 133.871 56.7988 133.908 56.7944 133.944C56.79 133.981 56.7849 134.018 56.7791 134.055C56.7731 134.089 56.7661 134.124 56.7584 134.161C56.7507 134.198 56.7423 134.235 56.7332 134.272C56.7239 134.306 56.7137 134.341 56.7027 134.378C56.6919 134.412 56.6802 134.446 56.6676 134.48C56.6552 134.517 56.6419 134.552 56.6279 134.586C56.6138 134.62 56.599 134.654 56.5833 134.688C56.5679 134.72 56.5515 134.752 56.5341 134.786C56.517 134.817 56.4993 134.85 56.4808 134.884C56.4623 134.915 56.4431 134.946 56.423 134.977C56.4029 135.009 56.3822 135.038 56.361 135.067C56.3395 135.098 56.3175 135.128 56.2949 135.156C56.272 135.184 56.2486 135.213 56.2247 135.241C56.2007 135.269 56.1761 135.296 56.1507 135.322C56.1257 135.347 56.0999 135.373 56.0735 135.398C56.047 135.424 56.02 135.449 55.9925 135.475C55.9649 135.497 55.937 135.52 55.9086 135.543C55.88 135.565 55.8509 135.587 55.8214 135.607C55.7917 135.629 55.7617 135.65 55.7314 135.67C55.7008 135.69 55.6698 135.709 55.6384 135.726C55.607 135.745 55.5752 135.764 55.543 135.781C55.5108 135.798 55.4782 135.813 55.4455 135.828C55.3973 135.85 55.3484 135.87 55.2988 135.887C55.249 135.907 55.1987 135.924 55.148 135.938C55.0973 135.955 55.0461 135.969 54.9943 135.981C54.9428 135.992 54.8909 136.002 54.8386 136.01C54.7862 136.019 54.7338 136.024 54.6812 136.027C54.6283 136.033 54.5754 136.036 54.5225 136.036C54.4696 136.036 54.4167 136.034 54.3639 136.032C54.3112 136.029 54.2586 136.023 54.206 136.015C54.1537 136.009 54.1016 136 54.0499 135.989C53.9978 135.981 53.9463 135.969 53.8953 135.955C53.8441 135.941 53.7936 135.924 53.7437 135.904C53.6938 135.887 53.6446 135.869 53.5958 135.849C53.5471 135.826 53.4991 135.802 53.452 135.777C53.4049 135.754 53.3587 135.728 53.3132 135.7C53.2678 135.672 53.2233 135.642 53.1798 135.611C53.1365 135.58 53.0942 135.547 53.0529 135.513C53.0116 135.479 52.9715 135.444 52.9327 135.407C52.8939 135.37 52.8564 135.332 52.8203 135.292C52.784 135.252 52.749 135.211 52.7154 135.169C52.6818 135.129 52.6496 135.087 52.6187 135.041C52.5881 134.996 52.5589 134.95 52.5311 134.905C52.5033 134.86 52.4771 134.813 52.4526 134.765C52.4281 134.717 52.4051 134.667 52.3836 134.616C52.3624 134.568 52.3427 134.518 52.3245 134.467C52.3066 134.416 52.2904 134.364 52.2758 134.31C52.2615 134.259 52.2488 134.207 52.2378 134.153C52.2268 134.102 52.2174 134.049 52.2097 133.995C52.2023 133.942 52.1966 133.886 52.1928 133.83C52.1889 133.776 52.1868 133.722 52.1866 133.668C52.1863 133.614 52.1878 133.561 52.1911 133.507C52.1947 133.453 52.1999 133.399 52.2068 133.345C52.2137 133.291 52.2224 133.237 52.2328 133.184C52.2433 133.13 52.2557 133.077 52.27 133.026C52.2841 132.972 52.2999 132.92 52.3175 132.869C52.3349 132.818 52.3542 132.767 52.3754 132.716C52.3963 132.668 52.4189 132.62 52.4431 132.571C52.4671 132.523 52.4928 132.475 52.5204 132.427C52.5476 132.382 52.5766 132.336 52.6071 132.291C52.6374 132.246 52.6693 132.202 52.7026 132.159C52.7359 132.12 52.7706 132.08 52.8067 132.04C52.8428 131.998 52.8801 131.958 52.9187 131.921C52.9572 131.884 52.997 131.849 53.0381 131.815C53.0791 131.781 53.1212 131.748 53.1645 131.717C53.2077 131.686 53.2519 131.656 53.2971 131.628C53.3423 131.599 53.3883 131.573 53.4351 131.547C53.4822 131.522 53.53 131.499 53.5785 131.479C53.6269 131.456 53.6761 131.437 53.7259 131.42C53.7758 131.4 53.8262 131.383 53.8771 131.369Z" fill="black"/>
<path d="M26.4455 27.0245C37.5633 26.1986 53.5315 30.2835 63.3731 35.5005C63.2991 38.2396 63.0306 41.1068 63.7482 43.7749C64.2981 45.8187 65.5578 48.4159 67.3984 49.4926C69.8409 50.015 71.46 47.0263 73.6406 46.2591C74.6309 45.9105 75.5304 45.9603 76.4649 46.4427C77.4622 46.957 77.9754 47.5896 78.2857 48.6897C78.9748 51.1351 78.4633 54.4813 77.2168 56.6606C75.2635 60.0765 71.8752 60.9985 68.3936 61.8814C68.2466 66.7183 68.435 71.5832 68.4263 76.4244C66.2891 80.4571 62.6464 84.2279 59.2292 87.1524C57.0048 89.0567 52.0256 93.1842 49.1823 92.9122C49.0823 92.8952 48.9819 92.8781 48.8832 92.8526C45.9366 92.113 42.45 86.8123 40.8545 84.2279C43.373 83.9898 45.7874 83.8071 48.2453 83.1227C53.5125 81.6481 59.2164 78.4082 61.9957 73.3928C61.8031 73.082 61.604 72.7309 61.3553 72.4648C61.2235 72.3237 60.7529 71.9437 60.5955 71.8961C59.2767 71.497 56.1434 74.6918 55.063 75.5568C54.806 75.76 54.5451 75.9574 54.2801 76.149C54.0152 76.3408 53.7462 76.5267 53.4732 76.7067C53.2006 76.8866 52.9243 77.0606 52.6445 77.2286C52.3646 77.3967 52.0813 77.5583 51.7946 77.7136C51.5082 77.8692 51.2186 78.0184 50.9258 78.1613C50.633 78.3041 50.3373 78.4405 50.0387 78.5706C49.7404 78.7007 49.4395 78.8241 49.136 78.9408C48.8325 79.0576 48.5268 79.1677 48.2188 79.2711C47.9106 79.3745 47.6005 79.4712 47.2884 79.561C46.9764 79.6508 46.6626 79.7339 46.3473 79.8101C46.0316 79.886 45.7147 79.9552 45.3966 80.0176C45.0782 80.0799 44.7587 80.1353 44.4381 80.1838C44.1175 80.2319 43.7961 80.2732 43.4738 80.3075C43.1513 80.3417 42.8284 80.3689 42.505 80.3891C42.1816 80.4092 41.8579 80.4224 41.5337 80.4286C41.2098 80.4345 40.8859 80.4334 40.562 80.4252C36.7974 80.3215 33.6864 78.6973 31.1116 75.9075C22.6458 66.7336 23.9464 54.0056 24.2608 42.4326C26.4976 42.4836 30.6964 42.121 32.6341 43.1518L32.6014 44.1023C31.3847 44.9605 29.6342 43.8999 28.2559 44.5018C27.7337 44.7301 27.3974 45.2432 27.2024 45.7826C26.9095 46.5936 26.8984 47.712 27.3152 48.4822C27.906 49.5734 29.0562 49.8178 30.1403 50.0911L30.5303 50.1876C30.5283 52.4248 29.2971 54.4881 28.9608 56.6798C28.8137 57.6391 28.9744 58.4242 29.5826 59.1805C31.0715 61.0329 34.1247 61.3755 36.2859 61.5613C37.7352 61.6863 40.3947 61.8644 41.5048 60.6971C42.1303 60.0391 42.0505 59.5698 42.0406 58.7188C40.9995 57.1461 34.5168 57.2162 32.3602 56.6287C33.0485 53.8883 37.5778 43.0417 36.7317 40.9699C34.3499 38.4377 26.8463 38.8543 23.4779 38.5198C23.2569 35.6242 23.121 30.8259 24.498 28.2355C25.0169 27.2587 25.4747 27.2766 26.4455 27.0245Z" fill="white"/>
<path d="M32.1337 64.4871C34.2994 64.9449 36.3577 66.1628 38.599 66.295C41.5241 66.4671 44.657 65.089 47.6639 65.1269C48.5786 65.1383 48.9058 65.3152 49.5048 65.9753C49.4937 66.0765 49.4933 66.1798 49.4718 66.2792C49.2706 67.2267 48.3022 67.872 47.5928 68.4169C46.9466 68.731 46.2951 68.9759 45.6101 69.1829C41.7604 70.3442 35.0744 70.3149 31.585 68.056C30.7905 67.5413 30.6533 67.3687 30.4141 66.4467C30.8252 65.4027 31.2834 65.1532 32.1337 64.4871Z" fill="black"/>
<path d="M41.8548 39.6564C45.0294 39.7279 50.3656 39.1731 53.2221 40.4513C54.0889 40.839 54.2203 41.1459 54.5492 41.9837C54.4128 43.0077 54.103 43.4859 53.444 44.2536C50.4094 44.0504 44.3956 44.5086 41.8639 43.341C41.1334 43.0043 40.9777 42.6855 40.6843 41.951C40.7678 40.9223 41.2276 40.4071 41.8548 39.6564Z" fill="black"/>
<path d="M43.7078 46.084C45.3505 46.0036 47.0097 45.8914 48.654 45.8969C50.0703 45.9016 51.7605 46.7097 52.7516 47.7264C53.0202 48.4695 53.1586 48.5983 52.9248 49.3787C52.2947 49.8599 51.8196 50.0924 51.0511 50.2607C48.5619 50.1519 46.0058 50.4558 43.5376 50.0643C42.4287 49.8884 41.8611 49.6873 41.2062 48.7449C41.5508 47.3817 42.6105 46.7989 43.7078 46.084Z" fill="black"/>
<path d="M26.4069 87.7645L27.0217 87.9771C27.3889 92.7039 29.3055 97.3159 31.5762 101.392C32.533 103.11 34.4017 106.604 36.27 107.122C36.4018 107.097 36.5348 107.076 36.6658 107.046C38.4411 106.629 46.005 99.8366 46.9647 98.1576C46.2483 112.355 46.4437 126.612 46.0393 140.822C45.7686 140.988 45.541 141.132 45.2258 141.196C42.2643 141.791 38.3374 141.32 35.2929 141.324C30.0633 141.328 24.5217 141.706 19.3218 141.247C18.8136 141.2 18.4997 141.039 18.0663 140.784L18.3832 124.376C18.453 120.776 18.9607 116.733 18.5542 113.175C18.436 112.142 18.2171 111.305 17.3862 110.655C16.5331 110.655 16.3476 110.816 15.6283 111.246C15.1738 111.926 15.1152 112.538 15.0462 113.341C14.8098 116.104 15.0495 118.965 15.0098 121.741L14.5892 140.797C14.4711 140.865 14.3554 140.937 14.2347 141.001C12.823 141.749 5.1426 141.468 3.63916 140.911C4.0457 138.697 4.10107 136.274 4.31095 134.021C5.04883 126.11 5.63591 113.532 7.807 106.255C10.5796 96.9631 18.5534 92.0918 26.4069 87.7645Z" fill="#FF0000"/>
<path d="M22.6155 18.7C40.4597 17.2696 58.9712 24.1893 73.4963 34.4812C74.6931 35.3292 77.2295 36.8638 77.4819 38.2848C77.0212 39.0588 76.9502 39.1375 76.1487 39.512C74.9704 39.3577 74.1139 38.1441 73.3095 37.3084C63.9013 28.5344 41.379 23.2304 28.8218 23.3396C26.4569 23.3605 21.2327 25.0998 19.319 24.367C18.1324 23.9126 17.4586 21.6984 16.9599 20.5524C18.7542 19.5229 20.6043 19.0481 22.6155 18.7Z" fill="#FF0000"/>
<path d="M71.3374 78.4202C73.1904 79.7545 74.5038 82.3028 75.7069 84.2449C75.5477 84.7975 75.3655 85.3416 75.1603 85.8772C73.1466 91.1566 67.0985 101.235 62.0804 103.467C61.978 103.445 61.8714 103.441 61.7726 103.411C60.9055 103.118 60.2948 102.166 59.8317 101.426C58.0167 100.938 54.1468 96.7676 53.03 95.165C53.1887 95.165 53.4329 95.1736 53.6002 95.1396C54.5248 94.9483 55.6192 94.1661 56.4302 93.6815C62.4159 90.0812 67.7798 84.5 71.3374 78.4202Z" fill="#FF0000"/>
<path d="M33.3209 82.9059L36.0981 83.9006C37.9808 86.7528 42.6221 93.741 45.5129 95.063C44.7746 96.3254 41.6219 99.0884 40.23 99.5093C39.4425 100.78 37.9932 102.013 36.6269 102.553C36.5633 102.514 36.4947 102.489 36.4365 102.442C35.8519 101.996 35.2702 100.963 34.8582 100.355C31.7386 95.7431 31.0226 91.0375 30.4971 85.5838L33.3209 82.9059Z" fill="#FF0000"/>
</svg>
