<svg width="126" height="146" viewBox="0 0 126 146" fill="none" xmlns="http://www.w3.org/2000/svg">
<path d="M42.0883 0C37.7138 0.88312 36.6851 7.57862 33.0153 9.47553C30.7045 8.91232 27.2898 2.13123 24.1752 0.702918C23.3273 0.716435 23.2947 0.716446 22.6506 1.33373C21.6804 3.92451 24.0695 22.069 24.0635 26.7549C24.0576 31.6436 23.5581 36.5729 23.3833 41.4616C23.2196 46.0394 23.4167 50.8515 22.9176 55.3797C22.5731 58.5112 21.6501 61.5931 21.134 64.702C20.4633 68.7392 20.3823 72.8439 20.2369 76.9351C19.4112 78.102 18.1024 78.6472 16.9466 79.3051C11.883 82.1977 7.92165 84.7795 4.69216 90.3396C4.22491 91.1266 3.79314 91.9391 3.39687 92.7772C3.0006 93.6122 2.64155 94.4683 2.31971 95.3454C1.99814 96.2225 1.71537 97.1162 1.47141 98.0263C1.22771 98.9335 1.02402 99.8527 0.86032 100.784C0.0493721 105.609 -0.36067 139.808 0.410148 144.165C0.782843 144.57 0.852373 144.674 1.35857 144.791C3.27608 145.242 5.74231 144.886 7.72736 144.89L22.926 144.899L83.2365 144.922C87.0978 144.922 114.592 145.508 116.258 144.318C116.991 144.818 117.542 144.854 118.377 144.899C120.192 144.998 123.572 145.521 125.012 144.048C124.372 139.438 123.181 134.865 122.156 130.346C120.347 122.371 118.454 114.414 116.735 106.416C114.006 93.7189 112.483 79.8458 108.321 67.6623C106.141 61.2777 103.477 57.601 97.5558 56.0285C96.549 55.7627 95.183 55.8844 94.2767 55.3797C94.1754 55.3212 94.0764 55.2581 93.9767 55.1995C91.9666 54.4921 90.6888 52.406 88.4284 52.0726C87.0592 51.8743 85.6594 52.2663 84.6001 53.2846C83.4173 54.4245 82.8269 56.3214 82.6719 58.0336C82.4037 60.9984 83.1884 63.837 84.823 66.1484C84.3865 67.6563 83.9423 69.1627 83.4904 70.6676C81.406 70.1539 78.2445 70.6 76.4946 69.3204C76.561 65.3689 76.4839 61.4039 76.4732 57.4524C77.1594 57.2 77.6703 56.4701 78.1122 55.8484C80.5454 52.415 81.4501 46.9586 80.9876 42.6601C80.435 37.5326 78.6788 38.0328 75.6968 35.3474C75.6515 35.3068 75.6078 35.2617 75.5633 35.2212C75.4981 31.9275 75.3555 28.5752 75.5963 25.2861C76.0834 18.6266 77.4081 12.0032 78.1042 5.36181C78.2675 3.80283 78.4626 1.84283 77.5491 0.554194C74.1703 -0.274857 70.3551 7.89404 67.2667 9.32235C67.1582 9.37191 67.0474 9.41244 66.9377 9.462C63.953 8.2049 62.6914 2.24838 59.6066 0.878647C56.5344 -0.482078 53.1536 8.56539 50.3043 9.66028C50.1958 9.70083 50.0846 9.73688 49.9749 9.77292C48.0308 9.20971 43.4818 1.969 42.0883 0Z" fill="black"/>
<path d="M68.9194 91.4435C67.9201 93.4801 65.1563 95.6383 63.4236 96.9855C56.4167 102.446 45.6725 106.808 37.153 104.956C32.9524 104.041 29.5326 101.59 27.1113 97.5667C27.5372 103.649 29.1901 109.038 32.4474 113.954C34.2556 116.684 38.0589 121.582 41.1588 122.087C41.2204 122.168 41.2796 122.254 41.3436 122.335C44.7948 126.719 56.986 129.215 62.046 129.566C67.2149 129.927 79.219 129.629 83.1883 125.664C82.5132 125.507 81.8195 124.723 81.3097 124.214C72.3535 115.265 69.6052 104.447 68.9194 91.4435Z" fill="#FF0000"/>
<path d="M62.3645 28.0437C60.1907 28.7871 29.4573 28.5438 27.6932 27.7012C27.5648 30.711 27.4274 33.7794 27.0547 36.7622C30.3894 38.1995 34.6814 35.8746 37.8354 37.9157C40.2114 41.1418 35.8297 49.0539 36.8667 53.4244C37.868 57.6462 41.8095 53.9696 44.0333 55.3348C44.5653 56.1909 44.5673 56.7721 44.5816 57.7994C44.255 58.4933 44.1776 58.7096 43.5549 59.0565C41.7932 60.0343 36.4718 59.5521 34.6663 58.6961C30.3112 56.6234 34.9897 49.6891 33.615 45.9809C32.808 45.6655 32.3399 45.4943 31.8258 44.7013C31.7614 44.6338 31.6899 44.5706 31.6327 44.4985C30.9759 43.6289 31.2834 41.9889 31.3124 40.8985C29.7108 41.2049 28.547 41.2815 27.0118 40.5065C26.5532 48.8916 26.1265 57.5877 27.1623 65.9232C29.1335 65.2474 30.126 62.0393 32.5903 61.3544C34.3766 60.8543 48.2017 60.7867 49.7 61.3499C52.1742 62.2826 55.5702 67.4417 57.7797 67.2299C58.5438 67.1533 59.1743 66.6216 59.6424 65.9638C61.0513 63.9813 62.0943 60.7101 62.4718 58.2229C63.032 54.5328 62.7499 50.5047 62.7352 46.7649C62.7102 40.5155 62.7578 34.2796 62.3645 28.0437Z" fill="white"/>
<path d="M55.909 36.8612C52.2547 38.0102 46.8093 35.6356 43.5513 37.911C43.1611 38.6139 43.059 38.695 43.0943 39.5556C44.0495 40.6956 45.4847 40.7001 46.596 41.5381C47.0426 41.8761 47.035 42.7006 47.1451 43.2909C47.1499 43.3494 47.153 43.4035 47.1594 43.4621C47.1697 43.5567 47.1848 43.6558 47.1956 43.7504C47.3052 44.7191 47.509 45.3004 48.0891 46.0529C48.736 46.8909 49.2203 46.9405 50.1259 46.9675C50.5311 46.7557 50.8649 46.58 51.1712 46.2015C52.4812 44.5795 52.1189 42.7682 51.9615 40.7587C53.1889 41.2137 55.2816 41.5606 56.4803 40.8758C57.1252 40.5063 57.2023 40.1684 57.368 39.4159C57.2074 38.2624 56.594 37.6587 55.909 36.8612Z" fill="black"/>
<path d="M59.0585 5.19967C56.228 7.21372 54.7106 11.5122 51.8005 13.5938C50.9534 14.2021 50.0296 14.4634 49.0462 14.1661C46.3206 13.337 42.6123 7.60119 41.3174 4.89777C40.2009 7.30382 36.9078 12.0528 34.9542 13.5037C34.1404 14.1074 33.2786 14.3643 32.3286 14.0489C30.0658 13.3055 27.2154 9.21426 26.0639 6.94789C26.3067 12.4494 26.9989 17.9689 27.3664 23.4659C27.5797 23.592 27.7669 23.7001 28.0009 23.7722C29.3856 24.2048 31.2376 24.2318 32.5011 23.3983C32.6099 23.4749 32.7156 23.556 32.8281 23.628C33.9926 24.3445 70.7543 24.2904 72.5165 23.5559C72.9956 18.104 73.7617 12.6882 74.2039 7.22724C73.3234 8.93491 71.2911 11.3364 69.8492 12.4899C68.7661 13.3595 67.4759 13.9678 66.133 13.6298C63.2186 12.9044 60.5056 7.93464 59.0585 5.19967Z" fill="white"/>
<path d="M97.2814 59.4484C96.5551 59.7909 95.5972 59.6421 94.81 59.7413C92.9585 59.9755 90.4629 60.7911 88.901 61.94C88.1063 62.5213 87.9148 62.9809 87.7583 63.9902C89.1751 65.6393 95.0671 61.7238 97.7252 63.3098C98.4663 63.7559 98.7233 64.3641 98.9141 65.2292C97.2067 67.7614 91.2281 67.018 88.5164 69.3069C87.9903 69.753 87.4825 70.3883 87.4789 71.1768C87.4758 71.8076 87.6923 72.2401 88.0419 72.6862C90.8944 72.6862 93.9602 70.6091 96.8281 70.0909C97.5461 69.9603 98.4941 69.9197 99.0813 70.4919C99.6756 71.0642 99.8148 71.3841 99.877 72.2356C98.5263 74.493 92.7805 74.9661 90.4355 76.2818C89.2459 76.9486 88.2954 77.665 87.8592 79.1609C87.9363 80.1522 87.9402 80.391 88.4456 81.184C90.0397 81.4543 93.7977 79.0122 95.6707 78.5887C96.9103 78.3093 98.4162 78.057 99.5208 78.8816L99.6323 79.6746C98.4289 82.5267 94.8104 82.9097 92.4618 83.9325C91.4216 84.3875 90.4796 85.0499 89.4326 85.4959C89.3976 85.568 89.3595 85.6356 89.3277 85.7077C88.8263 86.8476 88.7242 88.2715 89.1688 89.4745C89.3976 90.0918 89.5264 90.0963 90.0429 90.299C91.2206 89.2537 92.4777 87.6902 93.8028 86.9693C95.4362 86.0862 97.9561 85.7978 99.648 86.5728C100.552 86.9873 100.852 87.501 101.203 88.4472C100.166 91.412 94.9984 89.5736 93.4043 92.0157C96.6235 93.7864 102.744 91.5336 106.428 92.7231C110.277 93.9622 107.083 100.167 108.173 102.699C109.318 102.658 110.509 101.644 111.407 100.896C111.261 100.468 111.197 100.081 111.139 99.6304C109.949 90.3125 106.974 70.555 102.005 63.5801C100.693 61.7418 98.916 60.8407 97.2814 59.4484Z" fill="white"/>
<path d="M93.8782 103.433C93.631 103.564 93.604 103.586 93.2977 103.676C91.8903 104.073 89.7582 104.059 88.4737 103.289C88.4542 107.605 87.7482 139.474 88.3787 140.759C89.3252 140.916 90.1957 140.822 91.1413 140.727C93.362 138.555 89.5655 113.03 92.8415 108.543C92.8967 108.466 92.954 108.394 93.01 108.322C93.4526 108.556 93.9163 108.777 94.2719 109.169C94.6772 109.611 94.7988 109.854 94.8894 110.503C95.328 113.639 95.0113 117.365 95.001 120.546L94.9215 140.439C95.2044 140.601 95.2009 140.619 95.4575 140.704C96.615 141.096 97.7605 140.957 98.8301 140.349L98.8309 103.33C98.5837 103.492 98.3541 103.649 98.0775 103.744C96.8939 104.159 94.9784 104.091 93.8782 103.433Z" fill="white"/>
<path d="M74.8531 38.8797C74.0842 39.0825 73.3166 39.1951 72.545 39.3618C71.9168 39.5015 70.9402 39.925 70.6064 40.5874C69.4117 42.9574 69.0711 52.6852 69.8193 55.2625C70.6819 55.4472 71.0312 55.1994 71.8461 54.8705C72.2077 55.0417 72.4341 55.1183 72.837 55.0822C73.7199 55.0011 74.6667 54.127 75.2047 53.3881C77.0777 50.8153 77.6618 46.4808 77.3066 43.2592C77.0614 41.0334 76.3645 40.1909 74.8531 38.8797Z" fill="white"/>
<path d="M102.728 95.6069C100.386 97.1163 86.417 95.3455 82.2069 96.3368C82.067 96.6657 81.93 96.9991 81.8449 97.3506C81.6256 98.2562 81.6566 98.833 82.0261 99.662C82.8772 99.9369 82.9869 99.7341 83.7664 99.3241C85.3792 100.378 98.1855 100.049 100.798 100.031C102.366 100.027 104.033 99.8783 105.165 98.5671L105.132 97.693C104.37 96.3098 104.045 96.1791 102.728 95.6069Z" fill="white"/>
<path d="M42.2735 67.2523C40.2376 68.4283 37.022 67.1893 34.7552 67.5587C33.8374 67.7074 33.2629 68.0318 32.7221 68.8789C32.6704 69.4511 32.5699 69.798 32.7964 70.3342C32.8348 70.4273 32.8774 70.5175 32.9243 70.6046C32.9712 70.6887 33.0221 70.7713 33.0769 70.8524C33.1315 70.9335 33.1898 71.0116 33.2517 71.0867C33.3135 71.1588 33.3785 71.2278 33.4468 71.2939C33.5154 71.36 33.5867 71.4216 33.6606 71.4787C33.7348 71.5388 33.8114 71.5928 33.8906 71.6409C33.9696 71.6889 34.0506 71.7325 34.1338 71.7716C34.217 71.8106 34.3016 71.8436 34.3877 71.8707C35.4434 72.2221 36.9286 71.9157 37.8607 71.3165C38.4273 71.7175 38.8513 71.8346 39.5136 71.8842C41.7502 72.0554 45.5447 72.5105 47.3267 70.7578C47.5599 70.0279 47.5762 69.8792 47.4666 69.1132C46.01 67.2523 44.3181 68.3337 42.6275 67.4506C42.5075 67.392 42.3915 67.3199 42.2735 67.2523Z" fill="white"/>
</svg>
