<svg width="129" height="146" viewBox="0 0 129 146" fill="none" xmlns="http://www.w3.org/2000/svg">
<path d="M45.5588 0.00112841C41.2262 -0.0889328 40.8456 5.23615 37.6587 7.3182C32.0618 10.9755 30.668 1.45726 26.6093 0.723259C25.7498 0.997127 25.5837 1.17234 24.9555 1.83347C24.3966 3.31252 25.8646 20.5891 25.936 23.7007C26.0168 27.2246 25.1163 30.7808 24.8903 34.3038C24.4991 40.4018 24.803 46.5857 24.6783 52.6972C24.5664 58.1979 23.7947 63.4616 24.4212 68.9762C15.9753 74.0986 8.38925 79.3418 4.66471 89.0025C2.65216 94.222 3.70764 96.8067 3.14258 101.837C2.69439 105.827 1.94645 109.786 1.50646 113.782C0.943863 118.893 -0.980536 140.98 0.627295 144.598C4.0648 145.486 21.9847 144.85 26.8008 144.845L96.9266 144.797L117.286 144.83C120.971 144.835 124.763 145.041 128.424 144.676C130.604 142.439 121.693 117.361 120.257 113.239C119.437 110.886 118.006 107.975 117.672 105.522C117.592 104.94 117.684 104.336 117.82 103.769C118.515 100.866 113.741 87.9697 112.016 84.6227C105.408 71.7992 90.5198 67.376 77.6863 63.279L77.5924 55.7085C79.0555 54.4219 80.2455 53.2101 81.1558 51.4711C82.8325 48.2686 83.4402 44.0935 82.2781 40.6188C81.4728 38.2113 80.1499 36.9131 77.911 35.7886C77.9213 30.3153 78.0209 24.7774 78.5991 19.3336C79.1297 14.3368 80.0728 9.30405 80.389 4.29828C80.4452 3.40545 80.5067 2.74023 80.1151 1.91166C79.3856 1.33732 79.1847 1.25421 78.2678 1.09784C75.9329 1.79213 74.7396 4.97046 73.1884 6.69227C72.381 7.58797 71.061 8.69655 69.8017 8.69245C66.5713 8.6814 65.0447 3.15942 63.1088 1.17971C62.6085 0.668821 62.0008 0.283192 61.2664 0.293426C58.8418 0.326585 57.2339 5.63815 55.5925 7.23796C54.9167 7.89664 54.1306 8.41817 53.149 8.37806C49.3707 8.22331 47.8486 2.2936 45.5588 0.00112841Z" fill="black"/>
<path d="M78.5628 67.6215L77.8731 67.6952C77.2395 69.4927 76.9931 71.5154 76.2004 73.2405C74.8509 76.1773 72.4521 78.688 70.9874 81.6134C65.5615 92.4526 66.5141 103.505 67.0804 115.201C74.103 109.712 82.6695 106.752 91.0724 104.087C98.8561 102.187 106.309 101.836 114.214 103.093C112.749 97.4375 111.33 91.4624 108.623 86.2523C102.815 75.0704 89.7356 71.2191 78.5628 67.6215Z" fill="white"/>
<path d="M86.3684 77.5467C86.2785 77.5189 86.1876 77.494 86.0957 77.4722C86.0042 77.4504 85.9119 77.4317 85.819 77.4161C85.7263 77.4003 85.6331 77.3876 85.5393 77.3781C85.4455 77.3685 85.3515 77.362 85.2572 77.3584C85.1631 77.3552 85.069 77.3549 84.9747 77.3576C84.8806 77.3603 84.7867 77.3662 84.6929 77.3752C84.5992 77.3842 84.5057 77.3962 84.4125 77.4112C84.3195 77.4262 84.2271 77.4444 84.1353 77.4657C84.0437 77.487 83.9528 77.5111 83.8626 77.5381C83.7724 77.5654 83.6831 77.5956 83.5948 77.6286C83.5065 77.6616 83.4194 77.6975 83.3336 77.7363C83.2478 77.775 83.1633 77.8165 83.0802 77.8607C82.9971 77.9049 82.9155 77.9519 82.8354 78.0015C82.7556 78.0512 82.6774 78.1035 82.6008 78.1583C82.5243 78.2132 82.4495 78.2705 82.3765 78.3303C82.3038 78.39 82.2332 78.4521 82.1645 78.5165C82.0959 78.5809 82.0295 78.6475 81.9652 78.7163C81.9007 78.7851 81.8387 78.8559 81.7791 78.9288C81.7195 79.0016 81.6624 79.0763 81.6077 79.1527C81.553 79.2294 81.5009 79.3077 81.4514 79.3877C81.402 79.4676 81.3552 79.5492 81.3112 79.6325C81.2669 79.7154 81.2255 79.7999 81.187 79.8859C81.1484 79.9715 81.1127 80.0585 81.0799 80.1466C81.0471 80.2348 81.0173 80.3239 80.9905 80.414C80.9638 80.504 80.9398 80.5949 80.9188 80.6866C80.8977 80.7783 80.8798 80.8707 80.8651 80.9637C80.8503 81.0565 80.8385 81.1497 80.8298 81.2433C80.8213 81.3369 80.8159 81.4308 80.8134 81.525C80.8109 81.6189 80.8115 81.7127 80.815 81.8066C80.8189 81.9008 80.8257 81.9945 80.8355 82.0879C80.8454 82.1815 80.8584 82.2747 80.8745 82.3675C80.8906 82.46 80.9098 82.5519 80.9319 82.6434C80.954 82.7348 80.9792 82.8254 81.0074 82.9152C81.0355 83.005 81.0665 83.0937 81.1004 83.1813C81.1343 83.2689 81.1712 83.3554 81.2111 83.4408C81.2508 83.526 81.2932 83.6099 81.3383 83.6926C81.3837 83.775 81.4316 83.8559 81.4822 83.9353C81.5328 84.0145 81.5859 84.092 81.6417 84.1679C81.6972 84.2437 81.7553 84.3177 81.816 84.3897C81.8764 84.4618 81.9393 84.5318 82.0046 84.5997C82.0697 84.6677 82.1371 84.7333 82.2068 84.7967C82.2762 84.8602 82.3477 84.9214 82.4212 84.9801C82.4948 85.0387 82.5702 85.0949 82.6476 85.1487C82.7249 85.2025 82.8039 85.2536 82.8846 85.3022C82.9652 85.3508 83.0474 85.3968 83.131 85.4402C83.2147 85.4833 83.2997 85.5237 83.3861 85.5614C83.4725 85.599 83.56 85.6337 83.6485 85.6653C83.7374 85.6973 83.827 85.7262 83.9175 85.7521C83.9845 85.7712 84.052 85.7888 84.1201 85.8049C84.1879 85.8208 84.2561 85.835 84.3247 85.8475C84.3933 85.8603 84.4622 85.8712 84.5314 85.8802C84.6005 85.8895 84.6698 85.8972 84.7393 85.9032C84.8087 85.9089 84.8783 85.9131 84.948 85.9159C85.0177 85.9183 85.0874 85.919 85.1571 85.9179C85.2268 85.9171 85.2965 85.9145 85.3663 85.9101C85.436 85.906 85.5054 85.9 85.5746 85.8921C85.644 85.8845 85.7132 85.8752 85.782 85.8643C85.8509 85.8531 85.9194 85.8404 85.9875 85.8262C86.0558 85.8118 86.1238 85.7956 86.1913 85.7779C86.2585 85.7602 86.3255 85.7409 86.3922 85.7202C86.4586 85.6992 86.5245 85.6765 86.5899 85.6522C86.6555 85.6282 86.7203 85.6026 86.7842 85.5753C86.8485 85.548 86.912 85.5191 86.9749 85.4885C87.0375 85.4582 87.0994 85.4263 87.1607 85.3927C87.2219 85.3594 87.2822 85.3246 87.3415 85.2883C87.4011 85.252 87.4597 85.2142 87.5174 85.1749C87.5751 85.1356 87.6317 85.0949 87.6872 85.0529C87.7429 85.0112 87.7976 84.9679 87.8512 84.9231C87.9045 84.8787 87.9569 84.8328 88.0082 84.7856C88.0596 84.7384 88.1098 84.6899 88.1587 84.6403C88.2077 84.5906 88.2552 84.5398 88.3014 84.488C88.3479 84.4361 88.3932 84.3831 88.4372 84.3287C88.4809 84.2747 88.5234 84.2196 88.5647 84.1634C88.6057 84.1071 88.6455 84.05 88.684 83.9918C88.7223 83.9337 88.7592 83.8746 88.7947 83.8146C88.8303 83.7548 88.8642 83.6941 88.8964 83.6324C88.929 83.5707 88.96 83.5084 88.9895 83.4453C89.019 83.3823 89.0469 83.3186 89.0732 83.2542C89.0997 83.1897 89.1244 83.1247 89.1474 83.0589C89.1706 82.9931 89.1922 82.9269 89.2122 82.8603C89.2321 82.7938 89.2504 82.7266 89.2671 82.6589C89.2838 82.5913 89.2987 82.5233 89.3118 82.4551C89.3252 82.3866 89.337 82.3179 89.3471 82.2491C89.3569 82.1801 89.3651 82.1109 89.3717 82.0416C89.3782 81.9726 89.3832 81.9032 89.3864 81.8336C89.3897 81.764 89.3912 81.6945 89.391 81.6249C89.3907 81.5553 89.3888 81.4857 89.3852 81.4161C89.3817 81.3465 89.3763 81.277 89.3692 81.2077C89.3624 81.1387 89.3538 81.0696 89.3434 81.0006C89.333 80.9318 89.321 80.8633 89.3073 80.7951C89.2936 80.7268 89.2782 80.6589 89.261 80.5912C89.244 80.5238 89.2254 80.4568 89.2052 80.3902C89.1847 80.3236 89.1627 80.2576 89.1392 80.1921C89.1157 80.1266 89.0905 80.0616 89.0637 79.9972C89.0372 79.9331 89.0091 79.8695 88.9793 79.8064C88.9495 79.7434 88.918 79.6812 88.8849 79.6198C88.8521 79.5584 88.8178 79.4978 88.782 79.438C88.7462 79.3785 88.7089 79.3197 88.6701 79.2616C88.6315 79.2037 88.5915 79.1468 88.5499 79.0909C88.5084 79.0349 88.4656 78.9799 88.4216 78.9259C88.3773 78.8721 88.3318 78.8195 88.285 78.7679C88.2383 78.716 88.1903 78.6655 88.1411 78.6164C88.0919 78.567 88.0416 78.5188 87.9902 78.4719C87.9385 78.425 87.8858 78.3794 87.8319 78.3352C87.7781 78.291 87.7233 78.248 87.6675 78.2062C87.6115 78.1645 87.5546 78.1242 87.4969 78.0855C87.439 78.0464 87.3802 78.0089 87.3206 77.9729C87.2607 77.9371 87.2002 77.9026 87.1389 77.8693C87.0774 77.8363 87.0152 77.8048 86.9524 77.7747C86.8895 77.7447 86.8259 77.7162 86.7617 77.6892C86.6972 77.6624 86.6322 77.637 86.5669 77.613C86.5013 77.5893 86.4351 77.5672 86.3684 77.5467Z" fill="black"/>
<path d="M78.7835 92.6294C78.7184 92.6054 78.6527 92.583 78.5863 92.5623C78.5198 92.5415 78.4531 92.5224 78.3862 92.505C78.3189 92.4878 78.2513 92.4721 78.1832 92.4579C78.1151 92.4437 78.0468 92.4313 77.9782 92.4206C77.9095 92.4097 77.8407 92.4006 77.7715 92.3932C77.7023 92.3858 77.6332 92.3802 77.564 92.3764C77.4946 92.3723 77.4251 92.37 77.3557 92.3694C77.2863 92.3689 77.2168 92.3701 77.1474 92.3731C77.078 92.3759 77.0086 92.3804 76.9395 92.3867C76.8703 92.3929 76.8013 92.401 76.7324 92.4108C76.6635 92.4204 76.595 92.4317 76.527 92.4448C76.4586 92.4579 76.3907 92.4726 76.3232 92.489C76.2556 92.5054 76.1887 92.5234 76.1222 92.543C76.0555 92.5627 75.9894 92.584 75.9238 92.6069C75.8582 92.6298 75.7932 92.6544 75.729 92.6806C75.6645 92.7065 75.6008 92.7342 75.5379 92.7637C75.475 92.7929 75.4128 92.8236 75.3513 92.8558C75.2898 92.8883 75.2291 92.9221 75.1693 92.9573C75.1094 92.9925 75.0505 93.0292 74.9925 93.0674C74.9346 93.1056 74.8776 93.1452 74.8215 93.1862C74.7655 93.2274 74.7106 93.2698 74.6567 93.3135C74.6028 93.3571 74.5501 93.402 74.4984 93.4481C74.4465 93.4945 74.3959 93.5422 74.3467 93.591C74.2972 93.6399 74.2491 93.6898 74.2024 93.7409C74.1553 93.7919 74.1097 93.8441 74.0654 93.8976C74.0211 93.9511 73.9781 94.0056 73.9362 94.061C73.8947 94.1166 73.8545 94.1731 73.8157 94.2304C73.7769 94.288 73.7394 94.3464 73.7033 94.4057C73.6675 94.4651 73.6331 94.5253 73.6 94.5862C73.5672 94.6473 73.5357 94.7091 73.5057 94.7716C73.4759 94.8341 73.4476 94.8975 73.4208 94.9616C73.3937 95.0254 73.3684 95.09 73.3449 95.1552C73.3214 95.2205 73.2994 95.2862 73.2789 95.3525C73.2584 95.4189 73.2397 95.4856 73.2227 95.5527C73.2055 95.6198 73.1901 95.6874 73.1764 95.7554C73.1627 95.8233 73.1507 95.8917 73.1403 95.9604C73.1299 96.029 73.1212 96.0976 73.1141 96.1664C73.1072 96.2354 73.102 96.3046 73.0985 96.3739C73.0949 96.4432 73.093 96.5126 73.0927 96.5819C73.0927 96.6512 73.0944 96.7205 73.0977 96.7898C73.1007 96.8589 73.1056 96.9279 73.1124 96.997C73.119 97.066 73.1273 97.1349 73.1374 97.2037C73.1476 97.2722 73.1593 97.3404 73.1727 97.4084C73.1864 97.4763 73.2016 97.544 73.2182 97.6114C73.2349 97.6786 73.2534 97.7454 73.2736 97.812C73.2935 97.8783 73.3153 97.9441 73.3388 98.0093C73.362 98.0746 73.3869 98.1393 73.4134 98.2034C73.4399 98.2675 73.4681 98.331 73.4979 98.3937C73.5274 98.4565 73.5586 98.5185 73.5914 98.5796C73.6242 98.6407 73.6584 98.701 73.6939 98.7605C73.7297 98.82 73.7669 98.8786 73.8054 98.9361C73.844 98.9937 73.884 99.0504 73.9256 99.1061C73.9668 99.1617 74.0095 99.2163 74.0535 99.2698C74.0978 99.3235 74.1433 99.3761 74.1901 99.4274C74.2365 99.4787 74.2844 99.5289 74.3336 99.578C74.3828 99.6269 74.4331 99.6747 74.4845 99.7213C74.5361 99.7677 74.5888 99.8129 74.6423 99.8568C74.6962 99.9008 74.751 99.9433 74.8068 99.9846C74.8628 100.026 74.9197 100.066 74.9774 100.104C75.0353 100.143 75.0941 100.18 75.1537 100.215C75.2133 100.251 75.2737 100.285 75.3349 100.317C75.3964 100.35 75.4586 100.381 75.5215 100.41C75.5844 100.44 75.6479 100.468 75.7122 100.494C75.7764 100.521 75.8412 100.546 75.9066 100.569C75.9716 100.592 76.0371 100.613 76.103 100.633C76.1691 100.653 76.2357 100.671 76.3027 100.688C76.3694 100.704 76.4366 100.719 76.5044 100.732C76.5722 100.746 76.6401 100.757 76.7082 100.767C76.7766 100.777 76.845 100.786 76.9137 100.792C76.9823 100.799 77.051 100.804 77.1199 100.807C77.1888 100.811 77.2577 100.812 77.3266 100.812C77.3955 100.812 77.4644 100.81 77.5332 100.807C77.6021 100.803 77.6709 100.798 77.7395 100.791C77.8081 100.785 77.8766 100.776 77.9449 100.766C78.013 100.756 78.0809 100.744 78.1487 100.731C78.2163 100.717 78.2835 100.702 78.3505 100.685C78.4175 100.669 78.4839 100.65 78.5498 100.63C78.6157 100.61 78.6811 100.589 78.7462 100.565C78.811 100.542 78.8754 100.518 78.9393 100.491C79.003 100.465 79.066 100.437 79.1284 100.408C79.1907 100.378 79.2522 100.347 79.3129 100.315C79.3739 100.283 79.4339 100.249 79.4929 100.213C79.5522 100.178 79.6106 100.141 79.668 100.103C79.7254 100.065 79.7819 100.025 79.8374 99.9846C79.8926 99.9436 79.947 99.9013 80.0006 99.8577C80.0539 99.814 80.1061 99.7691 80.1572 99.723C80.2083 99.6768 80.2583 99.6295 80.3073 99.5809C80.3562 99.5323 80.4038 99.4827 80.45 99.4319C80.4965 99.3809 80.5417 99.3289 80.5857 99.2759C80.6294 99.2227 80.672 99.1685 80.7132 99.1134C80.7545 99.0583 80.7943 99.0021 80.8326 98.9447C80.8711 98.8877 80.9081 98.8297 80.9437 98.7708C80.9792 98.7118 81.0134 98.6521 81.0462 98.5915C81.079 98.5309 81.1102 98.4695 81.1397 98.4072C81.1695 98.3453 81.1977 98.2825 81.2242 98.2189C81.2507 98.1553 81.2757 98.0912 81.2992 98.0265C81.3227 97.9619 81.3446 97.8966 81.3648 97.8308C81.385 97.7651 81.4036 97.6988 81.4206 97.6319C81.4378 97.5653 81.4533 97.4983 81.4669 97.4309C81.4806 97.3632 81.4926 97.2954 81.503 97.2274C81.5134 97.1595 81.5221 97.0913 81.5292 97.0228C81.5364 96.9542 81.5417 96.8856 81.5452 96.8168C81.5491 96.7481 81.5511 96.6793 81.5514 96.6105C81.5517 96.5418 81.5503 96.473 81.5473 96.4042C81.5443 96.3354 81.5395 96.2668 81.5329 96.1983C81.5266 96.1298 81.5186 96.0614 81.5087 95.9932C81.4992 95.925 81.4878 95.8572 81.4747 95.7897C81.4616 95.7221 81.4468 95.6548 81.4304 95.5879C81.414 95.521 81.396 95.4546 81.3763 95.3885C81.3566 95.3228 81.3354 95.2574 81.3127 95.1925C81.2898 95.1275 81.2653 95.0631 81.2393 94.9992C81.2134 94.9357 81.1859 94.8726 81.1569 94.8101C81.1277 94.7476 81.097 94.6859 81.0651 94.6251C81.0328 94.5642 80.9992 94.5042 80.9642 94.445C80.9292 94.3855 80.8927 94.3271 80.8547 94.2698C80.8167 94.2122 80.7775 94.1555 80.737 94.0999C80.6963 94.0445 80.6542 93.99 80.6107 93.9365C80.5673 93.883 80.5226 93.8305 80.4766 93.7789C80.4307 93.7276 80.3836 93.6775 80.3352 93.6287C80.2868 93.5796 80.2373 93.5317 80.1867 93.485C80.1359 93.4383 80.0839 93.393 80.0309 93.3491C79.9781 93.3049 79.9241 93.262 79.8689 93.2205C79.814 93.1791 79.7579 93.1391 79.7008 93.1006C79.6439 93.0618 79.586 93.0244 79.5269 92.9884C79.4682 92.9527 79.4086 92.9183 79.3482 92.8853C79.2875 92.8522 79.2261 92.8207 79.164 92.7907C79.102 92.7607 79.0393 92.7323 78.9758 92.7056C78.9124 92.6785 78.8483 92.6531 78.7835 92.6294Z" fill="black"/>
<path d="M101.588 85.5491C101.521 85.5393 101.453 85.5311 101.385 85.5245C101.317 85.518 101.249 85.513 101.18 85.5098C101.112 85.5065 101.044 85.5049 100.975 85.5049C100.907 85.5049 100.839 85.5066 100.77 85.5102C100.702 85.5134 100.634 85.5184 100.566 85.5249C100.498 85.5317 100.43 85.5401 100.362 85.5499C100.295 85.56 100.227 85.5716 100.16 85.5847C100.093 85.5981 100.027 85.6129 99.9601 85.6293C99.8939 85.646 99.8281 85.6641 99.7625 85.6838C99.6971 85.7034 99.6322 85.7245 99.5677 85.7472C99.5032 85.7701 99.4393 85.7945 99.3762 85.8205C99.313 85.8464 99.2504 85.8738 99.1884 85.9028C99.1266 85.9317 99.0655 85.9621 99.0051 85.9941C98.9447 86.026 98.8851 86.0593 98.8263 86.0939C98.7675 86.1289 98.7096 86.1652 98.6524 86.2028C98.5953 86.2405 98.5393 86.2795 98.4843 86.3199C98.4291 86.36 98.375 86.4017 98.3219 86.4448C98.2686 86.4876 98.2165 86.5318 98.1657 86.5774C98.1148 86.623 98.065 86.6697 98.016 86.7174C97.9674 86.7655 97.9199 86.8146 97.8737 86.8648C97.8275 86.915 97.7826 86.9663 97.7388 87.0187C97.6948 87.0711 97.6523 87.1244 97.6113 87.1788C97.57 87.2333 97.5301 87.2889 97.4916 87.3454C97.453 87.4016 97.416 87.4588 97.3804 87.5169C97.3446 87.5753 97.3103 87.6344 97.2775 87.6942C97.2447 87.7539 97.2134 87.8145 97.1836 87.8759C97.1538 87.9373 97.1254 87.9994 97.0983 88.0622C97.0715 88.125 97.0462 88.1883 97.0225 88.2521C96.9987 88.3163 96.9765 88.3808 96.956 88.4458C96.9353 88.511 96.9163 88.5765 96.899 88.6423C96.8815 88.7083 96.8657 88.7748 96.8515 88.8416C96.8372 88.9082 96.8247 88.9752 96.8137 89.0426C96.8028 89.11 96.7935 89.1776 96.7859 89.2453C96.7782 89.3132 96.7722 89.3812 96.7678 89.4491C96.7634 89.5174 96.7608 89.5856 96.76 89.6538C96.7589 89.722 96.7595 89.7903 96.7617 89.8585C96.7641 89.9265 96.7681 89.9946 96.7736 90.0628C96.7793 90.1307 96.7867 90.1985 96.7957 90.2662C96.8044 90.3339 96.815 90.4013 96.8273 90.4685C96.8396 90.5356 96.8534 90.6023 96.8687 90.6686C96.8843 90.7352 96.9014 90.8013 96.9199 90.8668C96.9385 90.9326 96.9588 90.9978 96.9806 91.0624C97.0025 91.1269 97.026 91.1908 97.0512 91.2544C97.076 91.318 97.1026 91.3809 97.1307 91.4432C97.1586 91.5054 97.1881 91.5669 97.2193 91.6278C97.2502 91.6884 97.2826 91.7484 97.3165 91.8079C97.3506 91.8671 97.386 91.9254 97.4227 91.9827C97.4596 92.0403 97.4978 92.0969 97.5375 92.1526C97.5769 92.2083 97.6177 92.2629 97.6601 92.3164C97.7022 92.3701 97.7457 92.4228 97.7905 92.4744C97.8353 92.526 97.8812 92.5764 97.9283 92.6258C97.9756 92.675 98.0241 92.7231 98.0738 92.7703C98.1233 92.8173 98.1739 92.863 98.2256 92.9075C98.2775 92.952 98.3304 92.9952 98.3843 93.0373C98.4381 93.0793 98.4931 93.1199 98.5491 93.1592C98.6049 93.1983 98.6617 93.2361 98.7197 93.2726C98.7774 93.3092 98.8359 93.3444 98.8952 93.3783C98.9548 93.4118 99.0151 93.444 99.076 93.4749C99.137 93.5057 99.1988 93.5349 99.2614 93.5625C99.3237 93.5903 99.3867 93.6167 99.4504 93.6415C99.5141 93.6661 99.5783 93.6891 99.6431 93.7107C99.7082 93.7325 99.7735 93.7526 99.8391 93.7708C99.905 93.7894 99.9713 93.8062 100.038 93.8212C100.105 93.8365 100.172 93.8501 100.239 93.8621C100.331 93.8785 100.423 93.8917 100.515 93.9018C100.607 93.9119 100.7 93.919 100.793 93.9231C100.886 93.9272 100.979 93.9283 101.072 93.9264C101.165 93.9245 101.258 93.9195 101.35 93.9113C101.443 93.9031 101.535 93.8917 101.627 93.8773C101.719 93.8631 101.81 93.8459 101.901 93.8257C101.992 93.8055 102.082 93.7822 102.171 93.7557C102.26 93.7295 102.348 93.7004 102.436 93.6685C102.523 93.6363 102.609 93.6014 102.694 93.5637C102.779 93.526 102.863 93.4855 102.945 93.4421C103.027 93.399 103.108 93.3532 103.187 93.3046C103.267 93.256 103.344 93.2048 103.42 93.1511C103.496 93.0973 103.57 93.0412 103.642 92.9828C103.714 92.9241 103.784 92.8631 103.852 92.7998C103.92 92.7368 103.986 92.6714 104.05 92.6037C104.114 92.536 104.175 92.4664 104.235 92.3949C104.294 92.3234 104.35 92.2499 104.405 92.1743C104.459 92.099 104.511 92.022 104.56 91.9434C104.609 91.8646 104.656 91.7842 104.699 91.7023C104.743 91.6204 104.784 91.5372 104.823 91.4526C104.861 91.3682 104.897 91.2826 104.929 91.1955C104.962 91.1087 104.992 91.0208 105.019 90.9319C105.045 90.8429 105.069 90.7533 105.09 90.6629C105.111 90.5723 105.129 90.4813 105.144 90.3898C105.159 90.2981 105.171 90.206 105.179 90.1135C105.188 90.0213 105.194 89.9288 105.196 89.836C105.199 89.7432 105.199 89.6504 105.195 89.5576C105.192 89.4648 105.185 89.3723 105.175 89.28C105.166 89.1878 105.153 89.0959 105.137 89.0042C105.122 88.9127 105.103 88.8218 105.081 88.7315C105.059 88.6414 105.035 88.5521 105.007 88.4634C104.979 88.3747 104.949 88.2871 104.915 88.2006C104.882 88.114 104.846 88.0286 104.806 87.9443C104.767 87.8602 104.725 87.7774 104.681 87.6958C104.636 87.6145 104.589 87.5347 104.539 87.4563C104.489 87.378 104.437 87.3013 104.382 87.2263C104.327 87.1515 104.269 87.0786 104.21 87.0077C104.15 86.9364 104.088 86.8674 104.023 86.8005C103.959 86.7334 103.892 86.6686 103.824 86.6061C103.755 86.5436 103.684 86.4832 103.612 86.4251C103.539 86.3673 103.464 86.3118 103.388 86.2589C103.312 86.206 103.234 86.1555 103.154 86.1074C103.074 86.0597 102.993 86.0145 102.91 85.9719C102.828 85.9296 102.744 85.8899 102.658 85.8528C102.573 85.816 102.487 85.7819 102.399 85.7505C102.311 85.7194 102.223 85.6911 102.133 85.6657C102.044 85.6404 101.954 85.6178 101.863 85.5982C101.772 85.5788 101.681 85.5625 101.588 85.5491Z" fill="black"/>
<path d="M64.5684 31.0637L28.4662 31.0645C28.3856 32.8237 28.2903 34.5822 28.1804 36.34C31.0151 36.3928 37.0454 35.5577 39.2548 37.6021C39.6341 38.2378 39.753 38.7397 39.7083 39.4803C39.6087 41.1358 38.9222 42.9006 38.6192 44.5462C38.1534 47.0774 38.0455 49.6805 37.8848 52.2456C39.7444 52.244 41.8615 52.0369 43.6662 52.4905C44.8923 52.7983 45.9699 53.1548 46.6473 54.2876C46.09 55.2213 45.6463 55.3892 44.6036 55.6794C42.475 56.2722 37.2701 56.5264 35.3543 55.2905C31.8701 53.0431 35.6615 48.766 34.7663 45.9802C34.3846 44.7923 33.4045 44.5626 32.3782 44.0095C31.898 42.8522 32.0485 41.7159 31.6261 40.5803C30.6859 40.0534 29.438 40.2638 28.3871 40.2974L28.3145 62.5593C28.9345 61.8183 29.5909 61.1108 30.2836 60.4367C33.2147 57.5683 36.8043 57.4369 40.6879 57.4786C48.1821 57.5589 51.4753 57.7799 56.8885 63.2998C59.2631 61.2116 61.4602 58.8872 63.6056 56.5686C65.5751 48.6194 65.0326 39.2011 64.5684 31.0637Z" fill="white"/>
<path d="M57.5267 36.6246C54.4024 36.3699 46.7848 35.62 44.3163 37.3512C43.9927 37.9886 43.9599 38.2211 44.0588 38.9289C44.9527 40.0833 46.3395 40.0395 47.4483 40.8312C48.0285 41.2455 47.9477 41.9746 48.0474 42.637C48.0511 42.7025 48.0486 42.7684 48.0589 42.8331C48.2094 43.764 48.7547 44.2802 49.5105 44.7972C50.3589 45.3769 50.8349 45.5316 51.8297 45.3781C53.4322 44.1987 52.7425 42.3349 53.3638 40.7829C53.6524 40.0616 57.0809 40.3805 58.0347 39.9953C58.6605 39.7423 58.6748 39.6101 58.9065 38.9936C58.681 37.9869 58.1737 37.3991 57.5267 36.6246Z" fill="black"/>
<path d="M64.202 91.1599C61.628 92.0941 59.0414 93.0021 56.3924 93.705C48.1249 95.8992 38.0633 95.8627 30.538 91.5361C29.4546 96.7372 29.1073 101.941 28.9707 107.242C30.1398 106.741 31.3532 106.352 32.5555 105.941C33.0684 106.072 33.5839 106.184 34.0981 106.308C37.5602 107.147 41.2733 104.916 44.6628 106.777C46.3883 107.724 46.9739 109.232 47.5057 110.995C47.9186 116.654 46.2825 118.937 42.1512 122.429C41.2974 123.151 40.4228 123.781 39.8405 124.754C39.9463 125.036 40.0677 125.25 40.2797 125.467C41.0912 126.301 42.0831 126.513 43.212 126.536C50.2814 126.68 58.9385 122.291 63.8977 117.518C62.7992 108.692 62.2448 99.8946 64.202 91.1599Z" fill="#FF0000"/>
<path d="M25.4308 72.7182C21.7977 74.9517 18.1691 77.2012 15.115 80.2097C10.7561 84.5027 6.94541 90.7841 7.00651 97.0736C7.08155 104.828 12.4471 110.767 17.6569 115.885C19.9971 118.139 22.6194 120.119 25.0248 122.316C24.8194 107 24.9305 95.6588 29.6859 80.8618C27.7685 78.2717 26.5756 75.696 25.4308 72.7182Z" fill="white"/>
<path d="M19.1738 103.677C19.1068 103.663 19.0395 103.652 18.972 103.642C18.9045 103.631 18.8368 103.623 18.769 103.616C18.701 103.609 18.6329 103.604 18.5648 103.601C18.4968 103.597 18.4286 103.595 18.3602 103.595C18.2919 103.595 18.2237 103.596 18.1556 103.599C18.0872 103.602 18.0192 103.607 17.9514 103.613C17.8833 103.619 17.8155 103.627 17.748 103.637C17.6802 103.646 17.6128 103.657 17.5458 103.67C17.4789 103.683 17.4122 103.697 17.3457 103.713C17.2793 103.729 17.2134 103.747 17.1481 103.766C17.0825 103.785 17.0174 103.806 16.9529 103.828C16.8884 103.85 16.8244 103.874 16.761 103.899C16.6978 103.925 16.6351 103.952 16.5728 103.98C16.5107 104.008 16.4495 104.038 16.3891 104.069C16.3284 104.101 16.2685 104.133 16.2095 104.168C16.1504 104.202 16.0922 104.237 16.0348 104.274C15.9774 104.311 15.9209 104.35 15.8654 104.389C15.8099 104.429 15.7555 104.47 15.7022 104.512C15.6486 104.555 15.5962 104.598 15.5448 104.643C15.4934 104.688 15.4431 104.734 15.3939 104.781C15.3447 104.828 15.2965 104.877 15.2495 104.926C15.2028 104.976 15.1573 105.026 15.113 105.078C15.0684 105.13 15.0252 105.183 14.9834 105.236C14.9416 105.29 14.901 105.345 14.8616 105.401C14.8225 105.457 14.7847 105.513 14.748 105.571C14.7117 105.629 14.6767 105.687 14.6431 105.746C14.6094 105.805 14.5772 105.865 14.5463 105.926C14.5154 105.987 14.4861 106.049 14.4585 106.111C14.4306 106.173 14.4043 106.236 14.3794 106.299C14.3548 106.363 14.3315 106.427 14.3097 106.492C14.2881 106.556 14.268 106.621 14.2494 106.687C14.2308 106.752 14.2139 106.818 14.1985 106.885C14.1832 106.951 14.1694 107.018 14.1571 107.085C14.1451 107.152 14.1346 107.219 14.1256 107.287C14.1168 107.354 14.1096 107.422 14.1038 107.49C14.0984 107.558 14.0944 107.626 14.0919 107.694C14.0895 107.762 14.0888 107.83 14.0899 107.898C14.0907 107.966 14.0933 108.034 14.0977 108.102C14.1018 108.17 14.1075 108.238 14.1149 108.306C14.1225 108.374 14.1317 108.441 14.1424 108.509C14.153 108.576 14.1653 108.643 14.1793 108.71C14.1935 108.776 14.2091 108.842 14.226 108.908C14.2432 108.974 14.2621 109.04 14.2826 109.105C14.3028 109.17 14.3247 109.234 14.3482 109.298C14.3717 109.362 14.3967 109.426 14.4233 109.489C14.4495 109.551 14.4774 109.613 14.5069 109.675C14.5364 109.736 14.5675 109.797 14.6 109.857C14.6325 109.917 14.6664 109.976 14.7017 110.034C14.7369 110.093 14.7736 110.15 14.8116 110.207C14.8496 110.263 14.8889 110.319 14.9297 110.374C14.9704 110.428 15.0125 110.482 15.056 110.535C15.0992 110.587 15.1437 110.639 15.1896 110.689C15.2353 110.74 15.2823 110.789 15.3307 110.837C15.3788 110.886 15.4282 110.933 15.4787 110.979C15.529 111.025 15.5806 111.069 15.6333 111.113C15.6858 111.156 15.7394 111.198 15.7941 111.239C15.8487 111.28 15.9044 111.319 15.961 111.357C16.0176 111.396 16.075 111.432 16.1332 111.468C16.1917 111.503 16.2509 111.537 16.3107 111.57C16.3706 111.602 16.4313 111.633 16.4928 111.663C16.5543 111.692 16.6165 111.721 16.6794 111.747C16.7423 111.774 16.8057 111.799 16.8697 111.823C16.9336 111.846 16.9981 111.868 17.0632 111.889C17.1283 111.909 17.1939 111.928 17.26 111.946C17.3516 111.97 17.4439 111.991 17.5368 112.009C17.6295 112.026 17.7228 112.041 17.8169 112.053C17.9107 112.065 18.0048 112.073 18.0994 112.078C18.1937 112.084 18.2883 112.086 18.3832 112.085C18.4778 112.084 18.5722 112.08 18.6665 112.073C18.7608 112.066 18.8547 112.056 18.9482 112.042C19.042 112.029 19.1352 112.012 19.2279 111.992C19.3203 111.973 19.412 111.95 19.503 111.924C19.5941 111.898 19.6841 111.87 19.7733 111.838C19.8624 111.806 19.9503 111.772 20.0369 111.734C20.1239 111.696 20.2093 111.656 20.2932 111.612C20.3774 111.569 20.46 111.523 20.5409 111.474C20.6221 111.426 20.7014 111.374 20.7787 111.32C20.8564 111.266 20.9321 111.209 21.0059 111.15C21.0797 111.091 21.1515 111.029 21.2212 110.966C21.2906 110.902 21.358 110.836 21.4233 110.767C21.4887 110.699 21.5515 110.628 21.612 110.555C21.6726 110.483 21.7307 110.408 21.7862 110.332C21.8417 110.255 21.8946 110.177 21.9449 110.097C21.9952 110.017 22.0428 109.936 22.0876 109.853C22.1325 109.769 22.1746 109.685 22.2139 109.599C22.253 109.513 22.2892 109.426 22.3226 109.338C22.3559 109.249 22.3864 109.16 22.414 109.069C22.4414 108.979 22.4657 108.887 22.487 108.796C22.5083 108.704 22.5265 108.611 22.5416 108.518C22.5566 108.424 22.5686 108.331 22.5776 108.237C22.5864 108.143 22.592 108.049 22.5945 107.954C22.5972 107.86 22.5966 107.765 22.5928 107.671C22.589 107.577 22.582 107.482 22.5719 107.389C22.5618 107.295 22.5487 107.201 22.5325 107.108C22.5161 107.015 22.4967 106.923 22.4743 106.831C22.4516 106.739 22.4261 106.648 22.3976 106.558C22.3692 106.468 22.3376 106.379 22.3029 106.291C22.2685 106.204 22.231 106.117 22.1905 106.031C22.1504 105.946 22.1073 105.862 22.0614 105.779C22.0155 105.697 21.9668 105.616 21.9154 105.537C21.864 105.457 21.81 105.38 21.7534 105.304C21.6971 105.228 21.6382 105.154 21.5767 105.083C21.5152 105.011 21.4513 104.941 21.3852 104.873C21.319 104.806 21.2507 104.741 21.1802 104.678C21.1099 104.615 21.0375 104.554 20.9628 104.496C20.8882 104.438 20.8118 104.382 20.7336 104.329C20.6554 104.276 20.5755 104.226 20.4937 104.178C20.412 104.13 20.3289 104.085 20.2444 104.043C20.1597 104 20.0737 103.961 19.9865 103.925C19.8993 103.888 19.8109 103.855 19.7212 103.824C19.6318 103.794 19.5414 103.766 19.4501 103.741C19.3586 103.717 19.2664 103.695 19.1738 103.677Z" fill="black"/>
<path d="M19.728 85.2645C19.6629 85.2519 19.5974 85.241 19.5316 85.2317C19.466 85.2222 19.4001 85.2143 19.3339 85.208C19.2678 85.2017 19.2015 85.1971 19.135 85.1941C19.0689 85.1908 19.0026 85.1893 18.9362 85.1895C18.8697 85.1895 18.8033 85.1911 18.7369 85.1941C18.6707 85.1973 18.6046 85.2021 18.5384 85.2084C18.4723 85.2149 18.4064 85.2228 18.3408 85.2321C18.2749 85.2417 18.2094 85.2527 18.1443 85.2653C18.079 85.2781 18.0141 85.2923 17.9496 85.3079C17.885 85.3237 17.8209 85.3409 17.7573 85.3594C17.6936 85.3783 17.6304 85.3986 17.5678 85.4204C17.5049 85.4423 17.4427 85.4655 17.3812 85.49C17.3197 85.5149 17.2588 85.5411 17.1983 85.5686C17.1379 85.5962 17.0782 85.6253 17.0192 85.6558C16.9604 85.6861 16.9022 85.7179 16.8445 85.7512C16.7871 85.7845 16.7305 85.8192 16.6747 85.8552C16.6189 85.8909 16.564 85.9282 16.5099 85.967C16.456 86.0054 16.403 86.0451 16.3508 86.0861C16.2988 86.1273 16.2477 86.1696 16.1974 86.213C16.1474 86.2566 16.0984 86.3014 16.0506 86.3472C16.0025 86.3931 15.9556 86.4401 15.9099 86.4881C15.8643 86.5361 15.8197 86.5852 15.7763 86.6355C15.7331 86.6857 15.691 86.7368 15.65 86.789C15.609 86.8411 15.5693 86.8943 15.5311 86.9486C15.4925 87.0027 15.4555 87.0575 15.4199 87.1132C15.3841 87.1691 15.3497 87.2259 15.3166 87.2835C15.2835 87.3408 15.252 87.3991 15.2219 87.4583C15.1915 87.5172 15.1627 87.5769 15.1354 87.6372C15.1077 87.6975 15.0818 87.7585 15.0574 87.8202C15.0328 87.8818 15.0097 87.9441 14.9881 88.0068C14.9668 88.0693 14.9469 88.1325 14.9283 88.1964C14.9097 88.26 14.8927 88.324 14.8774 88.3884C14.8621 88.4528 14.8482 88.5176 14.8356 88.5828C14.8233 88.6478 14.8126 88.7131 14.8036 88.7789C14.7943 88.8444 14.7867 88.9102 14.7807 88.9762C14.7746 89.0423 14.7701 89.1085 14.7671 89.1748C14.7641 89.2408 14.7627 89.307 14.763 89.3733C14.7633 89.4396 14.7652 89.506 14.7688 89.5723C14.772 89.6383 14.7771 89.7043 14.7839 89.7704C14.7905 89.8364 14.7986 89.9022 14.8081 89.9677C14.818 90.0332 14.8293 90.0984 14.8422 90.1634C14.855 90.2283 14.8694 90.293 14.8852 90.3574C14.9013 90.4218 14.9188 90.4858 14.9377 90.5494C14.9568 90.6127 14.9773 90.6756 14.9992 90.7381C15.0214 90.8009 15.0449 90.863 15.0697 90.9244C15.0946 90.9858 15.121 91.0465 15.1489 91.1066C15.1768 91.1666 15.2062 91.2261 15.237 91.2851C15.2677 91.3437 15.2998 91.4017 15.3334 91.459C15.3668 91.5163 15.4015 91.5727 15.4376 91.6281C15.4739 91.6838 15.5115 91.7385 15.5503 91.7923C15.5892 91.846 15.6292 91.8989 15.6705 91.9507C15.7118 92.0026 15.7543 92.0535 15.798 92.1034C15.8417 92.1531 15.8867 92.2018 15.9329 92.2495C15.9791 92.2973 16.0263 92.344 16.0744 92.3895C16.1228 92.4348 16.1722 92.4791 16.2228 92.5222C16.2731 92.5653 16.3245 92.6072 16.377 92.6479C16.4295 92.6885 16.4828 92.728 16.5369 92.7662C16.5913 92.8044 16.6465 92.8412 16.7026 92.8767C16.7586 92.9122 16.8156 92.9463 16.8736 92.979C16.9313 93.0118 16.9896 93.0432 17.0487 93.0732C17.108 93.1032 17.168 93.1317 17.2287 93.1588C17.2891 93.186 17.3502 93.2117 17.412 93.2357C17.4738 93.26 17.5361 93.2828 17.599 93.3041C17.6618 93.3254 17.7253 93.3452 17.7892 93.3634C17.8794 93.3891 17.9703 93.4117 18.0619 93.4314C18.1535 93.451 18.2456 93.4677 18.3383 93.4813C18.431 93.4947 18.5241 93.5049 18.6175 93.512C18.711 93.5194 18.8047 93.5235 18.8984 93.5243C18.9922 93.5251 19.0858 93.523 19.1793 93.5178C19.2728 93.5123 19.366 93.5037 19.459 93.492C19.5519 93.4805 19.6445 93.4658 19.7366 93.4478C19.8284 93.43 19.9197 93.4091 20.0105 93.3851C20.101 93.3611 20.1907 93.3341 20.2795 93.3041C20.3681 93.274 20.4557 93.241 20.5424 93.205C20.6287 93.169 20.7139 93.1302 20.7978 93.0887C20.8817 93.047 20.9642 93.0025 21.0451 92.9553C21.126 92.9084 21.2053 92.8585 21.2829 92.8059C21.3605 92.7535 21.4363 92.6985 21.5101 92.6409C21.5839 92.5833 21.6557 92.5233 21.7254 92.4608C21.7953 92.3983 21.863 92.3336 21.9283 92.2667C21.9937 92.1999 22.0568 92.1308 22.1178 92.0596C22.1785 91.9884 22.2367 91.9152 22.2925 91.8402C22.3482 91.7648 22.4014 91.6879 22.452 91.6093C22.5028 91.5307 22.5508 91.4505 22.5959 91.3686C22.641 91.2867 22.6834 91.2033 22.723 91.1185C22.7627 91.0338 22.7994 90.9479 22.8333 90.8605C22.867 90.7732 22.8977 90.6849 22.9256 90.5957C22.9535 90.5065 22.9784 90.4164 23.0002 90.3255C23.0221 90.2343 23.0408 90.1426 23.0564 90.0504C23.072 89.9584 23.0844 89.8659 23.0937 89.7729C23.103 89.6798 23.1092 89.5865 23.1122 89.4928C23.1152 89.3995 23.1151 89.306 23.1118 89.2124C23.1085 89.1191 23.1022 89.0259 23.0929 88.9328C23.0833 88.8398 23.0706 88.7471 23.0548 88.6549C23.0389 88.5626 23.0201 88.4711 22.9982 88.3802C22.9763 88.2893 22.9513 88.1992 22.9231 88.11C22.895 88.0208 22.864 87.9326 22.8301 87.8455C22.7962 87.7582 22.7593 87.6722 22.7193 87.5876C22.6797 87.503 22.6372 87.4198 22.5918 87.3379C22.5464 87.2561 22.4983 87.1758 22.4475 87.0972C22.3966 87.0186 22.3432 86.9418 22.2871 86.8667C22.2311 86.792 22.1726 86.719 22.1116 86.6477C22.051 86.5768 21.9878 86.5079 21.9222 86.441C21.8566 86.3741 21.7888 86.3096 21.7188 86.2474C21.6488 86.1851 21.5769 86.1252 21.5031 86.0677C21.429 86.0103 21.3532 85.9555 21.2755 85.9031C21.1979 85.8507 21.1186 85.801 21.0377 85.7541C20.9565 85.7071 20.874 85.6629 20.79 85.6215C20.7061 85.58 20.6208 85.5413 20.5342 85.5056C20.4475 85.4698 20.3597 85.4371 20.2709 85.4073C20.1823 85.3773 20.0927 85.3504 20.0019 85.3267C19.9114 85.3029 19.8201 85.2822 19.728 85.2645Z" fill="black"/>
<path d="M44.3394 4.83536C43.6206 5.6148 43.0637 6.61775 42.3719 7.44181C40.6932 9.43994 38.2923 11.2563 35.5962 11.4291C32.9464 11.5985 30.8088 10.1723 28.9024 8.51272C28.9735 12.7459 29.1103 16.9768 29.3129 21.2056C42.02 21.2135 54.7267 21.2915 67.4329 21.4394L74.905 21.5221C75.3093 17.2068 75.8145 12.9032 76.4206 8.61138C75.6164 9.46205 74.7315 10.3565 73.7007 10.9313C71.9382 11.9138 69.9536 12.2298 68.0066 11.6305C64.6765 10.6054 63.0117 7.78773 61.49 4.90413C60.2254 7.08157 58.871 9.21929 56.6764 10.5727C54.9951 11.6092 53.0158 11.926 51.1061 11.418C47.6949 10.51 45.9702 7.69316 44.3394 4.83536Z" fill="#FF0000"/>
<path d="M45.6659 11.7324C44.2057 11.766 42.4601 11.7693 41.3989 12.9462C41.1225 13.2528 40.8437 13.8599 40.8855 14.2803C41.0302 15.7336 42.0558 16.6129 43.1162 17.4767C43.746 17.5336 44.4698 17.6388 45.0919 17.4918C46.1121 17.2511 47.227 16.251 47.7166 15.3439C48.1115 14.6127 48.0127 13.9827 47.8015 13.216C47.2373 12.3563 46.5726 12.1119 45.6659 11.7324Z" fill="black"/>
<path d="M67.8385 118.419C64.2944 121.689 60.542 124.564 56.1852 126.671C50.3078 129.515 43.2704 131.073 36.9383 128.874C36.8719 131.739 36.8201 134.605 36.7829 137.471C38.5121 137.856 40.6633 137.81 42.4249 137.735C50.1114 137.408 60.1045 134.094 65.3557 128.28C68.1871 125.146 68.0665 122.388 67.8385 118.419Z" fill="#FF0000"/>
<path d="M36.6079 111.431C35.5462 110.431 34.2898 109.383 32.7943 109.166C31.9763 109.048 31.0938 109.207 30.4431 109.738C29.4909 110.516 29.1612 111.747 29.1268 112.925C29.0559 115.36 30.2786 117.288 31.9287 118.948L36.8867 122.124C39.9506 120.178 42.9584 118.016 44.469 114.581C44.9751 113.429 45.1944 112.13 44.6761 110.942C44.2013 109.855 43.3131 109.505 42.2867 109.088C39.785 109.159 38.4252 109.738 36.6079 111.431Z" fill="white"/>
<path d="M75.8276 39.1062C74.417 39.2531 73.0035 39.3309 72.0317 40.516C70.822 41.9906 70.8224 50.984 71.0984 53.1868C71.884 53.6195 72.7202 53.4632 73.6083 53.4587C74.0012 53.3567 74.3661 53.238 74.738 53.0734C76.6022 52.2473 77.6138 50.6868 78.3137 48.8467C79.1974 46.5239 79.5804 43.3128 78.4277 41.0159C77.8303 39.8262 77.0532 39.4865 75.8276 39.1062Z" fill="white"/>
<path d="M66.8916 25.0738L41.496 25.0083C38.0056 25.0038 34.1195 24.6361 30.6808 24.9907C29.9455 25.0664 29.8627 25.0566 29.3284 25.5683C29.385 25.9523 29.3296 26.1631 29.6273 26.4443C30.7435 27.4976 34.849 26.9913 36.3592 26.9552C40.5853 26.9495 72.479 27.4882 73.7375 26.9528C74.4116 26.6662 74.5264 26.4075 74.738 25.7419L74.3407 25.2928C72.037 24.8482 69.2543 25.0869 66.8916 25.0738Z" fill="white"/>
<path d="M28.8059 120.027C28.4209 122.509 29.5461 125.237 28.5004 127.564C27.7701 128.16 27.5073 128.022 26.5875 128.017C26.5203 128.092 26.4477 128.164 26.3858 128.244C25.4553 129.446 26.2152 133.108 26.3706 134.587C27.6889 135.123 29.0068 135.524 30.3793 135.898C31.1412 136.06 32.2471 136.46 32.977 136.145C33.4502 132.086 33.1915 127.965 33.9349 123.937C31.8977 122.894 30.4031 121.666 28.8059 120.027Z" fill="#FF0000"/>
<path d="M73.9413 57.1174C73.1663 57.1424 72.2367 57.0904 71.4843 57.2521C70.5879 57.4449 70.6199 58.4798 70.5739 59.24C70.1233 66.7327 70.5694 70.582 66.0617 77.172C67.6605 76.576 69.2741 75.4727 70.462 74.2581C74.8156 69.8067 73.9959 62.8285 73.9413 57.1174Z" fill="white"/>
<path d="M48.7159 64.259C45.0283 64.173 41.2631 63.9385 37.5804 64.1202C36.5114 64.173 35.3866 64.1743 34.6186 65.0102C34.5317 65.8367 34.692 66.0258 35.0455 66.7566C38.0704 66.8245 46.4807 67.6089 48.6839 66.1499C49.0505 65.3205 48.9066 65.1219 48.7159 64.259Z" fill="white"/>
</svg>
