<svg width="125" height="146" viewBox="0 0 125 146" fill="none" xmlns="http://www.w3.org/2000/svg">
<path d="M51.6339 10.4833C48.7533 7.86654 46.546 2.80282 43.932 0.714824C41.0231 -1.60864 36.2191 9.37203 33.5624 9.89262C30.4636 8.58385 28.5939 3.14139 25.97 0.817356C25.1869 0.123414 24.7398 0.0447065 23.78 0.116344C23.1931 0.624755 22.8892 0.806773 22.6688 1.60178C22.0274 3.91421 23.8208 18.8343 23.9171 22.5069C24.1575 31.6821 23.7843 40.9926 23.5713 50.1723C23.4374 55.9642 23.1774 61.8574 23.7244 67.6293C24.0424 70.9819 25.118 73.9598 26.6169 76.9209C17.0632 81.5506 6.04949 87.5174 1.90092 98.2414C1.25211 99.9186 0.78929 101.564 0.596252 103.363C0.0378892 108.562 -0.488365 141.538 0.797121 144.667C5.68103 145.439 14.9089 144.865 20.3304 144.865L63.6759 144.857L102.757 144.865C108.44 144.869 114.226 145.16 119.896 144.967C120.76 144.938 121.807 144.804 122.562 144.351C124.934 142.926 124.204 127.883 123.962 124.779C123.754 122.119 122.593 118.534 123.356 115.967C123.683 114.865 123.799 113.91 123.84 112.765C123.899 111.094 124.161 108.662 122.906 107.402C121.506 105.996 117.017 106.691 115.077 106.714C115.089 100.114 115.816 59.4786 114.497 56.0018C113.739 54.0026 108.881 45.3938 107.274 44.6521C106.592 44.8017 106.46 44.8429 105.975 45.3546C104.348 47.0718 99.3566 55.6201 98.7976 57.9273C97.8551 61.8182 98.5407 80.3451 98.5677 85.5886C90.3289 81.0006 82.1238 76.5425 73.5828 72.5937L73.5757 57.4251C75.4877 56.8064 77.1201 56.0851 78.581 54.616C81.1203 52.0623 82.3854 48.6038 82.403 44.948C82.4187 41.6787 81.5063 39.2803 79.3027 36.9988C78.942 26.202 79.807 17.3663 81.2612 6.80211C81.4695 5.28917 81.8204 2.95921 81.4331 1.47967C81.2283 0.698151 80.3971 0.382136 79.778 0C75.5805 1.61175 74.2132 8.00675 70.2941 9.89082C66.4995 9.46026 65.1059 1.60717 61.6763 0.224925C58.1698 0.559084 54.4222 7.7267 51.8771 10.2462L51.6339 10.4833Z" fill="black"/>
<path d="M73.6499 76.72C72.3022 78.7984 72.2924 81.4718 69.9176 84.028C65.1116 89.2004 57.4093 91.5767 50.6181 91.6241C39.2147 91.7038 36.2005 87.3855 28.8212 79.8797C23.6424 82.9152 18.0161 85.4003 13.4561 89.4505C15.4338 97.1741 21.5895 102.445 27.7401 106.653C30.965 108.547 34.2322 110.185 37.804 111.242C50.931 115.126 65.6669 112.146 77.407 105.271C84.3168 101.225 91.097 95.0797 93.2929 86.8751C86.8169 83.2793 80.3252 79.8985 73.6499 76.72Z" fill="white"/>
<path d="M50.527 96.4887C50.2482 96.5982 50.2701 96.5778 49.9643 96.7686C48.3484 97.7788 46.0942 100.643 45.7304 102.594C45.145 105.735 49.5853 105.346 50.7584 107.106C50.7964 107.163 50.8281 107.224 50.8634 107.283C51.7863 107.128 51.1797 106.721 51.6484 106.217C52.1077 105.723 53.8169 105.983 54.5922 105.239C55.1278 104.725 55.3271 104.103 55.2751 103.353C55.1008 100.841 52.1625 98.1053 50.527 96.4887Z" fill="black"/>
<path d="M66.8593 93.4536C66.7756 93.5063 66.6871 93.5513 66.6084 93.6118C65.2802 94.6338 62.4285 97.4053 62.1763 99.1086C61.6888 102.402 64.8138 102.207 66.0664 103.122C66.2822 103.28 66.5841 103.861 66.7552 104.104C66.7904 104.119 66.8237 104.144 66.8617 104.148C67.8931 104.255 67.3829 103.621 67.8876 103.075C68.3328 102.594 70.3481 102.11 71.1109 101.547C71.2616 101.241 71.5295 100.864 71.5224 100.52C71.4617 97.5287 68.7521 95.3551 66.8593 93.4536Z" fill="black"/>
<path d="M35.8317 94.0302C34.1872 95.3743 31.8884 96.9056 30.7787 98.7698C30.2975 99.5782 30.3166 99.8859 30.4752 100.761C31.3934 101.882 32.1249 102.497 33.5513 102.727C33.9014 102.784 33.9292 102.888 34.1833 103.133C34.5353 103.516 34.7824 103.649 35.2597 103.827C36.2307 103.122 37.4912 102.94 38.3702 102.116C38.4444 102.046 38.5151 101.972 38.5824 101.894C38.6495 101.817 38.7128 101.736 38.7724 101.652C38.8319 101.568 38.8872 101.48 38.9384 101.391C38.9895 101.3 39.0363 101.208 39.0786 101.113C39.1211 101.018 39.1589 100.922 39.1921 100.823C39.2253 100.724 39.2536 100.624 39.2771 100.523C39.3008 100.421 39.3196 100.318 39.3335 100.214C39.3473 100.111 39.3562 100.007 39.3601 99.9022C39.4353 97.4638 37.3549 95.5835 35.8317 94.0302Z" fill="black"/>
<path d="M24.0035 85.8085C22.6812 86.7574 20.2817 89.1513 19.7363 90.7627C19.638 91.0536 19.6823 91.6965 19.824 91.967C20.2586 92.797 21.1941 93.7185 22.0864 93.9784C22.3088 94.0434 22.4835 94.0708 22.6894 94.1893C23.2783 94.5297 23.2646 95.0728 23.4455 95.7144C23.7134 95.6899 23.5548 95.7181 23.9487 95.5583C24.5004 95.3343 24.5709 94.7418 24.7999 94.1913C25.2718 93.9809 25.7996 93.7696 26.2283 93.4741C26.9617 92.969 27.2859 92.4418 27.4923 91.5645C27.387 89.345 25.3313 87.4182 24.0035 85.8085Z" fill="black"/>
<path d="M81.0531 85.4562C80.1039 85.79 79.3658 86.6098 78.6947 87.3642C77.8247 88.3421 76.9636 89.7597 77.0909 91.143C77.3023 93.4438 79.488 93.0237 80.7061 94.2076C80.7473 94.248 80.786 94.2905 80.8264 94.3322C81.2269 94.3669 81.6142 94.2067 81.9576 94.009C82.189 93.8753 82.3899 93.7662 82.6397 93.6698C83.0888 93.4965 83.4803 93.3559 83.8089 92.973C84.332 92.3633 84.518 91.5206 84.4428 90.7221C84.2075 88.2224 82.7979 86.9711 81.0531 85.4562Z" fill="black"/>
<path d="M64.786 27.0446L27.4074 27.081L27.4223 34.1446C29.8613 34.0944 33.2855 33.6203 35.573 34.4037C39.756 35.8357 34.4449 47.453 36.2974 51.1236C37.1243 51.6969 37.5915 51.6156 38.5594 51.6438C40.0477 51.6025 42.3606 51.2094 43.5353 52.2747C43.8975 53.0537 43.8971 53.5951 43.8259 54.4529C43.818 54.5497 43.8078 54.6466 43.7988 54.7435C44.9696 55.2964 48.1588 54.4746 50.2032 55.1729C54.1227 56.5113 55.2574 60.8222 56.9901 64.2713C59.6123 62.0633 61.8751 58.9404 64.172 56.3478C64.0902 46.5642 65.3765 36.812 64.786 27.0446Z" fill="white"/>
<path d="M53.6213 34.2351C50.7931 34.1844 44.7286 33.3765 42.5754 35.2542C42.3518 36.054 42.2606 36.2391 42.4677 37.0699C43.0288 37.6097 43.4282 37.725 44.171 37.8868L46.1433 38.3188C46.7494 39.1745 46.5337 41.4601 46.6065 42.6121C47.2404 43.136 47.9793 43.6726 48.8 43.8021C49.423 43.9006 50.1039 43.7318 50.5432 43.2402C51.7704 41.868 51.4235 39.895 51.221 38.2317C52.1815 38.2391 53.2552 38.3143 54.1996 38.1324C54.9334 37.9906 56.0282 37.3359 56.4401 36.6919C56.771 36.1754 56.7142 36.0421 56.5822 35.4876C55.8845 34.6004 54.6503 34.374 53.6213 34.2351Z" fill="black"/>
<path d="M21.8481 106.74L21.6707 106.909C20.6762 110.042 21.2788 135.834 21.2776 141.233L55.1572 141.189C55.7896 141.153 56.2015 141.262 56.6862 140.818C51.986 134.927 46.3894 129.52 41.2992 123.969C38.0904 120.47 35.0147 116.305 31.4468 113.242C28.5943 110.793 24.9559 108.861 21.8481 106.74Z" fill="#FF0000"/>
<path d="M107.193 50.6193C105.224 52.404 103.448 56.5768 102.074 58.9981C101.821 74.885 102.296 90.8051 102.14 106.7L106.048 106.71L111.49 106.705L111.518 57.9605C110.057 55.5257 108.616 53.0786 107.193 50.6193Z" fill="white"/>
<path d="M83.6146 105.46C79.1125 109.472 72.5456 112.093 67.0897 114.296C73.7879 120.886 80.3912 127.578 86.8994 134.372C88.9226 136.465 91.0022 138.984 93.3421 140.673C94.2067 141.297 94.8911 141.593 95.9393 141.381C96.549 140.277 96.1421 134.966 96.2158 133.247C94.7075 132.594 93.0892 131.997 91.909 130.773C91.0155 129.846 90.3028 128.68 89.9641 127.409C89.0506 123.98 89.7026 115.174 89.6865 111.037C87.603 109.266 85.6636 107.283 83.6146 105.46Z" fill="#FF0000"/>
<path d="M115.431 117.894C113.052 117.855 101.571 117.321 100.234 118.687C99.376 119.564 99.6222 122.302 99.6199 123.505C101.666 123.539 110.701 122.786 111.834 123.744C112.487 124.295 112.748 124.869 112.788 125.704C110.624 128.733 102.753 125.361 99.5656 127.883C99.2805 128.458 99.0691 128.84 99.2536 129.503C100.345 133.422 109.43 130.351 112.496 132.141C112.562 132.179 112.626 132.222 112.691 132.262C112.578 132.756 112.501 133.411 112.322 133.874C111.115 136.997 102.721 133.877 100.292 135.707C99.7791 136.094 99.4855 136.652 99.4096 137.304C99.2998 138.248 99.5718 140.142 100.232 140.886C101.041 141.8 118.33 141.338 120.376 141.332C120.913 134.241 121.36 125.091 119.39 118.278C118.084 118.088 116.745 118.015 115.431 117.894Z" fill="white"/>
<path d="M69.9845 66.5129C69.4308 67.4082 69.1391 68.6559 68.764 69.6612C67.5584 72.8928 66.1374 75.9872 63.8167 78.5274C57.7792 85.1354 49.004 85.2878 40.8588 85.4276L40.8208 85.553L41.7281 86.2502C44.7149 87.3565 47.8724 87.7005 51.0296 87.5804C56.5259 87.3712 63.0434 85.7177 66.9096 81.3373C70.5456 77.2173 70.1529 71.7159 69.9845 66.5129Z" fill="white"/>
<path d="M31.1905 38.2138L27.4241 38.1206C27.5024 45.9378 27.0666 53.6766 27.4558 61.504C28.0302 60.3708 28.7679 59.3414 29.4743 58.2956C31.028 56.437 32.1988 56.2678 33.9349 54.9642C33.7736 54.0558 33.1381 53.7313 32.6091 53.0717C31.2884 51.424 32.8123 47.6329 33.0817 45.619C33.5461 42.1508 32.0069 43.4094 31.0456 41.5382C30.4908 40.4577 30.8827 39.2987 31.1905 38.2138Z" fill="white"/>
<path d="M120.28 110.393L93.3566 110.37L93.3813 113.991L110.888 114.02C113.866 114.027 117.168 114.321 120.102 113.853C120.548 112.797 120.336 111.523 120.28 110.393Z" fill="#FF0000"/>
<path d="M76.0186 38.9938C75.4767 38.9799 74.9152 38.9766 74.376 39.0322C73.5557 39.1164 72.8442 39.5557 72.345 40.2406C70.3562 42.9709 70.9307 50.1759 71.4303 53.4636C72.1089 53.8865 73.1469 53.683 73.9179 53.643C75.3936 53.0202 76.4328 52.3193 77.2669 50.871C78.6416 48.4833 79.2321 45.2875 78.5715 42.5647C78.1545 40.8463 77.467 39.9023 76.0186 38.9938Z" fill="white"/>
<path d="M44.9505 62.4145C41.9844 62.3413 36.7943 61.5894 34.1564 62.7864C33.4234 63.119 33.2182 63.3626 32.8924 64.0969C33.0115 64.9306 33.1979 65.2493 33.7425 65.8644C34.7183 66.4254 35.7175 66.3216 36.7994 66.3159C39.9237 66.3617 45.9764 67.0209 48.7079 65.971C49.5215 65.6584 49.6895 65.488 50.0161 64.6752C49.8908 64.2906 49.7819 63.9384 49.5243 63.6249C48.4722 62.345 46.4169 62.506 44.9505 62.4145Z" fill="white"/>
<path d="M96.2176 117.638C95.7132 117.707 95.1791 117.777 94.712 117.998C93.9367 118.365 93.6004 119.09 93.3474 119.896C92.6783 122.028 92.6015 126.096 93.5875 128.109C94.3545 128.435 95.0186 128.772 95.8644 128.743L96.2176 117.638Z" fill="white"/>
</svg>
