<svg width="128" height="146" viewBox="0 0 128 146" fill="none" xmlns="http://www.w3.org/2000/svg">
<path d="M42.7962 0C40.0272 0.404832 35.4301 7.55524 33.5404 9.96759C31.8188 8.11894 26.0393 0.876618 23.6986 1.02717C23.2 1.05912 22.8513 1.43464 22.5577 1.85435C21.2779 3.68156 23.3175 16.6489 23.6272 19.5724C24.4942 27.7522 23.7865 36.0051 23.6403 44.226C23.5446 49.5934 23.8161 55.096 23.5039 60.4372C23.3577 62.9441 22.8628 65.4273 22.6332 67.9277C22.308 71.4696 22.4394 75.0496 22.7125 78.5903C19.8224 80.2385 16.786 81.7698 14.0445 83.6824C13.8315 83.8283 13.6204 83.9771 13.4112 84.1288C13.2017 84.2805 12.994 84.4352 12.7881 84.5927C12.5825 84.7503 12.3787 84.9108 12.1766 85.0741C11.9748 85.2375 11.7748 85.4024 11.5765 85.5687C11.3786 85.7379 11.1825 85.9101 10.9884 86.0851C10.7946 86.2573 10.6026 86.4323 10.4126 86.6103C10.2229 86.7912 10.0352 86.9736 9.84952 87.1574C9.66388 87.3383 9.48043 87.5235 9.29917 87.7132C9.11818 87.9028 8.93925 88.094 8.76237 88.2865C8.58577 88.4791 8.41148 88.6746 8.23953 88.873C8.06731 89.0714 7.89755 89.2713 7.73026 89.4726C7.56296 89.6768 7.398 89.8825 7.23536 90.0897C7.07299 90.2968 6.91295 90.5055 6.75524 90.7155C6.5978 90.9285 6.44269 91.143 6.28991 91.3589C6.1374 91.5719 5.98749 91.7893 5.84018 92.011C5.69287 92.2298 5.54802 92.4501 5.40565 92.6719C5.26354 92.8965 5.12404 93.1226 4.98714 93.3502C4.85024 93.5778 4.71607 93.8069 4.58464 94.0374C4.45321 94.2679 4.32452 94.4998 4.19857 94.7332C4.07262 94.9666 3.94941 95.203 3.82894 95.4422C3.70846 95.6785 3.59086 95.9163 3.47614 96.1556C3.36114 96.3978 3.24915 96.6399 3.14018 96.8821C3.0312 97.1272 2.92497 97.3723 2.82147 97.6173C2.71824 97.8654 2.61789 98.1134 2.52042 98.3614C2.42294 98.6123 2.32848 98.8632 2.23703 99.1141C2.14558 99.3651 2.057 99.6174 1.9713 99.8713C1.88587 100.125 1.80332 100.38 1.72364 100.637C1.64424 100.894 1.56771 101.151 1.49406 101.407C1.42068 101.667 1.35031 101.927 1.28295 102.186C1.21559 102.446 1.15125 102.707 1.08992 102.97C1.02886 103.232 0.970807 103.495 0.915772 103.758C0.860737 104.02 0.808852 104.284 0.760115 104.55C0.0972304 108.121 -0.375907 143.247 0.407726 144.464C4.24457 145.348 8.75498 144.928 12.6682 144.928L32.2118 144.932L74.36 144.902C81.8053 144.893 89.3032 145.059 96.7424 144.827C97.5597 144.801 98.1137 144.744 98.8189 144.276C99.067 144.442 99.1524 144.517 99.4108 144.622C101.531 145.471 125.803 145.002 127.753 144.145C127.777 144.061 127.811 143.983 127.826 143.895C128.432 140.346 122.873 110.252 121.468 105.088C120.466 101.407 119.15 97.7312 117.349 94.4093C117.118 93.9775 116.875 93.553 116.623 93.1358C116.37 92.7156 116.107 92.3042 115.834 91.9016C115.561 91.4989 115.278 91.1036 114.985 90.7155C114.692 90.3304 114.39 89.9525 114.078 89.582C113.767 89.2114 113.446 88.8497 113.116 88.4966C112.787 88.1436 112.449 87.8007 112.102 87.4681C111.756 87.1355 111.401 86.8131 111.039 86.5009C110.676 86.1858 110.306 85.8823 109.928 85.5906C101.79 79.1885 86.8755 74.1953 77.039 71.3261C76.7762 67.3141 76.8255 63.2793 76.8099 59.2595C77.5155 58.6113 78.2289 57.908 78.824 57.1443C81.3207 53.9428 82.4358 49.1667 82.0945 45.068C81.83 41.8898 80.6919 39.9794 78.4239 37.9614C78.3229 33.8347 78.2083 29.684 78.5336 25.5648C78.8207 21.9278 81.6008 4.74331 80.7424 2.68414C80.0791 2.02941 79.9054 1.88542 79.0347 1.65259C76.3913 2.42899 71.6682 8.14388 69.5444 10.3037C67.6843 8.01696 66.0357 5.54334 64.1654 3.27016C63.2799 2.1944 62.4145 1.17421 60.991 1.07224C58.8598 1.5716 53.6208 8.62795 51.5981 10.7248C48.5009 7.42658 46.2433 2.80143 42.7962 0Z" fill="black"/>
<path d="M63.1282 28.455L27.5645 28.5027C27.4881 31.2702 27.3878 34.0367 27.2635 36.8024C28.6405 36.7689 30.0176 36.7452 31.3948 36.7315C33.1054 36.7171 35.8198 36.5915 37.07 38.0563C37.5222 38.5867 37.6762 39.2445 37.6975 39.947C37.7538 41.8131 37.0881 43.9721 36.8149 45.8273C36.4531 48.2852 36.251 50.7903 36.0128 53.2648C37.7485 53.2959 39.9741 53.0955 41.6321 53.6189C42.7053 53.9577 43.6861 54.317 44.2619 55.3884C44.0529 56.1915 43.8873 56.3989 43.1657 56.788C40.9249 57.9968 36.4404 58.0821 34.1424 57.1219C29.89 55.345 34.4316 48.4003 33.1095 44.9857L30.9003 44.2054C30.3229 43.1533 30.5722 41.7405 29.8982 40.9046C29.071 40.9006 28.0664 40.754 27.3391 41.2219C26.4589 47.2839 27.123 58.0042 27.238 64.4955C28.2048 62.8478 29.1335 61.7532 30.6017 60.6144C34.8025 60.073 39.2554 60.14 43.4922 59.9391C48.9777 59.6791 51.4128 61.884 55.2911 65.6702C57.2029 64.4907 59.1378 62.8254 60.6508 61.1094C68.2752 52.4622 63.3496 38.8345 63.1282 28.455Z" fill="white"/>
<path d="M56.2933 36.9552C52.5949 36.5723 48.0709 36.469 44.3811 36.901C43.386 37.0178 43.004 37.2839 42.4106 38.0866C42.4479 38.8201 42.4508 39.0437 42.8837 39.6201C43.3946 40.3007 44.1113 40.5873 44.9036 40.667C45.3615 40.713 45.6609 40.7335 46.0885 40.948L46.1866 42.7139C46.1094 43.2444 46.293 43.8461 46.5583 44.2969C46.9665 44.9897 48.294 45.8453 49.0254 45.9661C49.6468 46.069 49.8974 45.7714 50.3849 45.4383C51.1685 44.2273 51.3303 42.6303 51.6141 41.2167C52.6881 40.3247 54.3577 40.9086 55.6424 40.5589C56.4424 40.3414 56.6215 40.1085 57.0035 39.3693C56.9382 38.4371 56.6815 37.7868 56.2933 36.9552Z" fill="black"/>
<path d="M42.2925 5.01111C40.2209 7.21777 36.3565 13.889 33.9206 14.4023C31.0978 14.1424 27.7743 9.50629 25.8682 7.44143L27.8626 24.8426L67.6225 24.7481L75.1685 24.77C75.4946 19.3028 76.2823 13.6977 77.0253 8.27122C75.5878 9.75488 74.1643 11.3256 72.6303 12.6933C71.6762 13.5441 70.3086 14.4588 69.0181 14.2802C66.397 13.9178 62.754 7.72459 61.1038 5.54156C59.0432 7.79593 57.1573 10.305 54.9949 12.4434C53.9936 13.4338 52.7113 14.4662 51.2677 14.3161C48.1204 13.9883 44.2359 7.58059 42.2925 5.01111Z" fill="#FF0000"/>
<path d="M71.2591 121.903C70.2615 122.432 69.1948 122.581 68.1044 122.761C60.6287 123.982 24.4645 125.772 18.8842 121.413C19.067 122.24 19.2572 123.063 19.4917 123.872C20.155 126.161 21.5386 130.065 23.6308 131.264C23.8271 131.628 24.0477 131.951 24.3146 132.267C27.9182 136.49 34.1864 138.311 39.3466 138.438C40.4325 137.947 41.1672 136.109 42.8405 135.593C44.8115 134.989 47.0823 135.094 49.1161 135.037C55.3696 134.866 63.624 134.836 68.311 129.746C68.4285 129.614 68.5429 129.482 68.6543 129.347C68.7661 129.21 68.8745 129.072 68.9796 128.932C69.0848 128.789 69.1868 128.644 69.2856 128.498C69.3842 128.353 69.4795 128.204 69.5715 128.052C69.6635 127.9 69.752 127.746 69.8372 127.588C69.9221 127.433 70.0034 127.276 70.0812 127.115C70.1592 126.955 70.2334 126.793 70.3038 126.63C70.3741 126.463 70.4408 126.297 70.5038 126.131C70.5667 125.964 70.626 125.795 70.6816 125.623C70.7369 125.454 70.7883 125.282 70.8356 125.107C70.8833 124.934 70.9269 124.761 70.9666 124.586C71.0061 124.411 71.0417 124.234 71.0734 124.056C71.1052 123.878 71.1328 123.7 71.1564 123.522C71.1799 123.344 71.1995 123.165 71.2151 122.984C71.2305 122.803 71.2418 122.624 71.2492 122.446C71.2566 122.265 71.2599 122.084 71.2591 121.903Z" fill="white"/>
<path d="M77.2241 75.3783C76.8442 76.3923 76.714 77.5189 76.3698 78.5574C75.3032 81.7742 73.2016 84.7677 70.7583 86.9473C64.7217 92.3304 57.5992 92.86 50.2146 94.046C46.4398 94.6544 42.8034 95.4509 38.9604 95.0439C32.8975 94.4093 29.4874 91.1006 25.8238 86.2645C26.3664 88.6104 27.0777 90.9256 28.2298 93.0176C28.9493 94.3261 29.8874 95.8273 31.3278 96.2212C32.0321 97.2541 33.0991 97.9018 34.1777 98.3964C43.1862 102.532 57.7195 101.81 66.7592 97.9587C75.4001 94.2736 82.3949 87.7526 86.0847 78.5535C83.1716 77.3871 80.182 76.4094 77.2241 75.3783Z" fill="#FF0000"/>
<path d="M73.9826 129.851C72.0815 130.582 69.9807 133.947 68.0959 135.313C66.741 136.293 64.8711 136.923 63.3001 137.444C59.2986 138.761 55.1114 139.05 50.9501 139.142C48.7154 139.19 45.8676 138.967 43.7249 139.659C43.2431 140.232 43.1639 140.289 43.062 141.085C43.2912 141.26 43.4735 141.4 43.7487 141.484C45.3156 141.952 49.7993 141.965 51.1994 141.133C51.2528 141.103 51.3037 141.068 51.3563 141.033C51.7029 141.26 52.0438 141.418 52.4442 141.519C54.4107 142.004 77.7608 141.856 80.9643 141.558C81.4912 141.51 81.9106 141.33 82.3603 141.037C82.2362 139.182 82.2342 137.081 81.7163 135.304C80.6452 131.623 76.874 131.575 74.1662 129.965C74.1042 129.929 74.0438 129.89 73.9826 129.851Z" fill="white"/>
<path d="M45.9271 107.346C45.6585 107.889 45.484 108.476 45.2683 109.045C43.6062 113.439 40.0519 116.117 36.05 117.898C34.1878 118.725 31.2866 119.697 29.3308 118.861C29.592 119.01 29.8528 119.146 30.1173 119.29C30.4721 119.483 30.7834 119.627 31.1769 119.719C33.6518 120.292 45.4166 120.949 47.3724 119.614C47.6726 119.793 47.9499 119.964 48.2875 120.052C51.017 120.765 61.8466 120.126 64.156 118.494C61.3209 119.64 57.2294 118.126 54.5812 116.874C50.097 114.756 47.6751 112.183 45.9271 107.346Z" fill="#FF0000"/>
<path d="M75.5464 40.8525C75.2138 40.8521 74.8881 40.8757 74.5579 40.9212C73.1902 41.109 72.0969 41.5283 71.2389 42.7174C70.9058 44.9092 70.2902 55.7621 71.0648 56.911L73.083 56.9009C75.0027 56.079 76.1329 55.0177 77.0874 53.0539C78.4235 50.3046 79.0937 46.3884 78.0904 43.4049C77.5971 41.9388 76.781 41.4775 75.5464 40.8525Z" fill="white"/>
<path d="M73.1008 60.4647L72.7953 60.491C72.5141 60.5161 72.2334 60.5457 71.9533 60.5798C71.6621 60.617 70.6616 60.7951 70.4908 61.017C70.0246 61.6232 69.8078 71.3313 69.5071 73.0727C68.3682 79.6625 64.2156 83.2009 60.467 87.9933L60.343 88.1552C63.4997 87.1004 67.0564 85.2885 69.4192 82.7939C74.887 77.0317 73.1029 67.8524 73.1008 60.4647Z" fill="white"/>
<path d="M46.1678 66.5429C42.8776 66.6409 39.5435 66.251 36.2673 66.4562C35.0557 66.532 33.9082 66.605 33.0535 67.6208C32.876 68.6918 33.0625 68.9531 33.4695 69.9719C35.9432 70.673 39.4182 70.6687 42.0057 70.6656C43.4781 70.6643 45.1217 70.5431 46.2188 69.3982C46.6545 68.4003 46.3765 67.5675 46.1678 66.5429Z" fill="white"/>
</svg>
