<svg width="127" height="146" viewBox="0 0 127 146" fill="none" xmlns="http://www.w3.org/2000/svg">
<path d="M76.6148 0C74.0223 0.0674192 71.489 0.555811 69.1465 1.67528C64.8589 3.72334 62.6287 6.95593 61.0788 11.2476C55.0712 12.7246 49.7883 15.6891 46.1749 20.7247C40.2913 28.924 40.2797 38.8664 40.3209 48.4434C40.3389 52.6704 40.2761 56.8759 41.0027 61.0579C42.2948 68.4944 45.6626 74.4982 52.0149 78.9103C51.5362 79.9678 51.1131 81.0575 50.6652 82.1283C37.2658 91.5502 33.3473 95.7948 28.0291 111.113C27.5341 105.329 26.45 98.2917 23.0897 93.3532C22.3843 92.3165 21.469 91.469 20.3289 90.903C18.9989 90.2421 10.1745 88.3325 8.22105 87.9354C6.29638 87.5442 3.59114 87.2095 1.88641 88.4148C0.851098 89.1466 0.566377 90.6823 0.416018 91.8563C-0.204209 96.6968 -0.215397 102.828 0.965475 107.556C1.92801 111.412 4.05623 115.465 6.3332 118.75C7.19096 119.987 8.39782 121.113 8.96286 122.507C11.0371 127.623 11.5165 140.654 14.4921 144.323C17.0206 145.593 24.6261 144.865 27.684 144.841C35.8566 144.841 123.052 145.488 126.07 144.45C126.243 144.16 126.379 143.916 126.467 143.589C127.348 140.302 125.258 112.339 124.279 107.801C123.597 104.643 122.446 101.561 120.694 98.8173C115.37 90.4801 106.149 87.2318 98.3496 81.8097C95.2956 79.6863 93.7745 76.6889 89.9495 75.8051L89.734 64.8914C92.0241 64.4139 93.1682 64.1823 94.8997 62.4886C100.52 56.9923 102.951 46.6204 102.917 38.9714C102.886 31.7823 100.481 26.0226 95.3144 20.9987C95.2544 15.6797 93.7669 10.7204 90.2082 6.61648C86.6184 2.47569 82.0737 0.451944 76.6148 0Z" fill="black"/>
<path d="M95.1329 83.6527C95.0658 83.6711 87.6018 92.6492 86.0659 93.7393C83.0647 95.8693 79.7288 96.2315 76.5697 97.6112C75.4528 98.0988 74.2752 99.1485 73.0551 99.3108C71.933 99.4601 70.6422 98.6049 69.5729 98.8961C68.6219 99.1548 67.9285 100.101 66.9336 100.352C64.1747 101.048 63.8956 98.3411 61.9422 98.1368C60.6405 98.0008 59.9927 98.4014 58.7415 97.6371C54.6846 95.1583 52.2233 90.2907 51.1368 85.896C47.7501 88.4324 44.1703 90.923 41.18 93.9094C34.0559 101.024 31.5347 110.944 28.9934 120.284C31.8898 127.222 34.6014 134.142 36.6352 141.38L41.4787 141.369C41.8798 135.924 39.7448 133.559 37.0123 129.204C34.4406 125.104 34.481 120.364 35.6251 115.802C36.1654 113.647 37.2854 109.412 39.3037 108.198C40.1934 108.136 40.3414 108.133 41.1212 108.543C42.2137 110.431 39.2193 115.721 38.7554 118.445C37.9413 123.221 39.2525 126.725 42.0721 130.561C44.8401 134.155 45.2988 137.003 45.1096 141.37C63.5181 141.111 81.9638 141.347 100.377 141.327C99.7153 137.887 97.611 115.948 98.0409 112.968C98.1545 112.181 98.4884 111.711 99.1278 111.244C99.5489 110.937 99.5977 111.006 100.121 111.07C100.905 111.739 101.212 112.61 101.421 113.583C102.058 116.542 101.988 119.917 102.195 122.94C102.614 129.075 103.011 135.233 103.67 141.347L123.205 141.338C122.776 132.229 122.782 116.801 120.842 108.219C117.989 95.598 105.332 89.9548 95.1329 83.6527Z" fill="#FF0000"/>
<path d="M73.5585 102.263C70.5609 102.019 68.1984 103.374 65.7123 104.841C62.7763 103.116 59.9671 102.123 56.4832 102.468C56.2827 102.487 56.0829 102.511 55.8838 102.539C55.6846 102.568 55.4864 102.602 55.2891 102.64C55.0916 102.679 54.8952 102.722 54.7001 102.77C54.5047 102.818 54.3108 102.871 54.1183 102.929C53.9258 102.986 53.7349 103.049 53.5456 103.116C53.3564 103.183 53.1688 103.254 52.983 103.33C52.7975 103.407 52.6139 103.488 52.4324 103.573C52.2508 103.658 52.0715 103.748 51.8945 103.842C51.7175 103.936 51.543 104.034 51.371 104.137C51.1991 104.239 51.0299 104.346 50.8636 104.457C50.697 104.568 50.5334 104.683 50.3729 104.802C50.2124 104.921 50.055 105.044 49.9007 105.17C49.7463 105.297 49.5953 105.427 49.4476 105.562C49.3002 105.696 49.1561 105.833 49.0153 105.974C48.8748 106.116 48.7379 106.26 48.6046 106.408C48.4716 106.556 48.3423 106.707 48.2167 106.861C46.0829 109.441 45.3819 112.67 45.7602 115.93C46.67 123.767 53.8152 128.278 59.594 132.812C61.2727 133.985 63.7176 137.164 65.7934 137.116C67.0367 136.569 68.0632 135.422 68.9377 134.424C74.1319 128.498 83.6273 125.766 85.1756 117.148C85.7767 113.803 84.9037 109.965 82.8711 107.205C80.6725 104.22 77.1583 102.818 73.5585 102.263Z" fill="black"/>
<path d="M74.3327 105.783C70.6613 105.691 68.5339 106.918 65.6307 108.94C63.1666 107.137 60.4913 105.795 57.3358 105.93C55.0724 106.026 52.8955 106.916 51.3935 108.606C49.7879 110.411 49.0685 112.858 49.2912 115.231C49.7755 120.395 54.1843 124.016 57.96 127.135C60.391 128.999 62.8931 130.786 65.3576 132.608C70.507 128.407 79.7772 123.539 81.4355 116.857C82.0161 114.518 81.6814 111.746 80.3858 109.678C78.9738 107.424 76.8636 106.404 74.3327 105.783Z" fill="white"/>
<path d="M65.5704 113.817C64.8994 113.106 64.2176 112.407 63.4838 111.757C61.803 110.269 59.7556 109.009 57.3935 109.195C57.2191 109.209 57.046 109.231 56.874 109.262C56.7021 109.293 56.5322 109.333 56.3646 109.381C56.1966 109.429 56.0317 109.486 55.8699 109.551C55.7081 109.616 55.55 109.688 55.3956 109.769C55.2413 109.849 55.0916 109.938 54.9465 110.033C54.8015 110.129 54.6618 110.231 54.5274 110.341C54.3931 110.451 54.2647 110.567 54.1424 110.689C54.02 110.812 53.9044 110.94 53.7957 111.074C52.8735 112.196 52.4988 113.662 52.6472 115.083C52.9651 118.131 55.3716 120.477 57.651 122.338C60.1119 124.352 62.6368 126.231 65.2329 128.075C69.5317 124.976 76.1374 121.283 78.0389 116.231C78.5056 114.991 78.7835 113.466 78.1449 112.238C77.3051 110.624 75.5924 109.545 73.8977 108.969C70.0995 109.225 68.0221 111.202 65.5704 113.817Z" fill="black"/>
<path d="M57.5286 25.2947C52.5308 30.4679 50.541 31.7767 44.3799 35.5667C44.2075 37.7414 44.1856 39.9501 44.0964 42.1314C46.6537 42.1342 52.4613 41.3463 54.3751 43.0161C57.4467 45.6968 52.6028 52.7163 52.9355 55.9104C53.1735 58.1929 59.119 56.3071 61.0345 57.9095C61.1392 58.3854 61.3 58.7511 61.154 59.2297C60.9609 59.865 60.4562 60.2751 59.8672 60.5624C57.9401 61.5031 54.6306 61.4502 52.6204 60.7873C46.6429 58.8169 51.6079 53.7828 50.481 51.6501C49.904 51.6658 49.2486 51.7258 48.6771 51.6478C47.7738 51.5247 47.613 51.3244 47.082 50.6647C46.906 49.7534 46.9108 49.1674 47.1771 48.2752C48.434 46.8837 49.8876 47.6759 51.5683 47.5736L51.9086 47.1957L51.8314 46.324C50.7293 45.2978 45.5064 45.7415 43.9208 45.7356C43.9272 51.6478 43.6973 57.8401 45.3964 63.5763C46.9516 68.8259 50.1375 73.8346 55.1645 76.4725C60.8357 79.4484 69.0726 78.9964 74.2856 75.1911C76.2094 73.7867 80.4063 69.4198 82.4037 68.918C83.0847 68.7475 83.1911 68.9028 83.7441 69.2497C84.114 70.0755 84.0417 70.5859 83.9077 71.4662C82.9216 72.7633 81.7891 73.9063 80.6054 75.0289C74.308 81.0017 68.0317 82.1538 59.5881 82.0373C60.4906 84.3641 61.3024 87.5645 63.457 89.056C65.5868 90.5302 68.1965 90.616 70.677 90.1469C76.2862 89.087 83.4018 85.2307 86.7113 80.5024C86.5823 76.9116 86.5346 73.3199 86.5682 69.7271C86.5914 67.6841 86.8621 65.317 86.6218 63.3085C86.4782 62.1083 85.6708 61.0817 85.5636 59.8482C85.4561 58.6096 86.0223 57.111 86.8881 56.2083C87.6963 55.3656 88.7636 55.0297 89.9168 54.9819C92.0022 54.8952 92.9972 55.7301 94.4536 57.0472C94.5132 56.9558 94.5735 56.8653 94.6315 56.7732C96.2103 54.2736 97.5191 50.1512 96.6922 47.2255C96.4742 46.4553 96.0563 45.805 95.3305 45.4123C90.1784 42.623 88.3197 49.9043 84.5551 50.9885C83.551 51.2773 82.4773 50.7552 81.6051 50.2903C76.9812 47.8252 77.7146 44.0756 76.2734 39.88C74.6691 35.2084 67.1852 36.2197 63.317 34.1109C59.8416 32.2161 58.5695 28.822 57.5286 25.2947Z" fill="white"/>
<path d="M65.4823 64.8859C62.2728 64.8149 56.3269 64.147 53.4697 65.1465C52.6279 65.4409 52.4596 65.7161 52.0997 66.4459C52.1488 67.3189 52.4968 67.6748 53.063 68.3246C55.6843 69.0278 62.4148 69.3316 64.9209 68.3144C65.7231 67.9887 65.8686 67.6744 66.2109 66.9571C66.1865 66.0677 65.991 65.6173 65.4823 64.8859Z" fill="black"/>
<path d="M70.8329 42.257C68.446 42.034 65.7939 41.9638 63.4018 42.1908C62.1186 42.3123 61.0313 42.4687 60.1743 43.478C60.2787 44.2875 60.4498 44.6187 61.0577 45.2023C61.6923 45.811 62.562 45.7299 63.3826 45.7044C65.5072 45.6629 71.1133 46.7455 72.5573 46.1615C73.1191 45.9341 73.1295 45.7483 73.3426 45.2341C72.9328 43.9045 71.8946 43.1002 70.8329 42.257Z" fill="black"/>
<path d="M67.0991 47.665C67.0413 47.6481 66.983 47.6332 66.9244 47.6204C66.8655 47.6073 66.8063 47.5962 66.7468 47.587C66.6874 47.5776 66.6277 47.5703 66.5677 47.5651C66.5074 47.5599 66.4472 47.5566 66.3869 47.5553C66.3267 47.554 66.2666 47.5546 66.2066 47.5572C66.1463 47.5599 66.0862 47.5644 66.0262 47.571C65.9662 47.5775 65.9067 47.5859 65.8475 47.596C65.788 47.6065 65.7291 47.6189 65.6707 47.6333C65.6123 47.6474 65.5543 47.6636 65.4968 47.6819C65.4394 47.6999 65.3828 47.7198 65.3268 47.7415C65.2708 47.7632 65.2156 47.7867 65.1613 47.812C65.1069 47.8374 65.0533 47.8646 65.0005 47.8936C64.948 47.9223 64.8965 47.9529 64.8462 47.9853C64.7955 48.0174 64.746 48.0513 64.6978 48.0868C64.6498 48.1223 64.6029 48.1593 64.557 48.1977C64.5114 48.2361 64.4672 48.2761 64.4243 48.3177C64.3813 48.3592 64.3399 48.4021 64.2999 48.4462C64.2599 48.4904 64.2214 48.5357 64.1843 48.5822C64.1473 48.629 64.1119 48.6769 64.0784 48.7257C64.0448 48.7746 64.0128 48.8246 63.9824 48.8758C63.952 48.9268 63.9235 48.9788 63.8968 49.0318C63.8702 49.0846 63.8452 49.1383 63.822 49.193C63.7991 49.2476 63.7779 49.3028 63.7585 49.3587C63.7393 49.4147 63.7219 49.4712 63.7065 49.5285C63.691 49.5854 63.6774 49.6429 63.6657 49.7009C63.6542 49.7589 63.6446 49.8172 63.6369 49.8758C63.6294 49.9343 63.624 49.9931 63.6205 50.0521C63.6168 50.1112 63.6152 50.1703 63.6157 50.2293C63.616 50.2884 63.6184 50.3473 63.6229 50.4061C63.6274 50.4649 63.6338 50.5236 63.6421 50.5821C63.6506 50.6406 63.661 50.6988 63.6733 50.7565C63.6858 50.8143 63.7002 50.8716 63.7165 50.9286C63.7327 50.9856 63.751 51.0419 63.7712 51.0975C63.7912 51.1532 63.8132 51.2081 63.8372 51.2622C63.861 51.3165 63.8865 51.37 63.914 51.4225C63.9415 51.475 63.9708 51.5266 64.002 51.5773C64.0329 51.628 64.0656 51.6775 64.1 51.7259C64.1343 51.7745 64.1703 51.8218 64.2079 51.8678C64.2455 51.914 64.2846 51.959 64.3251 52.0026C64.3659 52.0462 64.408 52.0884 64.4515 52.1292C64.4952 52.17 64.5401 52.2093 64.5862 52.2472C64.6323 52.2851 64.6798 52.3215 64.7286 52.3566C64.7774 52.3913 64.8272 52.4245 64.8781 52.4561C64.9291 52.4875 64.9809 52.5173 65.0337 52.5455C65.0868 52.5737 65.1407 52.6001 65.1956 52.6247C65.2503 52.6492 65.3058 52.6721 65.362 52.6933C65.4185 52.7142 65.4756 52.7332 65.5332 52.7505C65.5907 52.7677 65.6489 52.7831 65.7075 52.7967C65.7499 52.8064 65.7924 52.8152 65.8351 52.823C65.878 52.8306 65.921 52.8372 65.9642 52.843C66.0074 52.8487 66.0506 52.8534 66.0938 52.8571C66.1373 52.8608 66.1807 52.8634 66.2242 52.8649C66.2676 52.8665 66.3111 52.867 66.3545 52.8665C66.3983 52.8663 66.4419 52.8648 66.4853 52.8622C66.5288 52.8598 66.5721 52.8563 66.6152 52.8516C66.6584 52.8472 66.7016 52.8415 66.7448 52.8347C66.7877 52.8282 66.8305 52.8206 66.8732 52.812C66.9158 52.8034 66.9582 52.7939 67.0003 52.7834C67.0425 52.7727 67.0843 52.7611 67.1259 52.7485C67.1675 52.736 67.2087 52.7224 67.2495 52.7078C67.2905 52.6931 67.3312 52.6777 67.3715 52.6615C67.4114 52.6451 67.4512 52.6275 67.4906 52.609C67.5298 52.5907 67.5686 52.5715 67.607 52.5514C67.6454 52.5312 67.6832 52.5102 67.7206 52.4883C67.7579 52.4663 67.7945 52.4436 67.8305 52.42C67.8668 52.3963 67.9025 52.3717 67.9377 52.3464C67.9726 52.321 68.0069 52.2949 68.0405 52.268C68.0743 52.2408 68.1074 52.213 68.1396 52.1845C68.1719 52.156 68.2035 52.1267 68.2344 52.0967C68.2653 52.0666 68.2955 52.0359 68.3248 52.0046C68.3544 51.9729 68.383 51.9408 68.4108 51.9081C68.4385 51.8752 68.4654 51.8418 68.4915 51.8078C68.5179 51.7736 68.5433 51.7388 68.5675 51.7035C68.592 51.6682 68.6156 51.6325 68.6383 51.5961C68.661 51.5598 68.6828 51.523 68.7039 51.4856C68.7247 51.448 68.7447 51.4101 68.7639 51.3719C68.7828 51.3335 68.8008 51.2947 68.8178 51.2555C68.8349 51.2163 68.851 51.1767 68.8662 51.1367C68.8814 51.0968 68.8957 51.0564 68.909 51.0156C68.9221 50.9751 68.9342 50.9342 68.9454 50.8929C68.9566 50.8516 68.9667 50.8102 68.9758 50.7687C68.9851 50.7269 68.9933 50.6849 69.0002 50.6428C69.0074 50.6008 69.0134 50.5586 69.0182 50.5162C69.0233 50.4739 69.0272 50.4314 69.0302 50.3888C69.0331 50.3463 69.035 50.3037 69.0358 50.2611C69.0366 50.2185 69.0364 50.1757 69.0354 50.1329C69.034 50.0903 69.0316 50.0478 69.0282 50.0055C69.025 49.9629 69.0206 49.9204 69.015 49.8781C69.0097 49.8358 69.0031 49.7936 68.9954 49.7515C68.9879 49.7094 68.9794 49.6676 68.9698 49.6261C68.9602 49.5845 68.9497 49.5432 68.9382 49.5022C68.9265 49.4609 68.9138 49.42 68.9002 49.3795C68.8866 49.339 68.8721 49.2989 68.8566 49.2592C68.8409 49.2195 68.8243 49.18 68.8067 49.1408C68.7893 49.1019 68.7709 49.0633 68.7515 49.0252C68.732 48.987 68.7116 48.9493 68.6903 48.9119C68.669 48.8748 68.6468 48.8382 68.6239 48.8022C68.6007 48.7658 68.5767 48.7302 68.5519 48.6951C68.5271 48.6601 68.5014 48.6258 68.4747 48.5921C68.4483 48.5581 68.421 48.5249 68.3928 48.4925C68.3645 48.4598 68.3356 48.428 68.306 48.3969C68.2761 48.3658 68.2456 48.3353 68.2144 48.3055C68.1832 48.276 68.1514 48.2471 68.1188 48.2189C68.086 48.1907 68.0527 48.1632 68.0189 48.1366C67.9847 48.1099 67.9501 48.0841 67.9149 48.059C67.8797 48.0339 67.8438 48.0097 67.8073 47.9865C67.7711 47.9632 67.7342 47.9407 67.6966 47.919C67.659 47.8976 67.6208 47.877 67.5822 47.8571C67.5435 47.8375 67.5045 47.8187 67.465 47.8007C67.4256 47.7826 67.3857 47.7657 67.3455 47.7497C67.3052 47.7338 67.2645 47.7187 67.2235 47.7046C67.1822 47.6905 67.1407 47.6773 67.0991 47.665Z" fill="black"/>
<path d="M6.57345 91.0097C5.73329 90.9744 5.06468 90.8831 4.31529 91.3194C3.72346 92.226 3.5379 93.3423 3.49831 94.4042C3.23478 101.471 3.89061 107.583 7.39764 113.882C8.2474 115.408 9.14114 116.995 10.3868 118.249C11.9632 119.837 14.051 120.528 16.2815 120.548C18.2018 120.564 22.2763 119.928 23.6583 118.581C23.5315 116.095 24.4421 113.858 24.5493 111.394C24.8056 105.506 21.8968 98.8711 19.4127 93.6226C19.4599 98.3443 19.6186 103.347 20.7543 107.944C20.7639 108.683 20.6755 108.9 20.2421 109.504C19.4435 109.868 19.3955 109.897 18.5417 109.704C15.1859 107.039 16.9114 95.6475 16.0212 93.7331C15.4166 93.2765 15.4626 93.244 14.7116 93.3188C12.9625 95.7663 15.0331 103.717 14.5224 106.937C14.3929 107.753 14.2537 108.017 13.6159 108.52L12.8529 108.3C8.79124 104.655 12.6454 95.9211 10.5236 92.0943L10.0841 92.0053C8.26618 93.9373 10.352 104.022 9.21791 106.29C8.8684 106.988 8.50452 107.02 7.81232 107.196C7.53399 107.065 7.18808 106.979 7.00693 106.729C5.28341 104.348 6.0272 94.0804 6.57345 91.0097Z" fill="white"/>
<path d="M25.3167 121.268C20.7936 123.781 17.7568 124.034 12.6926 123.235C14.0536 129.269 15.3527 135.315 16.5899 141.374L19.284 141.351L32.987 141.326C30.8488 134.51 28.517 127.69 25.3167 121.268Z" fill="#FF0000"/>
<path d="M66.742 93.4673C66.7124 93.4582 66.6826 93.4498 66.6525 93.4422C66.6226 93.4346 66.5925 93.4278 66.5621 93.4218C66.5317 93.4156 66.5012 93.4101 66.4705 93.4054C66.4398 93.4007 66.4092 93.3966 66.3785 93.3932C66.3476 93.3901 66.3167 93.3876 66.2858 93.3858C66.2548 93.384 66.2239 93.3829 66.193 93.3826C66.1618 93.3824 66.1307 93.3828 66.0998 93.3838C66.0689 93.3851 66.038 93.3871 66.007 93.3897C65.9761 93.3923 65.9453 93.3956 65.9146 93.3995C65.884 93.4037 65.8533 93.4085 65.8227 93.414C65.7923 93.4197 65.762 93.426 65.7319 93.4328C65.7018 93.4399 65.6718 93.4476 65.6419 93.4559C65.6121 93.4645 65.5825 93.4737 65.5532 93.4834C65.5238 93.4933 65.4948 93.5039 65.466 93.5151C65.4372 93.5261 65.4087 93.5379 65.3804 93.5504C65.3521 93.5632 65.3243 93.5765 65.2968 93.5904C65.2691 93.6042 65.2419 93.6187 65.2153 93.6339C65.1883 93.6491 65.1618 93.6649 65.1357 93.6813C65.1098 93.6978 65.0842 93.7149 65.0589 93.7327C65.0336 93.7502 65.0088 93.7683 64.9845 93.7872C64.9603 93.806 64.9364 93.8254 64.913 93.8456C64.8898 93.8654 64.867 93.8859 64.8446 93.9071C64.8222 93.9283 64.8003 93.9498 64.779 93.9718C64.7577 93.994 64.737 94.0166 64.717 94.0396C64.6967 94.0626 64.6771 94.0861 64.6582 94.1101C64.6393 94.1342 64.6209 94.1588 64.603 94.1838C64.5852 94.2087 64.5681 94.2339 64.5518 94.2595C64.5353 94.2854 64.5194 94.3115 64.5043 94.3379C64.4888 94.3643 64.4741 94.391 64.4603 94.4182C64.4464 94.4454 64.4332 94.4728 64.4207 94.5005C64.4082 94.5285 64.3963 94.5566 64.3851 94.5848C64.3742 94.6133 64.3638 94.6419 64.3539 94.6706C64.344 94.6994 64.335 94.7284 64.3267 94.7577C64.3184 94.7872 64.311 94.8167 64.3043 94.8463C64.2974 94.8758 64.2912 94.9056 64.2859 94.9356C64.2806 94.9654 64.276 94.9955 64.2723 95.0258C64.2683 95.0558 64.2651 95.086 64.2627 95.1163C64.2603 95.1466 64.2587 95.177 64.2579 95.2073C64.2571 95.2376 64.257 95.268 64.2575 95.2986C64.2583 95.3289 64.2598 95.3592 64.2619 95.3895C64.264 95.4199 64.2668 95.45 64.2703 95.4801C64.274 95.5104 64.2784 95.5405 64.2835 95.5702C64.2888 95.6003 64.2947 95.6302 64.3011 95.66C64.3078 95.6895 64.3151 95.7189 64.3231 95.7482C64.3314 95.7777 64.3402 95.8069 64.3495 95.8356C64.3591 95.8646 64.3694 95.8933 64.3803 95.9218C64.3912 95.9503 64.4028 95.9784 64.4151 96.0061C64.4276 96.0341 64.4407 96.0616 64.4543 96.0888C64.4679 96.1163 64.4823 96.1432 64.4975 96.1696C64.5124 96.1962 64.528 96.2225 64.5442 96.2483C64.5608 96.2742 64.5778 96.2997 64.5954 96.3248C64.613 96.3496 64.6312 96.3742 64.6498 96.3985C64.6687 96.4225 64.6882 96.4462 64.7082 96.4694C64.7282 96.4927 64.7487 96.5154 64.7698 96.5376C64.7908 96.5598 64.8124 96.5815 64.8346 96.6027C64.8567 96.6241 64.8795 96.6449 64.9029 96.665C64.9261 96.6851 64.9497 96.7047 64.9737 96.7238C64.998 96.7426 65.0226 96.761 65.0477 96.7791C65.0728 96.7968 65.0984 96.8141 65.1245 96.8308C65.1503 96.8473 65.1766 96.8632 65.2033 96.8786C65.2302 96.8941 65.2574 96.9088 65.2848 96.9229C65.3123 96.937 65.34 96.9504 65.368 96.9629C65.3963 96.9757 65.4247 96.9879 65.4532 96.9994C65.482 97.0109 65.511 97.0216 65.5404 97.0315C65.6203 97.0589 65.7016 97.081 65.7843 97.0977C65.8672 97.1145 65.9509 97.1259 66.0354 97.1319C66.1197 97.1379 66.204 97.1384 66.2885 97.1334C66.3731 97.1285 66.4569 97.118 66.5401 97.1021C66.623 97.0861 66.7046 97.0649 66.7848 97.0386C66.8651 97.0119 66.9432 96.9803 67.0192 96.9437C67.0949 96.9071 67.1679 96.8657 67.2383 96.8195C67.3087 96.7735 67.3756 96.723 67.439 96.6681C67.5025 96.6133 67.5621 96.5546 67.6178 96.4922C67.6732 96.4294 67.7243 96.3636 67.7709 96.2946C67.8176 96.2253 67.8593 96.1534 67.8961 96.0786C67.9332 96.0042 67.965 95.9274 67.9917 95.8485C68.0181 95.7699 68.0391 95.6898 68.0549 95.6083C68.0706 95.5267 68.0807 95.4445 68.0853 95.3617C68.0901 95.2789 68.0891 95.1962 68.0825 95.1136C68.0758 95.0307 68.0637 94.9488 68.0461 94.8678C68.0285 94.7868 68.0054 94.7072 67.9769 94.6291C67.9484 94.551 67.9148 94.4751 67.8761 94.4014C67.8375 94.3274 67.794 94.2565 67.7458 94.1885C67.6975 94.1203 67.6448 94.0557 67.5878 93.9945C67.5307 93.9331 67.4698 93.8758 67.4051 93.8224C67.3403 93.7691 67.2721 93.7203 67.2007 93.6758C67.1292 93.6312 67.0551 93.5914 66.9784 93.5567C66.9016 93.5217 66.8228 93.4919 66.742 93.4673Z" fill="white"/>
<path d="M84.5275 87.9142C84.1056 87.982 83.6701 88.0502 83.2639 88.1839C82.4349 88.4563 82.013 88.8232 81.5955 89.5566C81.5887 90.5651 81.7435 90.787 82.2605 91.6764C82.722 91.6627 83.2555 91.6709 83.7005 91.5478C84.5207 91.3212 84.8086 90.9191 85.2125 90.2614C85.3217 89.2752 85.0242 88.7538 84.5275 87.9142Z" fill="white"/>
<path d="M91.6222 57.939C91.5505 57.8972 91.4764 57.8602 91.3999 57.828C91.3231 57.7961 91.2445 57.7694 91.164 57.7477C91.0835 57.7262 91.0019 57.7102 90.9192 57.6995C90.8366 57.6887 90.7537 57.6835 90.6705 57.6838C90.5871 57.6843 90.504 57.6903 90.4214 57.7018C90.3387 57.7131 90.2573 57.7298 90.177 57.752C90.0968 57.7742 90.0186 57.8016 89.9423 57.8343C89.8658 57.867 89.7919 57.9046 89.7208 57.9472C89.6496 57.9898 89.5816 58.0368 89.5168 58.0883C89.4521 58.1398 89.3913 58.1953 89.3345 58.2549C89.2774 58.3147 89.2248 58.378 89.1765 58.4446C89.1283 58.5112 89.0848 58.5807 89.0462 58.6531C89.0075 58.7255 88.974 58.8001 88.9458 58.877C88.9175 58.9538 88.8947 59.0322 88.8774 59.1121C88.8598 59.1921 88.8479 59.2728 88.8418 59.3544C88.8357 59.4359 88.8351 59.5174 88.8402 59.599C88.8453 59.6805 88.856 59.7614 88.8722 59.8416C88.8885 59.9218 88.9103 60.0005 88.9378 60.0776C88.965 60.1549 88.9974 60.23 89.035 60.3029C89.0725 60.3759 89.1151 60.4459 89.1625 60.513C89.2097 60.5805 89.2614 60.6443 89.3177 60.7047C89.3739 60.7651 89.434 60.8214 89.498 60.8737C89.562 60.9262 89.6293 60.9741 89.7 61.0175C89.7706 61.0609 89.8439 61.0994 89.9199 61.1331C89.973 61.1567 90.027 61.1777 90.0819 61.1962C90.1368 61.2145 90.1925 61.2303 90.249 61.2437C90.3055 61.257 90.3626 61.2676 90.4202 61.2754C90.4778 61.2835 90.5356 61.2889 90.5937 61.2915C90.6518 61.2941 90.71 61.294 90.7681 61.2911C90.8259 61.2885 90.8836 61.2831 90.9412 61.275C90.9988 61.2669 91.0559 61.2561 91.1124 61.2425C91.1689 61.2292 91.2246 61.2132 91.2795 61.1947C91.3345 61.1761 91.3884 61.155 91.4415 61.1312C91.4943 61.1077 91.5459 61.0817 91.5962 61.0532C91.6466 61.025 91.6956 60.9944 91.743 60.9615C91.7905 60.9285 91.8362 60.8934 91.8802 60.856C91.9242 60.8189 91.9664 60.7798 92.0069 60.7388C92.0472 60.6978 92.0853 60.6549 92.1213 60.6103C92.1576 60.5656 92.1914 60.5193 92.2229 60.4715C92.2546 60.4237 92.2839 60.3745 92.3109 60.3241C92.3378 60.2737 92.3622 60.2221 92.384 60.1693C92.4059 60.1165 92.4252 60.0628 92.442 60.0082C92.4588 59.9536 92.4729 59.8984 92.4844 59.8428C92.4959 59.7868 92.5045 59.7305 92.5104 59.6738C92.5163 59.6171 92.5195 59.5603 92.52 59.5033C92.5205 59.4463 92.5183 59.3895 92.5132 59.3328C92.5081 59.2761 92.5004 59.2196 92.49 59.1635C92.4796 59.1075 92.4664 59.0522 92.4504 58.9973C92.4347 58.9424 92.4163 58.8884 92.3952 58.8354C92.3742 58.7823 92.3506 58.7303 92.3245 58.6794C92.2986 58.6284 92.2702 58.5788 92.2393 58.5304C92.2083 58.4824 92.1752 58.4357 92.1397 58.3905C92.1045 58.3453 92.0671 58.3018 92.0273 58.26C91.9879 58.2182 91.9464 58.1783 91.903 58.1404C91.8595 58.1028 91.8143 58.0671 91.7674 58.0334C91.7205 57.9997 91.6721 57.9682 91.6222 57.939Z" fill="white"/>
<path d="M73.72 93.0471C72.368 92.9664 71.3874 92.8766 70.3153 93.779C70.1502 94.742 70.295 94.9799 70.6681 95.9034C71.0927 95.9607 71.527 96.023 71.9569 96.0324C72.883 96.0528 73.3813 95.7592 74.0155 95.1865C74.2203 94.1944 74.1023 94.0043 73.72 93.0471Z" fill="white"/>
<path d="M61.1377 91.3796C61.1089 91.3736 61.0799 91.3683 61.0509 91.3636C61.0218 91.3589 60.9928 91.3548 60.9637 91.3514C60.9344 91.3483 60.905 91.3458 60.8757 91.344C60.8464 91.3419 60.8171 91.3406 60.7878 91.3401C60.7582 91.3398 60.7287 91.34 60.6994 91.3408C60.6701 91.3416 60.6407 91.3432 60.6114 91.3455C60.5821 91.3479 60.5527 91.3509 60.5234 91.3546C60.4944 91.3582 60.4653 91.3627 60.4362 91.3679C60.4072 91.3729 60.3784 91.3786 60.3499 91.3851C60.3211 91.3914 60.2926 91.3985 60.2643 91.4063C60.236 91.4142 60.2079 91.4226 60.1799 91.4318C60.1522 91.4409 60.1246 91.4507 60.0972 91.4612C60.0697 91.4716 60.0425 91.4826 60.0156 91.4941C59.9886 91.5059 59.9621 91.5183 59.936 91.5313C59.9096 91.5444 59.8836 91.558 59.858 91.5721C59.8324 91.5865 59.8072 91.6014 59.7824 91.6168C59.7576 91.6322 59.7331 91.6482 59.7089 91.6646C59.6849 91.6813 59.6613 91.6985 59.6381 91.716C59.6149 91.7337 59.5921 91.752 59.5697 91.7708C59.5476 91.7897 59.5258 91.809 59.5045 91.8288C59.4829 91.8487 59.462 91.869 59.4417 91.8896C59.4215 91.9105 59.4016 91.9318 59.3821 91.9535C59.3629 91.9755 59.3443 91.9977 59.3261 92.0201C59.308 92.0429 59.2904 92.066 59.2734 92.0895C59.2563 92.113 59.2398 92.1369 59.2238 92.1612C59.2078 92.1855 59.1926 92.2101 59.1782 92.2349C59.1635 92.26 59.1494 92.2854 59.1358 92.311C59.1225 92.3366 59.1098 92.3626 59.0978 92.389C59.0856 92.4151 59.0741 92.4416 59.0634 92.4685C59.0525 92.4955 59.0424 92.5225 59.033 92.5497C59.0234 92.5769 59.0146 92.6043 59.0066 92.632C58.9984 92.66 58.9909 92.6879 58.9843 92.7159C58.9776 92.7438 58.9716 92.7721 58.9663 92.8005C58.9609 92.8288 58.9563 92.8572 58.9523 92.886C58.9485 92.9145 58.9453 92.9431 58.9427 92.9718C58.9403 93.0006 58.9385 93.0293 58.9375 93.0581C58.9364 93.0871 58.936 93.116 58.9363 93.1447C58.9365 93.1735 58.9376 93.2022 58.9395 93.2309C58.9413 93.2599 58.9439 93.2887 58.9471 93.3172C58.9503 93.3459 58.9541 93.3745 58.9586 93.403C58.9632 93.4315 58.9685 93.4598 58.9747 93.4881C58.9805 93.5163 58.9872 93.5444 58.9947 93.5724C59.0021 93.6003 59.0102 93.628 59.019 93.6554C59.0278 93.6829 59.0373 93.7102 59.0474 93.7374C59.0576 93.7645 59.0684 93.7913 59.0798 93.8177C59.0913 93.8444 59.1033 93.8706 59.1158 93.8965C59.1286 93.9226 59.1421 93.9484 59.1562 93.9737C59.1703 93.9991 59.185 94.024 59.2002 94.0486C59.2154 94.0731 59.2312 94.0975 59.2478 94.1215C59.2643 94.1453 59.2814 94.1688 59.299 94.1921C59.3166 94.2151 59.3347 94.2376 59.3533 94.2599C59.3723 94.2821 59.3916 94.3039 59.4113 94.3253C59.4311 94.3465 59.4513 94.3673 59.4721 94.3876C59.4932 94.408 59.5146 94.4279 59.5365 94.4472C59.5584 94.4666 59.5806 94.4854 59.6033 94.5037C59.6259 94.522 59.6491 94.5396 59.6729 94.5566C59.6966 94.5738 59.7207 94.5904 59.7452 94.6064C59.7695 94.6223 59.7943 94.6377 59.8196 94.6526C59.8449 94.6675 59.8705 94.6818 59.8964 94.6953C59.9223 94.7089 59.9485 94.722 59.9752 94.7345C60.0018 94.7468 60.0288 94.7586 60.056 94.7698C60.0831 94.7808 60.1105 94.7911 60.1379 94.8008C60.1657 94.8107 60.1936 94.8199 60.2219 94.8282C60.2499 94.8368 60.2782 94.8447 60.3067 94.8517C60.3848 94.8713 60.4637 94.8857 60.5434 94.8948C60.6234 94.904 60.7036 94.9079 60.7841 94.9066C60.8647 94.9053 60.9448 94.8989 61.0245 94.8874C61.1039 94.8756 61.1823 94.8589 61.2596 94.8372C61.3369 94.8153 61.4125 94.7885 61.4864 94.7569C61.5602 94.7253 61.6315 94.6889 61.7003 94.6479C61.7691 94.6069 61.8348 94.5617 61.8974 94.5123C61.9601 94.4629 62.0191 94.4096 62.0746 94.3524C62.13 94.2951 62.1814 94.2346 62.2285 94.1709C62.276 94.1071 62.3188 94.0405 62.3569 93.971C62.3953 93.9017 62.4288 93.8303 62.4573 93.7566C62.4858 93.6829 62.5093 93.6076 62.5277 93.5308C62.5461 93.454 62.5593 93.3762 62.5673 93.2976C62.575 93.2192 62.5775 93.1405 62.5749 93.0616C62.5719 92.9829 62.5638 92.9047 62.5504 92.8268C62.5371 92.7489 62.5186 92.6724 62.4949 92.5971C62.4711 92.5219 62.4424 92.4483 62.4085 92.3764C62.3749 92.3048 62.3365 92.2357 62.2933 92.1691C62.2504 92.1024 62.2031 92.0389 62.1514 91.9786C62.0996 91.918 62.0442 91.8611 61.985 91.8081C61.9256 91.7548 61.8628 91.7055 61.7967 91.6603C61.7306 91.6151 61.6618 91.5745 61.5903 91.5384C61.5189 91.5023 61.4452 91.471 61.3692 91.4443C61.2935 91.4177 61.2163 91.3961 61.1377 91.3796Z" fill="white"/>
<path d="M57.4421 86.823C57.3896 86.8068 57.3365 86.793 57.2826 86.7815C57.2287 86.7702 57.1745 86.7613 57.1199 86.7548C57.0652 86.7483 57.0104 86.7444 56.9555 86.743C56.9003 86.7415 56.8452 86.7425 56.7903 86.7462C56.7354 86.7498 56.6808 86.7559 56.6264 86.7642C56.572 86.7728 56.5182 86.7838 56.4648 86.7971C56.4115 86.8107 56.3589 86.8267 56.3069 86.845C56.2552 86.8633 56.2044 86.8838 56.1545 86.9065C56.1047 86.9295 56.056 86.9546 56.0086 86.9818C55.9608 87.0092 55.9147 87.0386 55.8702 87.0699C55.8254 87.1016 55.7822 87.135 55.7406 87.1703C55.699 87.2058 55.6593 87.2431 55.6215 87.282C55.5833 87.3212 55.5472 87.362 55.5131 87.4043C55.479 87.4466 55.447 87.4904 55.4171 87.5356C55.387 87.5808 55.3591 87.6273 55.3336 87.6752C55.3082 87.723 55.285 87.7718 55.264 87.8218C55.2432 87.8717 55.2246 87.9224 55.2084 87.9738C55.1924 88.0256 55.1788 88.0778 55.1676 88.1306C55.1564 88.1834 55.1477 88.2367 55.1416 88.2906C55.1355 88.3441 55.1319 88.3978 55.1308 88.4517C55.1297 88.5057 55.1313 88.5597 55.1356 88.6135C55.1396 88.6674 55.1461 88.7208 55.1552 88.7739C55.1645 88.8272 55.1763 88.8798 55.1904 88.9318C55.2045 88.9841 55.2212 89.0356 55.2404 89.0863C55.2593 89.1367 55.2806 89.1864 55.3044 89.2352C55.3281 89.2838 55.3541 89.3312 55.3823 89.3775C55.4106 89.4237 55.441 89.4687 55.4735 89.5123C55.506 89.556 55.5405 89.5979 55.5771 89.6381C55.6136 89.6787 55.652 89.7173 55.6922 89.7542C55.7325 89.791 55.7744 89.826 55.8178 89.8592C55.8613 89.8924 55.9062 89.9235 55.9526 89.9525C55.999 89.9815 56.0467 90.0083 56.0957 90.0329C56.1685 90.0695 56.2436 90.1011 56.3209 90.1277C56.3982 90.1541 56.477 90.1752 56.5572 90.1908C56.6372 90.2068 56.7181 90.2171 56.7999 90.2218C56.8815 90.2268 56.9631 90.2261 57.0447 90.2198C57.1265 90.2138 57.2073 90.2022 57.287 90.185C57.367 90.168 57.4454 90.1455 57.5221 90.1175C57.5989 90.0898 57.6734 90.0571 57.7457 90.0192C57.8179 89.9815 57.8871 89.9391 57.9532 89.8918C58.0193 89.8445 58.0818 89.7931 58.1408 89.7377C58.1997 89.6821 58.2545 89.6226 58.3051 89.5594C58.3555 89.4964 58.4014 89.4303 58.4427 89.361C58.484 89.2918 58.5201 89.2201 58.551 89.1458C58.5822 89.0716 58.6081 88.9957 58.6286 88.9181C58.6489 88.8402 58.6637 88.7616 58.673 88.6821C58.6823 88.6024 58.6861 88.5225 58.6842 88.4423C58.6821 88.362 58.6745 88.2823 58.6614 88.2031C58.6484 88.124 58.6297 88.0461 58.6054 87.9695C58.5812 87.893 58.5517 87.8183 58.5171 87.7457C58.4824 87.6731 58.4428 87.603 58.3983 87.5356C58.3538 87.4685 58.3047 87.4046 58.2511 87.3439C58.1975 87.2833 58.14 87.2266 58.0784 87.1738C58.0168 87.121 57.9519 87.0726 57.8836 87.0284C57.8151 86.9845 57.7439 86.9453 57.6701 86.9108C57.5962 86.8763 57.5203 86.847 57.4421 86.823Z" fill="white"/>
<path d="M79.0488 91.2468C79.0253 91.2312 79.0016 91.216 78.9776 91.2014C78.9533 91.1867 78.9288 91.1728 78.904 91.1594C78.8792 91.1461 78.854 91.1334 78.8285 91.1214C78.8029 91.1091 78.777 91.0975 78.7509 91.0865C78.7247 91.0758 78.6985 91.0656 78.6721 91.0559C78.6454 91.0463 78.6185 91.0373 78.5913 91.0289C78.5644 91.0205 78.5372 91.0129 78.5097 91.0062C78.4823 90.9991 78.4547 90.9927 78.427 90.987C78.3992 90.9812 78.3714 90.9762 78.3434 90.9721C78.3154 90.9676 78.2873 90.964 78.259 90.9611C78.2307 90.9582 78.2025 90.956 78.1742 90.9544C78.146 90.9526 78.1176 90.9517 78.0891 90.9517C78.0608 90.9514 78.0325 90.9518 78.0043 90.9529C77.9758 90.9542 77.9474 90.956 77.9191 90.9584C77.8908 90.961 77.8627 90.9642 77.8347 90.9681C77.8067 90.9721 77.7787 90.9766 77.7507 90.9819C77.723 90.9871 77.6954 90.993 77.668 90.9995C77.6402 91.006 77.6128 91.0133 77.5856 91.0214C77.5584 91.0293 77.5315 91.0378 77.5048 91.0469C77.4779 91.0561 77.4514 91.0659 77.4252 91.0763C77.3988 91.087 77.3729 91.0983 77.3473 91.11C77.3217 91.1218 77.2963 91.1341 77.2713 91.1469C77.2462 91.1599 77.2214 91.1735 77.1969 91.1876C77.1726 91.2018 77.1486 91.2165 77.1249 91.2319C77.1012 91.2474 77.078 91.2633 77.0553 91.2798C77.0324 91.2962 77.0099 91.3132 76.9878 91.3307C76.9659 91.3482 76.9444 91.3662 76.9234 91.3848C76.9023 91.4036 76.8817 91.4228 76.8614 91.4424C76.8414 91.462 76.8218 91.482 76.8026 91.5024C76.7837 91.5231 76.7652 91.5441 76.747 91.5655C76.7289 91.5869 76.7114 91.6088 76.6946 91.631C76.6776 91.6535 76.6612 91.6762 76.6455 91.6992C76.6297 91.7222 76.6145 91.7456 76.5999 91.7693C76.5852 91.7934 76.5712 91.8175 76.5579 91.8418C76.5446 91.8664 76.5318 91.8912 76.5195 91.9163C76.5075 91.9414 76.496 91.9669 76.4851 91.9928C76.4742 92.0184 76.4639 92.0442 76.4543 92.0704C76.4447 92.0965 76.4359 92.1229 76.4279 92.1496C76.4196 92.1762 76.412 92.203 76.4051 92.2299C76.3982 92.2568 76.3919 92.2839 76.3863 92.311C76.381 92.3385 76.3762 92.3659 76.3719 92.3933C76.3679 92.4208 76.3645 92.4483 76.3615 92.476C76.3589 92.5037 76.3569 92.5315 76.3555 92.5592C76.3542 92.5869 76.3535 92.6147 76.3535 92.6427C76.3538 92.6704 76.3546 92.698 76.3559 92.7257C76.3575 92.7534 76.3597 92.7811 76.3623 92.8088C76.3653 92.8365 76.3689 92.8641 76.3731 92.8916C76.3774 92.919 76.3823 92.9464 76.3879 92.9739C76.3935 93.001 76.3998 93.0281 76.4067 93.055C76.4139 93.0819 76.4216 93.1087 76.4299 93.1353C76.4382 93.1617 76.4471 93.188 76.4567 93.2142C76.4666 93.2403 76.477 93.2662 76.4879 93.2918C76.4988 93.3174 76.5104 93.3427 76.5227 93.3678C76.5349 93.3929 76.5477 93.4177 76.5611 93.4423C76.5747 93.4666 76.5888 93.4906 76.6035 93.5144C76.6181 93.5382 76.6335 93.5616 76.6495 93.5845C76.6655 93.6075 76.682 93.6302 76.699 93.6524C76.7161 93.6746 76.7337 93.6964 76.7518 93.7178C76.7699 93.7393 76.7886 93.7601 76.8078 93.7805C76.8267 93.8012 76.8463 93.8212 76.8666 93.8405C76.8869 93.8601 76.9075 93.8792 76.9286 93.8977C76.9499 93.9163 76.9715 93.9342 76.9934 93.9514C77.0155 93.969 77.038 93.9859 77.0609 94.0024C77.0839 94.0189 77.1072 94.0347 77.1309 94.0498C77.1544 94.065 77.1781 94.0795 77.2021 94.0933C77.2264 94.1072 77.2509 94.1205 77.2757 94.1333C77.3005 94.1461 77.3255 94.1583 77.3509 94.1698C77.3762 94.1813 77.4019 94.1922 77.428 94.2027C77.4539 94.2129 77.48 94.2225 77.5064 94.2317C77.5328 94.2406 77.5595 94.2489 77.5864 94.2568C77.6133 94.2646 77.6404 94.2718 77.6676 94.2783C77.6948 94.2849 77.7221 94.2908 77.7495 94.296C77.777 94.3012 77.8046 94.3058 77.8323 94.3097C77.86 94.3134 77.8879 94.3165 77.9159 94.3191C77.9436 94.3217 77.9715 94.3235 77.9995 94.3246C78.0275 94.3259 78.0555 94.3266 78.0835 94.3266C78.1114 94.3263 78.1394 94.3255 78.1674 94.3242C78.1954 94.3226 78.2234 94.3204 78.2514 94.3176C78.2791 94.3149 78.3069 94.3115 78.3346 94.3074C78.3623 94.3032 78.3899 94.2983 78.4174 94.2928C78.4448 94.2874 78.4721 94.2812 78.4993 94.2744C78.5263 94.2679 78.5532 94.2606 78.5801 94.2525C78.6068 94.2444 78.6333 94.2356 78.6597 94.2262C78.6861 94.2171 78.7122 94.2071 78.7381 94.1964C78.7639 94.186 78.7895 94.1749 78.8148 94.1631C78.8399 94.1513 78.8648 94.1389 78.8896 94.1259C78.9144 94.1131 78.9388 94.0995 78.9628 94.0851C78.9868 94.071 79.0104 94.0564 79.0336 94.0412C79.0568 94.0261 79.0797 94.0102 79.1024 93.9938C79.1248 93.9773 79.1468 93.9605 79.1683 93.9432C79.1899 93.9257 79.2111 93.9078 79.2319 93.8895C79.2527 93.871 79.273 93.852 79.2927 93.8327C79.3127 93.8133 79.332 93.7935 79.3507 93.7731C79.3696 93.7527 79.3879 93.7319 79.4055 93.7108C79.4234 93.6896 79.4407 93.6681 79.4575 93.6461C79.4743 93.6239 79.4904 93.6014 79.5059 93.5787C79.5213 93.556 79.5364 93.5328 79.551 93.5093C79.5654 93.4858 79.5793 93.4619 79.5926 93.4376C79.6057 93.4135 79.6182 93.3891 79.6302 93.3643C79.6425 93.3395 79.6539 93.3144 79.6646 93.289C79.6755 93.2637 79.6857 93.2382 79.695 93.2126C79.7046 93.1867 79.7135 93.1607 79.7218 93.1346C79.7301 93.1082 79.7375 93.0817 79.7442 93.055C79.7511 93.0286 79.7574 93.0019 79.763 92.975C79.7686 92.9481 79.7735 92.9211 79.7778 92.8939C79.7821 92.8667 79.7857 92.8395 79.7886 92.8124C79.7913 92.7849 79.7934 92.7575 79.795 92.73C79.7966 92.7026 79.7974 92.6753 79.7974 92.6481C79.7976 92.6207 79.7971 92.5932 79.7958 92.5658C79.7947 92.5384 79.7929 92.511 79.7902 92.4835C79.7878 92.4563 79.7846 92.4292 79.7806 92.402C79.7766 92.3748 79.7719 92.3477 79.7666 92.3208C79.7613 92.2937 79.7554 92.2667 79.749 92.2401C79.7423 92.2134 79.735 92.1871 79.727 92.1609C79.719 92.1345 79.7105 92.1084 79.7014 92.0825C79.6921 92.0567 79.6822 92.0309 79.6718 92.0053C79.6611 91.9799 79.65 91.9549 79.6382 91.9301C79.6265 91.905 79.6141 91.8803 79.601 91.856C79.588 91.8317 79.5744 91.8078 79.5602 91.7842C79.5461 91.7605 79.5313 91.7371 79.5159 91.7141C79.5007 91.6913 79.4848 91.6689 79.4683 91.6466C79.4517 91.6244 79.4347 91.6026 79.4171 91.5812C79.3998 91.5598 79.3818 91.5388 79.3631 91.5185C79.3444 91.4978 79.3254 91.4777 79.3059 91.4581C79.2862 91.4385 79.2661 91.4194 79.2455 91.4009C79.225 91.3821 79.2039 91.3639 79.1823 91.3464C79.161 91.3286 79.1392 91.3115 79.1168 91.295C79.0946 91.2783 79.072 91.2622 79.0488 91.2468Z" fill="white"/>
<path d="M88.8974 83.8201C87.9037 84.0976 87.0311 84.4304 86.3953 85.2504C86.2442 86.1786 86.3373 86.3522 86.714 87.2306C86.9688 87.2134 87.1099 87.2102 87.3475 87.1746C88.2356 87.0409 88.7171 86.7454 89.2333 86.0402C89.4305 85.1296 89.2837 84.6589 88.8974 83.8201Z" fill="white"/>
<path d="M56.133 81.7054C56.0879 81.6879 56.0422 81.6726 55.9958 81.6595C55.9494 81.6464 55.9025 81.6356 55.8551 81.627C55.8076 81.6181 55.7599 81.6117 55.7119 81.6078C55.6637 81.6036 55.6154 81.6016 55.5671 81.6019C55.5189 81.6024 55.4708 81.6052 55.4228 81.6101C55.3745 81.6151 55.3268 81.6223 55.2796 81.6317C55.2322 81.6413 55.1854 81.6531 55.1393 81.6669C55.0931 81.6808 55.0478 81.6969 55.0033 81.7152C54.9585 81.7332 54.9149 81.7534 54.8725 81.7759C54.8299 81.7981 54.7884 81.8224 54.7482 81.8488C54.7079 81.8749 54.6691 81.903 54.6318 81.9331C54.5945 81.9629 54.5586 81.9945 54.5242 82.028C54.4899 82.0611 54.4572 82.096 54.4263 82.1326C54.3956 82.1689 54.3667 82.2067 54.3395 82.2459C54.3123 82.2851 54.2871 82.3255 54.2639 82.367C54.2407 82.4083 54.2197 82.4508 54.2007 82.4944C54.1818 82.538 54.165 82.5823 54.1503 82.6273C54.1357 82.6725 54.1233 82.7182 54.1132 82.7645C54.103 82.8107 54.0953 82.8574 54.0899 82.9044C54.0843 82.9514 54.0812 82.9986 54.0804 83.0459C54.0796 83.0935 54.081 83.1408 54.0848 83.1878C54.0885 83.2351 54.0946 83.282 54.1032 83.3285C54.1117 83.375 54.1224 83.4212 54.1351 83.4669C54.1482 83.5124 54.1635 83.5572 54.1811 83.6013C54.1985 83.6455 54.2179 83.6887 54.2395 83.7311C54.2611 83.7734 54.2848 83.8146 54.3107 83.8545C54.3363 83.8948 54.3639 83.9336 54.3935 83.9709C54.4231 84.0083 54.4544 84.0443 54.4874 84.0788C54.5205 84.1132 54.5552 84.1462 54.5914 84.1775C54.6279 84.2086 54.6658 84.238 54.705 84.2657C54.7442 84.2934 54.7847 84.3192 54.8266 84.3429C54.8681 84.3667 54.9109 84.3884 54.9549 84.408C55.0154 84.4352 55.0775 84.4583 55.1413 84.4774C55.205 84.4965 55.2698 84.5113 55.3356 84.5221C55.4015 84.5328 55.4676 84.5392 55.534 84.5413C55.6006 84.5431 55.6671 84.5407 55.7335 84.5342C55.7999 84.5274 55.8655 84.5165 55.9303 84.5013C55.995 84.4861 56.0585 84.4668 56.1206 84.4433C56.1827 84.4198 56.2431 84.3922 56.3017 84.3606C56.3601 84.3292 56.4161 84.2942 56.4697 84.2555C56.5233 84.2169 56.5741 84.1748 56.6221 84.1293C56.67 84.0841 56.7147 84.0359 56.756 83.9847C56.7973 83.9335 56.8351 83.8798 56.8692 83.8236C56.9033 83.7674 56.9334 83.7092 56.9596 83.6491C56.986 83.5893 57.0079 83.5279 57.0255 83.4649C57.0434 83.402 57.057 83.3381 57.0663 83.2733C57.0754 83.2087 57.0801 83.1438 57.0803 83.0784C57.0806 83.0131 57.0765 82.948 57.0679 82.8832C57.0594 82.8184 57.0465 82.7545 57.0291 82.6916C57.0118 82.6283 56.9903 82.5667 56.9648 82.5066C56.9392 82.4462 56.9096 82.3878 56.876 82.3313C56.8424 82.2749 56.8052 82.2209 56.7644 82.1695C56.7234 82.118 56.6791 82.0692 56.6316 82.0232C56.5842 81.9775 56.5338 81.9351 56.4805 81.8959C56.4272 81.8567 56.3713 81.8211 56.3129 81.7892C56.2548 81.7574 56.1948 81.7294 56.133 81.7054Z" fill="white"/>
<path d="M91.27 79.6377C91.2233 79.6291 91.1764 79.6227 91.1292 79.6185C91.0818 79.6144 91.0343 79.6124 90.9869 79.6127C90.9394 79.6129 90.8921 79.6154 90.8449 79.6201C90.7977 79.6248 90.7508 79.6317 90.7042 79.6409C90.6578 79.65 90.6118 79.6613 90.5662 79.6746C90.5209 79.6879 90.4762 79.7035 90.4322 79.7212C90.3882 79.7387 90.3452 79.7583 90.3031 79.78C90.2612 79.8015 90.2204 79.825 90.1807 79.8506C90.141 79.8759 90.1026 79.9032 90.0655 79.9325C90.0285 79.9615 89.9929 79.9922 89.9588 80.0246C89.9246 80.057 89.8922 80.0909 89.8616 80.1261C89.8309 80.1617 89.802 80.1985 89.7748 80.2367C89.7476 80.2748 89.7223 80.3142 89.6988 80.3547C89.6756 80.3952 89.6544 80.4367 89.6352 80.4793C89.6161 80.5219 89.5989 80.5653 89.5837 80.6094C89.5687 80.6536 89.5559 80.6983 89.5453 80.7435C89.5346 80.7887 89.5262 80.8344 89.5201 80.8807C89.5139 80.9267 89.5101 80.9729 89.5085 81.0194C89.5066 81.066 89.5072 81.1125 89.5101 81.159C89.513 81.2055 89.5182 81.2516 89.5257 81.2973C89.5329 81.3433 89.5425 81.3888 89.5545 81.4338C89.5662 81.479 89.5802 81.5234 89.5965 81.567C89.6127 81.6109 89.631 81.6538 89.6512 81.6956C89.6715 81.7377 89.6939 81.7787 89.7184 81.8187C89.7427 81.8587 89.7689 81.8973 89.7972 81.9347C89.8252 81.9721 89.8551 82.0081 89.8868 82.0429C89.9185 82.0776 89.9518 82.1107 89.9867 82.1421C90.0214 82.1737 90.0577 82.2036 90.0955 82.2318C90.1334 82.2598 90.1726 82.286 90.2131 82.3106C90.2533 82.3349 90.2948 82.3574 90.3375 82.378C90.3798 82.3987 90.4233 82.4172 90.4678 82.4337C90.5121 82.4501 90.5571 82.4645 90.603 82.4768C90.6672 82.4941 90.7324 82.507 90.7985 82.5156C90.8646 82.5242 90.931 82.5285 90.9977 82.5285C91.0643 82.5283 91.1307 82.5237 91.1968 82.5148C91.2629 82.5059 91.3281 82.4927 91.3924 82.4752C91.4566 82.458 91.5194 82.4364 91.5807 82.4106C91.642 82.385 91.7012 82.3554 91.7583 82.322C91.8156 82.2883 91.8702 82.251 91.9222 82.2103C91.9745 82.1698 92.0237 82.1258 92.0698 82.0785C92.1159 82.0312 92.1586 81.9812 92.1977 81.9284C92.2369 81.8756 92.2724 81.8205 92.3041 81.763C92.3358 81.7055 92.3634 81.6462 92.3869 81.5851C92.4103 81.5239 92.4295 81.4614 92.4445 81.3977C92.4597 81.3339 92.4703 81.2695 92.4765 81.2045C92.4826 81.1394 92.4842 81.0742 92.4813 81.0089C92.4783 80.9435 92.471 80.8787 92.4593 80.8144C92.4478 80.7502 92.4318 80.6869 92.4113 80.6247C92.391 80.5625 92.3665 80.5019 92.3377 80.4429C92.3089 80.3838 92.2762 80.327 92.2397 80.2723C92.2032 80.2177 92.1632 80.1657 92.1198 80.1163C92.076 80.0669 92.0292 80.0206 91.9794 79.9772C91.9293 79.9341 91.8765 79.8944 91.821 79.858C91.7656 79.8217 91.7079 79.7892 91.6479 79.7604C91.5882 79.732 91.5266 79.7074 91.4631 79.6867C91.4 79.6661 91.3356 79.6498 91.27 79.6377Z" fill="white"/>
</svg>
