<svg width="123" height="146" viewBox="0 0 123 146" fill="none" xmlns="http://www.w3.org/2000/svg">
<path d="M72.5512 0C70.7834 0.769891 67.4174 0.398084 65.4118 0.616803C64.4864 0.72762 63.5662 0.874895 62.6512 1.05862C61.7362 1.24526 60.829 1.46831 59.9296 1.72786C59.0299 1.98741 58.1407 2.28488 57.2619 2.62025C56.3831 2.9527 55.5172 3.32162 54.6642 3.72698C51.8364 5.06554 49.108 7.56329 46.9347 9.94296C46.1073 10.8528 44.9041 12.7732 43.8804 13.285C43.7851 13.3331 43.6869 13.3769 43.5904 13.4206C41.4247 14.1993 38.9441 12.5764 36.7422 13.2063C36.1541 13.3769 35.7667 13.6218 35.49 14.2386C34.9293 15.4897 35.4007 17.5588 35.7969 18.8186C36.3995 20.7346 37.2824 22.4231 39.0245 23.3373C38.1022 25.7695 37.5197 27.9566 37.434 30.6031C37.2884 35.0738 38.8057 39.1595 39.0736 43.547C39.3978 48.8618 38.8186 54.2336 39.2969 59.5572C39.5833 62.7417 40.7433 65.83 40.6906 69.054C40.6094 74.0014 38.58 78.5638 38.3496 83.4806C38.2023 86.6258 38.5732 91.9932 40.6303 94.4385C32.7013 102.89 32.7974 104.972 28.8763 115.969C28.1579 117.986 27.5284 120.514 26.3679 122.246C25.1873 119.945 23.9556 113.17 23.6817 110.449C26.1664 106.831 24.9701 100.729 24.6809 96.4988C25.2746 96.1707 25.7432 95.5671 26.1861 95.0246C27.026 94.001 27.4841 92.7893 27.3534 91.4026C27.1647 89.4079 26.1105 87.6363 25.7114 85.7072C25.3723 84.0669 25.5775 82.0852 24.9057 80.5411C24.5461 79.7187 23.5751 78.9707 22.9363 78.3889C22.5168 77.409 22.8824 76.3767 23.018 75.3487C23.3897 72.536 21.586 72.7109 20.5068 70.9218C19.8475 69.8282 20.5245 68.3103 19.6126 67.1161C18.8962 66.1756 17.7941 65.6682 16.6843 65.6463C12.8939 65.5763 8.71697 69.1633 6.18162 71.8842C-0.780029 79.3512 -0.921216 88.708 1.65315 98.3448C2.65957 102.111 4.0783 105.891 4.51554 109.801C5.42582 117.951 4.78303 127.413 4.75246 135.689C4.72551 137.74 4.65673 139.805 4.68087 141.852C4.69414 142.964 4.76494 144.005 5.52719 144.823C12.4591 145.181 19.4573 144.963 26.3981 144.967L63.0177 144.971L101.547 144.967C108.058 144.967 114.653 145.221 121.154 144.932C121.866 144.901 122.374 144.77 122.999 144.385C122.92 130.09 122.261 120.82 118.236 107.264C118.278 107.203 118.326 107.146 118.362 107.08C119.478 105.068 120.334 101.516 120.493 99.1891C120.979 92.0807 117.465 86.9933 113.816 81.5866C112.747 79.9987 111.588 78.3802 111.08 76.4598C109.656 71.0924 114.034 66.0925 113.029 60.5502C111.511 52.1776 105.117 47.7333 103.837 38.5208C104.801 38.6214 106.517 38.5864 107.337 37.9827C107.392 37.9419 107.445 37.8996 107.495 37.8559C107.546 37.8092 107.595 37.7611 107.641 37.7115C107.687 37.659 107.731 37.6051 107.773 37.5497C107.814 37.4943 107.853 37.4374 107.889 37.3791C107.925 37.3178 107.959 37.2551 107.989 37.191C108.02 37.1297 108.048 37.0656 108.072 36.9985C108.097 36.9314 108.119 36.8644 108.137 36.7973C108.156 36.7273 108.171 36.6573 108.183 36.5873C108.894 32.6373 104.716 28.0573 102.795 25.1702C102.872 25.1265 102.952 25.0827 103.028 25.0346C104.177 24.3084 105.077 21.5482 105.328 20.2009C105.679 18.3156 106.14 15.1048 105.136 13.4206C103.143 12.2395 100.391 14.7723 98.2467 14.6673C98.122 14.6629 97.9977 14.6498 97.8734 14.641C96.6783 13.893 95.7004 12.2657 94.7805 11.1415C91.1631 6.71466 87.0948 3.89758 81.8564 2.30093C79.4522 1.57041 74.3432 1.25107 72.5512 0Z" fill="black"/>
<path d="M56.0329 22.1868C53.6323 27.9522 44.9024 27.3879 42.966 39.5312C46.0468 40.6729 50.5379 38.4945 53.1943 40.7385C54.1983 42.9695 52 52.6194 51.5608 55.6902C53.5788 57.195 55.9915 55.7076 58.1761 56.2544C59.0397 56.4732 59.602 56.985 60.0968 57.7549C60.1101 58.306 60.1692 58.4985 59.8052 58.9359C58.8511 60.082 56.7183 60.3707 55.3684 60.4714C53.3906 60.6201 50.5853 60.4932 49.0693 58.9053C46.6317 56.3551 49.4357 52.195 49.4236 49.1592C48.7446 48.748 47.9108 48.2406 47.3513 47.6457C46.548 46.7927 46.7901 45.3972 46.7769 44.273C45.9136 43.5075 44.1804 44.1768 42.9965 43.5338C42.9418 43.5031 42.8892 43.4682 42.8357 43.4375C42.8099 51.4252 41.8228 61.3025 44.9973 68.6908C46.4605 72.6264 49.3039 78.1451 53.5028 79.4562C60.5722 81.6784 68.8806 79.1062 74.8109 74.8456C76.3085 73.7695 77.6846 71.9104 79.269 71.1055C79.9955 70.7337 80.6479 70.6812 81.3985 70.9436L81.6917 71.6129C81.5956 72.6146 81.269 73.3758 80.7344 74.1894C79.9488 75.3792 77.8443 77.2996 76.543 77.5752C74.6709 80.2785 69.6405 82.0939 66.7495 82.9163C64.1068 83.6643 59.4991 84.7055 56.9951 83.0869C56.5369 85.799 55.5643 88.3887 53.9304 90.5234C52.6814 92.155 50.5435 93.8741 48.562 94.0928C49.8625 97.3517 54.8732 100.392 57.7674 101.652C65.8654 105.178 75.5161 103.524 83.3691 99.8976C87.4398 98.021 92.0017 95.2783 93.7422 90.6284C93.0572 90.5977 92.3524 89.9678 91.8255 89.5129C86.7005 85.0947 86.404 76.346 85.711 69.7976C85.3594 69.6226 85.0058 69.4432 84.6852 69.207C83.5304 68.3583 82.8699 66.9104 82.676 65.4363C82.4459 63.6909 82.9246 61.7224 83.9511 60.3445C86.4253 57.0243 87.682 58.9403 90.2776 58.4854C90.3416 58.4722 90.4023 58.446 90.4647 58.4285C91.0942 57.6805 91.7113 56.8537 92.2112 55.9964C93.4176 53.936 94.0813 50.7865 93.4884 48.3893C93.1827 47.1514 92.4224 45.8085 91.3625 45.1829C89.2342 43.9231 84.0453 47.4707 80.8394 46.2896C79.7658 45.8915 78.7525 45.0823 78.0864 44.0849C76.9263 42.3483 76.6713 39.9774 75.4368 38.2933C72.2913 33.9976 66.5456 36.0842 62.6302 33.6521C58.9814 31.3818 57.1109 26.3643 56.0329 22.1868Z" fill="white"/>
<path d="M69.9993 39.7061C66.8646 40.7647 62.604 38.7875 59.4721 40.2092C58.6194 40.5985 58.5108 40.9966 58.1528 41.8496C58.4207 43.9056 61.0308 43.4244 62.2142 44.7323L62.1853 46.4514C62.1986 47.5232 62.2633 48.4855 63.0787 49.2073C63.4415 49.5266 63.8964 49.6753 64.3542 49.6403C65.0995 49.5922 65.9342 49.1679 66.3915 48.5074C67.2081 47.3307 66.754 45.6422 66.5424 44.3167C67.6099 43.3281 69.8521 44.5267 71.0636 43.3675C71.3641 43.0788 71.3935 42.9431 71.4043 42.5188C71.4321 41.4559 70.5918 40.4673 69.9993 39.7061Z" fill="black"/>
<path d="M16.7249 69.2289C16.2888 69.366 15.8576 69.5205 15.4312 69.6926C15.0051 69.8647 14.5848 70.0513 14.1702 70.2525C13.7556 70.4538 13.348 70.671 12.9474 70.9043C12.5465 71.1376 12.1535 71.3841 11.7684 71.6436C11.383 71.9061 11.0065 72.1831 10.6389 72.4748C10.271 72.7635 9.9127 73.0667 9.56408 73.3846C9.21547 73.6996 8.87733 74.0276 8.54963 74.3688C8.22167 74.713 7.90497 75.0673 7.59953 75.4318C-0.17989 84.9199 5.4998 96.7613 7.68801 107.177C8.19725 109.6 8.31752 112.058 8.44463 114.534C8.49008 114.561 8.53635 114.587 8.5814 114.613C8.90078 114.806 9.19482 114.967 9.56087 115.042C12.1646 115.58 18.2534 115.829 20.4018 114.412C19.7481 110.549 21.2537 108.756 21.4742 105.186C21.6761 101.923 20.5892 98.2792 21.4907 95.1253C21.8583 93.8436 23.263 92.8943 23.8651 91.6257C23.9029 90.799 23.8941 90.4228 23.46 89.7317L22.8579 89.6135C20.2316 90.7465 20.2075 92.785 18.3749 94.5916C18.2848 94.6791 18.1918 94.7666 18.1001 94.854L17.6078 95.659C16.8274 95.9958 16.7582 96.0045 15.9453 95.777C15.539 95.2171 15.1275 94.7141 15.3331 93.9223C16.1798 90.6721 22.0514 86.2059 21.8241 82.7064C21.7911 82.2033 21.6701 82.2165 21.3575 81.8928C16.8126 81.2628 16.4742 87.4832 13.5342 89.4867C12.7306 90.0335 12.1795 89.946 11.3344 89.7054C9.0114 85.9915 19.2831 78.8832 19.5394 74.8456L18.9871 74.5744C16.2711 75.0425 12.7921 78.1702 11.3255 80.6111C10.624 81.779 10.0922 83.3407 9.24671 84.373C8.68075 85.0642 8.42655 85.1911 7.60356 85.2523C7.24516 84.8411 7.0959 84.7448 7.00741 84.1893C6.08546 78.3845 15.1295 74.1064 16.7743 71.2149C17.1194 70.6113 16.8367 69.8851 16.7249 69.2289Z" fill="white"/>
<path d="M40.6871 112.597C40.2563 112.785 39.8203 113.034 39.4486 113.34C36.7435 115.558 34.2399 125.387 33.8521 128.944C33.4821 132.338 33.4097 138.016 35.4724 140.855L36.1075 140.925C36.7632 141.188 36.9172 141.323 37.6139 141.139C37.9132 139.744 36.9048 137.929 36.7105 136.476C36.4237 134.337 36.3646 132.102 36.6473 129.959C37.1405 126.214 41.7679 114.696 41.7156 113.918C41.6698 113.235 41.1404 112.99 40.6871 112.597Z" fill="white"/>
<path d="M96.2905 123.349C95.6316 123.554 95.1019 123.795 94.5029 124.154C93.622 125.951 93.9132 135.908 93.9539 138.672C93.9663 139.512 93.7765 140.299 94.3469 140.903C95.1353 141.139 95.6847 141.362 96.4824 141.078C96.9952 138.646 97.2326 125.322 96.2905 123.349Z" fill="white"/>
<path d="M99.9789 27.9086C98.6434 28.2805 97.423 27.6243 96.2641 28.626C96.3872 29.7196 96.7271 30.2576 97.4733 30.9882C98.4234 31.9243 99.9539 33.4728 101.289 33.4116C101.478 33.6172 101.669 33.8228 101.881 34.0021C102.752 34.737 103.768 34.5096 104.774 34.3521C102.782 31.7931 102.942 30.4851 99.9789 27.9086Z" fill="#FF0000"/>
<path d="M102.479 16.9332C98.852 18.5648 97.6645 20.0696 95.9011 23.8578L96.9292 24.4265C97.9875 24.444 98.7506 24.3784 99.6211 23.6741C101.534 22.1168 102.217 19.3653 102.479 16.9332Z" fill="#FF0000"/>
<path d="M83.2147 16.4695L82.6335 16.7669C82.3391 17.4624 82.2296 17.7074 82.3338 18.5036C82.5494 20.1483 83.9951 21.7669 85.226 22.6636C86.1089 23.311 87.2472 23.8972 88.316 23.6828L88.9145 23.9497L89.24 23.7003C88.5501 20.8482 85.3531 18.1361 83.2147 16.4695Z" fill="#FF0000"/>
<path d="M89.3249 61.7006C88.606 61.8055 87.7935 61.8668 87.2014 62.3611C86.4206 63.0173 86.0099 63.6472 85.9154 64.7145C86.304 65.2876 86.5107 65.5019 87.1045 65.8037C87.1419 65.8518 87.1761 65.8999 87.2171 65.9393C87.8462 66.5648 88.3301 66.5955 89.1165 66.5124C89.6426 66.0399 89.8341 65.6725 89.9817 64.9376C90.2528 63.5859 90.0026 62.8379 89.3249 61.7006Z" fill="#FF0000"/>
<path d="M40.4875 16.6752C39.8756 16.9026 39.6942 16.9332 39.255 17.4757C39.2316 17.8912 39.193 18.3987 39.3069 18.8011C39.5458 19.6497 39.9364 20.1309 40.6339 20.5028C41.0079 20.3322 41.4022 19.9035 41.6399 19.5492C42.1491 18.788 41.985 18.3943 41.8092 17.5632L40.4875 16.6752Z" fill="#FF0000"/>
<path d="M14.7327 36.8629C14.5303 36.8221 14.3272 36.7871 14.1233 36.7579C13.9195 36.7317 13.7151 36.7083 13.5099 36.6879C13.305 36.6704 13.0999 36.6588 12.8945 36.6529C12.6888 36.6471 12.4833 36.6456 12.2778 36.6486C12.0722 36.6515 11.8667 36.6617 11.6616 36.6791C11.4564 36.6937 11.2517 36.7142 11.0474 36.7404C10.8433 36.7666 10.6398 36.7972 10.4368 36.8322C10.234 36.8702 10.0322 36.9139 9.83138 36.9635C9.63052 37.0102 9.43089 37.0626 9.23245 37.121C9.03401 37.1793 8.83702 37.2435 8.64153 37.3135C8.44604 37.3805 8.25217 37.4549 8.05989 37.5366C7.86762 37.6153 7.67736 37.6999 7.4891 37.7903C7.30085 37.8807 7.11462 37.9755 6.9304 38.0746C6.74644 38.1738 6.56476 38.2773 6.38536 38.3852C6.20623 38.496 6.02949 38.6112 5.85518 38.7308C5.68114 38.8474 5.50993 38.9699 5.34152 39.0982C5.17285 39.2265 5.00726 39.3592 4.84476 39.4963C4.68225 39.6333 4.52297 39.7748 4.36689 39.9206C4.21082 40.0664 4.05809 40.2166 3.90872 40.3712C3.75935 40.5228 3.61362 40.6803 3.47149 40.8436C3.32936 41.004 3.191 41.1687 3.05638 41.3379C2.9215 41.507 2.79063 41.6791 2.66379 41.8541C2.53694 42.032 2.41424 42.2113 2.29572 42.3921C2.17692 42.5758 2.06241 42.7625 1.9522 42.952C1.84171 43.1387 1.73567 43.3297 1.63404 43.5251C1.5324 43.7205 1.43533 43.9173 1.34281 44.1156C1.25003 44.3168 1.1618 44.5195 1.07813 44.7236C0.99473 44.9278 0.915885 45.1334 0.841603 45.3404C0.76759 45.5504 0.698283 45.7604 0.633656 45.9703C0.569028 46.1832 0.50921 46.3976 0.454236 46.6134C0.399263 46.8292 0.349256 47.0465 0.304205 47.2652C0.259153 47.481 0.219058 47.6997 0.183929 47.9213C0.1488 48.143 0.118641 48.3646 0.0934336 48.5862C0.0684944 48.8078 0.0485215 49.0295 0.0335044 49.2511C0.0184873 49.4757 0.00855087 49.6988 0.00372393 49.9204C-0.00137117 50.145 -0.00122197 50.3681 0.0041413 50.5897C0.0092364 50.8142 0.0195467 51.0388 0.0351002 51.2634C0.0503855 51.485 0.0707815 51.7066 0.096257 51.9282C0.121732 52.1499 0.152165 52.3715 0.187562 52.5931C0.223228 52.8119 0.263722 53.0306 0.309041 53.2493C0.354361 53.468 0.404641 53.6838 0.459883 53.8967C0.515125 54.1125 0.575193 54.3269 0.640088 54.5398C0.704984 54.7527 0.774714 54.9626 0.849263 55.1697C0.923813 55.3796 1.00291 55.5867 1.08657 55.7908C1.17051 55.995 1.25902 56.1962 1.35207 56.3945C1.44485 56.5928 1.54218 56.7896 1.64408 56.985C1.74598 57.1804 1.85232 57.3714 1.96307 57.5581C2.07356 57.7476 2.18834 57.9328 2.3074 58.1136C2.4262 58.2973 2.54915 58.4767 2.67626 58.6516C2.80337 58.8266 2.93436 58.9987 3.06925 59.1678C3.20413 59.337 3.34277 59.5018 3.48517 59.6622C3.62756 59.8255 3.77357 59.9829 3.92321 60.1346C4.07284 60.2891 4.2257 60.4393 4.38177 60.5851C4.53811 60.728 4.69767 60.868 4.86044 61.0051C5.02322 61.1421 5.18893 61.2748 5.3576 61.4032C5.52628 61.5315 5.69779 61.6539 5.8721 61.7706C6.04613 61.8901 6.22298 62.0054 6.40265 62.1162C6.58205 62.2241 6.76387 62.3276 6.9481 62.4267C7.13206 62.5259 7.31829 62.6207 7.50681 62.7111C7.69533 62.7986 7.88571 62.8832 8.07799 62.9648C8.27026 63.0436 8.46416 63.1165 8.65965 63.1836C8.85541 63.2535 9.0525 63.3177 9.25094 63.376C9.44938 63.4343 9.64903 63.4868 9.84989 63.5335C10.051 63.5801 10.2529 63.6224 10.4557 63.6603C10.6568 63.6953 10.8586 63.7259 11.061 63.7522C11.2632 63.7784 11.4661 63.7989 11.6696 63.8134C11.8729 63.828 12.0764 63.8382 12.2802 63.844C12.4841 63.847 12.6877 63.8455 12.8913 63.8397C13.0951 63.831 13.2986 63.8178 13.5019 63.8003C13.7049 63.7828 13.9075 63.7609 14.1097 63.7347C14.3119 63.7055 14.5132 63.672 14.7138 63.6341C14.9144 63.5932 15.1141 63.5481 15.3128 63.4985C15.5112 63.4489 15.7086 63.3935 15.9049 63.3323C16.1009 63.2739 16.2956 63.2098 16.4889 63.1398C16.682 63.0669 16.8735 62.991 17.0633 62.9123C17.2532 62.8306 17.441 62.7446 17.6269 62.6542C17.813 62.5638 17.9968 62.469 18.1784 62.3699C18.3602 62.2678 18.5394 62.1614 18.7162 62.0505C18.8932 61.9426 19.0676 61.8289 19.2395 61.7093C19.4114 61.5898 19.5803 61.4658 19.7463 61.3375C19.9126 61.2092 20.0759 61.0766 20.2362 60.9395C20.3966 60.8024 20.5536 60.661 20.7073 60.5151C20.8615 60.3722 21.012 60.2235 21.159 60.0689C21.3062 59.9144 21.45 59.7569 21.5902 59.5965C21.7305 59.4361 21.867 59.2714 21.9997 59.1022C22.1324 58.936 22.2613 58.7654 22.3863 58.5905C22.5115 58.4155 22.6326 58.2375 22.7495 58.0567C22.8664 57.873 22.9793 57.6878 23.0882 57.5012C23.1971 57.3145 23.3015 57.125 23.4015 56.9325C23.5018 56.7401 23.5977 56.5447 23.6891 56.3464C23.7806 56.1481 23.8674 55.9469 23.9498 55.7427C24.0321 55.5415 24.1099 55.3374 24.1831 55.1303C24.2563 54.9233 24.3248 54.7147 24.3886 54.5047C24.4524 54.2948 24.5116 54.0819 24.566 53.8661C24.6202 53.6532 24.6697 53.4389 24.7144 53.2231C24.759 53.0073 24.7987 52.79 24.8335 52.5713C24.8684 52.3526 24.8983 52.1339 24.9232 51.9151C24.9482 51.6935 24.9683 51.4733 24.9835 51.2546C24.9986 51.033 25.0086 50.8113 25.0137 50.5897C25.0188 50.3681 25.0189 50.1464 25.0141 49.9248C25.0093 49.7031 24.9995 49.4815 24.9847 49.2599C24.97 49.0382 24.9503 48.8181 24.9256 48.5993C24.901 48.3777 24.8713 48.159 24.8367 47.9432C24.8021 47.7245 24.7627 47.5072 24.7185 47.2914C24.6742 47.0727 24.625 46.8569 24.5708 46.644C24.5169 46.4311 24.4582 46.2197 24.3947 46.0097C24.3311 45.7968 24.263 45.5868 24.1903 45.3798C24.1174 45.1757 24.0399 44.9715 23.9578 44.7674C23.8755 44.5632 23.7889 44.362 23.698 44.1637C23.6068 43.9683 23.5112 43.7729 23.4112 43.5776C23.3114 43.3851 23.2072 43.1955 23.0986 43.0089C22.99 42.8193 22.8774 42.6342 22.7607 42.4534C22.6441 42.2726 22.5233 42.0946 22.3983 41.9196C22.2736 41.7447 22.145 41.5726 22.0126 41.4035C21.8798 41.2344 21.7436 41.0696 21.6039 40.9092C21.4639 40.7488 21.3204 40.5913 21.1735 40.4368C21.0263 40.2822 20.8758 40.1335 20.7222 39.9906C20.5685 39.8448 20.4116 39.7033 20.2515 39.5662C20.0915 39.4292 19.9284 39.2965 19.7624 39.1682C19.5964 39.0399 19.4276 38.916 19.256 38.7964C19.0843 38.6768 18.91 38.5616 18.7331 38.4508C18.5563 38.34 18.3772 38.2335 18.1957 38.1315C18.0141 38.0323 17.8304 37.9375 17.6446 37.8471C17.4588 37.7538 17.2711 37.6678 17.0815 37.5891C16.8916 37.5074 16.7001 37.4316 16.507 37.3616C16.314 37.2887 16.1194 37.223 15.9234 37.1647C15.7274 37.1035 15.53 37.048 15.3313 36.9985C15.1328 36.9489 14.9333 36.9037 14.7327 36.8629Z" fill="black"/>
<path d="M14.322 40.4762C14.1764 40.4441 14.0301 40.4149 13.8831 40.3887C13.7362 40.3654 13.5888 40.345 13.4411 40.3275C13.2931 40.31 13.1449 40.2968 12.9966 40.2881C12.848 40.2793 12.6995 40.275 12.5509 40.275C12.4021 40.272 12.2534 40.275 12.1048 40.2837C11.9563 40.2895 11.808 40.2998 11.6599 40.3144C11.5119 40.3289 11.3643 40.3464 11.2171 40.3669C11.0698 40.3902 10.9232 40.4164 10.777 40.4456C10.6309 40.4776 10.4855 40.5126 10.341 40.5505C10.1964 40.5885 10.0529 40.6293 9.91019 40.673C9.76753 40.7197 9.62592 40.7693 9.48541 40.8218C9.34489 40.8742 9.20573 40.9311 9.06789 40.9924C8.93005 41.0536 8.79356 41.1178 8.6584 41.1849C8.52352 41.2519 8.39011 41.3234 8.25817 41.3992C8.12623 41.4721 7.99616 41.5494 7.86798 41.6311C7.73953 41.7127 7.61309 41.7987 7.48867 41.8891C7.36397 41.9766 7.24142 42.067 7.12101 42.1603C7.00061 42.2566 6.88249 42.3558 6.76664 42.4578C6.65053 42.557 6.53682 42.6605 6.42553 42.7684C6.31397 42.8763 6.2051 42.9856 6.0989 43.0965C5.99244 43.2102 5.88854 43.3268 5.78718 43.4464C5.68608 43.563 5.58766 43.6841 5.49193 43.8095C5.39592 43.932 5.30286 44.0574 5.21276 44.1857C5.12265 44.314 5.03551 44.4452 4.95131 44.5794C4.86711 44.7135 4.78585 44.8491 4.70754 44.9862C4.62924 45.1232 4.55416 45.2618 4.48229 45.4018C4.41042 45.5447 4.34176 45.689 4.27633 45.8348C4.2109 45.9806 4.14869 46.1265 4.08969 46.2723C4.03069 46.421 3.97518 46.5712 3.92316 46.7228C3.87087 46.8745 3.82206 47.0276 3.77674 47.1821C3.73142 47.3367 3.6896 47.4913 3.65126 47.6458C3.61291 47.8033 3.57805 47.9608 3.54667 48.1182C3.51529 48.2757 3.48753 48.4346 3.46339 48.595C3.43926 48.7554 3.41861 48.9159 3.40145 49.0763C3.38456 49.2367 3.37116 49.397 3.36124 49.5574C3.35158 49.7178 3.34541 49.8797 3.34272 50.043C3.34031 50.2034 3.34138 50.3652 3.34594 50.5285C3.35077 50.6889 3.35908 50.8493 3.37088 51.0097C3.38268 51.1701 3.39822 51.3305 3.41753 51.4909C3.43657 51.6513 3.45923 51.8117 3.48551 51.9721C3.51206 52.1296 3.54197 52.287 3.57522 52.4445C3.60874 52.602 3.64575 52.7594 3.68624 52.9169C3.72647 53.0715 3.77032 53.2261 3.81779 53.3806C3.86525 53.5323 3.91606 53.6839 3.97023 53.8355C4.02439 53.9843 4.08192 54.133 4.14279 54.2817C4.20367 54.4305 4.26775 54.5763 4.33505 54.7192C4.40263 54.8621 4.47331 55.0035 4.54705 55.1435C4.6208 55.2864 4.69763 55.4249 4.77754 55.5591C4.85745 55.6961 4.94043 55.8303 5.02651 55.9615C5.11259 56.0928 5.2015 56.2225 5.29321 56.3508C5.38519 56.4791 5.47985 56.6046 5.57719 56.727C5.67454 56.8466 5.77457 56.9647 5.87728 57.0813C5.98025 57.198 6.08562 57.3132 6.19342 57.4269C6.30123 57.5378 6.4116 57.6457 6.5245 57.7506C6.63712 57.8556 6.75215 57.9577 6.86961 58.0568C6.9868 58.156 7.10626 58.2522 7.22801 58.3455C7.34975 58.4389 7.47338 58.5278 7.59888 58.6124C7.72464 58.6999 7.85215 58.783 7.98141 58.8617C8.11093 58.9434 8.24207 59.0192 8.37481 59.0892C8.50755 59.1621 8.64191 59.2321 8.77787 59.2992C8.91383 59.3633 9.05112 59.4245 9.18976 59.4829C9.3284 59.5412 9.46839 59.5966 9.60971 59.6491C9.75076 59.6987 9.89289 59.7454 10.0361 59.7891C10.1793 59.8329 10.3234 59.8722 10.4685 59.9072C10.6155 59.9422 10.7629 59.9743 10.911 60.0035C11.0593 60.0326 11.2082 60.0574 11.3579 60.0778C11.5072 60.0953 11.6569 60.1113 11.8068 60.1259C11.9569 60.1376 12.1073 60.1449 12.2577 60.1478C12.4081 60.1536 12.5587 60.1536 12.7094 60.1478C12.8598 60.1449 13.0101 60.1376 13.1603 60.1259C13.3102 60.1113 13.4599 60.0953 13.6092 60.0778C13.7589 60.0574 13.9078 60.0326 14.0561 60.0035C14.2042 59.9743 14.3516 59.9422 14.4986 59.9072C14.6453 59.8722 14.7912 59.8314 14.9362 59.7847C15.0813 59.741 15.2253 59.6943 15.3682 59.6447C15.5109 59.5922 15.6525 59.5368 15.793 59.4785C15.9333 59.4173 16.072 59.3546 16.2093 59.2904C16.3469 59.2234 16.4829 59.1519 16.6172 59.0761C16.7513 59.0032 16.8838 58.9259 17.0146 58.8442C17.1452 58.7626 17.2739 58.678 17.4008 58.5905C17.5279 58.503 17.6527 58.4112 17.7753 58.3149C17.8981 58.2216 18.0186 58.1239 18.1369 58.0218C18.2552 57.9198 18.3711 57.8163 18.4848 57.7113C18.5983 57.6034 18.7093 57.4926 18.8179 57.3788C18.9262 57.2651 19.032 57.1484 19.1353 57.0289C19.2385 56.9093 19.3391 56.7883 19.4369 56.6658C19.5346 56.5404 19.6294 56.4121 19.7213 56.2809C19.8133 56.1525 19.9022 56.0213 19.988 55.8871C20.0741 55.753 20.157 55.6159 20.2366 55.4759C20.3163 55.3389 20.3928 55.1989 20.4663 55.056C20.5395 54.9131 20.6095 54.7673 20.6763 54.6186C20.743 54.4728 20.8065 54.3255 20.8665 54.1767C20.9266 54.0251 20.9832 53.8735 21.0363 53.7218C21.0894 53.5673 21.139 53.4127 21.1851 53.2581C21.2312 53.1007 21.2737 52.9432 21.3126 52.7857C21.3518 52.6282 21.3872 52.4693 21.4188 52.3089C21.4504 52.1485 21.4786 51.9881 21.5033 51.8277C21.5277 51.6644 21.5485 51.5026 21.5656 51.3422C21.5825 51.1788 21.5958 51.0155 21.6054 50.8522C21.6154 50.6889 21.6214 50.5256 21.6236 50.3623C21.6257 50.199 21.6242 50.0342 21.6191 49.868C21.614 49.7047 21.6052 49.5414 21.5926 49.3781C21.58 49.2148 21.5636 49.0529 21.5435 48.8925C21.5237 48.7292 21.5001 48.5674 21.4727 48.407C21.4454 48.2466 21.4144 48.0862 21.3798 47.9258C21.3449 47.7683 21.3066 47.6108 21.2647 47.4533C21.2232 47.2959 21.1779 47.1399 21.1288 46.9853C21.08 46.8307 21.0276 46.6761 20.9715 46.5216C20.9157 46.3699 20.8565 46.2197 20.7937 46.071C20.731 45.9223 20.6649 45.7751 20.5954 45.6292C20.5262 45.4864 20.4536 45.3434 20.3774 45.2005C20.3015 45.0605 20.2225 44.922 20.1405 44.785C20.0582 44.6479 19.9729 44.5123 19.8847 44.3781C19.7962 44.2469 19.7047 44.1172 19.6103 43.9889C19.5162 43.8605 19.4191 43.7351 19.3191 43.6126C19.2191 43.4901 19.1164 43.3706 19.011 43.2539C18.9056 43.1373 18.7977 43.0235 18.6872 42.9127C18.5767 42.8019 18.4637 42.694 18.3481 42.589C18.2325 42.484 18.1146 42.382 17.9945 42.2828C17.8744 42.1837 17.7521 42.0889 17.6277 41.9985C17.5032 41.9052 17.3768 41.8162 17.2483 41.7317C17.1199 41.6442 16.9896 41.5625 16.8574 41.4867C16.7252 41.4079 16.5912 41.3321 16.4555 41.2592C16.3201 41.1892 16.1829 41.1221 16.044 41.058C15.9054 40.9938 15.7654 40.934 15.6241 40.8786C15.4827 40.8232 15.3402 40.7707 15.1965 40.7212C15.0525 40.6716 14.9077 40.6264 14.762 40.5856C14.6162 40.5447 14.4695 40.5083 14.322 40.4762Z" fill="#FF0000"/>
<path d="M8.80733 51.2721C8.725 51.2604 8.64213 51.2546 8.55873 51.2546C8.4756 51.2546 8.39287 51.2604 8.31054 51.2721C8.22795 51.2838 8.14644 51.3013 8.06599 51.3246C7.98581 51.3479 7.90723 51.3771 7.83027 51.4121C7.75331 51.4471 7.6789 51.4865 7.60703 51.5302C7.53489 51.5769 7.46596 51.6264 7.40026 51.6789C7.33429 51.7343 7.27196 51.7941 7.21323 51.8583C7.1545 51.9225 7.09994 51.991 7.04952 52.0639C6.99911 52.1368 6.95323 52.2126 6.91194 52.2914C6.87064 52.3701 6.83431 52.4503 6.80293 52.5319C6.77156 52.6165 6.74541 52.7026 6.72449 52.7901C6.70357 52.8775 6.68803 52.9665 6.67784 53.0569C6.66765 53.1473 6.66295 53.2377 6.66375 53.3281C6.66456 53.4185 6.67073 53.5089 6.68226 53.5993C6.69406 53.6897 6.71122 53.7786 6.73375 53.8661C6.75627 53.9507 6.78389 54.0353 6.81661 54.1198C6.84932 54.2044 6.887 54.2846 6.92964 54.3604C6.97228 54.4392 7.01934 54.5135 7.07083 54.5835C7.12232 54.6535 7.17795 54.7206 7.23776 54.7847C7.29756 54.8489 7.36086 54.9072 7.42763 54.9597C7.49441 55.0151 7.56411 55.0647 7.63678 55.1084C7.70946 55.1522 7.78454 55.1901 7.86204 55.2222C7.93954 55.2572 8.01866 55.2849 8.09938 55.3053C8.18009 55.3286 8.26175 55.3447 8.34435 55.3534C8.37492 55.3563 8.40562 55.3593 8.43646 55.3622C8.46703 55.3651 8.49774 55.3665 8.52858 55.3665C8.55942 55.3665 8.59012 55.3665 8.62069 55.3665C8.65153 55.3636 8.68236 55.3607 8.7132 55.3578C8.74377 55.3549 8.77433 55.352 8.8049 55.3491C8.83547 55.3432 8.86578 55.3374 8.89581 55.3315C8.92612 55.3257 8.9563 55.3199 8.98633 55.314C9.01637 55.3053 9.04613 55.2966 9.07563 55.2878C9.10539 55.2791 9.13475 55.2688 9.16371 55.2572C9.19294 55.2455 9.22191 55.2338 9.2506 55.2222C9.27929 55.2105 9.30758 55.1974 9.33547 55.1828C9.36363 55.1712 9.39137 55.1566 9.41873 55.1391C9.44608 55.1245 9.47317 55.1085 9.49999 55.091C9.52654 55.0764 9.55281 55.0603 9.57882 55.0428C9.60484 55.0224 9.63031 55.0034 9.65525 54.9859C9.68046 54.9655 9.70514 54.9452 9.72927 54.9247C9.75341 54.9043 9.77699 54.8825 9.80005 54.8591C9.82338 54.8387 9.8462 54.8168 9.86845 54.7935C9.89071 54.7702 9.9123 54.7454 9.93322 54.7191C9.9544 54.6958 9.97505 54.671 9.99516 54.6448C10.015 54.6215 10.0344 54.5966 10.0535 54.5704C10.0722 54.5442 10.0905 54.5165 10.1082 54.4873C10.1259 54.4611 10.1429 54.4333 10.1593 54.4042C10.1756 54.375 10.1913 54.3459 10.2063 54.3167C10.2213 54.2875 10.2358 54.2583 10.2498 54.2292C10.2635 54.2 10.2765 54.1694 10.2888 54.1373C10.3014 54.1082 10.3132 54.0776 10.3242 54.0455C10.3352 54.0134 10.3455 53.9813 10.3552 53.9492C10.3648 53.9201 10.3737 53.888 10.3817 53.853C10.39 53.8209 10.3975 53.7889 10.4042 53.7568C10.4109 53.7247 10.4168 53.6926 10.4219 53.6605C10.4273 53.6256 10.4319 53.592 10.4356 53.5599C10.4394 53.5279 10.4423 53.4943 10.4445 53.4593C10.4466 53.4272 10.4481 53.3937 10.4489 53.3587C10.4497 53.3266 10.4497 53.2931 10.4489 53.2581C10.4481 53.226 10.4465 53.1939 10.4441 53.1619C10.4419 53.1269 10.439 53.0933 10.4352 53.0613C10.4315 53.0263 10.4269 52.9927 10.4215 52.9606C10.4164 52.9285 10.4105 52.8965 10.4038 52.8644C10.3971 52.8294 10.3896 52.7959 10.3813 52.7638C10.3733 52.7317 10.3644 52.6996 10.3548 52.6676C10.3451 52.6384 10.3348 52.6078 10.3238 52.5757C10.3128 52.5436 10.3011 52.513 10.2888 52.4838C10.2765 52.4517 10.2633 52.4211 10.2494 52.392C10.2357 52.3628 10.2213 52.3336 10.2063 52.3044C10.1913 52.2753 10.1756 52.2461 10.1593 52.217C10.1429 52.1878 10.1259 52.1601 10.1082 52.1339C10.0905 52.1047 10.0722 52.077 10.0535 52.0508C10.0347 52.0245 10.0154 51.9997 9.99555 51.9764C9.97544 51.9501 9.95492 51.9254 9.934 51.902C9.91282 51.8758 9.8911 51.851 9.86885 51.8277C9.84686 51.8043 9.82419 51.7824 9.80086 51.762C9.7778 51.7387 9.75422 51.7169 9.73008 51.6965C9.70595 51.676 9.68139 51.6556 9.65645 51.6352C9.63152 51.6177 9.60604 51.6002 9.58003 51.5827C9.55428 51.5623 9.52801 51.5448 9.50119 51.5302C9.47465 51.5127 9.4477 51.4967 9.42035 51.4821C9.39299 51.4646 9.36523 51.45 9.33707 51.4383C9.30918 51.4237 9.28089 51.4106 9.2522 51.399C9.22377 51.3873 9.19496 51.3757 9.16573 51.364C9.13677 51.3523 9.10753 51.3421 9.07803 51.3333C9.04826 51.3246 9.0185 51.3159 8.98874 51.3071C8.9587 51.3013 8.92852 51.2954 8.89822 51.2896C8.86818 51.2809 8.8379 51.275 8.80733 51.2721Z" fill="black"/>
<path d="M16.7108 45.371C16.6829 45.3594 16.6547 45.3477 16.6263 45.3361C16.5981 45.3244 16.5696 45.3142 16.5406 45.3054C16.5117 45.2937 16.4826 45.285 16.4533 45.2792C16.4241 45.2704 16.3948 45.2631 16.3653 45.2573C16.3355 45.2485 16.3057 45.2428 16.276 45.2398C16.2462 45.234 16.2163 45.2296 16.1863 45.2267C16.1562 45.2238 16.1261 45.2209 16.0958 45.2179C16.0657 45.215 16.0356 45.2136 16.0053 45.2136C15.9752 45.2136 15.945 45.215 15.9147 45.2179C15.8847 45.2179 15.8547 45.2194 15.8246 45.2223C15.7946 45.2252 15.7646 45.2296 15.7345 45.2355C15.7048 45.2413 15.675 45.2471 15.6452 45.2529C15.6157 45.2587 15.5864 45.2661 15.5572 45.2748C15.5277 45.2806 15.4984 45.2894 15.4695 45.3011C15.4408 45.3098 15.4121 45.32 15.3834 45.3317C15.355 45.3404 15.3268 45.3521 15.2989 45.3667C15.271 45.3783 15.2434 45.3915 15.216 45.4061C15.1887 45.4177 15.1616 45.4323 15.1348 45.4498C15.1083 45.4644 15.082 45.4804 15.0559 45.4979C15.0302 45.5125 15.0047 45.53 14.9795 45.5504C14.9543 45.5679 14.9295 45.5869 14.9051 45.6073C14.881 45.6248 14.8571 45.6437 14.8335 45.6641C14.8102 45.6875 14.7872 45.7093 14.7647 45.7298C14.7425 45.7531 14.7206 45.7764 14.6992 45.7997C14.6777 45.8201 14.6568 45.8435 14.6364 45.8697C14.6163 45.893 14.5966 45.9179 14.5773 45.9441C14.558 45.9674 14.5393 45.9922 14.5214 46.0184C14.5034 46.0476 14.486 46.0753 14.4691 46.1016C14.4522 46.1278 14.436 46.1555 14.4204 46.1847C14.4049 46.2109 14.3898 46.2386 14.3754 46.2678C14.3611 46.297 14.3476 46.3261 14.3347 46.3553C14.3216 46.3873 14.3092 46.418 14.2977 46.4472C14.2859 46.4763 14.2749 46.5069 14.2647 46.539C14.2545 46.5711 14.245 46.6017 14.2362 46.6309C14.2273 46.6629 14.2191 46.695 14.2116 46.7271C14.2041 46.7592 14.1974 46.7913 14.1915 46.8234C14.1854 46.8554 14.1801 46.8875 14.1758 46.9196C14.1713 46.9517 14.1674 46.9852 14.1642 47.0202C14.1612 47.0523 14.1589 47.0843 14.1573 47.1164C14.1557 47.1485 14.1549 47.1821 14.1549 47.2171C14.1549 47.2491 14.1556 47.2812 14.1569 47.3133C14.1583 47.3454 14.1604 47.3789 14.1634 47.4139C14.1663 47.446 14.1699 47.478 14.1742 47.5101C14.1788 47.5422 14.184 47.5743 14.1899 47.6063C14.1956 47.6384 14.2021 47.6705 14.2096 47.7026C14.2169 47.7347 14.2248 47.7668 14.2334 47.7988C14.2422 47.8309 14.2517 47.8615 14.2619 47.8907C14.2721 47.9228 14.283 47.9534 14.2945 47.9826C14.306 48.0147 14.3182 48.0453 14.3311 48.0744C14.344 48.1036 14.3575 48.1327 14.3717 48.1619C14.3859 48.1911 14.4008 48.2202 14.4164 48.2494C14.4319 48.2786 14.4482 48.3063 14.465 48.3325C14.4817 48.3587 14.499 48.385 14.5169 48.4113C14.5352 48.4375 14.5538 48.4637 14.5729 48.49C14.5922 48.5162 14.6119 48.541 14.632 48.5644C14.6524 48.5906 14.6733 48.6154 14.6947 48.6387C14.7162 48.6621 14.738 48.6839 14.7603 48.7043C14.7828 48.7276 14.8058 48.7495 14.8291 48.7699C14.8524 48.7903 14.8763 48.8108 14.9007 48.8312C14.9251 48.8487 14.9498 48.8676 14.9747 48.8881C14.9999 48.9055 15.0255 48.923 15.0515 48.9405C15.0775 48.9551 15.1038 48.9712 15.1304 48.9887C15.1572 49.0032 15.1843 49.0178 15.2116 49.0324C15.239 49.047 15.2666 49.0601 15.2945 49.0718C15.3224 49.0835 15.3504 49.0951 15.3785 49.1068C15.407 49.1184 15.4357 49.1286 15.4646 49.1374C15.4933 49.1461 15.5223 49.1549 15.5515 49.1636C15.5807 49.1724 15.6101 49.1797 15.6396 49.1855C15.6691 49.1914 15.6987 49.1972 15.7285 49.203C15.7583 49.2059 15.7882 49.2103 15.8182 49.2161C15.848 49.219 15.878 49.2205 15.9083 49.2205C15.9383 49.2234 15.9684 49.2249 15.9984 49.2249C16.0284 49.2249 16.0585 49.2234 16.0885 49.2205C16.1185 49.2205 16.1486 49.219 16.1786 49.2161C16.2086 49.2103 16.2386 49.2059 16.2683 49.203C16.2981 49.1972 16.3277 49.1914 16.3572 49.1855C16.3867 49.1797 16.4161 49.1724 16.4453 49.1636C16.4745 49.1549 16.5035 49.1461 16.5322 49.1374C16.5612 49.1286 16.5897 49.1184 16.6179 49.1068C16.6463 49.0951 16.6744 49.0835 16.7023 49.0718C16.73 49.0601 16.7575 49.047 16.7848 49.0324C16.8122 49.0178 16.8391 49.0032 16.8657 48.9887C16.8922 48.9741 16.9183 48.958 16.9441 48.9405C16.9698 48.923 16.9953 48.9055 17.0205 48.8881C17.0455 48.8706 17.07 48.8516 17.0941 48.8312C17.1185 48.8108 17.1423 48.7903 17.1653 48.7699C17.1887 48.7495 17.2114 48.7291 17.2337 48.7087C17.2562 48.6854 17.2781 48.6621 17.2993 48.6387C17.3207 48.6154 17.3415 48.5921 17.3616 48.5687C17.382 48.5454 17.4017 48.5206 17.4208 48.4943C17.4398 48.4681 17.4583 48.4419 17.4763 48.4156C17.4942 48.3894 17.5117 48.3631 17.5286 48.3369C17.5455 48.3106 17.5615 48.283 17.5768 48.2538C17.5924 48.2246 17.6072 48.1954 17.6215 48.1663C17.6357 48.14 17.6494 48.1109 17.6625 48.0788C17.6754 48.0496 17.6876 48.0204 17.6991 47.9913C17.7106 47.9621 17.7216 47.9315 17.7321 47.8994C17.7423 47.8703 17.7518 47.8397 17.7606 47.8076C17.7695 47.7755 17.7775 47.7434 17.7848 47.7113C17.7923 47.6792 17.799 47.6472 17.8049 47.6151C17.8111 47.583 17.8164 47.5509 17.821 47.5189C17.8253 47.4868 17.829 47.4547 17.8323 47.4226C17.8352 47.3906 17.8375 47.357 17.8391 47.322C17.8407 47.29 17.8415 47.2578 17.8415 47.2258C17.8418 47.1937 17.8412 47.1602 17.8399 47.1252C17.8385 47.0931 17.8364 47.061 17.8335 47.0289C17.8305 46.9969 17.8269 46.9648 17.8226 46.9327C17.8183 46.9006 17.8132 46.8685 17.8073 46.8364C17.8017 46.8044 17.7952 46.7723 17.788 46.7402C17.7807 46.7081 17.7729 46.6761 17.7643 46.644C17.7554 46.6119 17.746 46.5813 17.7361 46.5521C17.7262 46.5201 17.7155 46.4894 17.7039 46.4602C17.6924 46.4282 17.6803 46.3976 17.6677 46.3684C17.6549 46.3392 17.6413 46.3101 17.6271 46.2809C17.6132 46.2518 17.5984 46.2226 17.5829 46.1934C17.5676 46.1672 17.5516 46.1395 17.535 46.1103C17.5184 46.0841 17.5011 46.0578 17.4831 46.0316C17.4651 46.0053 17.4466 45.9791 17.4276 45.9529C17.4085 45.9266 17.389 45.9018 17.3689 45.8785C17.3487 45.8551 17.3281 45.8318 17.3069 45.8085C17.2857 45.7851 17.264 45.7618 17.2418 45.7385C17.2195 45.7181 17.1967 45.6962 17.1734 45.6729C17.15 45.6525 17.1263 45.6335 17.1022 45.616C17.078 45.5956 17.0535 45.5767 17.0285 45.5592C17.0036 45.5387 16.9783 45.5212 16.9525 45.5067C16.9265 45.4892 16.9003 45.4717 16.8737 45.4542C16.8472 45.4396 16.8203 45.425 16.7933 45.4104C16.7662 45.3959 16.7387 45.3827 16.7108 45.371Z" fill="black"/>
<path d="M10.0683 44.7499C10.0439 44.7353 10.0191 44.7207 9.99385 44.7061C9.96864 44.6945 9.94316 44.6813 9.91742 44.6668C9.89168 44.6551 9.86568 44.6449 9.8394 44.6362C9.81312 44.6245 9.7867 44.6143 9.76015 44.6055C9.73333 44.5939 9.70638 44.5851 9.6793 44.5793C9.65222 44.5705 9.625 44.5632 9.59764 44.5574C9.57029 44.5487 9.5428 44.5428 9.51518 44.5399C9.48729 44.5341 9.4594 44.5297 9.43151 44.5268C9.40362 44.521 9.37572 44.5181 9.34784 44.5181C9.31968 44.5151 9.29166 44.5137 9.26377 44.5137C9.23562 44.5137 9.2076 44.5137 9.17971 44.5137C9.15155 44.5137 9.12354 44.5151 9.09565 44.5181C9.06749 44.521 9.03945 44.5239 9.01156 44.5268C8.98367 44.5297 8.95593 44.5341 8.92831 44.5399C8.90069 44.5457 8.87319 44.5516 8.84584 44.5574C8.81849 44.5662 8.79127 44.5735 8.76418 44.5793C8.7371 44.588 8.71028 44.5968 8.68373 44.6055C8.65718 44.6172 8.63078 44.6289 8.6045 44.6405C8.57822 44.6493 8.55235 44.6609 8.52687 44.6755C8.50113 44.6872 8.47578 44.7003 8.45084 44.7149C8.42563 44.7265 8.40083 44.7397 8.37642 44.7543C8.35202 44.7718 8.32801 44.7878 8.30441 44.8024C8.28055 44.8199 8.25721 44.8374 8.23442 44.8549C8.21136 44.8724 8.18872 44.8899 8.16646 44.9074C8.14447 44.9278 8.12273 44.9482 8.10128 44.9686C8.08009 44.9861 8.05932 45.0065 8.03894 45.0299C8.01856 45.0503 7.99872 45.0707 7.97941 45.0911C7.9601 45.1144 7.9412 45.1377 7.92269 45.1611C7.90446 45.1844 7.88663 45.2077 7.8692 45.2311C7.85177 45.2544 7.83501 45.2792 7.81892 45.3054C7.80256 45.3287 7.78687 45.3535 7.77185 45.3798C7.75684 45.406 7.74234 45.4323 7.7284 45.4586C7.71445 45.4848 7.70105 45.511 7.68818 45.5373C7.67558 45.5664 7.6635 45.5942 7.65197 45.6204C7.64044 45.6496 7.62958 45.6787 7.61939 45.7079C7.60893 45.7341 7.59929 45.7618 7.59044 45.791C7.5816 45.8202 7.57328 45.8493 7.5655 45.8785C7.55799 45.9106 7.55102 45.9412 7.54458 45.9703C7.53842 45.9995 7.53279 46.0287 7.52769 46.0578C7.52287 46.0899 7.51856 46.1205 7.5148 46.1497C7.51132 46.1788 7.50838 46.2095 7.50596 46.2415C7.50382 46.2707 7.50235 46.3014 7.50155 46.3334C7.50074 46.3626 7.50047 46.3932 7.50073 46.4253C7.50127 46.4544 7.50247 46.485 7.50434 46.5171C7.50622 46.5463 7.50891 46.5769 7.5124 46.609C7.51561 46.6382 7.5195 46.6673 7.52406 46.6965C7.52862 46.7286 7.53385 46.7592 7.53975 46.7883C7.54591 46.8175 7.55261 46.8467 7.55985 46.8758C7.56709 46.905 7.57501 46.9342 7.58359 46.9633C7.59218 46.9925 7.60144 47.0217 7.61136 47.0508C7.62128 47.08 7.63187 47.1091 7.64313 47.1383C7.65439 47.1645 7.6662 47.1922 7.67853 47.2214C7.69114 47.2476 7.70426 47.2739 7.71794 47.3001C7.73135 47.3264 7.74557 47.3527 7.76058 47.3789C7.77533 47.4052 7.79075 47.4314 7.80684 47.4576C7.82266 47.4839 7.83915 47.5087 7.85631 47.532C7.87347 47.5553 7.89118 47.5786 7.90941 47.602C7.92765 47.6253 7.9463 47.6486 7.96534 47.672C7.98465 47.6953 8.00435 47.7172 8.02446 47.7376C8.04457 47.758 8.06522 47.7784 8.0864 47.7988C8.10759 47.8192 8.12918 47.8397 8.15117 47.8601C8.17316 47.8776 8.19554 47.8951 8.21834 47.9126C8.24113 47.9301 8.26432 47.9476 8.28792 47.9651C8.31151 47.9826 8.33552 47.9986 8.35992 48.0132C8.3846 48.0278 8.40955 48.0423 8.43476 48.0569C8.45996 48.0715 8.48556 48.0846 8.51158 48.0963C8.53732 48.1108 8.56332 48.124 8.5896 48.1357C8.61615 48.1473 8.64284 48.1575 8.66966 48.1663C8.69675 48.1779 8.72397 48.1867 8.75132 48.1925C8.77867 48.2013 8.80616 48.21 8.83379 48.2188C8.86141 48.2246 8.88915 48.2304 8.91704 48.2363C8.9452 48.2421 8.97336 48.2465 9.00152 48.2494C9.02968 48.2552 9.05797 48.2596 9.08639 48.2625C9.11455 48.2654 9.14284 48.2669 9.17126 48.2669C9.19969 48.2669 9.22811 48.2669 9.25653 48.2669C9.28496 48.2669 9.3134 48.2654 9.34182 48.2625C9.37025 48.2625 9.39854 48.2596 9.42669 48.2538C9.45485 48.2509 9.48299 48.2465 9.51115 48.2407C9.53931 48.2377 9.5672 48.2319 9.59482 48.2231C9.62271 48.2173 9.65033 48.21 9.67768 48.2013C9.7053 48.1955 9.73267 48.1867 9.75975 48.175C9.78657 48.1663 9.81337 48.1561 9.84018 48.1444C9.86673 48.1357 9.89303 48.124 9.91904 48.1094C9.94505 48.0977 9.97078 48.0846 9.99625 48.07C10.0217 48.0584 10.0468 48.0438 10.0715 48.0263C10.0964 48.0117 10.1209 47.9972 10.1451 47.9826C10.1692 47.9651 10.193 47.9475 10.2163 47.93C10.2393 47.9125 10.2622 47.8936 10.2847 47.8732C10.3072 47.8557 10.3293 47.8368 10.351 47.8163C10.3725 47.7959 10.3935 47.7755 10.4142 47.7551C10.4348 47.7318 10.455 47.7099 10.4745 47.6895C10.4944 47.6661 10.5136 47.6428 10.5321 47.6195C10.5508 47.5961 10.5689 47.5728 10.5864 47.5495C10.6041 47.5232 10.6211 47.4985 10.6374 47.4751C10.6538 47.4489 10.6696 47.4226 10.6849 47.3964C10.7002 47.3701 10.7148 47.3439 10.7288 47.3177C10.7427 47.2914 10.7561 47.2637 10.769 47.2345C10.7818 47.2083 10.7941 47.1806 10.8056 47.1514C10.8171 47.1252 10.828 47.0975 10.8382 47.0683C10.8486 47.0391 10.8583 47.01 10.8671 46.9808C10.876 46.9517 10.8843 46.9211 10.8921 46.889C10.8996 46.8598 10.9064 46.8306 10.9126 46.8015C10.9187 46.7723 10.9242 46.7417 10.9291 46.7096C10.9342 46.6805 10.9385 46.6498 10.9419 46.6177C10.9454 46.5886 10.9481 46.558 10.95 46.5259C10.9521 46.4967 10.9535 46.4661 10.954 46.434C10.9548 46.402 10.9548 46.3713 10.954 46.3422C10.9532 46.3101 10.9517 46.2795 10.9496 46.2503C10.9474 46.2182 10.9446 46.1876 10.9411 46.1584C10.9376 46.1264 10.9335 46.0958 10.9287 46.0666C10.9236 46.0345 10.9179 46.0039 10.9118 45.9747C10.9053 45.9426 10.8984 45.912 10.8908 45.8829C10.8831 45.8537 10.8748 45.8246 10.8659 45.7954C10.8568 45.7662 10.8471 45.737 10.837 45.7079C10.8265 45.6787 10.8155 45.651 10.804 45.6248C10.7924 45.5956 10.7802 45.5664 10.7674 45.5373C10.7545 45.511 10.741 45.4848 10.7267 45.4586C10.7128 45.4323 10.6982 45.406 10.6829 45.3798C10.6673 45.3535 10.6514 45.3273 10.635 45.3011C10.6187 45.2748 10.6016 45.25 10.5839 45.2267C10.5662 45.2034 10.5482 45.18 10.5297 45.1567C10.5109 45.1334 10.4917 45.11 10.4721 45.0867C10.4523 45.0663 10.432 45.0444 10.4114 45.0211C10.3907 45.0007 10.3695 44.9803 10.3478 44.9599C10.3261 44.9395 10.304 44.9205 10.2815 44.903C10.2592 44.8826 10.2363 44.8636 10.2127 44.8461C10.1893 44.8286 10.1656 44.8126 10.1415 44.798C10.1176 44.7805 10.0932 44.7645 10.0683 44.7499Z" fill="black"/>
<path d="M16.3074 52.2957C16.2425 52.252 16.1751 52.2126 16.1051 52.1776C16.0348 52.1426 15.9628 52.112 15.889 52.0857C15.8156 52.0624 15.7408 52.0435 15.6646 52.0289C15.5884 52.0172 15.5119 52.0099 15.4349 52.007C15.3577 52.007 15.2809 52.0114 15.2044 52.0202C15.128 52.0289 15.0524 52.0449 14.9776 52.0683C14.903 52.0887 14.8301 52.1149 14.7587 52.147C14.6874 52.1791 14.6185 52.2155 14.552 52.2563C14.4852 52.2972 14.4215 52.3439 14.3609 52.3963C14.3001 52.4488 14.2428 52.5042 14.1892 52.5626C14.1353 52.6238 14.0854 52.6879 14.0395 52.755C13.9939 52.8221 13.9526 52.8921 13.9156 52.965C13.8789 53.0379 13.8469 53.1137 13.8195 53.1925C13.7922 53.2712 13.7698 53.3514 13.7523 53.4331C13.7352 53.5147 13.7231 53.5978 13.7161 53.6824C13.7091 53.764 13.7075 53.8472 13.7113 53.9318C13.715 54.0163 13.724 54.0994 13.7382 54.1811C13.7525 54.2627 13.7716 54.3429 13.7958 54.4217C13.8202 54.5004 13.8494 54.5777 13.8835 54.6535C13.9175 54.7294 13.956 54.8023 13.9989 54.8723C14.0421 54.9393 14.0893 55.0049 14.1405 55.0691C14.192 55.1303 14.2471 55.1887 14.3058 55.2441C14.3645 55.2966 14.4262 55.3461 14.4909 55.3928C14.5557 55.4365 14.6232 55.4759 14.6932 55.5109C14.7412 55.5342 14.7901 55.5561 14.84 55.5765C14.8899 55.594 14.9406 55.6101 14.992 55.6246C15.0433 55.6392 15.095 55.6509 15.1473 55.6596C15.1996 55.6684 15.2522 55.6742 15.305 55.6771C15.3578 55.68 15.4106 55.68 15.4635 55.6771C15.5163 55.6742 15.5689 55.6698 15.6212 55.664C15.6737 55.6552 15.7257 55.6451 15.7772 55.6334C15.8287 55.6188 15.8795 55.6027 15.9297 55.5852C15.9798 55.5677 16.0292 55.5474 16.0777 55.524C16.1262 55.5007 16.1736 55.4759 16.2197 55.4497C16.2658 55.4205 16.3107 55.3899 16.3545 55.3578C16.3979 55.3257 16.44 55.2907 16.4807 55.2528C16.5212 55.2149 16.5601 55.1755 16.5974 55.1347C16.6347 55.0939 16.6701 55.0516 16.7036 55.0078C16.7374 54.9641 16.769 54.9189 16.7985 54.8723C16.828 54.8227 16.8555 54.7731 16.881 54.7235C16.9062 54.6739 16.9292 54.6229 16.9502 54.5704C16.9711 54.515 16.9897 54.461 17.0061 54.4085C17.0222 54.3531 17.036 54.2977 17.0475 54.2423C17.059 54.184 17.068 54.1271 17.0745 54.0717C17.0812 54.0134 17.0853 53.9565 17.0869 53.9011C17.0883 53.8428 17.0873 53.7844 17.0841 53.7261C17.0806 53.6678 17.0747 53.611 17.0664 53.5556C17.0581 53.4972 17.0474 53.4404 17.0342 53.385C17.0211 53.3296 17.0057 53.2756 16.988 53.2231C16.97 53.1677 16.9498 53.1138 16.9272 53.0613C16.9047 53.0088 16.88 52.9577 16.8532 52.9081C16.8261 52.8615 16.7972 52.8148 16.7663 52.7682C16.7352 52.7215 16.7022 52.6763 16.6674 52.6325C16.6323 52.5888 16.5955 52.5465 16.5572 52.5057C16.5186 52.4678 16.4785 52.4313 16.4369 52.3963C16.3951 52.3614 16.3519 52.3278 16.3074 52.2957Z" fill="black"/>
<path d="M10.2504 2.92651C9.25971 3.34645 8.12578 3.23271 7.15275 3.62203C6.51037 3.87574 6.00918 4.2913 5.81168 5.03494C5.60613 5.80483 5.83661 6.43473 6.16605 7.09964C7.39812 8.09262 8.98096 7.47145 10.3832 7.85639C11.2806 8.10136 11.6177 8.50384 12.1189 9.26499C12.4314 13.1669 3.26143 17.2045 1.05834 23.0793C0.304531 25.0915 0.757049 28.241 1.55832 30.1876C2.34994 32.108 3.74736 33.6259 5.5832 34.3389C7.10248 34.9294 8.7915 35.0213 10.2533 34.1902C11.6334 33.4072 12.7826 32.143 13.2954 30.5376C13.3232 30.4982 13.3554 30.4632 13.3787 30.4239C14.1277 29.0765 13.9217 27.0906 13.6365 25.6164C13.4748 24.7809 13.0625 24.2953 12.3811 23.8754C11.6225 23.4117 10.816 23.193 9.99501 23.4642C9.32809 25.3102 10.8546 27.3618 9.95681 29.3346C9.66317 29.9821 9.18088 30.3845 8.54372 30.5682C7.92104 30.7475 7.31767 30.6863 6.77263 30.297C5.95889 29.7196 5.41666 28.6172 5.23283 27.6024C3.94404 20.459 13.0541 18.2106 15.6993 13.1844C16.3348 11.9771 16.5452 10.831 16.1868 9.47933C15.3698 6.38664 12.6615 4.40943 10.2504 2.92651Z" fill="black"/>
<path d="M65.328 67.8078C62.3712 67.7403 56.8935 67.1047 54.2613 68.0559C53.4858 68.336 53.3308 68.5978 52.9992 69.2924C53.0445 70.123 53.365 70.4617 53.8867 71.0802C56.3015 71.7493 62.502 72.0384 64.8108 71.0705C65.5498 70.7605 65.6839 70.4614 65.9992 69.7788C65.9767 68.9324 65.7966 68.5038 65.328 67.8078Z" fill="black"/>
</svg>
