<svg width="122" height="146" viewBox="0 0 122 146" fill="none" xmlns="http://www.w3.org/2000/svg">
<path d="M84.1456 0.450498C75.9692 -1.02637 64.6198 1.17726 57.7631 6.33663C52.1732 10.5424 47.528 17.314 46.3209 24.7279C45.5837 29.2546 46.4309 33.4598 46.4007 37.9544C46.3094 51.4066 44.3 59.4923 51.9122 71.494C51.8503 76.894 51.8295 82.2943 51.8496 87.6949C51.7392 87.748 51.6281 87.7987 51.5188 87.8534C43.3996 91.9199 38.8885 107.531 35.9837 116.071C34.486 109.633 32.4302 103.17 31.1688 96.7023C30.967 95.6689 30.8606 94.9739 31.4291 94.0527C31.6844 93.6388 31.6869 93.6562 32.1242 93.5639C34.0013 95.4711 33.7032 99.702 35.6284 101.551C36.0772 101.982 36.234 101.882 36.7892 101.821C37.3135 101.393 37.7346 100.987 37.7828 100.223C38.0747 95.5769 32.5759 90.5626 33.6981 86.0688C34.2767 83.7521 36.8151 82.5216 37.4926 80.1577C38.7558 75.7519 35.9197 76.2058 35.1207 73.7377C34.7834 72.6955 35.2081 71.4428 34.8521 70.3872C34.7316 70.03 33.048 65.8898 32.9768 65.7796C32.3389 64.7893 31.4511 64.1915 30.903 63.0843C31.1742 61.2144 31.364 59.0943 30.7171 57.2914C30.387 56.3725 29.8627 55.6209 28.9997 55.2744C27.1813 54.5438 25.2679 55.5139 23.6612 56.3824C22.9284 53.2761 22.2707 50.205 21.7985 47.0368C23.2207 46.68 24.6138 46.3328 25.9554 45.6854C28.8055 44.3102 31.231 42.1061 32.3572 38.8325C33.0142 36.9222 33.4137 33.947 32.6377 32.0422C31.5355 31.6569 29.5783 32.4133 28.4841 32.7645C24.197 34.1409 22.2599 36.6252 20.1477 40.8408C19.5284 37.6385 18.7132 34.46 17.9804 31.2855C18.9649 30.7923 19.8779 30.3384 20.6539 29.4813C23.6612 26.1597 23.0844 20.4751 23.0546 16.2133C24.2344 15.2095 25.5124 14.1032 26.219 12.6191C26.6703 11.6716 26.7717 10.6572 26.4635 9.63706C26.0816 8.37304 25.2762 7.18033 24.1575 6.62546C23.5728 6.33536 14.4417 5.50192 13.7164 5.58311C12.1924 5.75369 10.6264 6.32331 9.17399 6.8605C6.07754 8.00567 1.75273 10.1498 0.310767 13.6506C-0.0312048 14.4801 -0.127929 15.3946 0.209368 16.2467C0.905898 18.0071 2.50321 18.724 4.01026 19.3673C4.35151 22.0738 4.94592 24.2367 6.08618 26.6664L6.25483 26.9256C8.4451 30.2595 11.2654 30.9453 14.7505 31.5534C15.1626 33.8995 15.8254 36.2165 16.4007 38.5205C13.3737 37.4557 10.2067 38.3453 7.17611 38.9578C7.7457 40.9379 8.462 42.8613 10.0784 44.0787C12.4376 45.8563 15.2245 45.3084 17.8527 44.7891C18.9516 49.4221 19.7068 54.1985 20.5551 58.8945C18.6064 60.8025 16.4539 62.6847 14.8541 64.9625C13.081 67.487 12.4085 70.3118 12.3294 73.4737C12.1924 78.955 14.1896 84.007 14.7405 89.3678C15.5409 97.1499 15.3708 104.997 16.2971 112.815C16.9455 118.285 20.4008 141.632 23.7749 144.088C24.8475 144.869 26.9073 144.904 28.1543 144.946C35.1538 145.181 42.2205 144.963 49.2253 144.955L89.3133 144.943L109.431 144.967C113.14 144.971 117.275 145.357 120.925 144.607L120.781 144.238L121.151 144.482C121.332 144.045 121.364 143.608 121.408 143.138C121.957 137.237 121.454 130.736 121.449 124.767C121.444 118.551 121.537 112.306 121.359 106.094C120.89 89.7075 119.647 73.2438 118.552 56.8934C117.952 47.926 118.025 37.2377 116.211 28.5839C115.121 23.3808 112.752 18.4573 109.694 14.3303C103.215 5.58596 94.1254 1.56987 84.1456 0.450498Z" fill="black"/>
<path d="M62.1092 16.8214C61.8913 16.908 61.6971 16.9796 61.5058 17.1294C55.3489 21.9521 50.8252 28.8547 49.8716 37.1895C51.9381 37.1669 54.1313 36.9608 56.1863 37.1661C57.3435 37.2815 58.7801 37.624 59.5097 38.7018C60.8031 40.6122 58.1393 51.1102 57.7782 54.0056C59.719 54.2348 62.8676 53.522 64.5789 54.4453C64.9892 54.6669 65.4207 55.2215 65.5285 55.7209C65.658 56.3219 65.4872 56.4555 65.211 56.9498C63.2592 58.2493 59.6489 57.9139 57.4385 57.6091C56.5499 57.4866 55.7102 57.1691 55.168 56.3318C53.7059 54.0734 56.5693 44.1863 56.9602 41.0708L49.2718 41.0728C49.2531 44.9161 49.1355 48.8181 49.3699 52.6523C49.8036 59.7486 51.996 67.6342 57.0328 72.4083C60.2364 75.4452 64.2621 76.6789 68.4427 76.2987C68.791 76.2668 69.1385 76.2253 69.4851 76.1743C69.8315 76.1235 70.1766 76.0633 70.5204 75.9935C70.8642 75.924 71.2061 75.8451 71.5463 75.7568C71.8867 75.6686 72.2248 75.571 72.5607 75.4643C72.8966 75.3578 73.2299 75.2421 73.5607 75.1174C73.8913 74.9927 74.219 74.8589 74.5439 74.7162C74.8687 74.5738 75.19 74.4226 75.5079 74.2627C75.8258 74.1026 76.14 73.9339 76.4504 73.7569C76.7609 73.5798 77.0672 73.3944 77.3695 73.2007C77.6716 73.0067 77.9692 72.8048 78.2624 72.595C78.5553 72.3851 78.8435 72.1674 79.1269 71.9417C79.4102 71.716 79.6884 71.4827 79.9615 71.242C80.2343 71.0012 80.5016 70.7533 80.7634 70.4983C81.0251 70.243 81.2812 69.9807 81.5314 69.7114C81.7815 69.4424 82.0253 69.1666 82.2629 68.8841C82.5007 68.6016 82.732 68.3128 82.9569 68.0179C83.0795 67.874 83.1126 67.8213 83.2819 67.702C83.9004 67.2671 84.2683 67.388 84.9479 67.5077C85.2579 67.8597 85.4726 67.9771 85.5369 68.4881C85.6678 69.5267 84.9886 70.5815 84.3999 71.3268C81.384 75.1447 75.7075 78.864 71.1655 79.6992C69.2244 80.0564 67.0949 79.9018 65.1218 80.0532C64.5817 80.5587 64.563 80.5016 64.4864 81.3333C65.2074 83.1723 66.9133 84.5443 68.4258 85.5579C71.7225 87.7664 75.9916 87.3097 79.6048 86.3313C83.6631 85.2325 88.2842 81.918 90.4328 77.9244C90.6155 73.2998 90.5924 68.655 90.6403 64.0264C89.5683 63.0012 88.5205 61.8647 88.35 60.2302C88.1879 58.6707 88.5697 57.1163 89.5054 55.9203C91.1973 53.7575 93.4555 53.61 95.8533 53.4542L96.1312 53.0419C95.5077 51.9934 94.4656 51.1633 93.6238 50.3265C89.4971 46.2235 88.1051 44.0745 87.1817 37.9344C86.9274 37.8588 86.6734 37.7817 86.4197 37.7032C75.0955 34.191 67.8885 28.2351 62.1092 16.8214Z" fill="white"/>
<path d="M75.2127 37.2627C72.8204 37.1295 70.3327 36.9131 67.9443 37.1585C66.8235 37.2734 65.6634 37.4145 64.9097 38.429C64.882 39.2242 64.9748 39.4264 65.4135 40.0614C65.9407 40.8245 66.748 40.8848 67.5466 41.0295C70.0781 41.0802 73.3001 40.4384 75.6202 41.6562L75.897 41.8049C76.4994 41.5908 76.7518 41.2828 77.1653 40.7667C77.3059 40.1098 77.3656 39.866 77.1642 39.1996C76.8392 38.1229 76.0793 37.7182 75.2127 37.2627Z" fill="black"/>
<path d="M69.262 61.6918C67.3842 61.7259 65.2288 62.8716 63.2859 63.1217C61.6034 63.3378 60.1657 62.8228 58.5145 62.7245C57.8572 63.094 57.8457 63.1463 57.5263 63.8269C57.6274 64.6884 57.9489 65.0642 58.4598 65.7048C60.9924 66.8576 63.6825 67.1628 66.3626 66.3791C67.5575 66.0298 68.6877 65.3476 69.2864 64.1072C69.6899 63.2708 69.4828 62.5564 69.262 61.6918Z" fill="black"/>
<path d="M71.8387 42.422C71.7884 42.4004 71.7373 42.3805 71.6855 42.3626C71.634 42.3446 71.5818 42.3285 71.5291 42.3142C71.4766 42.2999 71.4236 42.2878 71.3701 42.2777C71.3167 42.2674 71.2631 42.259 71.2094 42.2524C71.1555 42.246 71.1014 42.2417 71.0472 42.2393C70.9933 42.2369 70.9392 42.2364 70.8851 42.2377C70.8309 42.2393 70.7768 42.2429 70.7229 42.2484C70.6689 42.2537 70.6152 42.2611 70.5618 42.2706C70.5081 42.2799 70.4549 42.2912 70.4021 42.3047C70.3494 42.3179 70.297 42.333 70.245 42.3499C70.1932 42.3671 70.1419 42.3861 70.0911 42.407C70.0403 42.4279 69.9902 42.4504 69.9408 42.4748C69.8914 42.4993 69.8427 42.5256 69.7948 42.5537C69.7471 42.5817 69.7002 42.6114 69.6542 42.6428C69.6082 42.6746 69.5631 42.7077 69.519 42.7423C69.4751 42.7772 69.4322 42.8136 69.3902 42.8514C69.3483 42.8892 69.3077 42.9285 69.2683 42.9695C69.2288 43.0105 69.1905 43.0527 69.1536 43.0963C69.1167 43.14 69.0811 43.1849 69.0468 43.2311C69.0125 43.2774 68.9797 43.3248 68.9483 43.3734C68.9169 43.4221 68.887 43.4719 68.8588 43.5229C68.8302 43.5736 68.8034 43.6254 68.7782 43.6783C68.753 43.7311 68.7294 43.7848 68.7074 43.8392C68.6851 43.8937 68.6646 43.9489 68.6459 44.0049C68.6272 44.061 68.6102 44.1177 68.5948 44.175C68.5795 44.2321 68.5659 44.2898 68.5542 44.3482C68.5424 44.4064 68.5324 44.4649 68.524 44.5239C68.5156 44.5831 68.509 44.6424 68.5042 44.7018C68.4994 44.7613 68.4964 44.8208 68.4952 44.8802C68.494 44.94 68.4946 44.9997 68.497 45.0594C68.4994 45.1192 68.5036 45.1786 68.5096 45.2378C68.5156 45.2973 68.5234 45.3563 68.533 45.415C68.5426 45.4737 68.5538 45.5321 68.5668 45.5902C68.5797 45.6481 68.5945 45.7055 68.611 45.7623C68.6275 45.8191 68.6458 45.8753 68.6657 45.9308C68.6856 45.9865 68.707 46.0414 68.73 46.0953C68.7533 46.1492 68.7781 46.2022 68.8045 46.2542C68.8306 46.3066 68.8584 46.3577 68.8879 46.4077C68.9174 46.4579 68.9483 46.5069 68.9807 46.5547C69.013 46.6026 69.0468 46.6492 69.0821 46.6947C69.1171 46.7401 69.1535 46.7842 69.1914 46.8271C69.2293 46.8696 69.2683 46.9108 69.3086 46.9507C69.3489 46.9907 69.3904 47.0291 69.433 47.0661C69.4757 47.1028 69.5193 47.138 69.5639 47.1715C69.6087 47.2054 69.6544 47.2375 69.7009 47.2679C69.7477 47.298 69.7953 47.3265 69.8437 47.3535C69.8919 47.3805 69.9409 47.4056 69.9908 47.4288C70.0406 47.4521 70.0912 47.4735 70.1425 47.493C70.1799 47.5073 70.2177 47.5207 70.2558 47.5331C70.2939 47.5452 70.3321 47.5565 70.3705 47.5668C70.4091 47.5771 70.4479 47.5863 70.487 47.5945C70.5258 47.6027 70.5649 47.6099 70.6042 47.6159C70.6435 47.6223 70.6828 47.6274 70.7222 47.6314C70.7617 47.6354 70.8013 47.6383 70.8408 47.6401C70.8806 47.642 70.9203 47.6428 70.9599 47.6425C70.9994 47.6422 71.039 47.641 71.0785 47.6389C71.1183 47.6365 71.1579 47.6331 71.1972 47.6286C71.2367 47.6241 71.276 47.6186 71.3151 47.612C71.3544 47.6054 71.3935 47.5978 71.4324 47.5894C71.4712 47.5807 71.5098 47.5709 71.5481 47.56C71.5867 47.5495 71.625 47.5378 71.6629 47.5252C71.7007 47.5122 71.7384 47.4983 71.7758 47.4835C71.8129 47.469 71.8499 47.4533 71.8865 47.4364C71.9232 47.4197 71.9594 47.402 71.9951 47.3832C72.0311 47.3647 72.0666 47.3452 72.1016 47.3246C72.1366 47.304 72.1711 47.2824 72.2051 47.26C72.2392 47.2375 72.2726 47.2142 72.3054 47.1902C72.3385 47.1659 72.371 47.1408 72.4029 47.1149C72.4348 47.089 72.4661 47.0621 72.4967 47.0344C72.5277 47.0069 72.5579 46.9785 72.5874 46.9492C72.6169 46.9201 72.6456 46.8901 72.6737 46.8592C72.7017 46.8285 72.7292 46.7971 72.756 46.7648C72.7829 46.7326 72.8089 46.6995 72.834 46.6657C72.8594 46.6322 72.884 46.5979 72.9078 46.563C72.9317 46.5282 72.9548 46.4926 72.9768 46.4564C72.9991 46.4202 73.0206 46.3835 73.0412 46.3462C73.0618 46.3089 73.0816 46.271 73.1005 46.2324C73.1197 46.1941 73.1379 46.1553 73.1552 46.1159C73.1724 46.0765 73.1887 46.0367 73.2041 45.9966C73.2197 45.9564 73.2343 45.9158 73.2479 45.8749C73.2616 45.8339 73.2744 45.7925 73.2864 45.7508C73.2982 45.709 73.3091 45.667 73.3191 45.6247C73.3292 45.5824 73.3383 45.54 73.3465 45.4975C73.3549 45.4547 73.3622 45.4117 73.3684 45.3686C73.3746 45.3253 73.3799 45.2819 73.3842 45.2386C73.3888 45.1953 73.3923 45.1518 73.3946 45.1082C73.397 45.0646 73.3985 45.0208 73.399 44.977C73.3997 44.9334 73.3993 44.8898 73.3979 44.8461C73.3964 44.8023 73.3941 44.7587 73.3907 44.7153C73.3876 44.6717 73.3834 44.6282 73.3781 44.5849C73.3728 44.5416 73.3667 44.4984 73.3598 44.4553C73.3526 44.4125 73.3445 44.3697 73.3357 44.3268C73.3266 44.2843 73.3166 44.242 73.3058 44.2C73.2948 44.158 73.2831 44.1163 73.2706 44.0751C73.2579 44.0336 73.2442 43.9925 73.2296 43.9518C73.2152 43.9111 73.1999 43.8708 73.1836 43.8309C73.1673 43.7913 73.1501 43.7519 73.1322 43.7128C73.1142 43.6739 73.0953 43.6355 73.0757 43.5974C73.056 43.5596 73.0355 43.5222 73.0142 43.4852C72.9929 43.4485 72.9707 43.4123 72.9477 43.3766C72.9247 43.3409 72.9009 43.3059 72.8765 43.2716C72.852 43.2372 72.8269 43.2035 72.801 43.1705C72.7751 43.1374 72.7483 43.1051 72.7208 43.0734C72.6934 43.0419 72.6654 43.0111 72.6366 42.981C72.6079 42.9509 72.5785 42.9215 72.5485 42.893C72.5186 42.8644 72.488 42.8367 72.4568 42.8097C72.4254 42.7828 72.3935 42.7567 72.3612 42.7316C72.3288 42.7065 72.2959 42.6822 72.2623 42.6587C72.229 42.6352 72.195 42.6126 72.1605 42.5909C72.126 42.5695 72.0911 42.5489 72.0559 42.5291C72.0204 42.5092 71.9846 42.4905 71.9484 42.4728C71.9122 42.4548 71.8756 42.4379 71.8387 42.422Z" fill="black"/>
<path d="M54.0935 43.006C54.0463 42.9901 53.9986 42.9761 53.9504 42.964C53.9025 42.9518 53.854 42.9415 53.8051 42.933C53.7565 42.9246 53.7076 42.9178 53.6584 42.9128C53.6093 42.9081 53.56 42.905 53.5106 42.9037C53.4612 42.9027 53.4119 42.9033 53.3625 42.9057C53.3133 42.9083 53.2642 42.9127 53.215 42.9188C53.1661 42.9251 53.1173 42.9332 53.0687 42.943C53.0202 42.9527 52.9721 42.9644 52.9241 42.9778C52.8764 42.9913 52.8291 43.0065 52.7821 43.0234C52.7353 43.0406 52.6891 43.0594 52.6433 43.0797C52.5975 43.1001 52.5524 43.1223 52.5081 43.1463C52.4637 43.1701 52.4201 43.1955 52.3772 43.2224C52.3345 43.2497 52.2927 43.2783 52.2517 43.3085C52.2107 43.3388 52.1707 43.3706 52.1316 43.4036C52.0925 43.4369 52.0545 43.4716 52.0176 43.5079C51.9804 43.5438 51.9446 43.5812 51.9101 43.62C51.8756 43.6589 51.8421 43.6989 51.8098 43.7402C51.7776 43.7814 51.7468 43.8238 51.7173 43.8674C51.6878 43.911 51.6597 43.9557 51.6328 44.0014C51.606 44.0469 51.5806 44.0934 51.5566 44.1409C51.5329 44.1888 51.5105 44.2373 51.4894 44.2864C51.4685 44.3356 51.4491 44.3855 51.4311 44.4363C51.4134 44.487 51.3972 44.5384 51.3826 44.5905C51.3677 44.6423 51.3546 44.6946 51.3434 44.7475C51.3319 44.8006 51.322 44.854 51.3139 44.9076C51.3055 44.9613 51.2989 45.015 51.2941 45.069C51.2893 45.1231 51.2862 45.1774 51.2847 45.2319C51.2831 45.2863 51.2832 45.3408 51.2851 45.3952C51.287 45.4494 51.2905 45.5036 51.2955 45.5577C51.3008 45.6119 51.3078 45.6657 51.3164 45.7191C51.3248 45.7727 51.3348 45.826 51.3466 45.8788C51.3583 45.9317 51.3718 45.984 51.3869 46.0358C51.402 46.0876 51.4185 46.1388 51.4365 46.1892C51.4547 46.24 51.4745 46.2899 51.4958 46.3391C51.5169 46.3882 51.5396 46.4365 51.5638 46.4838C51.588 46.5311 51.6136 46.5775 51.6407 46.6229C51.6678 46.6686 51.6964 46.7132 51.7263 46.7565C51.7561 46.7999 51.7871 46.842 51.8195 46.883C51.8521 46.9239 51.8857 46.9637 51.9205 47.0023C51.9555 47.0406 51.9916 47.0777 52.0287 47.1137C52.0659 47.1494 52.104 47.1837 52.1431 47.2168C52.1824 47.2498 52.2227 47.2812 52.2639 47.3111C52.3051 47.341 52.3472 47.3694 52.3901 47.3963C52.4333 47.423 52.477 47.4481 52.5214 47.4717C52.566 47.4952 52.6112 47.517 52.657 47.5371C52.703 47.5572 52.7495 47.5755 52.7965 47.5922C52.8435 47.6088 52.8908 47.6238 52.9385 47.637C52.9864 47.6499 53.0348 47.6611 53.0834 47.6707C53.1172 47.6773 53.1512 47.6829 53.1852 47.6877C53.2192 47.6925 53.2534 47.6964 53.2877 47.6996C53.3217 47.7025 53.356 47.7046 53.3905 47.7059C53.4248 47.7073 53.4591 47.7077 53.4934 47.7071C53.5276 47.7066 53.5619 47.7052 53.5962 47.7028C53.6305 47.7007 53.6646 47.6975 53.6987 47.6933C53.7327 47.6893 53.7668 47.6843 53.8008 47.6782C53.8346 47.6724 53.8684 47.6656 53.9022 47.658C53.9358 47.6506 53.9691 47.6421 54.0022 47.6326C54.0355 47.6234 54.0686 47.6132 54.1014 47.6021C54.1343 47.591 54.1669 47.5791 54.1992 47.5664C54.2314 47.5535 54.2634 47.5398 54.2952 47.5256C54.3269 47.511 54.3583 47.4957 54.3895 47.4796C54.4204 47.4635 54.4511 47.4465 54.4815 47.4288C54.512 47.4111 54.5419 47.3928 54.5714 47.3737C54.6009 47.3545 54.63 47.3344 54.6588 47.3135C54.6873 47.2929 54.7155 47.2715 54.7433 47.2493C54.7711 47.2271 54.7984 47.2041 54.8253 47.1803C54.8521 47.1568 54.8784 47.1325 54.904 47.1074C54.9299 47.0822 54.9551 47.0566 54.9796 47.0304C55.0042 47.004 55.0283 46.9771 55.0518 46.9496C55.0753 46.9218 55.0982 46.8937 55.1205 46.8651C55.1428 46.8363 55.1645 46.807 55.1856 46.7771C55.2067 46.747 55.2271 46.7165 55.2467 46.6856C55.2664 46.6546 55.2854 46.6232 55.3039 46.5912C55.3221 46.5592 55.3397 46.5269 55.3568 46.4941C55.3738 46.4613 55.3901 46.428 55.4057 46.3942C55.4213 46.3604 55.4361 46.3263 55.4503 46.2919C55.4644 46.2573 55.4777 46.2224 55.4902 46.1873C55.5029 46.1521 55.5147 46.1167 55.5258 46.081C55.5368 46.0451 55.5471 46.009 55.5567 45.9728C55.5663 45.9363 55.575 45.8997 55.5829 45.863C55.5909 45.8262 55.598 45.7893 55.6045 45.752C55.6107 45.7147 55.6163 45.6775 55.6211 45.6402C55.6259 45.6027 55.6299 45.565 55.6333 45.5272C55.6364 45.4897 55.6387 45.452 55.6401 45.4142C55.6418 45.3764 55.6426 45.3387 55.6426 45.3009C55.6424 45.2631 55.6414 45.2253 55.6398 45.1875C55.6381 45.1497 55.6357 45.1119 55.6326 45.0741C55.6292 45.0366 55.625 44.9991 55.62 44.9615C55.6152 44.924 55.6096 44.8867 55.6031 44.8497C55.5964 44.8125 55.5891 44.7755 55.5811 44.7387C55.573 44.702 55.5641 44.6655 55.5545 44.6293C55.5447 44.5929 55.5342 44.5568 55.5229 44.5211C55.5119 44.4854 55.5 44.45 55.4873 44.4149C55.4746 44.3797 55.4611 44.345 55.4467 44.3106C55.4325 44.276 55.4177 44.2419 55.4021 44.2083C55.3862 44.1748 55.3698 44.1416 55.3528 44.1088C55.3358 44.0758 55.3179 44.0434 55.2992 44.0117C55.2808 43.9797 55.2617 43.9483 55.242 43.9174C55.2222 43.8867 55.2017 43.8564 55.1806 43.8266C55.1595 43.7967 55.1377 43.7674 55.1151 43.7386C55.0928 43.71 55.0698 43.682 55.0461 43.6545C55.0226 43.627 54.9985 43.6002 54.9738 43.5741C54.9491 43.5479 54.9238 43.5223 54.8979 43.4971C54.872 43.4723 54.8457 43.4481 54.8188 43.4246C54.792 43.4011 54.7646 43.3782 54.7368 43.356C54.709 43.3341 54.6806 43.3128 54.6516 43.2922C54.6228 43.2716 54.5937 43.2516 54.5642 43.2323C54.5345 43.2133 54.5044 43.1949 54.474 43.1772C54.4438 43.1598 54.4131 43.1431 54.3819 43.1273C54.3508 43.1112 54.3193 43.096 54.2877 43.0817C54.2558 43.0674 54.2237 43.054 54.1913 43.0413C54.159 43.0286 54.1264 43.0168 54.0935 43.006Z" fill="black"/>
<path d="M81.4114 4.02943C78.6066 3.82912 75.9755 3.97409 73.1966 4.36968C73.7937 4.55476 74.3887 4.74822 74.9816 4.95008C84.1389 8.08905 90.0614 17.0159 92.0154 27.087C93.1999 33.1926 93.4124 39.0878 96.0576 44.7975C99.5823 52.4048 105.699 58.2052 109.279 65.8609C112.491 72.7312 112.609 80.2826 110.479 87.5284C111.454 89.0784 112.646 90.4754 113.771 91.895C115.204 93.9452 116.631 95.9523 117.803 98.202C117.265 92.2894 117.157 86.2706 116.826 80.3353C116.235 69.7922 115.562 59.2556 114.806 48.7256C114.336 41.923 114.343 34.5623 112.635 27.9702C111.522 23.6706 109.411 19.6493 106.745 16.2936C99.8714 7.64352 91.4591 4.77498 81.4114 4.02943Z" fill="white"/>
<path d="M101.337 18.0713C100.543 18.6936 100.089 20.3101 99.4589 21.1876C97.9468 23.2916 95.863 24.7191 94.813 27.2645C94.4376 28.1751 94.2315 29.2213 94.6184 30.1683C95.7652 32.9718 97.9749 31.6141 99.9188 32.3565L99.7696 33.9319C99.9904 34.7957 100.706 35.2009 101.336 35.7043C102.17 35.5584 102.749 35.4074 103.451 34.8762C103.883 33.987 103.744 33.6009 103.633 32.6297C104.119 32.1064 104.377 32.2384 105.048 32.2416C105.394 32.2436 105.738 32.2598 106.084 32.2392C106.835 32.1944 107.37 31.8416 107.854 31.2141C108.426 30.4728 108.618 29.5634 108.517 28.6064C108.16 25.2242 103.741 20.0133 101.337 18.0713Z" fill="black"/>
<path d="M27.9095 58.5058C27.7527 58.5018 27.596 58.5004 27.4392 58.5014C24.3496 58.522 21.2434 62.4498 19.2092 64.7724C13.1332 71.7113 16.3648 79.606 17.7511 87.8072C18.3332 91.2529 18.472 94.6217 18.5202 98.1209C21.7281 98.4015 24.7617 98.042 27.9473 97.6638C27.7488 93.9442 29.1544 92.2047 30.5277 89.0052C30.3022 88.0276 29.9236 86.8764 29.8495 85.8746C29.6406 83.0557 32.9319 82.0369 34.2527 80.0564C34.2991 79.987 34.3426 79.9153 34.3872 79.8443C34.4462 79.4613 34.5235 79.0447 34.5116 78.6558C34.4872 77.857 34.3401 77.5649 33.8331 77.0341C31.9326 76.847 30.377 79.3801 28.6693 80.1468C28.0357 80.431 27.761 80.4155 27.1569 80.1309L26.9091 79.4324C27.2371 77.2541 29.8164 75.8797 31.244 74.4926C31.8837 73.8706 32.0581 73.4659 32.1063 72.5367C31.769 72.0637 31.6856 71.8132 31.1128 71.6721C29.0322 71.1603 27.8085 74.4577 26.2432 75.4131C25.6653 75.7659 25.3338 75.6934 24.7286 75.5178C22.7681 71.9611 30.1394 69.644 30.2163 66.5622C30.2271 66.1337 30.094 66.1075 29.8535 65.8067C26.5956 64.6804 24.8404 68.7782 22.1248 70.0206C21.3948 69.9952 21.4498 70.0147 20.9467 69.4291C20.4929 66.1321 26.2978 63.6022 27.8232 61.0052C28.2799 60.2274 28.1612 59.6229 27.9692 58.7603C27.9501 58.675 27.9293 58.5906 27.9095 58.5058Z" fill="white"/>
<path d="M94.8513 80.3353C94.5162 80.3195 93.3475 80.2203 93.0925 80.3948C91.4941 81.4889 89.8368 84.3752 87.7001 85.8531C81.4317 90.1891 71.5613 93.0802 65.2928 87.1422C64.1903 86.0981 62.8379 83.2942 61.5272 82.9691L61.0583 83.31C60.8487 84.2365 60.936 84.462 61.1903 85.3901C61.9389 86.9127 62.875 88.3838 64.04 89.5533C67.5421 93.0679 72.6479 93.9845 77.2288 93.6808C83.239 93.282 88.1988 91.0315 92.172 85.9478C93.1763 84.663 94.9754 82.0712 94.8513 80.3353Z" fill="white"/>
<path d="M48.745 108.063C48.1204 108.231 47.7047 108.443 47.2649 108.978C45.9689 110.555 45.2487 113.062 44.6564 115.046C40.8649 127.755 46.1121 130.803 46.5953 141.418L48.052 141.401C48.5292 140.866 48.6105 140.713 48.7353 139.973C49.3786 136.16 46.732 131.365 46.047 127.608C45.7492 125.975 45.8103 124.19 45.934 122.54C46.2793 117.934 48.1437 114.331 49.2739 110.034C49.5131 109.125 49.1671 108.816 48.745 108.063Z" fill="white"/>
<path d="M13.1026 9.29706C11.6214 9.16917 10.1572 9.25381 8.84537 10.1044C8.42681 10.7895 8.42968 10.7723 8.55698 11.5863C10.1147 12.286 12.3025 11.077 13.8771 11.9321C14.5895 12.3188 15.0523 13.0749 15.2698 13.8859C14.3162 17.0311 9.4236 15.1923 7.5886 15.9497C7.37716 16.0371 6.96795 16.5439 6.77664 16.727C6.79894 16.7872 6.81943 16.8481 6.84317 16.9075C6.88272 17.0063 6.92658 17.103 6.96722 17.2012C7.10422 17.5312 7.23871 17.8869 7.4577 18.1637C8.08411 18.9548 9.34342 19.1344 10.2402 19.1571C13.2252 19.2326 16.313 17.783 18.4202 15.5098C18.2739 14.4969 18.1282 13.4838 17.7244 12.5489C16.8154 10.445 14.9455 9.9519 13.1026 9.29706Z" fill="white"/>
<path d="M101.246 116.709L101.017 116.729C100.208 116.808 99.7001 116.789 99.1665 117.485C98.941 119.521 98.8357 140.162 99.1424 140.987C99.2273 141.214 99.3819 141.401 99.5016 141.609C100.166 141.577 100.7 141.516 101.332 141.281C101.766 139.849 101.498 119.354 101.246 116.709Z" fill="white"/>
<path d="M72.8934 98.5994C72.8407 98.5812 72.7876 98.5644 72.7341 98.5491C72.6807 98.5335 72.6268 98.5195 72.5727 98.5071C72.5185 98.4946 72.4641 98.4837 72.4094 98.4742C72.355 98.4644 72.3002 98.4562 72.2451 98.4496C72.1902 98.443 72.1352 98.4378 72.08 98.4341C72.0249 98.4304 71.9696 98.4282 71.9143 98.4274C71.8591 98.4268 71.8039 98.4276 71.7485 98.4298C71.6933 98.4321 71.6382 98.4358 71.5831 98.4409C71.5279 98.4461 71.4729 98.4529 71.418 98.4611C71.3634 98.4693 71.3088 98.4789 71.2544 98.49C71.2 98.5011 71.1459 98.5137 71.0922 98.5277C71.0383 98.5417 70.9848 98.5571 70.9319 98.574C70.8786 98.5907 70.8259 98.6089 70.7736 98.6288C70.7214 98.6486 70.6695 98.6697 70.6179 98.6922C70.5666 98.7146 70.5158 98.7384 70.4655 98.7635C70.4151 98.7889 70.3654 98.8155 70.3162 98.8432C70.2671 98.8712 70.2185 98.9004 70.1706 98.9308C70.1229 98.9612 70.0758 98.9929 70.0293 99.026C69.9828 99.059 69.9371 99.0934 69.8923 99.129C69.8472 99.1645 69.803 99.2011 69.7596 99.2388C69.7164 99.2769 69.674 99.3159 69.6323 99.3558C69.5908 99.396 69.5502 99.4373 69.5104 99.4799C69.4706 99.5222 69.4317 99.5655 69.3939 99.6099C69.356 99.6543 69.3191 99.6996 69.2831 99.7459C69.2474 99.7924 69.2126 99.8397 69.1788 99.8878C69.145 99.9362 69.1124 99.9853 69.081 100.035C69.0494 100.085 69.0188 100.136 68.9893 100.188C68.9601 100.239 68.9319 100.292 68.9048 100.345C68.878 100.398 68.8522 100.452 68.8275 100.507C68.8028 100.561 68.7795 100.617 68.7574 100.672C68.7351 100.728 68.7141 100.784 68.6945 100.841C68.6748 100.898 68.6563 100.956 68.6391 101.014C68.6218 101.072 68.606 101.13 68.5916 101.189C68.577 101.248 68.5637 101.307 68.5517 101.366C68.5397 101.425 68.5291 101.485 68.5197 101.546C68.5104 101.606 68.5023 101.666 68.4956 101.726C68.4891 101.787 68.4839 101.848 68.4798 101.908C68.4757 101.969 68.4731 102.03 68.4719 102.091C68.4707 102.152 68.4708 102.213 68.4722 102.273C68.4737 102.334 68.4764 102.395 68.4805 102.456C68.4846 102.517 68.49 102.578 68.4967 102.638C68.5034 102.699 68.5115 102.759 68.5211 102.819C68.5305 102.879 68.5413 102.939 68.5535 102.998C68.5655 103.058 68.5789 103.117 68.5938 103.175C68.6084 103.234 68.6243 103.293 68.6416 103.351C68.6589 103.408 68.6775 103.466 68.6974 103.523C68.7173 103.579 68.7383 103.636 68.7606 103.691C68.7829 103.747 68.8064 103.802 68.8311 103.857C68.8558 103.911 68.8818 103.965 68.9092 104.018C68.9362 104.071 68.9645 104.124 68.994 104.175C69.0232 104.227 69.0538 104.278 69.0857 104.328C69.1173 104.378 69.1501 104.427 69.1839 104.475C69.2177 104.523 69.2526 104.57 69.2885 104.616C69.3245 104.663 69.3615 104.708 69.3996 104.752C69.4375 104.797 69.4763 104.84 69.5161 104.882C69.5559 104.925 69.5967 104.966 69.6384 105.006C69.6801 105.046 69.7227 105.085 69.7661 105.122C69.8094 105.16 69.8537 105.197 69.8987 105.232C69.9438 105.267 69.9896 105.301 70.0361 105.334C70.0826 105.367 70.1298 105.399 70.1778 105.429C70.2257 105.46 70.2744 105.489 70.3238 105.517C70.3729 105.544 70.4227 105.571 70.473 105.596C70.5234 105.621 70.5743 105.645 70.6258 105.667C70.6774 105.689 70.7293 105.71 70.7815 105.73C70.8525 105.756 70.924 105.78 70.9962 105.802C71.0684 105.823 71.1411 105.841 71.2145 105.857C71.2881 105.873 71.3619 105.887 71.436 105.897C71.5103 105.908 71.5848 105.916 71.6593 105.921C71.7339 105.926 71.8085 105.929 71.8833 105.928C71.9581 105.928 72.0328 105.925 72.1074 105.92C72.1821 105.914 72.2566 105.905 72.3306 105.894C72.4047 105.884 72.4785 105.87 72.5518 105.854C72.6252 105.837 72.6979 105.818 72.7701 105.796C72.8422 105.774 72.9137 105.75 72.9844 105.723C73.0551 105.696 73.1249 105.667 73.1937 105.635C73.2627 105.603 73.3307 105.569 73.3976 105.532C73.4645 105.495 73.5301 105.456 73.5946 105.414C73.6591 105.372 73.7224 105.328 73.7845 105.282C73.8463 105.236 73.9067 105.187 73.9657 105.136C74.0247 105.086 74.0821 105.033 74.138 104.978C74.1938 104.923 74.248 104.866 74.3005 104.808C74.353 104.749 74.4036 104.688 74.4522 104.626C74.5012 104.563 74.5481 104.499 74.5932 104.434C74.638 104.367 74.6809 104.3 74.7219 104.231C74.7629 104.162 74.8018 104.092 74.8385 104.02C74.8754 103.948 74.91 103.875 74.9424 103.8C74.9747 103.726 75.0048 103.651 75.0326 103.574C75.0604 103.498 75.086 103.42 75.1092 103.342C75.1325 103.264 75.1533 103.185 75.1718 103.105C75.1903 103.025 75.2063 102.944 75.22 102.863C75.2336 102.782 75.2449 102.701 75.2538 102.619C75.2624 102.537 75.2688 102.455 75.2728 102.373C75.2767 102.29 75.278 102.208 75.2768 102.125C75.2758 102.043 75.2724 101.96 75.2664 101.878C75.2604 101.796 75.252 101.714 75.2412 101.633C75.2304 101.551 75.2171 101.47 75.2013 101.389C75.1855 101.309 75.1674 101.229 75.147 101.15C75.1264 101.07 75.1035 100.992 75.0783 100.914C75.0531 100.836 75.0257 100.76 74.9959 100.684C74.966 100.609 74.934 100.534 74.8999 100.461C74.8657 100.388 74.8292 100.316 74.7906 100.245C74.752 100.174 74.7114 100.105 74.6687 100.037C74.626 99.9696 74.5813 99.9035 74.5346 99.839C74.4879 99.7745 74.4393 99.7119 74.389 99.6511C74.3386 99.5901 74.2865 99.531 74.2325 99.4739C74.1786 99.4168 74.123 99.3617 74.0657 99.3086C74.0086 99.2555 73.9499 99.2045 73.8895 99.1556C73.8293 99.107 73.7677 99.0605 73.7047 99.0161C73.6414 98.9717 73.577 98.9296 73.5116 98.89C73.4459 98.8504 73.3791 98.8131 73.3113 98.7782C73.2437 98.7433 73.175 98.711 73.1052 98.6811C73.0355 98.6512 72.9649 98.624 72.8934 98.5994Z" fill="#FF0000"/>
<path d="M93.9127 56.386C93.169 56.589 92.5613 56.8483 92.0406 57.4976C91.5487 58.1108 91.3272 58.8165 91.4092 59.6335C91.5174 60.7094 92.1449 61.1764 92.8731 61.7877C93.6365 61.6069 94.4539 61.3845 94.9889 60.7011C95.4075 60.1663 95.5157 59.6727 95.4765 58.9885C95.4115 57.8413 94.6186 57.1198 93.9127 56.386Z" fill="white"/>
</svg>
