<svg width="130" height="146" viewBox="0 0 130 146" fill="none" xmlns="http://www.w3.org/2000/svg">
<path d="M124.841 102.754C125.99 100.792 126.391 97.4811 126.675 95.1681C127.651 87.2396 125.828 84.9097 121.608 78.9213C119.236 75.5558 119.903 72.7603 120.418 68.8979C122.169 55.7608 112.287 56.7071 109.228 50.0793C107.518 46.3756 108.997 41.2485 109.308 37.3477C109.959 29.1951 108.148 20.1113 103.467 13.5436C97.8829 5.70814 89.0926 1.63608 80.1675 0.358641C71.4235 -0.892579 61.2704 1.0906 54.2195 6.93061C48.4562 11.7038 45.2089 18.2931 44.2768 25.9619C43.6183 31.3787 44.7288 36.1793 44.938 41.5157C45.464 54.9193 42.2223 63.2338 50.9524 75.3067C50.5174 75.7262 50.0646 76.1659 49.7237 76.6797C47.7495 79.6541 47.6031 83.7722 48.0852 87.2481C40.267 92.4787 33.988 99.3289 31.0283 108.885C30.1511 111.719 29.9435 114.75 29.0446 117.584L28.9437 117.892L28.6934 117.875C28.7128 115.583 27.8182 114.226 27.4971 112.141C27.3349 111.084 27.7019 109.993 27.5615 108.924C27.0893 105.325 25.6083 101.354 23.8037 98.2972C25.0854 98.0604 26.4692 96.1111 27.2455 95.0666C31.4166 89.4596 32.7506 82.362 31.8944 75.3168C31.7923 74.4796 31.468 72.9675 30.7218 72.5248C29.5298 71.8169 4.55345 71.9818 1.38844 72.5053C0.753306 73.0491 0.368105 73.3016 0.224942 74.228C-0.491662 78.8625 0.522351 89.0832 3.00318 92.9862C3.80679 94.2505 5.27479 96.2168 6.72659 96.5212C5.95303 97.7982 4.37627 98.7666 3.38362 99.904C1.36154 102.217 0.870761 106.509 0.985845 109.528C1.18517 114.772 3.20132 119.626 5.73396 124.036C6.64435 125.622 7.76788 127.254 8.35991 129.009C8.92228 130.679 9.01482 132.671 9.24341 134.43C9.6025 137.187 9.75557 142.9 11.6815 144.777C20.0127 145.285 28.5273 144.925 36.877 144.925L82.8235 144.887C88.3994 144.879 124.898 145.479 127.648 144.549C128.093 144.401 128.333 144.189 128.524 143.728C129.781 140.68 128.36 116.522 127.599 112.222C127.034 109.021 125.838 105.828 124.841 102.754Z" fill="black"/>
<path d="M28.9454 117.892L28.6951 117.875C28.6737 117.939 28.6539 118.006 28.631 118.07C28.1153 119.55 27.3303 121.537 25.9141 122.223C26.0833 123.838 26.1826 125.479 26.7588 126.997C28.0714 124.709 28.6646 120.578 28.9454 117.892Z" fill="white"/>
<path d="M104.201 89.3793C102.688 89.7514 100.121 93.2822 98.756 94.5931C92.5798 100.521 84.4512 105.934 76.0422 106.775C69.5658 107.427 61.0722 105.646 56.0492 101.122C52.5184 97.942 51.625 94.1448 51.2778 89.4469C48.8626 91.0326 46.4015 92.6141 44.1889 94.5127C36.0333 101.524 34.2541 110.974 31.9271 121.174C31.129 124.671 30.0256 128.256 29.6444 131.834C31.0381 134.54 32.7358 138.819 34.7136 140.976C34.8651 141.06 35.0893 141.2 35.2641 141.263C37.1403 141.91 42.516 141.737 44.2881 140.917C43.7305 140.401 43.2555 139.25 42.8731 138.557C40.8396 134.874 39.0168 131.394 38.7242 127.026C38.4216 122.518 40.1127 114.285 43.2338 110.94C43.8468 110.281 44.0469 110.179 44.8964 110.179C45.1329 110.458 45.3935 110.67 45.4924 111.038C46.0883 113.262 45 115.237 44.0034 117.148L43.8978 117.347C43.4418 119.571 42.6639 121.672 42.3068 123.943C41.4023 129.686 44.005 132.81 46.3367 137.521C46.9169 138.692 47.2645 139.986 47.8194 141.174C51.9493 142.02 62.9736 141.416 67.8586 141.42L88.3743 141.424C91.9036 141.424 95.5467 141.618 99.0621 141.356C99.5711 141.322 99.9642 141.166 100.396 140.887C100.427 136.933 99.0396 121.135 100.593 118.793C101.236 118.391 101.274 118.345 102.06 118.421C104.021 120.455 103.648 136.929 103.807 140.921C104.127 141.115 104.361 141.246 104.721 141.331C106.716 141.804 121.622 141.606 124.168 141.352C124.676 141.301 125.078 141.124 125.508 140.836C124.514 130.151 126.276 119.013 123.06 108.623C120.077 98.9865 112.26 93.7051 104.201 89.3793Z" fill="#FF0000"/>
<path d="M68.8455 107.909C67.2367 108.568 65.4911 108.492 63.9796 109.566C62.9237 110.319 62.3747 111.414 62.1295 112.734C61.7969 114.527 62.0987 116.641 63.1115 118.129C63.7249 119.034 64.5313 119.61 65.552 119.749C66.0179 120.13 66.3631 120.392 66.952 120.485C68.278 120.692 69.5261 120.476 70.607 119.588C71.7752 118.624 72.3945 116.971 72.4855 115.432C72.6757 112.213 70.741 110.078 68.8455 107.909Z" fill="black"/>
<path d="M67.8315 112.133C67.798 112.127 67.7645 112.122 67.7311 112.116C67.6973 112.11 67.6636 112.106 67.6298 112.103C67.5961 112.098 67.5622 112.095 67.5282 112.095C67.4944 112.092 67.4605 112.091 67.4265 112.091C67.3925 112.091 67.3585 112.092 67.3245 112.095C67.2905 112.095 67.2566 112.098 67.2229 112.103C67.1891 112.106 67.1554 112.11 67.1216 112.116C67.0881 112.119 67.0547 112.124 67.0212 112.133C66.988 112.139 66.9547 112.146 66.9215 112.154C66.8886 112.162 66.8557 112.172 66.823 112.184C66.7906 112.195 66.7583 112.206 66.7261 112.217C66.694 112.229 66.6621 112.241 66.6304 112.256C66.5988 112.267 66.5676 112.281 66.5367 112.298C66.5059 112.312 66.4753 112.327 66.445 112.344C66.4146 112.361 66.3847 112.378 66.3552 112.395C66.3257 112.412 66.2965 112.43 66.2678 112.45C66.2393 112.47 66.2111 112.491 66.1832 112.514C66.1555 112.533 66.1282 112.554 66.1013 112.577C66.0744 112.599 66.048 112.622 66.0222 112.645C65.9964 112.67 65.9712 112.694 65.9467 112.716C65.9219 112.742 65.8976 112.767 65.8739 112.793C65.8504 112.821 65.8274 112.848 65.8047 112.873C65.7823 112.901 65.7605 112.929 65.7394 112.957C65.7181 112.986 65.6975 113.015 65.6777 113.046C65.6577 113.075 65.6383 113.104 65.6196 113.135C65.6012 113.166 65.5832 113.197 65.5658 113.228C65.5487 113.259 65.5321 113.29 65.516 113.321C65.5002 113.355 65.4852 113.387 65.4709 113.418C65.4564 113.452 65.4427 113.486 65.4298 113.52C65.4166 113.554 65.4043 113.588 65.393 113.621C65.3814 113.655 65.3707 113.689 65.361 113.723C65.3509 113.76 65.3417 113.795 65.3333 113.829C65.3248 113.862 65.3172 113.898 65.3104 113.934C65.3035 113.971 65.2974 114.006 65.2922 114.04C65.2869 114.077 65.2824 114.113 65.2787 114.15C65.275 114.187 65.2721 114.223 65.27 114.26C65.2679 114.294 65.2666 114.329 65.2661 114.366C65.2655 114.402 65.2658 114.439 65.2668 114.476C65.2679 114.512 65.2697 114.549 65.2724 114.586C65.2753 114.622 65.2788 114.657 65.2831 114.691C65.2873 114.728 65.2923 114.765 65.2981 114.801C65.3042 114.835 65.3109 114.87 65.3182 114.907C65.3256 114.944 65.3338 114.979 65.3428 115.013C65.3517 115.046 65.3615 115.082 65.372 115.118C65.3826 115.152 65.3939 115.186 65.4061 115.22C65.4179 115.254 65.4306 115.288 65.444 115.321C65.4577 115.355 65.472 115.388 65.4867 115.419C65.5018 115.452 65.5175 115.485 65.5338 115.516C65.5504 115.547 65.5675 115.578 65.5852 115.609C65.6029 115.64 65.6213 115.671 65.6406 115.702C65.6595 115.733 65.6793 115.763 65.6999 115.791C65.7202 115.819 65.7413 115.847 65.7632 115.875C65.7848 115.904 65.8071 115.93 65.83 115.956C65.8527 115.984 65.8761 116.011 65.9004 116.036C65.9244 116.061 65.9489 116.087 65.974 116.112C65.999 116.135 66.0247 116.159 66.0511 116.184C66.0772 116.207 66.1038 116.229 66.1309 116.252C66.1581 116.271 66.1858 116.291 66.214 116.311C66.2422 116.333 66.2708 116.353 66.2998 116.37C66.3286 116.39 66.3578 116.408 66.3876 116.425C66.4174 116.442 66.4476 116.459 66.4782 116.476C66.5088 116.493 66.5396 116.508 66.5707 116.522C66.6018 116.536 66.6333 116.549 66.6652 116.56C66.6969 116.574 66.7289 116.587 66.7614 116.598C66.808 116.615 66.8551 116.629 66.9025 116.641C66.9503 116.655 66.9981 116.666 67.0461 116.675C67.0943 116.683 67.1428 116.69 67.1916 116.696C67.2404 116.701 67.2892 116.706 67.3379 116.708C67.387 116.711 67.436 116.711 67.4851 116.708C67.5341 116.708 67.583 116.706 67.6318 116.7C67.6806 116.694 67.7291 116.687 67.7773 116.679C67.8256 116.67 67.8736 116.66 67.9213 116.649C67.969 116.635 68.0162 116.621 68.0629 116.607C68.1098 116.59 68.1561 116.573 68.2017 116.556C68.2475 116.536 68.2926 116.515 68.3369 116.493C68.3812 116.47 68.4248 116.446 68.4678 116.421C68.5108 116.395 68.5529 116.369 68.594 116.34C68.6351 116.312 68.6753 116.283 68.7146 116.252C68.7539 116.221 68.7921 116.188 68.8293 116.154C68.8665 116.121 68.9026 116.085 68.9377 116.049C68.9725 116.012 69.0062 115.974 69.0389 115.935C69.0713 115.895 69.1026 115.856 69.1326 115.816C69.1624 115.774 69.191 115.732 69.2184 115.689C69.2456 115.644 69.2715 115.599 69.296 115.554C69.3202 115.509 69.3431 115.462 69.3648 115.414C69.3861 115.369 69.406 115.321 69.4245 115.271C69.4429 115.223 69.46 115.175 69.4755 115.127C69.4908 115.076 69.5045 115.025 69.5166 114.975C69.5288 114.924 69.5393 114.873 69.5483 114.822C69.557 114.772 69.5642 114.719 69.57 114.666C69.5756 114.615 69.5795 114.563 69.5819 114.509C69.5843 114.459 69.5849 114.407 69.5839 114.353C69.5828 114.302 69.58 114.25 69.5756 114.197C69.5713 114.146 69.5654 114.094 69.5578 114.04C69.5501 113.989 69.5409 113.939 69.5301 113.888C69.5193 113.837 69.5067 113.786 69.4925 113.736C69.4783 113.685 69.4626 113.635 69.4455 113.588C69.4281 113.537 69.4092 113.488 69.3889 113.44C69.3686 113.394 69.3468 113.348 69.3236 113.3C69.3002 113.255 69.2754 113.21 69.2493 113.165C69.2229 113.12 69.1953 113.076 69.1663 113.034C69.1373 112.991 69.1071 112.95 69.0757 112.911C69.044 112.872 69.0112 112.833 68.9772 112.797C68.9429 112.757 68.9076 112.721 68.8712 112.687C68.8348 112.65 68.7974 112.616 68.7589 112.585C68.7204 112.552 68.6809 112.521 68.6403 112.492C68.5999 112.464 68.5585 112.436 68.5161 112.408C68.4739 112.382 68.4308 112.357 68.3868 112.332C68.343 112.309 68.2984 112.288 68.2531 112.268C68.2077 112.248 68.1619 112.23 68.1155 112.213C68.0691 112.196 68.0221 112.181 67.9747 112.167C67.9275 112.155 67.8798 112.144 67.8315 112.133Z" fill="white"/>
<path d="M61.7628 20.8572C57.7079 25.967 53.9671 30.4306 47.8835 32.7686C47.9286 34.7695 48.0848 36.7759 48.1983 38.7739C50.7618 38.6906 55.99 37.888 58.1212 39.5105C60.7049 41.4776 55.9694 50.6438 56.7999 54.3379C57.2286 56.2449 62.562 54.7941 64.2191 55.8102C64.7174 56.6289 64.8827 56.8424 64.9293 57.8023C64.7739 58.0797 64.6315 58.3567 64.3978 58.5706C62.7776 60.0519 58.1406 59.5656 56.1375 59.2244C55.1923 59.0637 54.0007 58.6619 53.4597 57.7448C52.3532 55.869 53.6266 52.5893 54.0877 50.6053C55.0302 46.5485 53.8746 48.2158 52.1365 46.2292C51.6868 45.7155 51.6413 44.0845 51.1944 43.2942C50.3224 43.216 49.5271 43.0942 48.6729 43.3606C48.6234 43.5513 48.5412 43.8473 48.5064 44.0553C48.1908 45.9307 48.2841 48.091 48.2394 49.9994C48.0634 57.4555 48.4894 64.4838 52.5129 70.9031C55.1334 75.0847 59.2819 78.2819 63.9387 79.2561C72.7673 81.1036 78.1968 74.8196 84.8187 70.1259C85.5804 70.1284 85.6009 70.142 86.2084 70.6359C86.3373 71.0067 86.5968 71.5061 86.573 71.8972C86.4619 73.7104 84.7677 74.9549 83.5971 76.1008C77.309 81.3966 71.5682 83.6919 63.5994 83.7553C63.5875 84.2317 63.582 84.7081 63.5828 85.1845C63.5911 87.21 64.1499 88.7619 65.5198 90.1657C67.4569 92.1489 70.4415 92.3434 72.9769 92.2631C80.9865 91.9967 86.8052 87.7174 92.0812 81.6854C91.435 77.7208 91.038 73.6863 90.5116 69.6984C90.1686 69.4202 89.8333 69.1315 89.5059 68.8324C88.1348 67.5672 87.517 65.8872 87.3996 63.9937C87.2521 61.6122 88.0604 58.9398 89.5838 57.176C90.4681 56.1523 91.6636 55.447 92.9912 55.4491C94.4735 55.4512 95.3182 56.5489 96.2966 57.5799C96.7997 56.8044 97.2715 56.0149 97.6934 55.1853C99.0191 52.5796 100.079 48.8788 99.1551 45.9328C98.9143 45.1641 98.4512 44.4976 97.7338 44.183C93.9091 42.5043 93.4784 47.5659 90.771 48.5173C90.0528 48.7693 89.2571 48.5372 88.6157 48.1617C84.18 45.5666 82.5249 39.6387 81.081 34.8731C73.164 31.6307 67.1523 28.1041 61.7628 20.8572Z" fill="white"/>
<path d="M72.0508 38.8564C70.3463 38.8373 68.6311 38.7913 66.9278 38.8517C65.5895 38.8995 64.2101 39.0255 63.2483 40.125C63.0853 40.8807 63.096 40.9585 63.3475 41.6866C64.2393 42.551 65.4368 42.6999 66.579 42.9845C67.2022 43.8881 67.0219 45.8883 67.4035 47.0766C67.7666 47.288 68.1304 47.4787 68.5243 47.6174C69.3267 47.9003 70.2415 48.0344 71.0032 47.6102C71.772 46.5074 71.6055 44.9271 71.6383 43.5959C72.6005 42.518 74.0033 43.2804 75.1292 42.6461C75.6433 42.356 75.8889 41.685 75.964 41.087C76.0352 40.5204 75.8058 40.0565 75.4317 39.6776C74.5688 38.8056 73.1597 38.8813 72.0508 38.8564Z" fill="black"/>
<path d="M68.215 63.8871C64.961 64.0913 61.4369 63.7272 58.2407 64.3387C57.1507 64.5472 56.5421 64.8415 55.9121 65.8107C55.9275 66.1283 55.9303 66.4624 56.0307 66.7677C56.304 67.5953 56.9233 67.9589 57.6324 68.2816C61.2194 68.3936 66.1525 69.2961 69.3963 67.3479C70.103 66.9237 70.3593 66.5178 70.6025 65.7088C70.1145 64.6174 69.2468 64.288 68.215 63.8871Z" fill="black"/>
<path d="M77.9679 3.95172C70.7504 3.05611 62.1361 5.17208 56.3622 9.84122C50.2528 14.7823 48.4222 21.0455 47.4256 28.788C52.6289 26.5583 55.3426 23.2955 58.8651 18.8218C59.7992 17.6357 60.7761 16.261 62.0377 15.4778C62.2912 15.4787 62.5502 15.4233 62.7978 15.4804C62.8903 15.5019 67.1796 21.7733 67.9579 22.564C72.8587 27.5452 78.2119 28.9559 83.9479 32.2105C85.9775 36.6108 86.2017 40.5708 89.7325 44.247C91.4481 42.2321 93.0577 40.55 95.6587 40.038C95.8383 40.0013 96.019 39.9745 96.2009 39.9576C96.3829 39.941 96.5652 39.9342 96.7479 39.9373C96.9306 39.9404 97.1126 39.9534 97.294 39.9762C97.4754 39.9993 97.6554 40.0322 97.8339 40.0747C98.0121 40.1173 98.1878 40.1696 98.361 40.2316C98.5345 40.2934 98.7044 40.3646 98.8708 40.4452C99.0372 40.5255 99.1994 40.6147 99.3576 40.7128C99.5156 40.8112 99.6684 40.9178 99.816 41.0325C101.671 42.482 102.657 45.0729 102.959 47.4383C103.635 52.7383 101.204 56.8823 98.3769 60.9337C98.8439 62.4394 99.0258 63.9477 98.63 65.4937C97.9735 68.0574 96.252 69.2748 94.2232 70.4707L94.1413 71.3836C94.5289 74.1994 94.7503 77.0236 95.1944 79.8364C101.89 83.7301 109.159 87.4215 115.373 92.1448C117.685 93.8996 120.107 97.4178 122.285 98.7371C122.947 97.6165 123.252 96.0181 123.49 94.7242C125.212 85.358 117.931 83.1803 116.456 76.6291C115.802 73.7182 116.645 70.7125 116.929 67.805C117.746 59.4283 110.965 58.602 106.994 53.2851C103.217 48.2286 105.387 42.8787 105.951 37.1562C106.706 29.5119 104.521 20.8975 99.9441 14.9522C94.4703 7.84112 86.2602 4.86423 77.9679 3.95172Z" fill="#FF0000"/>
<path d="M19.9858 94.2632C15.2729 95.1385 12.2096 96.8933 8.39439 99.9717C6.24933 101.701 4.77302 103.435 4.42065 106.391C3.74913 112.027 6.85242 120.535 10.1732 124.975C11.7073 127.026 13.8413 128.206 16.2826 128.447C18.4209 128.658 21.0979 127.969 22.7526 126.48C20.3979 119.791 24.9246 119.774 24.6568 115.846C22.3555 114.082 18.2256 118.861 15.7649 119.288L15.2812 118.772C15.2073 117.41 15.9417 116.319 16.6369 115.266C16.9794 115.139 16.839 115.216 17.1538 114.996C18.9793 113.719 21.4693 112.945 23.0393 111.414C23.8077 110.67 23.9536 110.213 24.0272 109.169C23.7227 108.721 23.6258 108.458 23.1251 108.26C19.4954 106.797 16.5412 111.71 13.6301 112.907C12.9827 113.169 12.8819 113.165 12.257 112.877C12.168 112.645 12.1202 112.556 12.1044 112.272C11.8358 107.359 19.8917 106.758 22.2535 104.018C22.5742 103.646 22.5169 103.574 22.5042 103.075C22.2978 102.906 22.206 102.817 21.9893 102.695C16.9521 99.8321 12.6719 106.15 8.75625 107.27C8.09066 107.46 8.01197 107.38 7.44763 106.991C7.36656 106.496 7.30447 106.014 7.48244 105.532C8.48853 102.826 13.8721 99.57 16.3846 98.7962C17.6375 98.4114 19.2842 98.4833 20.4145 97.8659C20.984 97.5572 21.001 97.2908 21.1952 96.6904C21.0552 95.629 20.5877 95.0751 19.9858 94.2632Z" fill="white"/>
<path d="M94.9256 83.7638C93.5106 85.0705 92.2945 86.7408 90.9143 88.1194C86.2844 92.7456 80.3388 95.6888 73.9653 96.0187C70.1359 96.2174 65.8802 95.5197 62.9675 92.6314C60.5717 90.2507 60.0469 87.595 59.9611 84.2332C58.8502 84.9647 57.5008 85.6456 56.4916 86.5125C55.4847 87.3794 54.5857 88.9398 54.4703 90.3183C54.3378 91.8999 55.0643 94.0565 56.0364 95.2363C56.4793 96.5684 57.4549 97.7228 58.4673 98.6066C63.0699 102.615 70.6433 103.571 76.4026 102.895C85.7778 101.795 95.0043 94.7712 100.811 87.0834C98.7613 86.0938 96.8571 84.9901 94.9256 83.7638Z" fill="white"/>
<path d="M28.3063 75.9092C20.0216 76.0964 11.7361 76.1779 3.44978 76.1537L3.62893 82.5543L28.523 82.471L28.3063 75.9092Z" fill="white"/>
<path d="M24.713 129.774C22.8828 130.624 21.1435 131.369 19.159 131.72C16.9411 132.113 14.0791 131.999 12.1958 130.552C12.3552 133.927 12.774 137.627 13.5954 140.883C13.8414 141.052 14.0795 141.175 14.3614 141.264C15.5609 141.628 16.6971 141.484 17.7874 140.858C17.8369 140.887 17.8867 140.913 17.9354 140.938C18.1473 141.057 18.0769 141.031 18.3269 141.145C19.8906 141.852 29.4366 141.687 31.155 140.951C29.734 140.076 25.434 131.644 24.713 129.774Z" fill="#FF0000"/>
<path d="M93.3845 58.84C92.6746 58.9094 92.3662 59.0155 91.8497 59.5758C90.9523 60.548 90.7154 61.9422 90.7835 63.2531C90.8705 64.9209 91.4546 65.5654 92.5568 66.6336C93.3881 66.4099 94.1249 66.1397 94.7481 65.4787C95.3441 64.8469 95.6739 64.0333 95.6557 63.1339C95.6178 61.2542 94.5575 60.0613 93.3845 58.84Z" fill="white"/>
</svg>
