<svg width="100" height="100" viewBox="0 0 100 100" fill="none" xmlns="http://www.w3.org/2000/svg">
<path d="M17.415 46.4296C25.4167 36.6798 36.0674 28.1614 46.4403 20.6648C47.4588 21.3432 48.6821 21.7386 49.9976 21.7386C51.3142 21.7386 52.5383 21.3426 53.5573 20.6632C63.931 28.1602 74.5825 36.6791 82.5848 46.4296C84.5421 48.8144 86.1456 51.4227 87.3326 54.1369C85.8007 55.3113 84.813 57.16 84.813 59.2393C84.813 62.2602 86.8977 64.7942 89.7069 65.4811C89.5965 70.6724 87.7439 75.6785 83.7431 79.7397C75.964 87.6362 64.9602 87.443 56.2301 82.4292C56.3575 81.9245 56.4251 81.3961 56.4251 80.8519C56.4251 77.3033 53.5485 74.4265 49.9999 74.4265C46.4513 74.4265 43.5747 77.3033 43.5747 80.8519C43.5747 81.3961 43.6423 81.9246 43.7697 82.4293C35.0397 87.443 24.0357 87.6361 16.2567 79.7397C12.2559 75.6785 10.4033 70.6724 10.2929 65.4811C13.1021 64.7942 15.1868 62.2602 15.1868 59.2393C15.1868 57.1599 14.1991 55.3113 12.6673 54.1369C13.8542 51.4227 15.4577 48.8144 17.415 46.4296Z" fill="#2C2C2C"/>
<path d="M47.0794 80.8519C47.0794 80.608 47.1093 80.3711 47.1656 80.1447C47.2019 79.9987 47.2491 79.8571 47.3065 79.7207C47.6504 78.9026 48.3563 78.2741 49.2237 78.0355C49.4709 77.9676 49.7312 77.9312 49.9999 77.9312C51.6129 77.9312 52.9205 79.2388 52.9205 80.8519C52.9205 82.4649 51.6129 83.7725 49.9999 83.7725C48.387 83.7725 47.0794 82.4649 47.0794 80.8519Z" fill="#2C2C2C"/>
<path d="M49.8462 18.23C48.3037 18.1511 47.0771 16.8754 47.0771 15.3132C47.0771 13.7002 48.3847 12.3926 49.9977 12.3926C51.6106 12.3926 52.9182 13.7002 52.9182 15.3132C52.9182 16.874 51.6939 18.1488 50.1533 18.2297" fill="#2C2C2C"/>
<path d="M10.5306 61.5634C10.8574 61.3143 11.13 60.9978 11.3279 60.6347C11.5538 60.2201 11.6822 59.7447 11.6822 59.2393C11.6822 57.6263 10.3746 56.3187 8.76163 56.3187C7.14864 56.3187 5.84106 57.6263 5.84106 59.2393C5.84106 60.8523 7.14864 62.1599 8.76163 62.1599C9.42658 62.1599 10.0396 61.9377 10.5306 61.5634Z" fill="#2C2C2C"/>
<path d="M88.6727 57.8425C88.4605 58.2315 88.3341 58.6741 88.3192 59.1448C88.3182 59.1762 88.3177 59.2077 88.3177 59.2393C88.3177 60.1873 88.7693 61.0299 89.4692 61.5634C89.9602 61.9377 90.5733 62.1599 91.2383 62.1599C92.8512 62.1599 94.1588 60.8523 94.1588 59.2393C94.1588 57.6263 92.8512 56.3187 91.2383 56.3187C90.1312 56.3187 89.168 56.9346 88.6727 57.8425Z" fill="#2C2C2C"/>
<path fill-rule="evenodd" clip-rule="evenodd" d="M94.3913 64.839C94.4521 71.3156 92.2806 77.7357 87.0689 83.026C77.2525 92.9905 63.7401 92.266 53.5124 86.2329C52.5029 86.8932 51.2963 87.2771 50 87.2771C48.7037 87.2771 47.4971 86.8932 46.4876 86.2329C36.2599 92.2661 22.7473 92.9903 12.9311 83.026C7.71938 77.7357 5.54785 71.3156 5.6087 64.839C3.65534 63.7367 2.33643 61.642 2.33643 59.2391C2.33643 55.8927 4.89469 53.1437 8.16217 52.8414C9.56458 49.4664 11.4909 46.2788 13.8058 43.458C22.2013 33.2285 33.2694 24.4091 43.7539 16.8355C43.6353 16.3475 43.5725 15.8376 43.5725 15.3131C43.5725 11.7644 46.4491 8.8877 49.9977 8.8877C53.5463 8.8877 56.4229 11.7644 56.4229 15.3131C56.4229 15.8366 56.3603 16.3455 56.2422 16.8327C66.7278 24.4069 77.7976 33.2273 86.1941 43.458C88.5091 46.2788 90.4354 49.4664 91.8378 52.8414C95.1053 53.1437 97.6635 55.8927 97.6635 59.2391C97.6635 61.642 96.3446 63.7367 94.3913 64.839ZM17.4151 46.4294C25.4168 36.6796 36.0674 28.1612 46.4404 20.6646C47.4589 21.343 48.6821 21.7384 49.9977 21.7384C51.3143 21.7384 52.5384 21.3424 53.5574 20.663C63.931 28.16 74.5826 36.6789 82.5849 46.4294C82.8296 46.7275 83.0687 47.0291 83.3022 47.334C84.9365 49.468 86.294 51.7618 87.3326 54.1367C87.1411 54.2835 86.9582 54.4408 86.7846 54.6078C85.5693 55.7769 84.8131 57.4197 84.8131 59.2391C84.8131 59.4279 84.8212 59.6148 84.8372 59.7995C85.0765 62.5696 87.0733 64.837 89.707 65.4809C89.7001 65.8053 89.6864 66.1291 89.6658 66.4519C89.3566 71.2943 87.4939 75.9321 83.7432 79.7395C82.7708 80.7266 81.748 81.5872 80.6856 82.3279C75.0843 86.2327 68.381 86.8015 62.1495 84.9701C60.1073 84.3699 58.1157 83.5119 56.2302 82.429C56.2302 82.429 56.2302 82.4291 56.2302 82.429C56.2481 82.3581 56.2648 82.2866 56.2804 82.2147C56.3752 81.7754 56.4252 81.3194 56.4252 80.8517C56.4252 77.3031 53.5485 74.4264 49.9999 74.4264C49.1128 74.4264 48.2677 74.6061 47.499 74.9313C45.6011 75.734 44.1691 77.4228 43.7217 79.4791C43.6254 79.9214 43.5747 80.3806 43.5747 80.8517C43.5747 81.3959 43.6424 81.9244 43.7698 82.4291C43.7698 82.4291 43.7698 82.4291 43.7698 82.4291C35.0397 87.4428 24.0358 87.6359 16.2568 79.7395C12.2559 75.6784 10.4033 70.6722 10.2929 65.4809C10.9952 65.3092 11.6523 65.022 12.2428 64.6407C13.1058 64.0833 13.8267 63.3247 14.3392 62.4312C14.8785 61.4908 15.1869 60.401 15.1869 59.2392C15.1869 57.1598 14.1991 55.3111 12.6673 54.1368C12.6673 54.1368 12.6673 54.1367 12.6673 54.1368C13.8543 51.4225 15.4578 48.8143 17.4151 46.4294ZM47.0794 80.8517C47.0794 80.6078 47.1093 80.3709 47.1656 80.1445C47.2019 79.9985 47.2492 79.8569 47.3065 79.7206C47.6505 78.9024 48.3564 78.2739 49.2237 78.0354C49.4709 77.9674 49.7312 77.9311 50 77.9311C51.613 77.9311 52.9205 79.2387 52.9205 80.8517C52.9205 82.4647 51.613 83.7723 50 83.7723C48.387 83.7723 47.0794 82.4647 47.0794 80.8517ZM47.0771 15.3131C47.0771 16.8753 48.3037 18.151 49.8463 18.2298L50.1533 18.2296C51.694 18.1487 52.9183 16.8739 52.9183 15.3131C52.9183 13.7 51.6107 12.3924 49.9977 12.3924C48.3847 12.3924 47.0771 13.7 47.0771 15.3131ZM10.5306 61.5633C10.8574 61.3142 11.1301 60.9977 11.3279 60.6345C11.5538 60.2199 11.6822 59.7445 11.6822 59.2391C11.6822 57.6261 10.3746 56.3185 8.76166 56.3185C7.14868 56.3185 5.8411 57.6261 5.8411 59.2391C5.8411 60.8521 7.14868 62.1597 8.76166 62.1597C9.42661 62.1597 10.0397 61.9375 10.5306 61.5633ZM88.3192 59.1447C88.3342 58.674 88.4605 58.2314 88.6727 57.8424C89.1681 56.9345 90.1312 56.3185 91.2383 56.3185C92.8513 56.3185 94.1589 57.6261 94.1589 59.2391C94.1589 60.8521 92.8513 62.1597 91.2383 62.1597C90.5733 62.1597 89.9602 61.9375 89.4693 61.5633C88.7694 61.0297 88.3177 60.1872 88.3177 59.2392C88.3177 59.2075 88.3182 59.176 88.3192 59.1447Z" fill="white"/>
<path fill-rule="evenodd" clip-rule="evenodd" d="M88.0002 41.9761C79.7149 31.8808 68.9418 23.1876 58.748 15.7641C58.7556 15.6147 58.7594 15.4644 58.7594 15.3134C58.7594 10.4743 54.8367 6.55151 49.9977 6.55151C45.1588 6.55151 41.236 10.4743 41.236 15.3134C41.236 15.4655 41.2399 15.6168 41.2476 15.7673C31.0552 23.1901 20.2839 31.8822 11.9998 41.9761C9.81277 44.6409 7.95158 47.6148 6.51672 50.7683C2.76467 51.7604 0 55.176 0 59.2394C0 62.0093 1.28605 64.4767 3.28688 66.0802C3.5021 72.6968 5.92167 79.2404 11.2667 84.6661C21.6633 95.2195 35.7751 94.712 46.5235 88.8964C47.5906 89.358 48.7672 89.6139 50 89.6139C51.2328 89.6139 52.4094 89.358 53.4766 88.8963C64.2249 94.7119 78.3366 95.2197 88.7333 84.6661C94.0783 79.2404 96.4979 72.6968 96.7131 66.0802C98.714 64.4767 100 62.0093 100 59.2394C100 55.176 97.2353 51.7604 93.4833 50.7683C92.0484 47.6148 90.1872 44.6409 88.0002 41.9761ZM91.8378 52.8417C91.7164 52.5494 91.591 52.2586 91.4618 51.9692C90.0989 48.9174 88.3086 46.0348 86.1941 43.4584C77.7976 33.2276 66.7278 24.4072 56.2422 16.833C56.3603 16.3458 56.423 15.8369 56.423 15.3134C56.423 11.7647 53.5463 8.88801 49.9977 8.88801C46.4492 8.88801 43.5725 11.7647 43.5725 15.3134C43.5725 15.8379 43.6353 16.3478 43.7539 16.8358C33.2695 24.4094 22.2013 33.2288 13.8059 43.4584C11.6914 46.0348 9.90115 48.9174 8.53823 51.9692C8.40902 52.2586 8.28364 52.5494 8.16219 52.8417C7.97408 52.8591 7.78833 52.8846 7.60527 52.9179C4.60864 53.4625 2.33645 56.0856 2.33645 59.2394C2.33645 61.4221 3.42478 63.3507 5.08837 64.5119C5.25614 64.629 5.42977 64.7383 5.60872 64.8393C5.60517 65.2171 5.60922 65.5947 5.62102 65.972C5.81158 72.0611 8.02344 78.0446 12.9311 83.0263C22.7473 92.9906 36.2599 92.2664 46.4876 86.2332C47.4971 86.8935 48.7037 87.2774 50 87.2774C51.2963 87.2774 52.5029 86.8935 53.5124 86.2332C63.7401 92.2663 77.2526 92.9908 87.0689 83.0263C91.9766 78.0446 94.1884 72.0612 94.379 65.972C94.3908 65.5948 94.3948 65.2171 94.3913 64.8393C94.5702 64.7383 94.7439 64.629 94.9116 64.5119C96.5752 63.3507 97.6636 61.4221 97.6636 59.2394C97.6636 56.0856 95.3913 53.4625 92.3947 52.9179C92.2117 52.8846 92.0259 52.8591 91.8378 52.8417Z" fill="#2C2C2C"/>
</svg>
