<svg width="45" height="50" viewBox="0 0 45 50" fill="none" xmlns="http://www.w3.org/2000/svg">
<path d="M18.353 49C17.8588 49 17.4582 48.6076 17.4582 48.1235C17.4582 47.0926 19.9923 40.318 20.6043 35.7596C20.6779 35.2115 19.9958 34.993 19.6876 35.4389C18.2105 37.5759 16.7215 39.8613 12.6706 39.9157C5.12344 40.0172 0.775749 32.7041 3.14971 26.0496C4.31365 22.7867 20.3245 1.00002 22.5 1C24.6754 0.999985 40.6864 22.7867 41.8503 26.0496C44.2243 32.7041 39.8766 40.0172 32.3294 39.9157C28.2785 39.8613 26.7895 37.5759 25.3124 35.4389C25.0042 34.993 24.3221 35.2115 24.3957 35.7596C25.0077 40.318 27.5418 47.0926 27.5418 48.1235C27.5418 48.6076 27.1412 49 26.647 49H18.353Z" fill="#211C1D"/>
</svg>
